<svg width="32" height="30" viewBox="0 0 32 30" fill="none" xmlns="http://www.w3.org/2000/svg">
<path d="M15.9477 5.6249C14.2981 5.6249 12.9575 4.36399 12.9575 2.81245C12.9575 1.26092 14.2981 0 15.9477 0C17.5973 0 18.9379 1.26092 18.9379 2.81245C18.9379 4.36399 17.5973 5.6249 15.9477 5.6249ZM15.9477 0.937484C14.8463 0.937484 13.9542 1.77653 13.9542 2.81245C13.9542 3.84837 14.8463 4.68742 15.9477 4.68742C17.0491 4.68742 17.9412 3.84837 17.9412 2.81245C17.9412 1.77653 17.0491 0.937484 15.9477 0.937484Z" fill="#363F40"/>
<path d="M2.99018 5.6249C1.3406 5.6249 0 4.36399 0 2.81245C0 1.26092 1.3406 0 2.99018 0C4.63977 0 5.98037 1.26092 5.98037 2.81245C5.98037 4.36399 4.63977 5.6249 2.99018 5.6249ZM2.99018 0.937484C1.8888 0.937484 0.996728 1.77653 0.996728 2.81245C0.996728 3.84837 1.8888 4.68742 2.99018 4.68742C4.09157 4.68742 4.98364 3.84837 4.98364 2.81245C4.98364 1.77653 4.09157 0.937484 2.99018 0.937484Z" fill="#363F40"/>
<path d="M21.928 13.5936H20.9313V9.84352C20.9313 8.54974 19.815 7.49972 18.4395 7.49972H13.4558C12.0803 7.49972 10.964 8.54974 10.964 9.84352V13.5936H9.96729V9.84352C9.96729 8.03411 11.5321 6.56219 13.4558 6.56219H18.4395C20.3632 6.56219 21.928 8.03411 21.928 9.84352V13.5936Z" fill="#363F40"/>
<path d="M25.915 18.2813H5.98047V14.5309H25.915V18.2813ZM6.9772 17.3437H24.9183V15.4685H6.9772V17.3437Z" fill="#363F40"/>
<path d="M10.964 30L10.4656 29.5313C10.4656 29.6203 10.4357 29.7141 10.3809 29.7891C10.2912 29.9203 10.1317 30 9.96728 30L10.4656 29.5313L9.96229 29.0625L9.96728 29.5313L9.50878 29.7094L6.14483 22.0312H2.99018C1.3406 22.0312 0 20.7702 0 19.2186V8.43722C0 7.40127 0.892071 6.56219 1.99346 6.56219H2.99018C5.18797 6.56219 6.97709 8.24503 6.97709 10.3122V13.5935H5.98037V10.3122C5.98037 8.76066 4.63977 7.49971 2.99018 7.49971H1.99346C1.44526 7.49971 0.996728 7.92159 0.996728 8.43722V19.2186C0.996728 20.2546 1.8888 21.0936 2.99018 21.0936H6.47873C6.68306 21.0936 6.86247 21.2061 6.93722 21.3843L10.4258 29.3531C10.4557 29.4094 10.4656 29.4703 10.4656 29.5313L10.964 29.0625C12.3694 29.0625 12.4541 27.8906 12.4591 27.6515V19.2186H13.4558V27.6562C13.4558 28.4672 12.9375 30 10.964 30Z" fill="#363F40"/>
<path d="M28.9052 5.6249C27.2556 5.6249 25.915 4.36399 25.915 2.81245C25.915 1.26092 27.2556 0 28.9052 0C30.5548 0 31.8954 1.26092 31.8954 2.81245C31.8954 4.36399 30.5548 5.6249 28.9052 5.6249ZM28.9052 0.937484C27.8038 0.937484 26.9118 1.77653 26.9118 2.81245C26.9118 3.84837 27.8038 4.68742 28.9052 4.68742C30.0066 4.68742 30.8987 3.84837 30.8987 2.81245C30.8987 1.77653 30.0066 0.937484 28.9052 0.937484Z" fill="#363F40"/>
<path d="M21.928 30H20.9313C18.9578 30 18.4395 28.4672 18.4395 27.6562V19.2186H19.4362V27.6562C19.4412 27.8906 19.5259 29.0625 20.9313 29.0625H21.5941L24.9581 21.3843C25.0328 21.2061 25.2122 21.0936 25.4165 21.0936H28.9051C30.0065 21.0936 30.8985 20.2546 30.8985 19.2186V8.43722C30.8985 7.92159 30.45 7.49971 29.9018 7.49971H28.9051C27.2555 7.49971 25.9149 8.76066 25.9149 10.3122V13.5935H24.9182V10.3122C24.9182 8.24503 26.7073 6.56219 28.9051 6.56219H29.9018C31.0032 6.56219 31.8953 7.40127 31.8953 8.43722V19.2186C31.8953 20.7702 30.5547 22.0312 28.9051 22.0312H25.7504L22.3865 29.7094C22.3117 29.8875 22.1323 30 21.928 30Z" fill="#363F40"/>
<path d="M16.4459 19.2188H15.4492V30H16.4459V19.2188Z" fill="#363F40"/>
<path d="M16.4459 8.43744H15.4492V9.37471H16.4459V8.43744Z" fill="#363F40"/>
<path d="M16.4459 10.3126H15.4492V11.2498H16.4459V10.3126Z" fill="#363F40"/>
</svg>
