<svg width="27" height="30" viewBox="0 0 27 30" fill="none" xmlns="http://www.w3.org/2000/svg">
<g clip-path="url(#clip0_586_8997)">
<path d="M7.5 11.25H6.5625V12.1875H7.5V11.25Z" fill="#363F40"/>
<path d="M5.625 11.25H4.6875V12.1875H5.625V11.25Z" fill="#363F40"/>
<path d="M8.4375 14.0625H1.875V13.125H8.4375V4.6875H0V3.75H8.4375C8.95312 3.75 9.375 4.17188 9.375 4.6875V13.125C9.375 13.6406 8.95312 14.0625 8.4375 14.0625Z" fill="#363F40"/>
<path d="M21.0938 7.03125V6.09375C21.3516 6.09375 21.5625 5.88281 21.5625 5.625V5.15625C21.5625 4.89844 21.3516 4.6875 21.0938 4.6875H15V3.75H21.0938C21.8672 3.75 22.5 4.38281 22.5 5.15625V5.625C22.5 6.39844 21.8672 7.03125 21.0938 7.03125Z" fill="#363F40"/>
<path d="M21.5625 9.375H20.1562V8.4375H21.5625C21.8203 8.4375 22.0312 8.22656 22.0312 7.96875V7.5C22.0312 7.24219 21.8203 7.03125 21.5625 7.03125H20.1562V6.09375H21.5625C22.3359 6.09375 22.9688 6.72656 22.9688 7.5V7.96875C22.9688 8.74219 22.3359 9.375 21.5625 9.375Z" fill="#363F40"/>
<path d="M21.0938 11.7188H19.6875V10.7812H21.0938C21.3516 10.7812 21.5625 10.5703 21.5625 10.3125V9.84375C21.5625 9.58594 21.3516 9.375 21.0938 9.375V8.4375C21.8672 8.4375 22.5 9.07031 22.5 9.84375V10.3125C22.5 11.0859 21.8672 11.7188 21.0938 11.7188Z" fill="#363F40"/>
<path d="M20.625 14.0625H15C14.9625 14.0625 14.925 14.0578 14.8875 14.0484L11.1937 13.125H8.90625V12.1875H11.25C11.2875 12.1875 11.325 12.1922 11.3625 12.2016L15.0562 13.125H20.625C20.8828 13.125 21.0938 12.9141 21.0938 12.6562V12.1875C21.0938 11.9297 20.8828 11.7188 20.625 11.7188V10.7812C21.3984 10.7812 22.0312 11.4141 22.0312 12.1875V12.6562C22.0312 13.4297 21.3984 14.0625 20.625 14.0625Z" fill="#363F40"/>
<path d="M10.3125 5.62502H8.90625V4.68752H10.1203L12.7969 2.01096C12.8625 1.94534 12.9469 1.90315 13.0359 1.8844L15.3797 1.41565L15.5625 2.3344L13.3594 2.77502L10.6453 5.48909C10.5562 5.57346 10.4391 5.62502 10.3125 5.62502Z" fill="#363F40"/>
<path d="M19.2189 4.6875H16.4064C16.1908 4.6875 16.0033 4.54219 15.9517 4.33125L15.0142 0.58125C14.9814 0.440625 15.0095 0.290625 15.0986 0.178125C15.1877 0.065625 15.3236 0 15.4689 0H20.1564C20.3017 0 20.4377 0.065625 20.5267 0.178125C20.6158 0.290625 20.6486 0.440625 20.6111 0.58125L19.6736 4.33125C19.622 4.54219 19.4345 4.6875 19.2189 4.6875ZM16.772 3.75H18.8533L19.5564 0.9375H16.0689L16.772 3.75Z" fill="#363F40"/>
<path d="M17.3438 30C11.9344 30 8.4375 27.0562 8.4375 22.5C8.4375 19.7203 10.2984 17.5125 11.9391 15.5625C12.6141 14.7609 13.2516 14.0016 13.6594 13.3078L14.4656 13.7812C14.0156 14.5453 13.3547 15.3281 12.6562 16.1625C11.1188 17.9906 9.375 20.0578 9.375 22.4953C9.375 27.3375 13.6687 29.0578 17.3438 29.0578C21.0188 29.0578 25.3125 27.3375 25.3125 22.4953C25.3125 20.0578 23.5688 17.9859 22.0312 16.1625C21.3328 15.3281 20.6672 14.5453 20.2219 13.7812L21.0281 13.3078C21.4359 14.0016 22.0734 14.7609 22.7484 15.5625C24.3891 17.5125 26.25 19.7203 26.25 22.5C26.25 27.0562 22.7531 30 17.3438 30Z" fill="#363F40"/>
<path d="M17.3438 24.8438C16.3078 24.8438 15.4688 24.0047 15.4688 22.9688H16.4062C16.4062 23.4844 16.8281 23.9062 17.3438 23.9062C17.8594 23.9062 18.2812 23.4844 18.2812 22.9688C18.2812 22.6641 17.6156 22.1953 17.1516 21.9891C16.8703 21.8625 15.4688 21.1828 15.4688 20.1562C15.4688 19.1203 16.3078 18.2812 17.3438 18.2812C18.3797 18.2812 19.2188 19.1203 19.2188 20.1562H18.2812C18.2812 19.6406 17.8594 19.2188 17.3438 19.2188C16.8281 19.2188 16.4062 19.6406 16.4062 20.1562C16.4062 20.4609 17.0719 20.9297 17.5359 21.1359C17.8172 21.2625 19.2188 21.9422 19.2188 22.9688C19.2188 24.0047 18.3797 24.8438 17.3438 24.8438Z" fill="#363F40"/>
<path d="M17.8125 17.3438H16.875V18.75H17.8125V17.3438Z" fill="#363F40"/>
<path d="M17.8125 24.375H16.875V25.7812H17.8125V24.375Z" fill="#363F40"/>
<path d="M21.0938 21.0938H20.1562V22.0312H21.0938V21.0938Z" fill="#363F40"/>
<path d="M14.5313 21.0938H13.5938V22.0312H14.5313V21.0938Z" fill="#363F40"/>
</g>
<defs>
<clipPath id="clip0_586_8997">
<rect width="26.25" height="30" fill="white"/>
</clipPath>
</defs>
</svg>
