<svg width="30" height="30" viewBox="0 0 30 30" fill="none" xmlns="http://www.w3.org/2000/svg">
<g clip-path="url(#clip0_586_8970)">
<path d="M8.10469 11.1141L1.875 4.87969L0.801562 5.95312C0.665625 6.08906 0.464062 6.12656 0.290625 6.05625C0.1125 5.98594 0 5.8125 0 5.625V0.46875C0 0.210938 0.210937 0 0.46875 0H5.625C5.8125 0 5.98594 0.1125 6.05625 0.290625C6.13125 0.464063 6.08906 0.665625 5.95312 0.801563L4.87969 1.875L9.70312 6.69844L9.04219 7.35938L3.88594 2.20312C3.70312 2.02031 3.70312 1.725 3.88594 1.54219L4.49531 0.9375H0.9375V4.49531L1.54219 3.89062C1.725 3.70781 2.02031 3.70781 2.20312 3.89062L8.76562 10.4531L8.10469 11.1141Z" fill="#363F40"/>
<path d="M29.5311 30H24.3748C24.1873 30 24.0139 29.8875 23.9436 29.7094C23.8686 29.5359 23.9107 29.3344 24.0467 29.1984L25.1201 28.125L19.3545 22.364L20.0154 21.7031L26.1092 27.7969C26.292 27.9797 26.292 28.275 26.1092 28.4578L25.5045 29.0625H29.0623V25.5047L28.4576 26.1094C28.2748 26.2922 27.9795 26.2922 27.7967 26.1094L20.7654 19.0781L21.4264 18.4172L28.1248 25.1203L29.1982 24.0469C29.3342 23.9109 29.5357 23.8734 29.7092 23.9437C29.8873 24.0141 29.9998 24.1875 29.9998 24.375V29.5312C29.9998 29.789 29.7889 30 29.5311 30Z" fill="#363F40"/>
<path d="M21.8951 11.1141L21.2342 10.4531L27.7967 3.89062C27.9795 3.70781 28.2748 3.70781 28.4576 3.89062L29.0623 4.49531V0.9375H25.5045L26.1092 1.54219C26.292 1.725 26.292 2.02031 26.1092 2.20312L20.9529 7.35938L20.292 6.69844L25.1201 1.875L24.0467 0.801563C23.9107 0.665625 23.8732 0.464063 23.9436 0.290625C24.0139 0.1125 24.1873 0 24.3748 0H29.5311C29.7889 0 29.9998 0.210938 29.9998 0.46875V5.625C29.9998 5.8125 29.8873 5.98594 29.7092 6.05625C29.5357 6.13125 29.3342 6.08906 29.1982 5.95312L28.1248 4.87969L21.8951 11.1141Z" fill="#363F40"/>
<path d="M5.625 30H0.46875C0.210938 30 0 29.7891 0 29.5312V24.375C0 24.1875 0.1125 24.0141 0.290625 23.9438C0.46875 23.8734 0.665625 23.9109 0.801563 24.0469L1.875 25.1203L8.57344 18.4219L9.23438 19.0828L2.20312 26.1141C2.02031 26.2969 1.725 26.2969 1.54219 26.1141L0.9375 25.5047V29.0625H4.49531L3.89062 28.4578C3.70781 28.275 3.70781 27.9797 3.89062 27.7969L9.98438 21.7031L10.6453 22.3641L4.87969 28.125L5.95312 29.1984C6.08906 29.3344 6.12656 29.5359 6.05625 29.7094C5.98594 29.8875 5.8125 30 5.625 30Z" fill="#363F40"/>
<path d="M15.4688 19.2188H14.5312V30H15.4688V19.2188Z" fill="#363F40"/>
<path d="M15 5.625C13.4484 5.625 12.1875 4.36406 12.1875 2.8125C12.1875 1.26094 13.4484 0 15 0C16.5516 0 17.8125 1.26094 17.8125 2.8125C17.8125 4.36406 16.5516 5.625 15 5.625ZM15 0.9375C13.9641 0.9375 13.125 1.77656 13.125 2.8125C13.125 3.84844 13.9641 4.6875 15 4.6875C16.0359 4.6875 16.875 3.84844 16.875 2.8125C16.875 1.77656 16.0359 0.9375 15 0.9375Z" fill="#363F40"/>
<path d="M18.75 30H17.8125V17.3438H19.6875V10.3125C19.6875 8.76094 18.4266 7.5 16.875 7.5H13.125C11.5734 7.5 10.3125 8.76094 10.3125 10.3125V17.3438H12.1875V30H11.25V18.2812H9.375V10.3125C9.375 8.24531 11.0578 6.5625 13.125 6.5625H16.875C18.9422 6.5625 20.625 8.24531 20.625 10.3125V18.2812H18.75V30Z" fill="#363F40"/>
<path d="M15.4688 8.4375H14.5312V9.375H15.4688V8.4375Z" fill="#363F40"/>
<path d="M15.4688 10.3125H14.5312V11.25H15.4688V10.3125Z" fill="#363F40"/>
</g>
<defs>
<clipPath id="clip0_586_8970">
<rect width="30" height="30" fill="white"/>
</clipPath>
</defs>
</svg>
