<svg width="30" height="29" viewBox="0 0 30 29" fill="none" xmlns="http://www.w3.org/2000/svg">
<g clip-path="url(#clip0_586_9276)">
<path d="M28.125 13.2187H10.3125V12.3375H27.1875V4.40621H10.3125V3.52496H28.125V13.2187Z" fill="#363F40"/>
<path d="M5.625 5.2875C4.07344 5.2875 2.8125 4.10222 2.8125 2.64375C2.8125 1.18528 4.07344 0 5.625 0C7.17656 0 8.4375 1.18528 8.4375 2.64375C8.4375 4.10222 7.17656 5.2875 5.625 5.2875ZM5.625 0.88125C4.58906 0.88125 3.75 1.66997 3.75 2.64375C3.75 3.61753 4.58906 4.40625 5.625 4.40625C6.66094 4.40625 7.5 3.61753 7.5 2.64375C7.5 1.66997 6.66094 0.88125 5.625 0.88125Z" fill="#363F40"/>
<path d="M30 16.7437H8.4375V8.81245H15.9375V7.04995H3.75C2.19844 7.04995 0.9375 8.23523 0.9375 9.6937V15.8625H2.8125V12.3375H3.75V16.7437H0V9.6937C0 7.75054 1.68281 6.1687 3.75 6.1687H16.875V9.6937H9.375V15.8625H29.0625V2.6437H9.375V1.76245H30V16.7437Z" fill="#363F40"/>
<path d="M28.125 14.1H10.3125V14.9812H28.125V14.1Z" fill="#363F40"/>
<path d="M28.5938 28.2001H1.40625C0.642187 28.2001 0 27.3937 0 26.4376V25.3007L3.51562 23.4105L3.97969 24.1771L0.9375 25.8119V26.4376C0.9375 26.9751 1.26562 27.3188 1.40625 27.3188H28.5938C28.7344 27.3188 29.0625 26.9751 29.0625 26.4376V25.8119L26.0156 24.1771L26.4797 23.4105L29.9953 25.3007V26.4376C30 27.3937 29.3578 28.2001 28.5938 28.2001Z" fill="#363F40"/>
<path d="M20.1703 26.0542L16.1953 24.186L16.6172 23.4017L20.1422 25.0584L23.2031 23.4105L23.6719 24.1772L20.1703 26.0542Z" fill="#363F40"/>
<path d="M9.82969 26.0542L6.32812 24.1772L6.79687 23.4105L9.85781 25.0584L13.3828 23.4017L13.8047 24.186L9.82969 26.0542Z" fill="#363F40"/>
<path d="M5.15625 24.675C3.55312 24.675 2.34375 23.2562 2.34375 21.3703C2.34375 20.0353 2.6625 18.5063 5.15625 18.5063C7.65 18.5063 7.96875 20.0353 7.96875 21.3703C7.96875 23.2562 6.75938 24.675 5.15625 24.675ZM5.15625 19.3875C3.73594 19.3875 3.28125 19.8678 3.28125 21.3703C3.28125 22.5468 3.9375 23.7938 5.15625 23.7938C6.375 23.7938 7.03125 22.5468 7.03125 21.3703C7.03125 19.8678 6.57656 19.3875 5.15625 19.3875Z" fill="#363F40"/>
<path d="M15 24.675C13.3969 24.675 12.1875 23.2562 12.1875 21.3703C12.1875 20.0353 12.5062 18.5063 15 18.5063C17.4938 18.5063 17.8125 20.0353 17.8125 21.3703C17.8125 23.2562 16.6031 24.675 15 24.675ZM15 19.3875C13.5797 19.3875 13.125 19.8678 13.125 21.3703C13.125 22.5468 13.7812 23.7938 15 23.7938C16.2188 23.7938 16.875 22.5468 16.875 21.3703C16.875 19.8678 16.4203 19.3875 15 19.3875Z" fill="#363F40"/>
<path d="M24.8438 24.675C23.2406 24.675 22.0312 23.2562 22.0312 21.3703C22.0312 20.0353 22.35 18.5063 24.8438 18.5063C27.3375 18.5063 27.6562 20.0353 27.6562 21.3703C27.6562 23.2562 26.4469 24.675 24.8438 24.675ZM24.8438 19.3875C23.4234 19.3875 22.9688 19.8678 22.9688 21.3703C22.9688 22.5468 23.625 23.7938 24.8438 23.7938C26.0625 23.7938 26.7188 22.5468 26.7188 21.3703C26.7188 19.8678 26.2641 19.3875 24.8438 19.3875Z" fill="#363F40"/>
<path d="M10.3125 25.5563H9.375V26.8781H10.3125V25.5563Z" fill="#363F40"/>
<path d="M20.625 25.5563H19.6875V26.8781H20.625V25.5563Z" fill="#363F40"/>
<path d="M6.09375 7.93121H5.15625V8.81246H6.09375V7.93121Z" fill="#363F40"/>
<path d="M6.09375 9.69373H5.15625V10.575H6.09375V9.69373Z" fill="#363F40"/>
</g>
<defs>
<clipPath id="clip0_586_9276">
<rect width="30" height="28.2" fill="white"/>
</clipPath>
</defs>
</svg>
