<svg width="34" height="30" viewBox="0 0 34 30" fill="none" xmlns="http://www.w3.org/2000/svg">
<g clip-path="url(#clip0_586_9107)">
<path d="M31.2845 24.8276H18.8707V23.7931H31.2845C31.8534 23.7931 32.319 23.3276 32.319 22.7586V2.06897C32.319 1.5 31.8534 1.03448 31.2845 1.03448H2.31897C1.75 1.03448 1.28448 1.5 1.28448 2.06897V3.10345H0.25V2.06897C0.25 0.925862 1.17586 0 2.31897 0H31.2845C32.4276 0 33.3534 0.925862 33.3534 2.06897V22.7586C33.3534 23.9017 32.4276 24.8276 31.2845 24.8276Z" fill="#363F40"/>
<path d="M21.9739 24.3104H20.9395V29.4828H21.9739V24.3104Z" fill="#363F40"/>
<path d="M24.043 28.9655H18.8706V30H24.043V28.9655Z" fill="#363F40"/>
<path d="M31.2844 20.6897H18.8706V19.6552H30.2499V3.10345H2.31885V2.06897H31.2844V20.6897Z" fill="#363F40"/>
<path d="M17.8362 30H0.25V4.13794H17.8362V30ZM1.28448 28.9655H16.8017V5.17242H1.28448V28.9655Z" fill="#363F40"/>
<path d="M17.3188 6.20691H0.76709V7.24139H17.3188V6.20691Z" fill="#363F40"/>
<path d="M7.49145 9.31036H3.35352V10.3448H7.49145V9.31036Z" fill="#363F40"/>
<path d="M11.6291 11.3793H7.49121V12.4138H11.6291V11.3793Z" fill="#363F40"/>
<path d="M6.45696 11.3793H3.35352V12.4138H6.45696V11.3793Z" fill="#363F40"/>
<path d="M10.595 17.5862H6.45703V18.6207H10.595V17.5862Z" fill="#363F40"/>
<path d="M5.42248 17.5862H3.35352V18.6207H5.42248V17.5862Z" fill="#363F40"/>
<path d="M10.5948 13.4483H5.42236V14.4828H10.5948V13.4483Z" fill="#363F40"/>
<path d="M14.7328 13.4483H11.6294V14.4828H14.7328V13.4483Z" fill="#363F40"/>
<path d="M12.6637 15.5172H5.42236V16.5517H12.6637V15.5172Z" fill="#363F40"/>
<path d="M8.52581 19.6552H5.42236V20.6896H8.52581V19.6552Z" fill="#363F40"/>
<path d="M14.733 19.6552H9.56055V20.6896H14.733V19.6552Z" fill="#363F40"/>
<path d="M12.6637 21.7241H5.42236V22.7586H12.6637V21.7241Z" fill="#363F40"/>
<path d="M10.5948 23.7931H5.42236V24.8276H10.5948V23.7931Z" fill="#363F40"/>
<path d="M14.7328 23.7931H11.6294V24.8276H14.7328V23.7931Z" fill="#363F40"/>
<path d="M7.49145 25.8621H3.35352V26.8965H7.49145V25.8621Z" fill="#363F40"/>
<path d="M10.5948 25.8621H8.52588V26.8965H10.5948V25.8621Z" fill="#363F40"/>
<path d="M19.9051 4.13794H18.8706V8.27587H19.9051V4.13794Z" fill="#363F40"/>
<path d="M23.5257 9.31036H22.4912V13.4483H23.5257V9.31036Z" fill="#363F40"/>
<path d="M25.595 9.31036H24.5605V13.4483H25.595V9.31036Z" fill="#363F40"/>
<path d="M19.9051 14.4828H18.8706V18.6207H19.9051V14.4828Z" fill="#363F40"/>
<path d="M21.9739 14.4828H20.9395V18.6207H21.9739V14.4828Z" fill="#363F40"/>
<path d="M29.2156 4.13794H28.1812V8.27587H29.2156V4.13794Z" fill="#363F40"/>
<path d="M22.4912 8.27587H21.9739C21.405 8.27587 20.9395 7.81035 20.9395 7.24139V5.17242C20.9395 4.60346 21.405 4.13794 21.9739 4.13794H22.4912C23.0601 4.13794 23.5257 4.60346 23.5257 5.17242V7.24139C23.5257 7.81035 23.0601 8.27587 22.4912 8.27587ZM21.9739 5.17242V7.24139H22.4912V5.17242H21.9739Z" fill="#363F40"/>
<path d="M20.4223 13.4483H19.9051C19.3361 13.4483 18.8706 12.9828 18.8706 12.4138V10.3448C18.8706 9.77588 19.3361 9.31036 19.9051 9.31036H20.4223C20.9913 9.31036 21.4568 9.77588 21.4568 10.3448V12.4138C21.4568 12.9828 20.9913 13.4483 20.4223 13.4483ZM19.9051 10.3448V12.4138H20.4223V10.3448H19.9051Z" fill="#363F40"/>
<path d="M28.1811 13.4483H27.6639C27.0949 13.4483 26.6294 12.9828 26.6294 12.4138V10.3448C26.6294 9.77588 27.0949 9.31036 27.6639 9.31036H28.1811C28.7501 9.31036 29.2156 9.77588 29.2156 10.3448V12.4138C29.2156 12.9828 28.7501 13.4483 28.1811 13.4483ZM27.6639 10.3448V12.4138H28.1811V10.3448H27.6639Z" fill="#363F40"/>
<path d="M24.5605 18.6207H24.0433C23.4743 18.6207 23.0088 18.1552 23.0088 17.5862V15.5173C23.0088 14.9483 23.4743 14.4828 24.0433 14.4828H24.5605C25.1295 14.4828 25.595 14.9483 25.595 15.5173V17.5862C25.595 18.1552 25.1295 18.6207 24.5605 18.6207ZM24.0433 15.5173V17.5862H24.5605V15.5173H24.0433Z" fill="#363F40"/>
<path d="M28.1811 18.6207H27.6639C27.0949 18.6207 26.6294 18.1552 26.6294 17.5862V15.5173C26.6294 14.9483 27.0949 14.4828 27.6639 14.4828H28.1811C28.7501 14.4828 29.2156 14.9483 29.2156 15.5173V17.5862C29.2156 18.1552 28.7501 18.6207 28.1811 18.6207ZM27.6639 15.5173V17.5862H28.1811V15.5173H27.6639Z" fill="#363F40"/>
<path d="M26.1123 8.27587H25.595C25.0261 8.27587 24.5605 7.81035 24.5605 7.24139V5.17242C24.5605 4.60346 25.0261 4.13794 25.595 4.13794H26.1123C26.6812 4.13794 27.1468 4.60346 27.1468 5.17242V7.24139C27.1468 7.81035 26.6812 8.27587 26.1123 8.27587ZM25.595 5.17242V7.24139H26.1123V5.17242H25.595Z" fill="#363F40"/>
</g>
<defs>
<clipPath id="clip0_586_9107">
<rect width="33.1034" height="30" fill="white" transform="translate(0.25)"/>
</clipPath>
</defs>
</svg>
