<svg width="29" height="30" viewBox="0 0 29 30" fill="none" xmlns="http://www.w3.org/2000/svg">
<g clip-path="url(#clip0_586_9321)">
<path d="M27.6562 4.6875H23.4375V0.46875H24.375V3.75H27.6562V4.6875Z" fill="#363F40"/>
<path d="M27.6562 26.25H22.0312V25.3125H27.1875V4.41094L23.7141 0.9375H8.4375V25.3125H13.5938V26.25H7.96875C7.71094 26.25 7.5 26.0391 7.5 25.7812V0.46875C7.5 0.210938 7.71094 0 7.96875 0H23.9062C24.0328 0 24.15 0.0515625 24.2391 0.135937L27.9891 3.88594C28.0734 3.975 28.125 4.09219 28.125 4.21875V25.7812C28.125 26.0391 27.9141 26.25 27.6562 26.25Z" fill="#363F40"/>
<path d="M20.625 30C20.5172 30 20.4094 29.9625 20.325 29.8922L17.8125 27.7969L15.3 29.8922C15.1594 30.0094 14.9672 30.0328 14.8031 29.9578C14.6344 29.8781 14.5312 29.7141 14.5312 29.5312V23.9062H15.4688V28.5328L17.5125 26.8313C17.6859 26.6859 17.9391 26.6859 18.1125 26.8313L20.1562 28.5328V23.9062H21.0938V29.5312C21.0938 29.7141 20.9906 29.8781 20.8219 29.9578C20.7609 29.9859 20.6906 30 20.625 30Z" fill="#363F40"/>
<path d="M17.8125 24.375C17.0203 24.375 16.3219 23.8734 16.0547 23.1516C15.7781 23.0625 15.5109 22.95 15.2578 22.8188C15.0234 22.9172 14.7797 22.9688 14.5312 22.9688C13.4953 22.9688 12.6562 22.1297 12.6562 21.0938C12.6562 20.8453 12.7078 20.6016 12.8062 20.3672C12.675 20.1094 12.5625 19.8422 12.4734 19.5703C11.7516 19.3031 11.25 18.6047 11.25 17.8125C11.25 17.0203 11.7516 16.3219 12.4734 16.0547C12.5625 15.7781 12.675 15.5109 12.8062 15.2578C12.7078 15.0234 12.6562 14.7797 12.6562 14.5312C12.6562 13.4953 13.4953 12.6562 14.5312 12.6562C14.7797 12.6562 15.0234 12.7078 15.2578 12.8062C15.5156 12.675 15.7828 12.5625 16.0547 12.4734C16.3219 11.7516 17.0203 11.25 17.8125 11.25C18.6047 11.25 19.3031 11.7516 19.5703 12.4734C19.8469 12.5625 20.1141 12.675 20.3672 12.8062C20.6016 12.7078 20.8453 12.6562 21.0938 12.6562C22.1297 12.6562 22.9688 13.4953 22.9688 14.5312C22.9688 14.7797 22.9172 15.0234 22.8188 15.2578C22.95 15.5156 23.0625 15.7828 23.1516 16.0547C23.8734 16.3219 24.375 17.0203 24.375 17.8125C24.375 18.6047 23.8734 19.3031 23.1516 19.5703C23.0625 19.8469 22.95 20.1141 22.8188 20.3672C22.9172 20.6016 22.9688 20.8453 22.9688 21.0938C22.9688 22.1297 22.1297 22.9688 21.0938 22.9688C20.8453 22.9688 20.6016 22.9172 20.3672 22.8188C20.1094 22.95 19.8422 23.0625 19.5703 23.1516C19.3031 23.8734 18.6047 24.375 17.8125 24.375ZM15.2531 21.7453L15.4922 21.8813C15.825 22.0688 16.1812 22.2187 16.5562 22.3219L16.8328 22.3969L16.8891 22.6781C16.9828 23.1188 17.3672 23.4375 17.8125 23.4375C18.2578 23.4375 18.6422 23.1187 18.7312 22.6828L18.7875 22.4016L19.0641 22.3266C19.4391 22.2234 19.7953 22.0734 20.1281 21.8859L20.3672 21.75L20.6016 21.8953C20.7609 21.9844 20.925 22.0312 21.0938 22.0312C21.6094 22.0312 22.0312 21.6094 22.0312 21.0938C22.0312 20.925 21.9844 20.7609 21.8906 20.6062L21.7453 20.3719L21.8813 20.1328C22.0688 19.8 22.2187 19.4438 22.3219 19.0688L22.3969 18.7922L22.6781 18.7359C23.1188 18.6422 23.4375 18.2578 23.4375 17.8125C23.4375 17.3672 23.1187 16.9828 22.6828 16.8938L22.4016 16.8375L22.3266 16.5609C22.2234 16.1859 22.0734 15.8297 21.8859 15.4969L21.75 15.2578L21.8953 15.0234C21.9844 14.8641 22.0312 14.7 22.0312 14.5312C22.0312 14.0156 21.6094 13.5938 21.0938 13.5938C20.925 13.5938 20.7609 13.6406 20.6062 13.7344L20.3719 13.8797L20.1328 13.7437C19.8 13.5562 19.4438 13.4062 19.0688 13.3031L18.7922 13.2281L18.7359 12.9469C18.6422 12.5063 18.2578 12.1875 17.8125 12.1875C17.3672 12.1875 16.9828 12.5063 16.8938 12.9422L16.8375 13.2234L16.5609 13.2984C16.1859 13.4016 15.8297 13.5516 15.4969 13.7391L15.2578 13.875L15.0234 13.7297C14.8641 13.6406 14.7 13.5938 14.5312 13.5938C14.0156 13.5938 13.5938 14.0156 13.5938 14.5312C13.5938 14.7 13.6406 14.8641 13.7344 15.0188L13.8797 15.2531L13.7437 15.4922C13.5562 15.825 13.4062 16.1812 13.3031 16.5562L13.2281 16.8328L12.9469 16.8891C12.5063 16.9828 12.1875 17.3672 12.1875 17.8125C12.1875 18.2578 12.5063 18.6422 12.9422 18.7312L13.2234 18.7875L13.2984 19.0641C13.4016 19.4391 13.5516 19.7953 13.7391 20.1281L13.875 20.3672L13.7297 20.6016C13.6406 20.7609 13.5938 20.925 13.5938 21.0938C13.5938 21.6094 14.0156 22.0312 14.5312 22.0312C14.7 22.0312 14.8641 21.9844 15.0188 21.8906L15.2531 21.7453Z" fill="#363F40"/>
<path d="M17.8125 21.0938C16.0031 21.0938 14.5312 19.6219 14.5312 17.8125C14.5312 16.0031 16.0031 14.5312 17.8125 14.5312C19.6219 14.5312 21.0938 16.0031 21.0938 17.8125C21.0938 19.6219 19.6219 21.0938 17.8125 21.0938ZM17.8125 15.4688C16.5187 15.4688 15.4688 16.5187 15.4688 17.8125C15.4688 19.1062 16.5187 20.1562 17.8125 20.1562C19.1062 20.1562 20.1562 19.1062 20.1562 17.8125C20.1562 16.5187 19.1062 15.4688 17.8125 15.4688Z" fill="#363F40"/>
<path d="M0.9375 15H0V7.03125C0 6.25781 0.632812 5.625 1.40625 5.625H2.34375V6.5625H1.40625C1.14844 6.5625 0.9375 6.77344 0.9375 7.03125V15Z" fill="#363F40"/>
<path d="M5.15625 23.4375H2.34375V24.375H5.15625V23.4375Z" fill="#363F40"/>
<path d="M5.15625 3.75H2.34375V4.6875H5.15625V3.75Z" fill="#363F40"/>
<path d="M3.75 30C3.58594 30 3.43125 29.9156 3.34687 29.7703L1.94062 27.4266C1.89844 27.3562 1.875 27.2719 1.875 27.1875V1.875C1.875 0.839062 2.71406 0 3.75 0C4.78594 0 5.625 0.839062 5.625 1.875V27.1875C5.625 27.2719 5.60156 27.3562 5.55937 27.4266L4.15312 29.7703C4.06875 29.9156 3.91406 30 3.75 30ZM2.8125 27.0563L3.75 28.6172L4.6875 27.0563V1.875C4.6875 1.35938 4.26562 0.9375 3.75 0.9375C3.23438 0.9375 2.8125 1.35938 2.8125 1.875V27.0563Z" fill="#363F40"/>
<path d="M15.9375 2.34375H10.3125V3.28125H15.9375V2.34375Z" fill="#363F40"/>
<path d="M25.3125 5.625H10.3125V6.5625H25.3125V5.625Z" fill="#363F40"/>
<path d="M25.3125 7.5H10.3125V8.4375H25.3125V7.5Z" fill="#363F40"/>
<path d="M25.3125 9.375H10.3125V10.3125H25.3125V9.375Z" fill="#363F40"/>
</g>
<defs>
<clipPath id="clip0_586_9321">
<rect width="28.125" height="30" fill="white"/>
</clipPath>
</defs>
</svg>
