<svg width="37" height="30" viewBox="0 0 37 30" fill="none" xmlns="http://www.w3.org/2000/svg">
<g clip-path="url(#clip0_586_9353)">
<path d="M24.2308 23.6538H12.6923V22.5H23.0769V1.15385H1.15385V22.5H3.46154V23.6538H0V0H24.2308V23.6538Z" fill="#363F40"/>
<path d="M21.9229 15.577H4.61523V16.7308H21.9229V15.577Z" fill="#363F40"/>
<path d="M21.9232 17.8846H12.6924V19.0385H21.9232V17.8846Z" fill="#363F40"/>
<path d="M15.0002 12.6923C14.9137 12.6923 14.8271 12.675 14.7464 12.6346C14.5502 12.5365 14.4233 12.3346 14.4233 12.1154V10.3846H0.577148V9.23076H15.0002C15.3175 9.23076 15.5771 9.49038 15.5771 9.80769V10.9385L19.2521 8.07692L15.5771 5.21538V6.34615C15.5771 6.66346 15.3175 6.92307 15.0002 6.92307H0.577148V5.76922H14.4233V4.03846C14.4233 3.81922 14.5502 3.6173 14.7464 3.51922C14.9425 3.42115 15.1791 3.44422 15.3521 3.58269L20.5445 7.62115C20.6887 7.73076 20.7695 7.89807 20.7695 8.07692C20.7695 8.25576 20.6887 8.42307 20.5445 8.53269L15.3521 12.5711C15.2541 12.6519 15.1271 12.6923 15.0002 12.6923Z" fill="#363F40"/>
<path d="M3.46154 20.1924H0V15.577H3.46154V20.1924ZM1.15385 19.0385H2.30769V16.7308H1.15385V19.0385Z" fill="#363F40"/>
<path d="M36.923 21.3462H33.4614V17.8846H36.923V21.3462ZM34.6153 20.1923H35.7691V19.0385H34.6153V20.1923Z" fill="#363F40"/>
<path d="M8.07703 30C5.85011 30 4.03857 28.1884 4.03857 25.9615C4.03857 23.7346 5.85011 21.923 8.07703 21.923C10.304 21.923 12.1155 23.7346 12.1155 25.9615C12.1155 28.1884 10.304 30 8.07703 30ZM8.07703 23.0769C6.48473 23.0769 5.19242 24.3692 5.19242 25.9615C5.19242 27.5538 6.48473 28.8461 8.07703 28.8461C9.66934 28.8461 10.9616 27.5538 10.9616 25.9615C10.9616 24.3692 9.66934 23.0769 8.07703 23.0769Z" fill="#363F40"/>
<path d="M8.0767 27.1154C8.71395 27.1154 9.23054 26.5988 9.23054 25.9615C9.23054 25.3243 8.71395 24.8077 8.0767 24.8077C7.43945 24.8077 6.92285 25.3243 6.92285 25.9615C6.92285 26.5988 7.43945 27.1154 8.0767 27.1154Z" fill="#363F40"/>
<path d="M29.9999 30C27.773 30 25.9614 28.1884 25.9614 25.9615C25.9614 23.7346 27.773 21.923 29.9999 21.923C32.2268 21.923 34.0383 23.7346 34.0383 25.9615C34.0383 28.1884 32.2268 30 29.9999 30ZM29.9999 23.0769C28.4076 23.0769 27.1153 24.3692 27.1153 25.9615C27.1153 27.5538 28.4076 28.8461 29.9999 28.8461C31.5922 28.8461 32.8845 27.5538 32.8845 25.9615C32.8845 24.3692 31.5922 23.0769 29.9999 23.0769Z" fill="#363F40"/>
<path d="M30 27.1154C30.6373 27.1154 31.1539 26.5988 31.1539 25.9615C31.1539 25.3243 30.6373 24.8077 30 24.8077C29.3628 24.8077 28.8462 25.3243 28.8462 25.9615C28.8462 26.5988 29.3628 27.1154 30 27.1154Z" fill="#363F40"/>
<path d="M36.9233 23.6538H34.6156V22.5H35.7695V16.3212L30.8368 8.65385H24.231V22.5H25.3848V23.6538H23.0771V7.5H31.4714L36.9233 15.9865V23.6538Z" fill="#363F40"/>
<path d="M36.346 15.577H25.9614V16.7308H36.346V15.577Z" fill="#363F40"/>
<path d="M26.5386 21.3461H25.3848V9.80768H32.3078V10.9615H26.5386V21.3461Z" fill="#363F40"/>
<path d="M28.8462 17.8846H27.6924V19.0385H28.8462V17.8846Z" fill="#363F40"/>
<path d="M36.9231 28.8461H0V30H36.9231V28.8461Z" fill="#363F40"/>
<path d="M12.1153 11.5385H10.9614V12.6923H12.1153V11.5385Z" fill="#363F40"/>
<path d="M9.80766 11.5385H8.65381V12.6923H9.80766V11.5385Z" fill="#363F40"/>
<path d="M7.50004 11.5385H6.34619V12.6923H7.50004V11.5385Z" fill="#363F40"/>
</g>
<defs>
<clipPath id="clip0_586_9353">
<rect width="36.9231" height="30" fill="white"/>
</clipPath>
</defs>
</svg>
