<svg width="28" height="30" viewBox="0 0 28 30" fill="none" xmlns="http://www.w3.org/2000/svg">
<g clip-path="url(#clip0_586_9065)">
<path d="M17.6973 16.875H16.7598V18.75H17.6973V16.875Z" fill="#363F40"/>
<path d="M11.1348 16.875H10.1973V18.75H11.1348V16.875Z" fill="#363F40"/>
<path d="M13.9473 18.2813C13.0145 18.2813 11.4957 17.8359 10.8535 17.2547C10.4879 17.0391 8.8332 15.9234 8.35039 12.8766L7.85352 12.3797V10.7812H8.79102V11.9953L9.23164 12.4359L9.25508 12.5906C9.67695 15.5578 11.2801 16.425 11.3457 16.4578L11.4629 16.5422C11.8145 16.8938 13.0801 17.3438 13.9473 17.3438C14.8145 17.3438 16.0801 16.8938 16.427 16.5422L16.4785 16.4859L16.5488 16.4531C16.6145 16.4203 18.2129 15.5531 18.6395 12.5859L18.6629 12.4313L19.1035 11.9953V10.7812H20.041V12.3797L19.5441 12.8766C19.0613 15.9234 17.4066 17.0391 17.041 17.2547C16.3988 17.8359 14.8801 18.2813 13.9473 18.2813Z" fill="#363F40"/>
<path d="M27.541 30H26.6035V27.1875C26.6035 24.1453 24.2504 23.3109 21.527 22.3453C20.6691 22.0406 19.7832 21.7265 18.9723 21.3328C18.4004 22.8937 16.0848 24.375 13.9473 24.375C11.8098 24.375 9.49414 22.8937 8.92227 21.3328C8.11133 21.7312 7.22539 22.0406 6.36758 22.3453C3.64414 23.3109 1.29102 24.1453 1.29102 27.1875V30H0.353516V27.1875C0.353516 23.4843 3.25039 22.4578 6.05352 21.464C7.08008 21.0984 8.14414 20.7234 9.02539 20.2172C9.1707 20.1328 9.34883 20.1328 9.49414 20.2172C9.63945 20.3015 9.72852 20.4562 9.72852 20.625C9.72852 21.6843 11.7723 23.4375 13.9473 23.4375C16.1223 23.4375 18.166 21.6843 18.166 20.625C18.166 20.4562 18.2551 20.3015 18.4004 20.2172C18.5457 20.1328 18.7238 20.1328 18.8691 20.2172C19.7551 20.7234 20.8145 21.0984 21.841 21.464C24.6441 22.4578 27.541 23.4843 27.541 27.1875V30Z" fill="#363F40"/>
<path d="M13.9473 21.5625C13.8629 21.5625 13.7738 21.5391 13.6988 21.4922L10.3848 19.4203L9.67695 20.8359L8.83789 20.4188L9.77539 18.5438C9.83633 18.4266 9.93945 18.3375 10.066 18.3C10.1926 18.2672 10.3285 18.2859 10.441 18.3563L13.9473 20.5406L17.4488 18.3516C17.5613 18.2813 17.6973 18.2625 17.8238 18.2953C17.9504 18.3328 18.0582 18.4172 18.1145 18.5391L19.052 20.4141L18.2129 20.8313L17.5051 19.4156L14.191 21.4875C14.1207 21.5391 14.0316 21.5625 13.9473 21.5625Z" fill="#363F40"/>
<path d="M14.416 21.0938H13.4785V23.9062H14.416V21.0938Z" fill="#363F40"/>
<path d="M5.97852 22.5H5.04102V30H5.97852V22.5Z" fill="#363F40"/>
<path d="M7.85352 21.5625H6.91602V30H7.85352V21.5625Z" fill="#363F40"/>
<path d="M20.9785 21.5625H20.041V30H20.9785V21.5625Z" fill="#363F40"/>
<path d="M22.8535 22.5H21.916V30H22.8535V22.5Z" fill="#363F40"/>
<path d="M20.9785 10.3125H6.91602V7.96875C6.91602 4.49063 9.5082 1.5 12.9441 1.00781L13.0754 1.93594C10.0988 2.3625 7.85352 4.95469 7.85352 7.96875V9.375H20.041V7.96875C20.041 4.95469 17.7957 2.3625 14.8191 1.93594L14.9504 1.00781C18.3863 1.5 20.9785 4.49063 20.9785 7.96875V10.3125Z" fill="#363F40"/>
<path d="M7.38477 9.375H5.97852V10.3125H7.38477V9.375Z" fill="#363F40"/>
<path d="M21.916 9.375H20.5098V10.3125H21.916V9.375Z" fill="#363F40"/>
<path d="M13.9473 8.4375C12.6535 8.4375 11.6035 7.3875 11.6035 6.09375C11.6035 4.8 12.6535 3.75 13.9473 3.75C15.241 3.75 16.291 4.8 16.291 6.09375C16.291 7.3875 15.241 8.4375 13.9473 8.4375ZM13.9473 4.6875C13.1738 4.6875 12.541 5.32031 12.541 6.09375C12.541 6.86719 13.1738 7.5 13.9473 7.5C14.7207 7.5 15.3535 6.86719 15.3535 6.09375C15.3535 5.32031 14.7207 4.6875 13.9473 4.6875Z" fill="#363F40"/>
<path d="M18.166 28.125H9.72852V29.0625H18.166V28.125Z" fill="#363F40"/>
<path d="M18.166 26.25H9.72852V27.1875H18.166V26.25Z" fill="#363F40"/>
<path d="M15.3535 4.21875H14.416V0.9375H13.4785V4.21875H12.541V0H15.3535V4.21875Z" fill="#363F40"/>
<path d="M18.166 5.625H17.2285V6.5625H18.166V5.625Z" fill="#363F40"/>
<path d="M10.666 5.625H9.72852V6.5625H10.666V5.625Z" fill="#363F40"/>
</g>
<defs>
<clipPath id="clip0_586_9065">
<rect width="27.1875" height="30" fill="white" transform="translate(0.353516)"/>
</clipPath>
</defs>
</svg>
