<svg width="31" height="30" viewBox="0 0 31 30" fill="none" xmlns="http://www.w3.org/2000/svg">
<g clip-path="url(#clip0_586_9215)">
<path d="M20.5098 26.25H11.6035V27.1875H20.5098V26.25Z" fill="#363F40"/>
<path d="M21.4473 24.375H10.666V25.3125H21.4473V24.375Z" fill="#363F40"/>
<path d="M5.97852 27.1875C3.3957 27.1875 1.29102 25.0828 1.29102 22.5C1.29102 19.9172 3.3957 17.8125 5.97852 17.8125H26.1348C26.3926 17.8125 26.6035 18.0234 26.6035 18.2812C26.6035 19.575 25.5535 20.625 24.2598 20.625H5.97852C4.94258 20.625 4.10352 21.4641 4.10352 22.5C4.10352 23.5359 4.94258 24.375 5.97852 24.375H6.91602V25.3125H5.97852C4.42695 25.3125 3.16602 24.0516 3.16602 22.5C3.16602 20.9484 4.42695 19.6875 5.97852 19.6875H24.2598C24.8691 19.6875 25.3941 19.2937 25.5863 18.75H5.97852C3.91133 18.75 2.22852 20.4328 2.22852 22.5C2.22852 24.5672 3.91133 26.25 5.97852 26.25V27.1875Z" fill="#363F40"/>
<path d="M23.3223 30C21.5129 30 20.041 28.5281 20.041 26.7188C20.041 24.9094 21.5129 23.4375 23.3223 23.4375C25.1316 23.4375 26.6035 24.9094 26.6035 26.7188C26.6035 28.5281 25.1316 30 23.3223 30ZM23.3223 24.375C22.0285 24.375 20.9785 25.425 20.9785 26.7188C20.9785 28.0125 22.0285 29.0625 23.3223 29.0625C24.616 29.0625 25.666 28.0125 25.666 26.7188C25.666 25.425 24.616 24.375 23.3223 24.375Z" fill="#363F40"/>
<path d="M8.79102 30C6.98164 30 5.50977 28.5281 5.50977 26.7188C5.50977 24.9094 6.98164 23.4375 8.79102 23.4375C10.6004 23.4375 12.0723 24.9094 12.0723 26.7188C12.0723 28.5281 10.6004 30 8.79102 30ZM8.79102 24.375C7.49727 24.375 6.44727 25.425 6.44727 26.7188C6.44727 28.0125 7.49727 29.0625 8.79102 29.0625C10.0848 29.0625 11.1348 28.0125 11.1348 26.7188C11.1348 25.425 10.0848 24.375 8.79102 24.375Z" fill="#363F40"/>
<path d="M26.1348 18.75H5.97852C5.7207 18.75 5.50977 18.5391 5.50977 18.2812V7.96875H6.44727V17.8125H25.8066L29.2145 8.4375H7.38477V7.5H29.8848C30.0395 7.5 30.1801 7.575 30.2691 7.70156C30.3582 7.82813 30.377 7.9875 30.3254 8.13281L26.5754 18.4453C26.5098 18.6281 26.3316 18.75 26.1348 18.75Z" fill="#363F40"/>
<path d="M4.57227 18.75H3.63477V3.75C3.63477 3.23438 3.21289 2.8125 2.69727 2.8125V1.875C3.7332 1.875 4.57227 2.71406 4.57227 3.75V18.75Z" fill="#363F40"/>
<path d="M6.44727 7.96875H5.50977V3.75C5.50977 3.23438 5.08789 2.8125 4.57227 2.8125V1.875C5.6082 1.875 6.44727 2.71406 6.44727 3.75V7.96875Z" fill="#363F40"/>
<path d="M4.57227 1.875H0.353516V2.8125H4.57227V1.875Z" fill="#363F40"/>
<path d="M30.3535 29.0625H0.353516V30H30.3535V29.0625Z" fill="#363F40"/>
<path d="M24.7285 12.1875C24.0301 12.1875 23.6973 11.8313 23.4488 11.5734C23.2473 11.3578 23.1441 11.25 22.8535 11.25C22.5629 11.25 22.4598 11.3578 22.2582 11.5734C22.0098 11.8313 21.677 12.1875 20.9785 12.1875C20.2801 12.1875 19.9473 11.8313 19.6988 11.5734C19.4973 11.3578 19.3941 11.25 19.1035 11.25C18.8129 11.25 18.7098 11.3578 18.5082 11.5734C18.2598 11.8313 17.927 12.1875 17.2285 12.1875C16.5301 12.1875 16.1973 11.8313 15.9488 11.5734C15.7473 11.3578 15.6441 11.25 15.3535 11.25C15.0629 11.25 14.9598 11.3578 14.7582 11.5734C14.5098 11.8313 14.177 12.1875 13.4785 12.1875C12.7801 12.1875 12.4473 11.8313 12.1988 11.5734C11.9973 11.3578 11.8941 11.25 11.6035 11.25C11.3129 11.25 11.2098 11.3578 11.0082 11.5734C10.7598 11.8313 10.427 12.1875 9.72852 12.1875C9.03008 12.1875 8.69727 11.8313 8.44883 11.5734C8.24727 11.3578 8.14414 11.25 7.85352 11.25V10.3125C8.55195 10.3125 8.88477 10.6687 9.1332 10.9266C9.33477 11.1422 9.43789 11.25 9.72852 11.25C10.0191 11.25 10.1223 11.1422 10.3238 10.9266C10.5723 10.6687 10.9051 10.3125 11.6035 10.3125C12.302 10.3125 12.6348 10.6687 12.8832 10.9266C13.0848 11.1422 13.1879 11.25 13.4785 11.25C13.7691 11.25 13.8723 11.1422 14.0738 10.9266C14.3223 10.6687 14.6551 10.3125 15.3535 10.3125C16.052 10.3125 16.3848 10.6687 16.6332 10.9266C16.8348 11.1422 16.9379 11.25 17.2285 11.25C17.5191 11.25 17.6223 11.1422 17.8238 10.9266C18.0723 10.6687 18.4051 10.3125 19.1035 10.3125C19.802 10.3125 20.1348 10.6687 20.3832 10.9266C20.5848 11.1422 20.6879 11.25 20.9785 11.25C21.2691 11.25 21.3723 11.1422 21.5738 10.9266C21.8223 10.6687 22.1551 10.3125 22.8535 10.3125C23.552 10.3125 23.8848 10.6687 24.1332 10.9266C24.3348 11.1422 24.4379 11.25 24.7285 11.25C25.0191 11.25 25.1223 11.1422 25.3238 10.9266C25.5723 10.6687 25.9051 10.3125 26.6035 10.3125V11.25C26.3129 11.25 26.2098 11.3578 26.0082 11.5734C25.7598 11.8313 25.427 12.1875 24.7285 12.1875Z" fill="#363F40"/>
<path d="M24.7285 15.9375C24.0301 15.9375 23.6973 15.5812 23.4488 15.3234C23.2473 15.1078 23.1441 15 22.8535 15C22.5629 15 22.4598 15.1078 22.2582 15.3234C22.0098 15.5812 21.677 15.9375 20.9785 15.9375C20.2801 15.9375 19.9473 15.5812 19.6988 15.3234C19.4973 15.1078 19.3941 15 19.1035 15C18.8129 15 18.7098 15.1078 18.5082 15.3234C18.2598 15.5812 17.927 15.9375 17.2285 15.9375C16.5301 15.9375 16.1973 15.5812 15.9488 15.3234C15.7473 15.1078 15.6441 15 15.3535 15C15.0629 15 14.9598 15.1078 14.7582 15.3234C14.5098 15.5812 14.177 15.9375 13.4785 15.9375C12.7801 15.9375 12.4473 15.5812 12.1988 15.3234C11.9973 15.1078 11.8941 15 11.6035 15C11.3129 15 11.2098 15.1078 11.0082 15.3234C10.7598 15.5812 10.427 15.9375 9.72852 15.9375C9.03008 15.9375 8.69727 15.5812 8.44883 15.3234C8.24727 15.1078 8.14414 15 7.85352 15V14.0625C8.55195 14.0625 8.88477 14.4187 9.1332 14.6766C9.33477 14.8922 9.43789 15 9.72852 15C10.0191 15 10.1223 14.8922 10.3238 14.6766C10.5723 14.4187 10.9051 14.0625 11.6035 14.0625C12.302 14.0625 12.6348 14.4187 12.8832 14.6766C13.0848 14.8922 13.1879 15 13.4785 15C13.7691 15 13.8723 14.8922 14.0738 14.6766C14.3223 14.4187 14.6551 14.0625 15.3535 14.0625C16.052 14.0625 16.3848 14.4187 16.6332 14.6766C16.8348 14.8922 16.9379 15 17.2285 15C17.5191 15 17.6223 14.8922 17.8238 14.6766C18.0723 14.4187 18.4051 14.0625 19.1035 14.0625C19.802 14.0625 20.1348 14.4187 20.3832 14.6766C20.5848 14.8922 20.6879 15 20.9785 15C21.2691 15 21.3723 14.8922 21.5738 14.6766C21.8223 14.4187 22.1551 14.0625 22.8535 14.0625C23.552 14.0625 23.8848 14.4187 24.1332 14.6766C24.3348 14.8922 24.4379 15 24.7285 15V15.9375Z" fill="#363F40"/>
<path d="M8.79102 27.6562C9.30878 27.6562 9.72852 27.2365 9.72852 26.7188C9.72852 26.201 9.30878 25.7812 8.79102 25.7812C8.27325 25.7812 7.85352 26.201 7.85352 26.7188C7.85352 27.2365 8.27325 27.6562 8.79102 27.6562Z" fill="#363F40"/>
<path d="M23.3223 27.6562C23.84 27.6562 24.2598 27.2365 24.2598 26.7188C24.2598 26.201 23.84 25.7812 23.3223 25.7812C22.8045 25.7812 22.3848 26.201 22.3848 26.7188C22.3848 27.2365 22.8045 27.6562 23.3223 27.6562Z" fill="#363F40"/>
<path d="M22.3848 6.5625H21.4473V4.6875H10.1973V6.5625H9.25977V4.21875C9.25977 3.96094 9.4707 3.75 9.72852 3.75H21.916C22.1738 3.75 22.3848 3.96094 22.3848 4.21875V6.5625Z" fill="#363F40"/>
<path d="M25.666 6.5625H24.7285V0.9375H17.2285V2.8125H16.291V0.46875C16.291 0.210938 16.502 0 16.7598 0H25.1973C25.4551 0 25.666 0.210938 25.666 0.46875V6.5625Z" fill="#363F40"/>
<path d="M21.916 2.8125H20.041C19.7832 2.8125 19.5723 2.60156 19.5723 2.34375V0.46875C19.5723 0.210938 19.7832 0 20.041 0H21.916C22.1738 0 22.3848 0.210938 22.3848 0.46875V2.34375C22.3848 2.60156 22.1738 2.8125 21.916 2.8125ZM20.5098 1.875H21.4473V0.9375H20.5098V1.875Z" fill="#363F40"/>
</g>
<defs>
<clipPath id="clip0_586_9215">
<rect width="30" height="30" fill="white" transform="translate(0.353516)"/>
</clipPath>
</defs>
</svg>
