<svg width="53" height="60" viewBox="0 0 53 60" fill="none" xmlns="http://www.w3.org/2000/svg">
<g clip-path="url(#clip0_446_47314)">
<path d="M15 22.5H13.125V24.375H15V22.5Z" fill="#363F40"/>
<path d="M11.25 22.5H9.375V24.375H11.25V22.5Z" fill="#363F40"/>
<path d="M16.875 28.125H3.75V26.25H16.875V9.375H0V7.5H16.875C17.9062 7.5 18.75 8.34375 18.75 9.375V26.25C18.75 27.2812 17.9062 28.125 16.875 28.125Z" fill="#363F40"/>
<path d="M42.1875 14.0625V12.1875C42.7031 12.1875 43.125 11.7656 43.125 11.25V10.3125C43.125 9.79688 42.7031 9.375 42.1875 9.375H30V7.5H42.1875C43.7344 7.5 45 8.76562 45 10.3125V11.25C45 12.7969 43.7344 14.0625 42.1875 14.0625Z" fill="#363F40"/>
<path d="M43.125 18.75H40.3125V16.875H43.125C43.6406 16.875 44.0625 16.4531 44.0625 15.9375V15C44.0625 14.4844 43.6406 14.0625 43.125 14.0625H40.3125V12.1875H43.125C44.6719 12.1875 45.9375 13.4531 45.9375 15V15.9375C45.9375 17.4844 44.6719 18.75 43.125 18.75Z" fill="#363F40"/>
<path d="M42.1875 23.4375H39.375V21.5625H42.1875C42.7031 21.5625 43.125 21.1406 43.125 20.625V19.6875C43.125 19.1719 42.7031 18.75 42.1875 18.75V16.875C43.7344 16.875 45 18.1406 45 19.6875V20.625C45 22.1719 43.7344 23.4375 42.1875 23.4375Z" fill="#363F40"/>
<path d="M41.25 28.125H30C29.925 28.125 29.85 28.1156 29.775 28.0969L22.3875 26.25H17.8125V24.375H22.5C22.575 24.375 22.65 24.3844 22.725 24.4031L30.1125 26.25H41.25C41.7656 26.25 42.1875 25.8281 42.1875 25.3125V24.375C42.1875 23.8594 41.7656 23.4375 41.25 23.4375V21.5625C42.7969 21.5625 44.0625 22.8281 44.0625 24.375V25.3125C44.0625 26.8594 42.7969 28.125 41.25 28.125Z" fill="#363F40"/>
<path d="M20.625 11.25H17.8125V9.37499H20.2406L25.5938 4.02186C25.725 3.89061 25.8938 3.80624 26.0719 3.76874L30.7594 2.83124L31.125 4.66874L26.7188 5.54999L21.2906 10.9781C21.1125 11.1469 20.8781 11.25 20.625 11.25Z" fill="#363F40"/>
<path d="M38.4376 9.375H32.8126C32.3813 9.375 32.0063 9.08437 31.9032 8.6625L30.0282 1.1625C29.9626 0.88125 30.0188 0.58125 30.197 0.35625C30.3751 0.13125 30.647 0 30.9376 0H40.3126C40.6032 0 40.8751 0.13125 41.0532 0.35625C41.2313 0.58125 41.297 0.88125 41.222 1.1625L39.347 8.6625C39.2438 9.08437 38.8688 9.375 38.4376 9.375ZM33.5438 7.5H37.7063L39.1126 1.875H32.1376L33.5438 7.5Z" fill="#363F40"/>
<path d="M34.6875 60C23.8688 60 16.875 54.1125 16.875 45C16.875 39.4406 20.5969 35.025 23.8781 31.125C25.2281 29.5218 26.5031 28.0031 27.3187 26.6156L28.9313 27.5625C28.0313 29.0906 26.7094 30.6562 25.3125 32.325C22.2375 35.9812 18.75 40.1156 18.75 44.9906C18.75 54.675 27.3375 58.1156 34.6875 58.1156C42.0375 58.1156 50.625 54.675 50.625 44.9906C50.625 40.1156 47.1375 35.9718 44.0625 32.325C42.6656 30.6562 41.3344 29.0906 40.4437 27.5625L42.0563 26.6156C42.8719 28.0031 44.1469 29.5218 45.4969 31.125C48.7781 35.025 52.5 39.4406 52.5 45C52.5 54.1125 45.5063 60 34.6875 60Z" fill="#363F40"/>
<path d="M34.6875 49.6875C32.6156 49.6875 30.9375 48.0094 30.9375 45.9375H32.8125C32.8125 46.9688 33.6562 47.8125 34.6875 47.8125C35.7188 47.8125 36.5625 46.9688 36.5625 45.9375C36.5625 45.3281 35.2313 44.3906 34.3031 43.9781C33.7406 43.725 30.9375 42.3656 30.9375 40.3125C30.9375 38.2406 32.6156 36.5625 34.6875 36.5625C36.7594 36.5625 38.4375 38.2406 38.4375 40.3125H36.5625C36.5625 39.2812 35.7188 38.4375 34.6875 38.4375C33.6562 38.4375 32.8125 39.2812 32.8125 40.3125C32.8125 40.9219 34.1437 41.8594 35.0719 42.2719C35.6344 42.525 38.4375 43.8844 38.4375 45.9375C38.4375 48.0094 36.7594 49.6875 34.6875 49.6875Z" fill="#363F40"/>
<path d="M35.625 34.6875H33.75V37.5H35.625V34.6875Z" fill="#363F40"/>
<path d="M35.625 48.75H33.75V51.5625H35.625V48.75Z" fill="#363F40"/>
<path d="M42.1875 42.1875H40.3125V44.0625H42.1875V42.1875Z" fill="#363F40"/>
<path d="M29.0625 42.1875H27.1875V44.0625H29.0625V42.1875Z" fill="#363F40"/>
</g>
<defs>
<clipPath id="clip0_446_47314">
<rect width="52.5" height="60" fill="white"/>
</clipPath>
</defs>
</svg>
