<svg width="57" height="61" viewBox="0 0 57 61" fill="none" xmlns="http://www.w3.org/2000/svg">
<path d="M55.3125 9.375H46.875V0.9375H48.75V7.5H55.3125V9.375Z" fill="#363F40"/>
<path d="M55.3125 52.5H44.0625V50.625H54.375V8.82187L47.4281 1.875H16.875V50.625H27.1875V52.5H15.9375C15.4219 52.5 15 52.0781 15 51.5625V0.9375C15 0.421875 15.4219 0 15.9375 0H47.8125C48.0656 0 48.3 0.103125 48.4781 0.271875L55.9781 7.77187C56.1469 7.95 56.25 8.18437 56.25 8.4375V51.5625C56.25 52.0781 55.8281 52.5 55.3125 52.5Z" fill="#363F40"/>
<path d="M41.25 60C41.0344 60 40.8188 59.925 40.65 59.7844L35.625 55.5937L30.6 59.7844C30.3187 60.0188 29.9344 60.0656 29.6062 59.9156C29.2687 59.7562 29.0625 59.4281 29.0625 59.0625V47.8125H30.9375V57.0656L35.025 53.6625C35.3719 53.3719 35.8781 53.3719 36.225 53.6625L40.3125 57.0656V47.8125H42.1875V59.0625C42.1875 59.4281 41.9812 59.7562 41.6437 59.9156C41.5219 59.9719 41.3813 60 41.25 60Z" fill="#363F40"/>
<path d="M35.625 48.75C34.0406 48.75 32.6437 47.7469 32.1094 46.3031C31.5563 46.125 31.0219 45.9 30.5156 45.6375C30.0469 45.8344 29.5594 45.9375 29.0625 45.9375C26.9906 45.9375 25.3125 44.2594 25.3125 42.1875C25.3125 41.6906 25.4156 41.2031 25.6125 40.7344C25.35 40.2188 25.125 39.6844 24.9469 39.1406C23.5031 38.6063 22.5 37.2094 22.5 35.625C22.5 34.0406 23.5031 32.6437 24.9469 32.1094C25.125 31.5563 25.35 31.0219 25.6125 30.5156C25.4156 30.0469 25.3125 29.5594 25.3125 29.0625C25.3125 26.9906 26.9906 25.3125 29.0625 25.3125C29.5594 25.3125 30.0469 25.4156 30.5156 25.6125C31.0312 25.35 31.5656 25.125 32.1094 24.9469C32.6437 23.5031 34.0406 22.5 35.625 22.5C37.2094 22.5 38.6063 23.5031 39.1406 24.9469C39.6937 25.125 40.2281 25.35 40.7344 25.6125C41.2031 25.4156 41.6906 25.3125 42.1875 25.3125C44.2594 25.3125 45.9375 26.9906 45.9375 29.0625C45.9375 29.5594 45.8344 30.0469 45.6375 30.5156C45.9 31.0312 46.125 31.5656 46.3031 32.1094C47.7469 32.6437 48.75 34.0406 48.75 35.625C48.75 37.2094 47.7469 38.6063 46.3031 39.1406C46.125 39.6937 45.9 40.2281 45.6375 40.7344C45.8344 41.2031 45.9375 41.6906 45.9375 42.1875C45.9375 44.2594 44.2594 45.9375 42.1875 45.9375C41.6906 45.9375 41.2031 45.8344 40.7344 45.6375C40.2188 45.9 39.6844 46.125 39.1406 46.3031C38.6063 47.7469 37.2094 48.75 35.625 48.75ZM30.5063 43.4906L30.9844 43.7625C31.65 44.1375 32.3625 44.4375 33.1125 44.6437L33.6656 44.7937L33.7781 45.3563C33.9656 46.2375 34.7344 46.875 35.625 46.875C36.5156 46.875 37.2844 46.2375 37.4625 45.3656L37.575 44.8031L38.1281 44.6531C38.8781 44.4469 39.5906 44.1469 40.2562 43.7719L40.7344 43.5L41.2031 43.7906C41.5219 43.9687 41.85 44.0625 42.1875 44.0625C43.2188 44.0625 44.0625 43.2188 44.0625 42.1875C44.0625 41.85 43.9688 41.5219 43.7813 41.2125L43.4906 40.7437L43.7625 40.2656C44.1375 39.6 44.4375 38.8875 44.6437 38.1375L44.7937 37.5844L45.3563 37.4719C46.2375 37.2844 46.875 36.5156 46.875 35.625C46.875 34.7344 46.2375 33.9656 45.3656 33.7875L44.8031 33.675L44.6531 33.1219C44.4469 32.3719 44.1469 31.6594 43.7719 30.9938L43.5 30.5156L43.7906 30.0469C43.9687 29.7281 44.0625 29.4 44.0625 29.0625C44.0625 28.0312 43.2188 27.1875 42.1875 27.1875C41.85 27.1875 41.5219 27.2812 41.2125 27.4687L40.7437 27.7594L40.2656 27.4875C39.6 27.1125 38.8875 26.8125 38.1375 26.6062L37.5844 26.4562L37.4719 25.8938C37.2844 25.0125 36.5156 24.375 35.625 24.375C34.7344 24.375 33.9656 25.0125 33.7875 25.8844L33.675 26.4469L33.1219 26.5969C32.3719 26.8031 31.6594 27.1031 30.9938 27.4781L30.5156 27.75L30.0469 27.4594C29.7281 27.2813 29.4 27.1875 29.0625 27.1875C28.0312 27.1875 27.1875 28.0312 27.1875 29.0625C27.1875 29.4 27.2812 29.7281 27.4687 30.0375L27.7594 30.5063L27.4875 30.9844C27.1125 31.65 26.8125 32.3625 26.6062 33.1125L26.4562 33.6656L25.8938 33.7781C25.0125 33.9656 24.375 34.7344 24.375 35.625C24.375 36.5156 25.0125 37.2844 25.8844 37.4625L26.4469 37.575L26.5969 38.1281C26.8031 38.8781 27.1031 39.5906 27.4781 40.2562L27.75 40.7344L27.4594 41.2031C27.2813 41.5219 27.1875 41.85 27.1875 42.1875C27.1875 43.2188 28.0312 44.0625 29.0625 44.0625C29.4 44.0625 29.7281 43.9688 30.0375 43.7813L30.5063 43.4906Z" fill="#363F40"/>
<path d="M35.625 42.1875C32.0063 42.1875 29.0625 39.2437 29.0625 35.625C29.0625 32.0063 32.0063 29.0625 35.625 29.0625C39.2437 29.0625 42.1875 32.0063 42.1875 35.625C42.1875 39.2437 39.2437 42.1875 35.625 42.1875ZM35.625 30.9375C33.0375 30.9375 30.9375 33.0375 30.9375 35.625C30.9375 38.2125 33.0375 40.3125 35.625 40.3125C38.2125 40.3125 40.3125 38.2125 40.3125 35.625C40.3125 33.0375 38.2125 30.9375 35.625 30.9375Z" fill="#363F40"/>
<path d="M1.875 30H0V14.0625C0 12.5156 1.26563 11.25 2.8125 11.25H4.6875V13.125H2.8125C2.29687 13.125 1.875 13.5469 1.875 14.0625V30Z" fill="#363F40"/>
<path d="M10.3125 46.875H4.6875V48.75H10.3125V46.875Z" fill="#363F40"/>
<path d="M10.3125 7.5H4.6875V9.375H10.3125V7.5Z" fill="#363F40"/>
<path d="M7.5 60C7.17188 60 6.8625 59.8312 6.69375 59.5406L3.88125 54.8531C3.79687 54.7125 3.75 54.5438 3.75 54.375V3.75C3.75 1.67812 5.42812 0 7.5 0C9.57188 0 11.25 1.67812 11.25 3.75V54.375C11.25 54.5438 11.2031 54.7125 11.1187 54.8531L8.30625 59.5406C8.1375 59.8312 7.82812 60 7.5 60ZM5.625 54.1125L7.5 57.2344L9.375 54.1125V3.75C9.375 2.71875 8.53125 1.875 7.5 1.875C6.46875 1.875 5.625 2.71875 5.625 3.75V54.1125Z" fill="#363F40"/>
<path d="M31.875 4.6875H20.625V6.5625H31.875V4.6875Z" fill="#363F40"/>
<path d="M50.625 11.25H20.625V13.125H50.625V11.25Z" fill="#363F40"/>
<path d="M50.625 15H20.625V16.875H50.625V15Z" fill="#363F40"/>
<path d="M50.625 18.75H20.625V20.625H50.625V18.75Z" fill="#363F40"/>
</svg>
