<svg width="55" height="60" viewBox="0 0 55 60" fill="none" xmlns="http://www.w3.org/2000/svg">
<g clip-path="url(#clip0_505_10113)">
<path d="M34.6875 33.75H32.8125V37.5H34.6875V33.75Z" fill="#363F40"/>
<path d="M21.5625 33.75H19.6875V37.5H21.5625V33.75Z" fill="#363F40"/>
<path d="M27.1875 36.5625C25.3219 36.5625 22.2844 35.6719 21 34.5094C20.2687 34.0781 16.9594 31.8469 15.9937 25.7531L15 24.7594V21.5625H16.875V23.9906L17.7563 24.8719L17.8031 25.1813C18.6469 31.1156 21.8531 32.85 21.9844 32.9156L22.2188 33.0844C22.9219 33.7875 25.4531 34.6875 27.1875 34.6875C28.9219 34.6875 31.4531 33.7875 32.1469 33.0844L32.25 32.9719L32.3906 32.9062C32.5219 32.8406 35.7187 31.1063 36.5719 25.1719L36.6187 24.8625L37.5 23.9906V21.5625H39.375V24.7594L38.3812 25.7531C37.4156 31.8469 34.1062 34.0781 33.375 34.5094C32.0906 35.6719 29.0531 36.5625 27.1875 36.5625Z" fill="#363F40"/>
<path d="M54.375 60H52.5V54.375C52.5 48.2906 47.7937 46.6218 42.3469 44.6906C40.6312 44.0812 38.8594 43.4531 37.2375 42.6656C36.0938 45.7875 31.4625 48.75 27.1875 48.75C22.9125 48.75 18.2813 45.7875 17.1375 42.6656C15.5156 43.4625 13.7437 44.0812 12.0281 44.6906C6.58125 46.6218 1.875 48.2906 1.875 54.375V60H0V54.375C0 46.9687 5.79375 44.9156 11.4 42.9281C13.4531 42.1969 15.5813 41.4469 17.3438 40.4344C17.6344 40.2656 17.9906 40.2656 18.2812 40.4344C18.5719 40.6031 18.75 40.9125 18.75 41.25C18.75 43.3687 22.8375 46.875 27.1875 46.875C31.5375 46.875 35.625 43.3687 35.625 41.25C35.625 40.9125 35.8031 40.6031 36.0938 40.4344C36.3844 40.2656 36.7406 40.2656 37.0312 40.4344C38.8031 41.4469 40.9219 42.1969 42.975 42.9281C48.5813 44.9156 54.375 46.9687 54.375 54.375V60Z" fill="#363F40"/>
<path d="M27.1875 43.125C27.0187 43.125 26.8406 43.0781 26.6906 42.9844L20.0625 38.8407L18.6469 41.6719L16.9688 40.8375L18.8437 37.0875C18.9656 36.8532 19.1719 36.675 19.425 36.6C19.6781 36.5344 19.95 36.5719 20.175 36.7125L27.1875 41.0813L34.1906 36.7032C34.4156 36.5625 34.6875 36.525 34.9406 36.5907C35.1937 36.6657 35.4094 36.8344 35.5219 37.0782L37.3969 40.8281L35.7187 41.6625L34.3031 38.8313L27.675 42.975C27.5344 43.0781 27.3562 43.125 27.1875 43.125Z" fill="#363F40"/>
<path d="M28.125 42.1875H26.25V47.8125H28.125V42.1875Z" fill="#363F40"/>
<path d="M11.25 45H9.375V60H11.25V45Z" fill="#363F40"/>
<path d="M15 43.125H13.125V60H15V43.125Z" fill="#363F40"/>
<path d="M41.25 43.125H39.375V60H41.25V43.125Z" fill="#363F40"/>
<path d="M45 45H43.125V60H45V45Z" fill="#363F40"/>
<path d="M41.25 20.625H13.125V15.9375C13.125 8.98127 18.3094 3.00002 25.1813 2.01565L25.4437 3.8719C19.4906 4.72502 15 9.9094 15 15.9375V18.75H39.375V15.9375C39.375 9.9094 34.8844 4.72502 28.9313 3.8719L29.1937 2.01565C36.0656 3.00002 41.25 8.98127 41.25 15.9375V20.625Z" fill="#363F40"/>
<path d="M14.0625 18.75H11.25V20.625H14.0625V18.75Z" fill="#363F40"/>
<path d="M43.125 18.75H40.3125V20.625H43.125V18.75Z" fill="#363F40"/>
<path d="M27.1875 16.875C24.6 16.875 22.5 14.775 22.5 12.1875C22.5 9.6 24.6 7.5 27.1875 7.5C29.775 7.5 31.875 9.6 31.875 12.1875C31.875 14.775 29.775 16.875 27.1875 16.875ZM27.1875 9.375C25.6406 9.375 24.375 10.6406 24.375 12.1875C24.375 13.7344 25.6406 15 27.1875 15C28.7344 15 30 13.7344 30 12.1875C30 10.6406 28.7344 9.375 27.1875 9.375Z" fill="#363F40"/>
<path d="M35.625 56.25H18.75V58.125H35.625V56.25Z" fill="#363F40"/>
<path d="M35.625 52.5H18.75V54.375H35.625V52.5Z" fill="#363F40"/>
<path d="M30 8.4375H28.125V1.875H26.25V8.4375H24.375V0H30V8.4375Z" fill="#363F40"/>
<path d="M35.625 11.25H33.75V13.125H35.625V11.25Z" fill="#363F40"/>
<path d="M20.625 11.25H18.75V13.125H20.625V11.25Z" fill="#363F40"/>
</g>
<defs>
<clipPath id="clip0_505_10113">
<rect width="54.375" height="60" fill="white"/>
</clipPath>
</defs>
</svg>
