<svg width="60" height="60" viewBox="0 0 60 60" fill="none" xmlns="http://www.w3.org/2000/svg">
<path d="M16.2094 22.2281L3.75 9.75937L1.60312 11.9062C1.33125 12.1781 0.928125 12.2531 0.58125 12.1125C0.225 11.9719 0 11.625 0 11.25V0.9375C0 0.421875 0.421875 0 0.9375 0H11.25C11.625 0 11.9719 0.225 12.1125 0.58125C12.2625 0.928125 12.1781 1.33125 11.9062 1.60313L9.75937 3.75L19.4062 13.3969L18.0844 14.7188L7.77187 4.40625C7.40625 4.04062 7.40625 3.45 7.77187 3.08437L8.99062 1.875H1.875V8.99063L3.08437 7.78125C3.45 7.41563 4.04062 7.41563 4.40625 7.78125L17.5312 20.9062L16.2094 22.2281Z" fill="#363F40"/>
<path d="M59.0626 60H48.7501C48.3751 60 48.0282 59.775 47.8876 59.4187C47.7376 59.0719 47.822 58.6687 48.0938 58.3969L50.2407 56.25L38.7095 44.7281L40.0313 43.4062L52.2188 55.5937C52.5845 55.9594 52.5845 56.55 52.2188 56.9156L51.0095 58.125H58.1251V51.0094L56.9157 52.2187C56.5501 52.5844 55.9595 52.5844 55.5938 52.2187L41.5313 38.1562L42.8532 36.8344L56.2501 50.2406L58.397 48.0937C58.6688 47.8219 59.072 47.7469 59.4188 47.8875C59.7751 48.0281 60.0001 48.375 60.0001 48.75V59.0625C60.0001 59.5781 59.5782 60 59.0626 60Z" fill="#363F40"/>
<path d="M43.7907 22.2281L42.4688 20.9062L55.5938 7.78125C55.9595 7.41563 56.5501 7.41563 56.9157 7.78125L58.1251 8.99063V1.875H51.0095L52.2188 3.08437C52.5845 3.45 52.5845 4.04062 52.2188 4.40625L41.9063 14.7188L40.5845 13.3969L50.2407 3.75L48.0938 1.60313C47.822 1.33125 47.747 0.928125 47.8876 0.58125C48.0282 0.225 48.3751 0 48.7501 0H59.0626C59.5782 0 60.0001 0.421875 60.0001 0.9375V11.25C60.0001 11.625 59.7751 11.9719 59.4188 12.1125C59.072 12.2625 58.6688 12.1781 58.397 11.9062L56.2501 9.75937L43.7907 22.2281Z" fill="#363F40"/>
<path d="M11.25 60H0.9375C0.421875 60 0 59.5782 0 59.0625V48.7501C0 48.3751 0.225 48.0282 0.58125 47.8876C0.9375 47.7469 1.33125 47.8219 1.60313 48.0938L3.75 50.2407L17.1469 36.8438L18.4688 38.1657L4.40625 52.2282C4.04062 52.5938 3.45 52.5938 3.08437 52.2282L1.875 51.0094V58.125H8.99063L7.78125 56.9157C7.41563 56.55 7.41563 55.9594 7.78125 55.5938L19.9688 43.4063L21.2906 44.7282L9.75937 56.25L11.9062 58.3969C12.1781 58.6688 12.2531 59.0719 12.1125 59.4188C11.9719 59.7751 11.625 60 11.25 60Z" fill="#363F40"/>
<path d="M30.9375 38.4375H29.0625V60H30.9375V38.4375Z" fill="#363F40"/>
<path d="M30 11.25C26.8969 11.25 24.375 8.72812 24.375 5.625C24.375 2.52188 26.8969 0 30 0C33.1031 0 35.625 2.52188 35.625 5.625C35.625 8.72812 33.1031 11.25 30 11.25ZM30 1.875C27.9281 1.875 26.25 3.55312 26.25 5.625C26.25 7.69688 27.9281 9.375 30 9.375C32.0719 9.375 33.75 7.69688 33.75 5.625C33.75 3.55312 32.0719 1.875 30 1.875Z" fill="#363F40"/>
<path d="M37.5 60H35.625V34.6875H39.375V20.625C39.375 17.5219 36.8531 15 33.75 15H26.25C23.1469 15 20.625 17.5219 20.625 20.625V34.6875H24.375V60H22.5V36.5625H18.75V20.625C18.75 16.4906 22.1156 13.125 26.25 13.125H33.75C37.8844 13.125 41.25 16.4906 41.25 20.625V36.5625H37.5V60Z" fill="#363F40"/>
<path d="M30.9375 16.875H29.0625V18.75H30.9375V16.875Z" fill="#363F40"/>
<path d="M30.9375 20.625H29.0625V22.5H30.9375V20.625Z" fill="#363F40"/>
</svg>
