<svg width="61" height="60" viewBox="0 0 61 60" fill="none" xmlns="http://www.w3.org/2000/svg">
<g clip-path="url(#clip0_512_34106)">
<path d="M57.0924 28.1249H20.9338V26.2499H55.1893V9.37492H20.9338V7.49992H57.0924V28.1249Z" fill="#363F40"/>
<path d="M11.4185 11.25C8.26887 11.25 5.70923 8.72812 5.70923 5.625C5.70923 2.52188 8.26887 0 11.4185 0C14.5681 0 17.1277 2.52188 17.1277 5.625C17.1277 8.72812 14.5681 11.25 11.4185 11.25ZM11.4185 1.875C9.31557 1.875 7.61231 3.55312 7.61231 5.625C7.61231 7.69688 9.31557 9.375 11.4185 9.375C13.5214 9.375 15.2246 7.69688 15.2246 5.625C15.2246 3.55312 13.5214 1.875 11.4185 1.875Z" fill="#363F40"/>
<path d="M60.8986 35.625H17.1277V18.75H32.3524V15H7.61233C4.46273 15 1.90308 17.5218 1.90308 20.625V33.75H5.70924V26.25H7.61233V35.625H0V20.625C0 16.4906 3.41603 13.125 7.61233 13.125H34.2555V20.625H19.0308V33.75H58.9955V5.62497H19.0308V3.74997H60.8986V35.625Z" fill="#363F40"/>
<path d="M57.0924 30H20.9338V31.875H57.0924V30Z" fill="#363F40"/>
<path d="M58.044 60.0001H2.85462C1.30361 60.0001 0 58.2844 0 56.2501V53.8313L7.13656 49.8094L8.07858 51.4407L1.90308 54.9188V56.2501C1.90308 57.3938 2.56916 58.1251 2.85462 58.1251H58.044C58.3295 58.1251 58.9955 57.3938 58.9955 56.2501V54.9188L52.8105 51.4407L53.7525 49.8094L60.8891 53.8313V56.2501C60.8986 58.2844 59.595 60.0001 58.044 60.0001Z" fill="#363F40"/>
<path d="M40.9448 55.4345L32.8757 51.4595L33.7321 49.7907L40.8877 53.3157L47.1013 49.8095L48.0528 51.4407L40.9448 55.4345Z" fill="#363F40"/>
<path d="M19.9537 55.4345L12.8457 51.4407L13.7972 49.8095L20.0108 53.3157L27.1664 49.7907L28.0228 51.4595L19.9537 55.4345Z" fill="#363F40"/>
<path d="M10.4671 52.5001C7.21279 52.5001 4.75781 49.4813 4.75781 45.4688C4.75781 42.6282 5.40486 39.3751 10.4671 39.3751C15.5293 39.3751 16.1763 42.6282 16.1763 45.4688C16.1763 49.4813 13.7213 52.5001 10.4671 52.5001ZM10.4671 41.2501C7.58389 41.2501 6.66089 42.2719 6.66089 45.4688C6.66089 47.9719 7.99305 50.6251 10.4671 50.6251C12.9411 50.6251 14.2732 47.9719 14.2732 45.4688C14.2732 42.2719 13.3502 41.2501 10.4671 41.2501Z" fill="#363F40"/>
<path d="M30.4492 52.5001C27.195 52.5001 24.74 49.4813 24.74 45.4688C24.74 42.6282 25.387 39.3751 30.4492 39.3751C35.5114 39.3751 36.1585 42.6282 36.1585 45.4688C36.1585 49.4813 33.7035 52.5001 30.4492 52.5001ZM30.4492 41.2501C27.5661 41.2501 26.6431 42.2719 26.6431 45.4688C26.6431 47.9719 27.9752 50.6251 30.4492 50.6251C32.9232 50.6251 34.2554 47.9719 34.2554 45.4688C34.2554 42.2719 33.3324 41.2501 30.4492 41.2501Z" fill="#363F40"/>
<path d="M50.4317 52.5001C47.1774 52.5001 44.7224 49.4813 44.7224 45.4688C44.7224 42.6282 45.3695 39.3751 50.4317 39.3751C55.4939 39.3751 56.1409 42.6282 56.1409 45.4688C56.1409 49.4813 53.6859 52.5001 50.4317 52.5001ZM50.4317 41.2501C47.5485 41.2501 46.6255 42.2719 46.6255 45.4688C46.6255 47.9719 47.9577 50.6251 50.4317 50.6251C52.9057 50.6251 54.2378 47.9719 54.2378 45.4688C54.2378 42.2719 53.3148 41.2501 50.4317 41.2501Z" fill="#363F40"/>
<path d="M20.9338 54.3751H19.0308V57.1876H20.9338V54.3751Z" fill="#363F40"/>
<path d="M41.8677 54.3751H39.9646V57.1876H41.8677V54.3751Z" fill="#363F40"/>
<path d="M12.3701 16.875H10.467V18.75H12.3701V16.875Z" fill="#363F40"/>
<path d="M12.3701 20.6249H10.467V22.4999H12.3701V20.6249Z" fill="#363F40"/>
</g>
<defs>
<clipPath id="clip0_512_34106">
<rect width="60.8986" height="60" fill="white"/>
</clipPath>
</defs>
</svg>
