<svg width="67" height="60" viewBox="0 0 67 60" fill="none" xmlns="http://www.w3.org/2000/svg">
<g clip-path="url(#clip0_505_10287)">
<path d="M62.069 49.6552H37.2414V47.5862H62.069C63.2069 47.5862 64.1379 46.6552 64.1379 45.5172V4.13793C64.1379 3 63.2069 2.06897 62.069 2.06897H4.13793C3 2.06897 2.06897 3 2.06897 4.13793V6.2069H0V4.13793C0 1.85172 1.85172 0 4.13793 0H62.069C64.3552 0 66.2069 1.85172 66.2069 4.13793V45.5172C66.2069 47.8035 64.3552 49.6552 62.069 49.6552Z" fill="#363F40"/>
<path d="M43.4484 48.6207H41.3794V58.9655H43.4484V48.6207Z" fill="#363F40"/>
<path d="M47.5863 57.931H37.2415V60H47.5863V57.931Z" fill="#363F40"/>
<path d="M62.069 41.3793H37.2414V39.3104H60V6.2069H4.13794V4.13794H62.069V41.3793Z" fill="#363F40"/>
<path d="M35.1724 60H0V8.27585H35.1724V60ZM2.06897 57.931H33.1034V10.3448H2.06897V57.931Z" fill="#363F40"/>
<path d="M34.1379 12.4138H1.03442V14.4828H34.1379V12.4138Z" fill="#363F40"/>
<path d="M14.4826 18.6207H6.20679V20.6897H14.4826V18.6207Z" fill="#363F40"/>
<path d="M22.7585 22.7586H14.4827V24.8276H22.7585V22.7586Z" fill="#363F40"/>
<path d="M12.4137 22.7586H6.20679V24.8276H12.4137V22.7586Z" fill="#363F40"/>
<path d="M20.6897 35.1724H12.4138V37.2414H20.6897V35.1724Z" fill="#363F40"/>
<path d="M10.3447 35.1724H6.20679V37.2414H10.3447V35.1724Z" fill="#363F40"/>
<path d="M20.6896 26.8965H10.3447V28.9655H20.6896V26.8965Z" fill="#363F40"/>
<path d="M28.9654 26.8965H22.7585V28.9655H28.9654V26.8965Z" fill="#363F40"/>
<path d="M24.8275 31.0345H10.3447V33.1034H24.8275V31.0345Z" fill="#363F40"/>
<path d="M16.5516 39.3103H10.3447V41.3793H16.5516V39.3103Z" fill="#363F40"/>
<path d="M28.9654 39.3103H18.6206V41.3793H28.9654V39.3103Z" fill="#363F40"/>
<path d="M24.8275 43.4483H10.3447V45.5172H24.8275V43.4483Z" fill="#363F40"/>
<path d="M20.6896 47.5862H10.3447V49.6552H20.6896V47.5862Z" fill="#363F40"/>
<path d="M28.9654 47.5862H22.7585V49.6552H28.9654V47.5862Z" fill="#363F40"/>
<path d="M14.4826 51.7241H6.20679V53.7931H14.4826V51.7241Z" fill="#363F40"/>
<path d="M20.6897 51.7241H16.5518V53.7931H20.6897V51.7241Z" fill="#363F40"/>
<path d="M39.3104 8.27585H37.2415V16.5517H39.3104V8.27585Z" fill="#363F40"/>
<path d="M46.5516 18.6207H44.4827V26.8966H46.5516V18.6207Z" fill="#363F40"/>
<path d="M50.6896 18.6207H48.6206V26.8966H50.6896V18.6207Z" fill="#363F40"/>
<path d="M39.3104 28.9655H37.2415V37.2414H39.3104V28.9655Z" fill="#363F40"/>
<path d="M43.4484 28.9655H41.3794V37.2414H43.4484V28.9655Z" fill="#363F40"/>
<path d="M57.931 8.27585H55.8621V16.5517H57.931V8.27585Z" fill="#363F40"/>
<path d="M44.4828 16.5517H43.4484C42.3104 16.5517 41.3794 15.6207 41.3794 14.4827V10.3448C41.3794 9.20688 42.3104 8.27585 43.4484 8.27585H44.4828C45.6208 8.27585 46.5518 9.20688 46.5518 10.3448V14.4827C46.5518 15.6207 45.6208 16.5517 44.4828 16.5517ZM43.4484 10.3448V14.4827H44.4828V10.3448H43.4484Z" fill="#363F40"/>
<path d="M40.3449 26.8966H39.3104C38.1725 26.8966 37.2415 25.9655 37.2415 24.8276V20.6897C37.2415 19.5517 38.1725 18.6207 39.3104 18.6207H40.3449C41.4828 18.6207 42.4139 19.5517 42.4139 20.6897V24.8276C42.4139 25.9655 41.4828 26.8966 40.3449 26.8966ZM39.3104 20.6897V24.8276H40.3449V20.6897H39.3104Z" fill="#363F40"/>
<path d="M55.862 26.8966H54.8275C53.6896 26.8966 52.7585 25.9655 52.7585 24.8276V20.6897C52.7585 19.5517 53.6896 18.6207 54.8275 18.6207H55.862C56.9999 18.6207 57.931 19.5517 57.931 20.6897V24.8276C57.931 25.9655 56.9999 26.8966 55.862 26.8966ZM54.8275 20.6897V24.8276H55.862V20.6897H54.8275Z" fill="#363F40"/>
<path d="M48.6208 37.2414H47.5863C46.4484 37.2414 45.5173 36.3103 45.5173 35.1724V31.0345C45.5173 29.8965 46.4484 28.9655 47.5863 28.9655H48.6208C49.7587 28.9655 50.6897 29.8965 50.6897 31.0345V35.1724C50.6897 36.3103 49.7587 37.2414 48.6208 37.2414ZM47.5863 31.0345V35.1724H48.6208V31.0345H47.5863Z" fill="#363F40"/>
<path d="M55.862 37.2414H54.8275C53.6896 37.2414 52.7585 36.3103 52.7585 35.1724V31.0345C52.7585 29.8965 53.6896 28.9655 54.8275 28.9655H55.862C56.9999 28.9655 57.931 29.8965 57.931 31.0345V35.1724C57.931 36.3103 56.9999 37.2414 55.862 37.2414ZM54.8275 31.0345V35.1724H55.862V31.0345H54.8275Z" fill="#363F40"/>
<path d="M51.7241 16.5517H50.6896C49.5516 16.5517 48.6206 15.6207 48.6206 14.4827V10.3448C48.6206 9.20688 49.5516 8.27585 50.6896 8.27585H51.7241C52.862 8.27585 53.793 9.20688 53.793 10.3448V14.4827C53.793 15.6207 52.862 16.5517 51.7241 16.5517ZM50.6896 10.3448V14.4827H51.7241V10.3448H50.6896Z" fill="#363F40"/>
</g>
<defs>
<clipPath id="clip0_505_10287">
<rect width="66.2069" height="60" fill="white"/>
</clipPath>
</defs>
</svg>
