<svg width="60" height="60" viewBox="0 0 60 60" fill="none" xmlns="http://www.w3.org/2000/svg">
<g clip-path="url(#clip0_505_10552)">
<path d="M40.3125 52.5H22.5V54.375H40.3125V52.5Z" fill="#363F40"/>
<path d="M42.1875 48.75H20.625V50.625H42.1875V48.75Z" fill="#363F40"/>
<path d="M11.25 54.375C6.08437 54.375 1.875 50.1656 1.875 45C1.875 39.8344 6.08437 35.625 11.25 35.625H51.5625C52.0781 35.625 52.5 36.0469 52.5 36.5625C52.5 39.15 50.4 41.25 47.8125 41.25H11.25C9.17812 41.25 7.5 42.9281 7.5 45C7.5 47.0719 9.17812 48.75 11.25 48.75H13.125V50.625H11.25C8.14688 50.625 5.625 48.1031 5.625 45C5.625 41.8969 8.14688 39.375 11.25 39.375H47.8125C49.0312 39.375 50.0813 38.5875 50.4656 37.5H11.25C7.11563 37.5 3.75 40.8656 3.75 45C3.75 49.1344 7.11563 52.5 11.25 52.5V54.375Z" fill="#363F40"/>
<path d="M45.9375 60C42.3188 60 39.375 57.0562 39.375 53.4375C39.375 49.8188 42.3188 46.875 45.9375 46.875C49.5562 46.875 52.5 49.8188 52.5 53.4375C52.5 57.0562 49.5562 60 45.9375 60ZM45.9375 48.75C43.35 48.75 41.25 50.85 41.25 53.4375C41.25 56.025 43.35 58.125 45.9375 58.125C48.525 58.125 50.625 56.025 50.625 53.4375C50.625 50.85 48.525 48.75 45.9375 48.75Z" fill="#363F40"/>
<path d="M16.875 60C13.2563 60 10.3125 57.0562 10.3125 53.4375C10.3125 49.8188 13.2563 46.875 16.875 46.875C20.4937 46.875 23.4375 49.8188 23.4375 53.4375C23.4375 57.0562 20.4937 60 16.875 60ZM16.875 48.75C14.2875 48.75 12.1875 50.85 12.1875 53.4375C12.1875 56.025 14.2875 58.125 16.875 58.125C19.4625 58.125 21.5625 56.025 21.5625 53.4375C21.5625 50.85 19.4625 48.75 16.875 48.75Z" fill="#363F40"/>
<path d="M51.5625 37.5H11.25C10.7344 37.5 10.3125 37.0781 10.3125 36.5625V15.9375H12.1875V35.625H50.9062L57.7219 16.875H14.0625V15H59.0625C59.3719 15 59.6531 15.15 59.8312 15.4031C60.0094 15.6563 60.0469 15.975 59.9437 16.2656L52.4437 36.8906C52.3125 37.2562 51.9562 37.5 51.5625 37.5Z" fill="#363F40"/>
<path d="M8.4375 37.5H6.5625V7.5C6.5625 6.46875 5.71875 5.625 4.6875 5.625V3.75C6.75938 3.75 8.4375 5.42812 8.4375 7.5V37.5Z" fill="#363F40"/>
<path d="M12.1875 15.9375H10.3125V7.5C10.3125 6.46875 9.46875 5.625 8.4375 5.625V3.75C10.5094 3.75 12.1875 5.42812 12.1875 7.5V15.9375Z" fill="#363F40"/>
<path d="M8.4375 3.75H0V5.625H8.4375V3.75Z" fill="#363F40"/>
<path d="M60 58.125H0V60H60V58.125Z" fill="#363F40"/>
<path d="M48.75 24.375C47.3531 24.375 46.6875 23.6625 46.1906 23.1469C45.7875 22.7156 45.5813 22.5 45 22.5C44.4187 22.5 44.2125 22.7156 43.8094 23.1469C43.3125 23.6625 42.6469 24.375 41.25 24.375C39.8531 24.375 39.1875 23.6625 38.6906 23.1469C38.2875 22.7156 38.0813 22.5 37.5 22.5C36.9187 22.5 36.7125 22.7156 36.3094 23.1469C35.8125 23.6625 35.1469 24.375 33.75 24.375C32.3531 24.375 31.6875 23.6625 31.1906 23.1469C30.7875 22.7156 30.5813 22.5 30 22.5C29.4187 22.5 29.2125 22.7156 28.8094 23.1469C28.3125 23.6625 27.6469 24.375 26.25 24.375C24.8531 24.375 24.1875 23.6625 23.6906 23.1469C23.2875 22.7156 23.0813 22.5 22.5 22.5C21.9187 22.5 21.7125 22.7156 21.3094 23.1469C20.8125 23.6625 20.1469 24.375 18.75 24.375C17.3531 24.375 16.6875 23.6625 16.1906 23.1469C15.7875 22.7156 15.5813 22.5 15 22.5V20.625C16.3969 20.625 17.0625 21.3375 17.5594 21.8531C17.9625 22.2844 18.1687 22.5 18.75 22.5C19.3313 22.5 19.5375 22.2844 19.9406 21.8531C20.4375 21.3375 21.1031 20.625 22.5 20.625C23.8969 20.625 24.5625 21.3375 25.0594 21.8531C25.4625 22.2844 25.6687 22.5 26.25 22.5C26.8313 22.5 27.0375 22.2844 27.4406 21.8531C27.9375 21.3375 28.6031 20.625 30 20.625C31.3969 20.625 32.0625 21.3375 32.5594 21.8531C32.9625 22.2844 33.1687 22.5 33.75 22.5C34.3313 22.5 34.5375 22.2844 34.9406 21.8531C35.4375 21.3375 36.1031 20.625 37.5 20.625C38.8969 20.625 39.5625 21.3375 40.0594 21.8531C40.4625 22.2844 40.6687 22.5 41.25 22.5C41.8313 22.5 42.0375 22.2844 42.4406 21.8531C42.9375 21.3375 43.6031 20.625 45 20.625C46.3969 20.625 47.0625 21.3375 47.5594 21.8531C47.9625 22.2844 48.1687 22.5 48.75 22.5C49.3313 22.5 49.5375 22.2844 49.9406 21.8531C50.4375 21.3375 51.1031 20.625 52.5 20.625V22.5C51.9187 22.5 51.7125 22.7156 51.3094 23.1469C50.8125 23.6625 50.1469 24.375 48.75 24.375Z" fill="#363F40"/>
<path d="M48.75 31.875C47.3531 31.875 46.6875 31.1625 46.1906 30.6469C45.7875 30.2156 45.5813 30 45 30C44.4187 30 44.2125 30.2156 43.8094 30.6469C43.3125 31.1625 42.6469 31.875 41.25 31.875C39.8531 31.875 39.1875 31.1625 38.6906 30.6469C38.2875 30.2156 38.0813 30 37.5 30C36.9187 30 36.7125 30.2156 36.3094 30.6469C35.8125 31.1625 35.1469 31.875 33.75 31.875C32.3531 31.875 31.6875 31.1625 31.1906 30.6469C30.7875 30.2156 30.5813 30 30 30C29.4187 30 29.2125 30.2156 28.8094 30.6469C28.3125 31.1625 27.6469 31.875 26.25 31.875C24.8531 31.875 24.1875 31.1625 23.6906 30.6469C23.2875 30.2156 23.0813 30 22.5 30C21.9187 30 21.7125 30.2156 21.3094 30.6469C20.8125 31.1625 20.1469 31.875 18.75 31.875C17.3531 31.875 16.6875 31.1625 16.1906 30.6469C15.7875 30.2156 15.5813 30 15 30V28.125C16.3969 28.125 17.0625 28.8375 17.5594 29.3531C17.9625 29.7844 18.1687 30 18.75 30C19.3313 30 19.5375 29.7844 19.9406 29.3531C20.4375 28.8375 21.1031 28.125 22.5 28.125C23.8969 28.125 24.5625 28.8375 25.0594 29.3531C25.4625 29.7844 25.6687 30 26.25 30C26.8313 30 27.0375 29.7844 27.4406 29.3531C27.9375 28.8375 28.6031 28.125 30 28.125C31.3969 28.125 32.0625 28.8375 32.5594 29.3531C32.9625 29.7844 33.1687 30 33.75 30C34.3313 30 34.5375 29.7844 34.9406 29.3531C35.4375 28.8375 36.1031 28.125 37.5 28.125C38.8969 28.125 39.5625 28.8375 40.0594 29.3531C40.4625 29.7844 40.6687 30 41.25 30C41.8313 30 42.0375 29.7844 42.4406 29.3531C42.9375 28.8375 43.6031 28.125 45 28.125C46.3969 28.125 47.0625 28.8375 47.5594 29.3531C47.9625 29.7844 48.1687 30 48.75 30V31.875Z" fill="#363F40"/>
<path d="M16.875 55.3125C17.9105 55.3125 18.75 54.473 18.75 53.4375C18.75 52.402 17.9105 51.5625 16.875 51.5625C15.8395 51.5625 15 52.402 15 53.4375C15 54.473 15.8395 55.3125 16.875 55.3125Z" fill="#363F40"/>
<path d="M45.9375 55.3125C46.973 55.3125 47.8125 54.473 47.8125 53.4375C47.8125 52.402 46.973 51.5625 45.9375 51.5625C44.902 51.5625 44.0625 52.402 44.0625 53.4375C44.0625 54.473 44.902 55.3125 45.9375 55.3125Z" fill="#363F40"/>
<path d="M44.0625 13.125H42.1875V9.375H19.6875V13.125H17.8125V8.4375C17.8125 7.92187 18.2344 7.5 18.75 7.5H43.125C43.6406 7.5 44.0625 7.92187 44.0625 8.4375V13.125Z" fill="#363F40"/>
<path d="M50.625 13.125H48.75V1.875H33.75V5.625H31.875V0.9375C31.875 0.421875 32.2969 0 32.8125 0H49.6875C50.2031 0 50.625 0.421875 50.625 0.9375V13.125Z" fill="#363F40"/>
<path d="M43.125 5.625H39.375C38.8594 5.625 38.4375 5.20313 38.4375 4.6875V0.9375C38.4375 0.421875 38.8594 0 39.375 0H43.125C43.6406 0 44.0625 0.421875 44.0625 0.9375V4.6875C44.0625 5.20313 43.6406 5.625 43.125 5.625ZM40.3125 3.75H42.1875V1.875H40.3125V3.75Z" fill="#363F40"/>
</g>
<defs>
<clipPath id="clip0_505_10552">
<rect width="60" height="60" fill="white"/>
</clipPath>
</defs>
</svg>
