<svg width="60" height="60" viewBox="0 0 60 60" fill="none" xmlns="http://www.w3.org/2000/svg">
<path d="M56.25 39.375H30V37.5H56.25C57.2812 37.5 58.125 36.6562 58.125 35.625C58.125 34.5938 57.2812 33.75 56.25 33.75H30V31.875H56.25C58.3219 31.875 60 33.5531 60 35.625C60 37.6969 58.3219 39.375 56.25 39.375Z" fill="#363F40"/>
<path d="M60 28.125H30V30H60V28.125Z" fill="#363F40"/>
<path d="M59.9997 26.25H29.9997V24.375H58.1247C58.0591 18.6562 56.8216 9.375 33.7497 9.375C27.7685 9.375 22.8185 10.0125 19.0497 11.2781L18.4497 9.49688C22.4153 8.175 27.5622 7.5 33.7497 7.5C59.9997 7.5 59.9997 19.5281 59.9997 25.3125V26.25Z" fill="#363F40"/>
<path d="M56.25 46.875C54.7313 46.875 54.0375 45.4875 53.5406 44.4844C53.1375 43.6875 52.8281 43.125 52.5 43.125C52.1719 43.125 51.8625 43.6875 51.4594 44.4844C50.9625 45.4875 50.2687 46.875 48.75 46.875C47.2313 46.875 46.5375 45.4875 46.0406 44.4844C45.6375 43.6875 45.3281 43.125 45 43.125C44.6719 43.125 44.3625 43.6875 43.9594 44.4844C43.4625 45.4875 42.7688 46.875 41.25 46.875C39.7312 46.875 39.0375 45.4875 38.5406 44.4844C38.1375 43.6875 37.8281 43.125 37.5 43.125C37.1719 43.125 36.8625 43.6875 36.4594 44.4844C35.9625 45.4875 35.2688 46.875 33.75 46.875C32.2313 46.875 31.5375 45.4875 31.0406 44.4844C30.6375 43.6875 30.3281 43.125 30 43.125V41.25C31.5187 41.25 32.2125 42.6375 32.7094 43.6406C33.1125 44.4375 33.4219 45 33.75 45C34.0781 45 34.3875 44.4375 34.7906 43.6406C35.2875 42.6375 35.9812 41.25 37.5 41.25C39.0188 41.25 39.7125 42.6375 40.2094 43.6406C40.6125 44.4375 40.9219 45 41.25 45C41.5781 45 41.8875 44.4375 42.2906 43.6406C42.7875 42.6375 43.4812 41.25 45 41.25C46.5187 41.25 47.2125 42.6375 47.7094 43.6406C48.1125 44.4375 48.4219 45 48.75 45C49.0781 45 49.3875 44.4375 49.7906 43.6406C50.2875 42.6375 50.9813 41.25 52.5 41.25C54.0187 41.25 54.7125 42.6375 55.2094 43.6406C55.6125 44.4375 55.9219 45 56.25 45C56.5781 45 56.8875 44.4375 57.2906 43.6406C57.7875 42.6375 58.4813 41.25 60 41.25V43.125C59.6719 43.125 59.3625 43.6875 58.9594 44.4844C58.4625 45.4875 57.7687 46.875 56.25 46.875Z" fill="#363F40"/>
<path d="M54.375 60H30V58.125H54.375C56.4469 58.125 58.125 56.4469 58.125 54.375V50.625H30V48.75H60V54.375C60 57.4781 57.4781 60 54.375 60Z" fill="#363F40"/>
<path d="M28.125 60H0V55.8656L1.49063 54.375L0 52.8844V22.1156L1.49063 20.625L0 19.1344V15H28.125V19.1344L26.6344 20.625L28.125 22.1156V52.8937L26.6344 54.375L28.125 55.8656V60ZM1.875 58.125H26.25V56.6344L23.9906 54.375L26.25 52.1156V22.8844L23.9906 20.625L26.25 18.3656V16.875H1.875V18.3656L4.13437 20.625L1.875 22.8844V52.1063L4.13437 54.375L1.875 56.6344V58.125Z" fill="#363F40"/>
<path d="M22.5 53.4375H5.625V55.3125H22.5V53.4375Z" fill="#363F40"/>
<path d="M22.5 19.6875H5.625V21.5625H22.5V19.6875Z" fill="#363F40"/>
<path d="M16.875 15.9375H15V11.4563L10.65 1.875H8.95313L13.125 11.0437V15.9375H11.25V11.4563L6.04688 0H11.85L16.875 11.0437V15.9375Z" fill="#363F40"/>
<path d="M14.0625 44.0625C9.4125 44.0625 5.625 40.275 5.625 35.625C5.625 30.975 9.4125 27.1875 14.0625 27.1875C18.7125 27.1875 22.5 30.975 22.5 35.625C22.5 40.275 18.7125 44.0625 14.0625 44.0625ZM14.0625 29.0625C10.4437 29.0625 7.5 32.0062 7.5 35.625C7.5 39.2437 10.4437 42.1875 14.0625 42.1875C17.6812 42.1875 20.625 39.2437 20.625 35.625C20.625 32.0062 17.6812 29.0625 14.0625 29.0625Z" fill="#363F40"/>
<path d="M17.8125 45.9375H10.3125V47.8125H17.8125V45.9375Z" fill="#363F40"/>
</svg>
