<svg width="68" height="55" viewBox="0 0 68 55" fill="none" xmlns="http://www.w3.org/2000/svg">
<g clip-path="url(#clip0_505_10479)">
<path d="M56.0577 26.4424H11.6346C6.97021 26.4424 3.1731 22.6453 3.1731 17.9808H5.28848C5.28848 21.4818 8.13367 24.327 11.6346 24.327H56.0577C59.5587 24.327 62.4039 21.4818 62.4039 17.9808H64.5192C64.5192 22.6453 60.7221 26.4424 56.0577 26.4424Z" fill="#363F40"/>
<path d="M64.5192 55H3.1731V44.4231H5.28848V52.8846H62.4039V44.4231H64.5192V55Z" fill="#363F40"/>
<path d="M64.5192 31.7308H62.4039V10.5769H5.28848V31.7308H3.1731V8.46155H64.5192V31.7308Z" fill="#363F40"/>
<path d="M43.3654 9.51923H41.25V2.11538H26.4423V9.51923H24.3269V1.05769C24.3269 0.475962 24.8029 0 25.3846 0H42.3077C42.8894 0 43.3654 0.475962 43.3654 1.05769V9.51923Z" fill="#363F40"/>
<path d="M34.904 17.9808H32.7886V20.0962H34.904V17.9808Z" fill="#363F40"/>
<path d="M39.1347 17.9808H37.0193V20.0962H39.1347V17.9808Z" fill="#363F40"/>
<path d="M30.673 17.9808H28.5576V20.0962H30.673V17.9808Z" fill="#363F40"/>
<path d="M42.3078 4.23083H25.3848V6.34622H42.3078V4.23083Z" fill="#363F40"/>
<path d="M61.3462 40.1924H12.6924V42.3078H61.3462V40.1924Z" fill="#363F40"/>
<path d="M61.3462 33.8462H12.6924V35.9616H61.3462V33.8462Z" fill="#363F40"/>
<path d="M67.6922 42.3077H60.2883V33.8462H67.6922V42.3077ZM62.4037 40.1923H65.5768V35.9616H62.4037V40.1923Z" fill="#363F40"/>
<path d="M12.6923 42.3077H6.34615C6.15577 42.3077 5.96538 42.2548 5.80673 42.1597L0.518269 38.9866C0.190385 38.7962 0 38.4472 0 38.077C0 37.7068 0.190385 37.3577 0.518269 37.1673L5.80673 33.9943C5.96538 33.8991 6.15577 33.8462 6.34615 33.8462H12.6923C13.274 33.8462 13.75 34.3222 13.75 34.9039V41.25C13.75 41.8318 13.274 42.3077 12.6923 42.3077ZM6.64231 40.1923H11.6346V35.9616H6.64231L3.12019 38.077L6.64231 40.1923Z" fill="#363F40"/>
<path d="M30.673 34.9039H28.5576V41.2501H30.673V34.9039Z" fill="#363F40"/>
<path d="M56.0578 46.5385H40.1924V44.4231H53.9424V41.25H56.0578V46.5385Z" fill="#363F40"/>
</g>
<defs>
<clipPath id="clip0_505_10479">
<rect width="67.6923" height="55" fill="white"/>
</clipPath>
</defs>
</svg>
