<svg width="59" height="60" viewBox="0 0 59 60" fill="none" xmlns="http://www.w3.org/2000/svg">
<g clip-path="url(#clip0_505_10155)">
<path d="M58.125 60H37.5V58.125H56.25V9.375H26.25V18.75H24.375V7.5H58.125V60Z" fill="#363F40"/>
<path d="M35.625 60H26.25V58.125H33.75V22.5H1.875V58.125H9.375V60H0V20.625H35.625V60Z" fill="#363F40"/>
<path d="M24.375 60H11.25V50.625H24.375V60ZM13.125 58.125H22.5V52.5H13.125V58.125Z" fill="#363F40"/>
<path d="M35.625 18.75H28.125V11.25H35.625V18.75ZM30 16.875H33.75V13.125H30V16.875Z" fill="#363F40"/>
<path d="M45 18.75H37.5V11.25H45V18.75ZM39.375 16.875H43.125V13.125H39.375V16.875Z" fill="#363F40"/>
<path d="M54.375 18.75H46.875V11.25H54.375V18.75ZM48.75 16.875H52.5V13.125H48.75V16.875Z" fill="#363F40"/>
<path d="M45 28.125H37.5V20.625H45V28.125ZM39.375 26.25H43.125V22.5H39.375V26.25Z" fill="#363F40"/>
<path d="M54.375 28.125H46.875V20.625H54.375V28.125ZM48.75 26.25H52.5V22.5H48.75V26.25Z" fill="#363F40"/>
<path d="M45 37.5H37.5V30H45V37.5ZM39.375 35.625H43.125V31.875H39.375V35.625Z" fill="#363F40"/>
<path d="M54.375 37.5H46.875V30H54.375V37.5ZM48.75 35.625H52.5V31.875H48.75V35.625Z" fill="#363F40"/>
<path d="M45 46.875H37.5V39.375H45V46.875ZM39.375 45H43.125V41.25H39.375V45Z" fill="#363F40"/>
<path d="M54.375 46.875H46.875V39.375H54.375V46.875ZM48.75 45H52.5V41.25H48.75V45Z" fill="#363F40"/>
<path d="M45 56.25H37.5V48.75H45V56.25ZM39.375 54.375H43.125V50.625H39.375V54.375Z" fill="#363F40"/>
<path d="M54.375 56.25H46.875V48.75H54.375V56.25ZM48.75 54.375H52.5V50.625H48.75V54.375Z" fill="#363F40"/>
<path d="M9.375 24.375H3.75V26.25H9.375V24.375Z" fill="#363F40"/>
<path d="M16.875 24.375H11.25V26.25H16.875V24.375Z" fill="#363F40"/>
<path d="M24.375 24.375H18.75V26.25H24.375V24.375Z" fill="#363F40"/>
<path d="M31.875 24.375H26.25V26.25H31.875V24.375Z" fill="#363F40"/>
<path d="M9.375 28.125H3.75V30H9.375V28.125Z" fill="#363F40"/>
<path d="M16.875 28.125H11.25V30H16.875V28.125Z" fill="#363F40"/>
<path d="M24.375 28.125H18.75V30H24.375V28.125Z" fill="#363F40"/>
<path d="M31.875 28.125H26.25V30H31.875V28.125Z" fill="#363F40"/>
<path d="M9.375 31.875H3.75V33.75H9.375V31.875Z" fill="#363F40"/>
<path d="M16.875 31.875H11.25V33.75H16.875V31.875Z" fill="#363F40"/>
<path d="M24.375 31.875H18.75V33.75H24.375V31.875Z" fill="#363F40"/>
<path d="M31.875 31.875H26.25V33.75H31.875V31.875Z" fill="#363F40"/>
<path d="M9.375 35.625H3.75V37.5H9.375V35.625Z" fill="#363F40"/>
<path d="M16.875 35.625H11.25V37.5H16.875V35.625Z" fill="#363F40"/>
<path d="M24.375 35.625H18.75V37.5H24.375V35.625Z" fill="#363F40"/>
<path d="M31.875 35.625H26.25V37.5H31.875V35.625Z" fill="#363F40"/>
<path d="M9.375 39.375H3.75V41.25H9.375V39.375Z" fill="#363F40"/>
<path d="M16.875 39.375H11.25V41.25H16.875V39.375Z" fill="#363F40"/>
<path d="M24.375 39.375H18.75V41.25H24.375V39.375Z" fill="#363F40"/>
<path d="M31.875 39.375H26.25V41.25H31.875V39.375Z" fill="#363F40"/>
<path d="M9.375 43.125H3.75V45H9.375V43.125Z" fill="#363F40"/>
<path d="M16.875 43.125H11.25V45H16.875V43.125Z" fill="#363F40"/>
<path d="M24.375 43.125H18.75V45H24.375V43.125Z" fill="#363F40"/>
<path d="M31.875 43.125H26.25V45H31.875V43.125Z" fill="#363F40"/>
<path d="M9.375 46.875H3.75V48.75H9.375V46.875Z" fill="#363F40"/>
<path d="M16.875 46.875H11.25V48.75H16.875V46.875Z" fill="#363F40"/>
<path d="M24.375 46.875H18.75V48.75H24.375V46.875Z" fill="#363F40"/>
<path d="M31.875 46.875H26.25V48.75H31.875V46.875Z" fill="#363F40"/>
<path d="M9.375 50.625H3.75V52.5H9.375V50.625Z" fill="#363F40"/>
<path d="M31.875 50.625H26.25V52.5H31.875V50.625Z" fill="#363F40"/>
<path d="M31.875 54.375H26.25V56.25H31.875V54.375Z" fill="#363F40"/>
<path d="M9.375 54.375H3.75V56.25H9.375V54.375Z" fill="#363F40"/>
<path d="M13.125 7.5H11.25V9.375H13.125V7.5Z" fill="#363F40"/>
<path d="M16.875 7.5H15V9.375H16.875V7.5Z" fill="#363F40"/>
<path d="M20.625 7.5H18.75V9.375H20.625V7.5Z" fill="#363F40"/>
<path d="M5.625 18.75H3.75V0H42.1875V5.625H40.3125V1.875H5.625V18.75Z" fill="#363F40"/>
<path d="M9.375 11.25H7.5V3.75H16.875V5.625H9.375V11.25Z" fill="#363F40"/>
</g>
<defs>
<clipPath id="clip0_505_10155">
<rect width="58.125" height="60" fill="white"/>
</clipPath>
</defs>
</svg>
