<svg width="67" height="60" viewBox="0 0 67 60" fill="none" xmlns="http://www.w3.org/2000/svg">
<g clip-path="url(#clip0_505_10061)">
<path d="M42.4137 60H3.10333C2.53436 60 2.06885 59.5345 2.06885 58.9655V53.7931C2.06885 52.9862 2.74126 50.7621 4.26195 45.8276C6.68264 37.9552 10.3447 26.0483 10.3447 20.6897V9.31036C10.3447 8.7414 10.8102 8.27588 11.3792 8.27588H34.1378C34.7068 8.27588 35.1723 8.7414 35.1723 9.31036V20.6897C35.1723 26.0483 38.8344 37.9552 41.2551 45.8276C42.7757 50.7621 43.4482 52.9862 43.4482 53.7931V58.9655C43.4482 59.5345 42.9826 60 42.4137 60ZM4.13781 57.931H41.3792V53.7931C41.3585 53.1931 40.3033 49.7586 39.2792 46.4379C36.8171 38.4414 33.1033 26.3586 33.1033 20.6897V10.3448H12.4137V20.6897C12.4137 26.3586 8.69988 38.4414 6.23781 46.4379C5.21368 49.7586 4.1585 53.1931 4.13781 53.7931V57.931Z" fill="#363F40"/>
<path d="M53.7932 58.9656H51.7242V54.8276C51.7035 54.1035 50.2656 49.6138 49.0139 45.6414C46.5311 37.8518 43.4484 28.1586 43.4484 24.8276V14.4828H37.2415V12.4138H44.4828C45.0518 12.4138 45.5173 12.8793 45.5173 13.4483V24.8276C45.5173 27.838 48.6725 37.769 50.9794 45.0207C53.0173 51.4345 53.7932 53.9483 53.7932 54.8276V58.9656Z" fill="#363F40"/>
<path d="M64.1379 58.9656H62.0689V54.8276C62.0379 53.9793 60.1448 48.6621 58.6138 44.3897C55.7069 36.2069 53.7931 30.7242 53.7931 28.9656V18.6207H47.5862V16.5518H54.8276C55.3965 16.5518 55.862 17.0173 55.862 17.5862V28.9656C55.862 30.4966 58.5827 38.1207 60.5689 43.6966C63.0517 50.6587 64.1379 53.8242 64.1379 54.8276V58.9656Z" fill="#363F40"/>
<path d="M66.2069 57.931H0V60H66.2069V57.931Z" fill="#363F40"/>
<path d="M23.7931 16.5518H21.7241V18.6207H23.7931V16.5518Z" fill="#363F40"/>
<path d="M27.931 16.5518H25.8621V18.6207H27.931V16.5518Z" fill="#363F40"/>
<path d="M19.6551 16.5518H17.5862V18.6207H19.6551V16.5518Z" fill="#363F40"/>
<path d="M44.4827 6.2069C42.2793 6.2069 40.6965 3.94138 40.5207 3.68276C40.2414 3.26897 39.2172 2.06897 38.2759 2.06897C37.3138 2.06897 36.2586 3.34138 36.031 3.68276C35.8552 3.94138 34.2724 6.2069 32.069 6.2069C29.8655 6.2069 28.2827 3.94138 28.1069 3.68276C27.8276 3.26897 26.8034 2.06897 25.8621 2.06897V0C28.0655 0 29.6483 2.26552 29.8241 2.52414C30.1034 2.93793 31.1276 4.13793 32.069 4.13793C33.031 4.13793 34.0862 2.86552 34.3138 2.52414C34.4896 2.26552 36.0724 0 38.2759 0C40.4793 0 42.0621 2.26552 42.2379 2.52414C42.5172 2.93793 43.5414 4.13793 44.4827 4.13793C45.4448 4.13793 46.5 2.86552 46.7276 2.52414C46.9034 2.26552 48.4862 0 50.6896 0V2.06897C49.7276 2.06897 48.6724 3.34138 48.4448 3.68276C48.269 3.94138 46.6862 6.2069 44.4827 6.2069Z" fill="#363F40"/>
<path d="M23.7931 4.13793H21.7241C21.7241 1.85172 23.5758 0 25.8621 0V2.06897C24.7241 2.06897 23.7931 3 23.7931 4.13793Z" fill="#363F40"/>
<path d="M23.7931 4.13794H21.7241V6.20691H23.7931V4.13794Z" fill="#363F40"/>
<path d="M34.138 12.4138H11.3794V14.4828H34.138V12.4138Z" fill="#363F40"/>
<path d="M44.4828 16.5518H37.2415V18.6207H44.4828V16.5518Z" fill="#363F40"/>
<path d="M54.8276 20.6897H47.5862V22.7587H54.8276V20.6897Z" fill="#363F40"/>
<path d="M42.4139 53.7931H3.10352V55.8621H42.4139V53.7931Z" fill="#363F40"/>
<path d="M52.7587 53.7931H45.5173V55.8621H52.7587V53.7931Z" fill="#363F40"/>
<path d="M22.7587 39.3103C23.9013 39.3103 24.8276 38.384 24.8276 37.2413C24.8276 36.0987 23.9013 35.1724 22.7587 35.1724C21.616 35.1724 20.6897 36.0987 20.6897 37.2413C20.6897 38.384 21.616 39.3103 22.7587 39.3103Z" fill="#363F40"/>
<path d="M14.4828 37.2413H12.4138C12.4138 34.1068 13.8104 31.1689 16.2517 29.193L17.5552 30.7964C15.6 32.3895 14.4828 34.7275 14.4828 37.2413Z" fill="#363F40"/>
<path d="M22.7586 47.5862C20.2138 47.5862 17.7621 46.6551 15.8586 44.9482L17.2345 43.4069C18.7552 44.7724 20.7207 45.5172 22.7586 45.5172C24.7966 45.5172 26.7621 44.7724 28.2724 43.4069L29.6483 44.9482C27.7552 46.6551 25.3035 47.5862 22.7586 47.5862Z" fill="#363F40"/>
<path d="M33.1034 37.2413H31.0344C31.0344 34.7275 29.9172 32.3792 27.9517 30.7964L29.2551 29.193C31.6965 31.1689 33.1034 34.0964 33.1034 37.2413Z" fill="#363F40"/>
<path d="M18.6207 37.2413H16.5518C16.5518 35.2654 17.4518 33.4654 19.0345 32.2758L20.2759 33.9309C19.2207 34.7171 18.6207 35.9275 18.6207 37.2413Z" fill="#363F40"/>
<path d="M22.7586 43.4482C21.4034 43.4482 20.1103 43.0137 19.0344 42.2068L20.2758 40.5516C21.7137 41.6275 23.8034 41.6378 25.2413 40.5516L26.4827 42.2068C25.4068 43.0137 24.1137 43.4482 22.7586 43.4482Z" fill="#363F40"/>
<path d="M28.9656 37.2413H26.8966C26.8966 35.9275 26.2966 34.7171 25.2415 33.9309L26.4828 32.2758C28.0552 33.4551 28.9656 35.2654 28.9656 37.2413Z" fill="#363F40"/>
</g>
<defs>
<clipPath id="clip0_505_10061">
<rect width="66.2069" height="60" fill="white"/>
</clipPath>
</defs>
</svg>
