<svg width="60" height="60" viewBox="0 0 60 60" fill="none" xmlns="http://www.w3.org/2000/svg">
<path d="M30.9375 8.4375H29.0625V11.25H30.9375V8.4375Z" fill="#363F40"/>
<path d="M15.6652 14.3401L14.3394 15.6659L16.2154 17.5419L17.5412 16.2161L15.6652 14.3401Z" fill="#363F40"/>
<path d="M44.3406 14.3336L42.4646 16.2096L43.7904 17.5354L45.6664 15.6594L44.3406 14.3336Z" fill="#363F40"/>
<path d="M30 60C13.4625 60 0 46.5375 0 30C0 13.4625 13.4625 0 30 0C46.5375 0 60 13.4625 60 30C60 46.5375 46.5375 60 30 60ZM30 1.875C14.4937 1.875 1.875 14.4937 1.875 30C1.875 45.5063 14.4937 58.125 30 58.125C45.5063 58.125 58.125 45.5063 58.125 30C58.125 14.4937 45.5063 1.875 30 1.875Z" fill="#363F40"/>
<path d="M30 48.75C25.8656 48.75 22.5 45.3844 22.5 41.25C22.5 37.1156 25.8656 33.75 30 33.75C34.1344 33.75 37.5 37.1156 37.5 41.25C37.5 45.3844 34.1344 48.75 30 48.75ZM30 35.625C26.8969 35.625 24.375 38.1469 24.375 41.25C24.375 44.3531 26.8969 46.875 30 46.875C33.1031 46.875 35.625 44.3531 35.625 41.25C35.625 38.1469 33.1031 35.625 30 35.625Z" fill="#363F40"/>
<path d="M37.5 41.25H35.625V40.4344L30 19.5375L24.375 40.4344V41.25H22.5V40.3125C22.5 40.2281 22.5094 40.1531 22.5281 40.0688L29.0906 15.6937C29.2031 15.2812 29.5781 15 30 15C30.4219 15 30.7969 15.2812 30.9094 15.6937L37.4719 40.0688C37.4906 40.1531 37.5 40.2281 37.5 40.3125V41.25Z" fill="#363F40"/>
<path d="M51.5625 30.9375H48.75V29.0625H50.6063C50.1094 18.1219 41.0625 9.375 30 9.375C18.9375 9.375 9.89063 18.1219 9.39375 29.0625H11.25V30.9375H8.4375C7.92188 30.9375 7.5 30.5156 7.5 30C7.5 17.5969 17.5969 7.5 30 7.5C42.4031 7.5 52.5 17.5969 52.5 30C52.5 30.5156 52.0781 30.9375 51.5625 30.9375Z" fill="#363F40"/>
<path d="M30 54.375C20.0156 54.375 11.25 48.2438 11.25 41.25C11.25 40.7344 11.6719 40.3125 12.1875 40.3125H20.625V42.1875H13.2C13.9781 47.2313 20.9062 52.5 30 52.5C39.0938 52.5 46.0219 47.2313 46.8 42.1875H39.375V40.3125H47.8125C48.3281 40.3125 48.75 40.7344 48.75 41.25C48.75 48.2438 39.9844 54.375 30 54.375Z" fill="#363F40"/>
</svg>
