<svg width="45" height="45" viewBox="0 0 45 45" fill="none" xmlns="http://www.w3.org/2000/svg">
<circle cx="22.5" cy="22.5" r="22" stroke="black" stroke-opacity="0.5"/>
<path d="M27.1875 13.125H17.8125C15.2237 13.125 13.125 15.2237 13.125 17.8125V27.1875C13.125 29.7763 15.2237 31.875 17.8125 31.875H27.1875C29.7763 31.875 31.875 29.7763 31.875 27.1875V17.8125C31.875 15.2237 29.7763 13.125 27.1875 13.125Z" stroke="black" stroke-opacity="0.5" stroke-linecap="round" stroke-linejoin="round"/>
<path d="M26.25 21.9094C26.3657 22.6896 26.2324 23.4865 25.8691 24.1866C25.5058 24.8867 24.931 25.4545 24.2265 25.8091C23.5219 26.1637 22.7235 26.2872 21.9448 26.1618C21.166 26.0365 20.4466 25.6689 19.8889 25.1111C19.3311 24.5534 18.9635 23.834 18.8382 23.0552C18.7128 22.2765 18.8363 21.4781 19.1909 20.7735C19.5455 20.069 20.1133 19.4942 20.8134 19.1309C21.5135 18.7676 22.3104 18.6343 23.0906 18.75C23.8865 18.8681 24.6233 19.2389 25.1922 19.8078C25.7611 20.3767 26.132 21.1135 26.25 21.9094Z" stroke="black" stroke-opacity="0.5" stroke-linecap="round" stroke-linejoin="round"/>
<path d="M27.6562 17.3438H27.6656" stroke="black" stroke-opacity="0.5" stroke-width="2" stroke-linecap="round" stroke-linejoin="round"/>
</svg>
