<svg width="64" height="48" viewBox="0 0 64 48" fill="none" xmlns="http://www.w3.org/2000/svg">
<path d="M41.0005 40H21.0005V42H41.0005V40Z" fill="white"/>
<path d="M59.0004 42H57.0004V40H58.7604L62.0004 38.38V33.41L60.5204 31.93L42.8404 28.98C42.6904 28.96 42.5504 28.9 42.4304 28.81L32.6804 22H21.2104L4.00042 29.65V35C4.00042 35.55 3.55042 36 3.00042 36H2.39042L3.72042 40H5.00042V42H3.00042C2.57042 42 2.19042 41.72 2.05042 41.32L0.0504225 35.32C-0.0495775 35.02 0.000422463 34.68 0.190422 34.42C0.380422 34.15 0.680422 34 1.00042 34H2.00042V29C2.00042 28.6 2.23042 28.25 2.59042 28.09L20.5904 20.09C20.7204 20.03 20.8604 20 21.0004 20H33.0004C33.2104 20 33.4104 20.06 33.5704 20.18L43.3804 27.05L61.1604 30.01C61.3704 30.04 61.5604 30.14 61.7004 30.29L63.7004 32.29C63.8904 32.48 64.0004 32.73 64.0004 33V39C64.0004 39.38 63.7904 39.72 63.4504 39.89L59.4504 41.89C59.3104 41.96 59.1604 42 59.0004 42Z" fill="white"/>
<path d="M39.0005 36H25.0005C24.6705 36 24.3505 35.83 24.1705 35.55L20.1705 29.55C20.0605 29.39 20.0005 29.2 20.0005 29V21H22.0005V28.7L25.5405 34H38.4205L42.1305 27.5L43.8705 28.49L39.8705 35.49C39.6905 35.81 39.3605 36 39.0005 36Z" fill="white"/>
<path d="M42.8704 28.99L27.8704 26.99C27.5704 26.95 27.3004 26.77 27.1404 26.51L24.1404 21.51L25.8504 20.48L28.6004 25.07L43.1204 27.01L42.8704 28.99Z" fill="white"/>
<path d="M63.0005 32H45.0005V34H63.0005V32Z" fill="white"/>
<path d="M7.00049 34H3.00049V36H7.00049V34Z" fill="white"/>
<path d="M30.0005 30H28.0005V32H30.0005V30Z" fill="white"/>
<path d="M17.0005 32H15.0005V30H3.00049V28H16.0005C16.5505 28 17.0005 28.45 17.0005 29V32Z" fill="white"/>
<path d="M13.0005 29H11.0005V32H13.0005V29Z" fill="white"/>
<path d="M64.0005 46H0.000488281V48H64.0005V46Z" fill="white"/>
<path d="M49.0005 48C45.6905 48 43.0005 45.31 43.0005 42C43.0005 38.69 45.6905 36 49.0005 36C52.3105 36 55.0005 38.69 55.0005 42C55.0005 45.31 52.3105 48 49.0005 48ZM49.0005 38C46.7905 38 45.0005 39.79 45.0005 42C45.0005 44.21 46.7905 46 49.0005 46C51.2105 46 53.0005 44.21 53.0005 42C53.0005 39.79 51.2105 38 49.0005 38Z" fill="white"/>
<path d="M13.0005 48C9.69049 48 7.00049 45.31 7.00049 42C7.00049 38.69 9.69049 36 13.0005 36C16.3105 36 19.0005 38.69 19.0005 42C19.0005 45.31 16.3105 48 13.0005 48ZM13.0005 38C10.7905 38 9.00049 39.79 9.00049 42C9.00049 44.21 10.7905 46 13.0005 46C15.2105 46 17.0005 44.21 17.0005 42C17.0005 39.79 15.2105 38 13.0005 38Z" fill="white"/>
<path d="M6.00049 28H4.00049V21C4.00049 20.7 4.13049 20.42 4.36049 20.23C4.59049 20.04 4.89049 19.96 5.18049 20.01L16.1805 22.01L15.8205 23.98L6.00049 22.2V28Z" fill="white"/>
<path d="M32.0004 16C33.105 16 34.0004 15.1046 34.0004 14C34.0004 12.8954 33.105 12 32.0004 12C30.8959 12 30.0004 12.8954 30.0004 14C30.0004 15.1046 30.8959 16 32.0004 16Z" fill="white"/>
<path d="M34.8304 11.17C33.3204 9.66001 30.6804 9.65001 29.1704 11.17L27.7604 9.76001C28.8904 8.62001 30.4004 8.00001 32.0004 8.00001C33.6004 8.00001 35.1104 8.62001 36.2504 9.76001L34.8304 11.17Z" fill="white"/>
<path d="M26.3404 8.33999L24.9304 6.92999C26.8204 5.03999 29.3304 3.99999 32.0004 3.99999C34.6704 3.99999 37.1804 5.03999 39.0704 6.92999L37.6604 8.33999C36.1504 6.82999 34.1404 5.99999 32.0004 5.99999C29.8604 5.99999 27.8504 6.82999 26.3404 8.33999Z" fill="white"/>
<path d="M40.4904 5.52C38.2204 3.25 35.2104 2 32.0004 2C28.7904 2 25.7804 3.25 23.5104 5.51L22.1004 4.1C24.7404 1.46 28.2604 0 32.0004 0C35.7404 0 39.2604 1.46 41.9004 4.1L40.4904 5.52Z" fill="white"/>
</svg>
