<svg width="60" height="60" viewBox="0 0 60 60" fill="none" xmlns="http://www.w3.org/2000/svg">
<path d="M20.625 43.125C18.5531 43.125 16.875 41.4469 16.875 39.375C16.875 37.3031 18.5531 35.625 20.625 35.625C22.6969 35.625 24.375 37.3031 24.375 39.375C24.375 41.4469 22.6969 43.125 20.625 43.125ZM20.625 37.5C19.5938 37.5 18.75 38.3438 18.75 39.375C18.75 40.4062 19.5938 41.25 20.625 41.25C21.6562 41.25 22.5 40.4062 22.5 39.375C22.5 38.3438 21.6562 37.5 20.625 37.5Z" fill="white"/>
<path d="M15.9375 33.75C13.8656 33.75 12.1875 32.0719 12.1875 30C12.1875 27.9281 13.8656 26.25 15.9375 26.25C18.0094 26.25 19.6875 27.9281 19.6875 30C19.6875 32.0719 18.0094 33.75 15.9375 33.75ZM15.9375 28.125C14.9062 28.125 14.0625 28.9688 14.0625 30C14.0625 31.0312 14.9062 31.875 15.9375 31.875C16.9688 31.875 17.8125 31.0312 17.8125 30C17.8125 28.9688 16.9688 28.125 15.9375 28.125Z" fill="white"/>
<path d="M25.3125 33.75C23.2406 33.75 21.5625 32.0719 21.5625 30C21.5625 27.9281 23.2406 26.25 25.3125 26.25C27.3844 26.25 29.0625 27.9281 29.0625 30C29.0625 32.0719 27.3844 33.75 25.3125 33.75ZM25.3125 28.125C24.2812 28.125 23.4375 28.9688 23.4375 30C23.4375 31.0312 24.2812 31.875 25.3125 31.875C26.3438 31.875 27.1875 31.0312 27.1875 30C27.1875 28.9688 26.3438 28.125 25.3125 28.125Z" fill="white"/>
<path d="M34.6875 33.75C32.6156 33.75 30.9375 32.0719 30.9375 30C30.9375 27.9281 32.6156 26.25 34.6875 26.25C36.7594 26.25 38.4375 27.9281 38.4375 30C38.4375 32.0719 36.7594 33.75 34.6875 33.75ZM34.6875 28.125C33.6562 28.125 32.8125 28.9688 32.8125 30C32.8125 31.0312 33.6562 31.875 34.6875 31.875C35.7188 31.875 36.5625 31.0312 36.5625 30C36.5625 28.9688 35.7188 28.125 34.6875 28.125Z" fill="white"/>
<path d="M30 43.125C27.9281 43.125 26.25 41.4469 26.25 39.375C26.25 37.3031 27.9281 35.625 30 35.625C32.0719 35.625 33.75 37.3031 33.75 39.375C33.75 41.4469 32.0719 43.125 30 43.125ZM30 37.5C28.9688 37.5 28.125 38.3438 28.125 39.375C28.125 40.4062 28.9688 41.25 30 41.25C31.0312 41.25 31.875 40.4062 31.875 39.375C31.875 38.3438 31.0312 37.5 30 37.5Z" fill="white"/>
<path d="M39.375 43.125C37.3031 43.125 35.625 41.4469 35.625 39.375C35.625 37.3031 37.3031 35.625 39.375 35.625C41.4469 35.625 43.125 37.3031 43.125 39.375C43.125 41.4469 41.4469 43.125 39.375 43.125ZM39.375 37.5C38.3438 37.5 37.5 38.3438 37.5 39.375C37.5 40.4062 38.3438 41.25 39.375 41.25C40.4062 41.25 41.25 40.4062 41.25 39.375C41.25 38.3438 40.4062 37.5 39.375 37.5Z" fill="white"/>
<path d="M20.625 24.375C18.5531 24.375 16.875 22.6969 16.875 20.625C16.875 18.5531 18.5531 16.875 20.625 16.875C22.6969 16.875 24.375 18.5531 24.375 20.625C24.375 22.6969 22.6969 24.375 20.625 24.375ZM20.625 18.75C19.5938 18.75 18.75 19.5938 18.75 20.625C18.75 21.6562 19.5938 22.5 20.625 22.5C21.6562 22.5 22.5 21.6562 22.5 20.625C22.5 19.5938 21.6562 18.75 20.625 18.75Z" fill="white"/>
<path d="M30 24.375C27.9281 24.375 26.25 22.6969 26.25 20.625C26.25 18.5531 27.9281 16.875 30 16.875C32.0719 16.875 33.75 18.5531 33.75 20.625C33.75 22.6969 32.0719 24.375 30 24.375ZM30 18.75C28.9688 18.75 28.125 19.5938 28.125 20.625C28.125 21.6562 28.9688 22.5 30 22.5C31.0312 22.5 31.875 21.6562 31.875 20.625C31.875 19.5938 31.0312 18.75 30 18.75Z" fill="white"/>
<path d="M39.375 24.375C37.3031 24.375 35.625 22.6969 35.625 20.625C35.625 18.5531 37.3031 16.875 39.375 16.875C41.4469 16.875 43.125 18.5531 43.125 20.625C43.125 22.6969 41.4469 24.375 39.375 24.375ZM39.375 18.75C38.3438 18.75 37.5 19.5938 37.5 20.625C37.5 21.6562 38.3438 22.5 39.375 22.5C40.4062 22.5 41.25 21.6562 41.25 20.625C41.25 19.5938 40.4062 18.75 39.375 18.75Z" fill="white"/>
<path d="M44.0625 33.75C41.9906 33.75 40.3125 32.0719 40.3125 30C40.3125 27.9281 41.9906 26.25 44.0625 26.25C46.1344 26.25 47.8125 27.9281 47.8125 30C47.8125 32.0719 46.1344 33.75 44.0625 33.75ZM44.0625 28.125C43.0312 28.125 42.1875 28.9688 42.1875 30C42.1875 31.0312 43.0312 31.875 44.0625 31.875C45.0938 31.875 45.9375 31.0312 45.9375 30C45.9375 28.9688 45.0938 28.125 44.0625 28.125Z" fill="white"/>
<path d="M21.5625 42.1875H19.6875V60H21.5625V42.1875Z" fill="white"/>
<path d="M40.3125 42.1875H38.4375V60H40.3125V42.1875Z" fill="white"/>
<path d="M30.9375 42.1875H29.0625V60H30.9375V42.1875Z" fill="white"/>
<path d="M40.3125 0H38.4375V17.8125H40.3125V0Z" fill="white"/>
<path d="M21.5625 0H19.6875V17.8125H21.5625V0Z" fill="white"/>
<path d="M30.9375 0H29.0625V17.8125H30.9375V0Z" fill="white"/>
<path d="M13.125 29.0625H0V30.9375H13.125V29.0625Z" fill="white"/>
<path d="M17.8125 19.6875H0V21.5625H17.8125V19.6875Z" fill="white"/>
<path d="M17.8125 38.4375H0V40.3125H17.8125V38.4375Z" fill="white"/>
<path d="M60 19.6875H42.1875V21.5625H60V19.6875Z" fill="white"/>
<path d="M60 29.0625H46.875V30.9375H60V29.0625Z" fill="white"/>
<path d="M60 38.4375H42.1875V40.3125H60V38.4375Z" fill="white"/>
<path d="M1.875 24.375H0V26.25H1.875V24.375Z" fill="white"/>
<path d="M5.625 24.375H3.75V26.25H5.625V24.375Z" fill="white"/>
<path d="M9.375 24.375H7.5V26.25H9.375V24.375Z" fill="white"/>
<path d="M1.875 33.75H0V35.625H1.875V33.75Z" fill="white"/>
<path d="M5.625 33.75H3.75V35.625H5.625V33.75Z" fill="white"/>
<path d="M9.375 33.75H7.5V35.625H9.375V33.75Z" fill="white"/>
<path d="M52.5 24.375H50.625V26.25H52.5V24.375Z" fill="white"/>
<path d="M56.25 24.375H54.375V26.25H56.25V24.375Z" fill="white"/>
<path d="M60 24.375H58.125V26.25H60V24.375Z" fill="white"/>
<path d="M52.5 33.75H50.625V35.625H52.5V33.75Z" fill="white"/>
<path d="M56.25 33.75H54.375V35.625H56.25V33.75Z" fill="white"/>
<path d="M60 33.75H58.125V35.625H60V33.75Z" fill="white"/>
<path d="M26.25 58.125H24.375V60H26.25V58.125Z" fill="white"/>
<path d="M26.25 54.375H24.375V56.25H26.25V54.375Z" fill="white"/>
<path d="M26.25 50.625H24.375V52.5H26.25V50.625Z" fill="white"/>
<path d="M26.25 46.875H24.375V48.75H26.25V46.875Z" fill="white"/>
<path d="M35.625 58.125H33.75V60H35.625V58.125Z" fill="white"/>
<path d="M35.625 54.375H33.75V56.25H35.625V54.375Z" fill="white"/>
<path d="M35.625 50.625H33.75V52.5H35.625V50.625Z" fill="white"/>
<path d="M35.625 46.875H33.75V48.75H35.625V46.875Z" fill="white"/>
<path d="M26.25 11.25H24.375V13.125H26.25V11.25Z" fill="white"/>
<path d="M26.25 7.5H24.375V9.375H26.25V7.5Z" fill="white"/>
<path d="M26.25 3.75H24.375V5.625H26.25V3.75Z" fill="white"/>
<path d="M26.25 0H24.375V1.875H26.25V0Z" fill="white"/>
<path d="M35.625 11.25H33.75V13.125H35.625V11.25Z" fill="white"/>
<path d="M35.625 7.5H33.75V9.375H35.625V7.5Z" fill="white"/>
<path d="M35.625 3.75H33.75V5.625H35.625V3.75Z" fill="white"/>
<path d="M35.625 0H33.75V1.875H35.625V0Z" fill="white"/>
<path d="M15.9375 60H14.0625V46.875C14.0625 46.3594 13.6406 45.9375 13.125 45.9375H0V44.0625H13.125C14.6719 44.0625 15.9375 45.3281 15.9375 46.875V60Z" fill="white"/>
<path d="M13.125 15.9375H0V14.0625H13.125C13.6406 14.0625 14.0625 13.6406 14.0625 13.125V0H15.9375V13.125C15.9375 14.6719 14.6719 15.9375 13.125 15.9375Z" fill="white"/>
<path d="M45.9375 60H44.0625V46.875C44.0625 45.3281 45.3281 44.0625 46.875 44.0625H60V45.9375H46.875C46.3594 45.9375 45.9375 46.3594 45.9375 46.875V60Z" fill="white"/>
<path d="M60 15.9375H46.875C45.3281 15.9375 44.0625 14.6719 44.0625 13.125V0H45.9375V13.125C45.9375 13.6406 46.3594 14.0625 46.875 14.0625H60V15.9375Z" fill="white"/>
</svg>
