<svg width="67" height="60" viewBox="0 0 67 60" fill="none" xmlns="http://www.w3.org/2000/svg">
<path d="M42.4138 60H3.10345C2.53449 60 2.06897 59.5345 2.06897 58.9655V53.7931C2.06897 52.9862 2.74138 50.7621 4.26207 45.8276C6.68276 37.9552 10.3448 26.0483 10.3448 20.6897V9.31036C10.3448 8.7414 10.8103 8.27588 11.3793 8.27588H34.1379C34.7069 8.27588 35.1724 8.7414 35.1724 9.31036V20.6897C35.1724 26.0483 38.8345 37.9552 41.2552 45.8276C42.7759 50.7621 43.4483 52.9862 43.4483 53.7931V58.9655C43.4483 59.5345 42.9828 60 42.4138 60ZM4.13794 57.931H41.3793V53.7931C41.3586 53.1931 40.3035 49.7586 39.2793 46.4379C36.8172 38.4414 33.1035 26.3586 33.1035 20.6897V10.3448H12.4138V20.6897C12.4138 26.3586 8.7 38.4414 6.23794 46.4379C5.2138 49.7586 4.15862 53.1931 4.13794 53.7931V57.931Z" fill="white"/>
<path d="M53.7931 58.9655H51.7241V54.8276C51.7034 54.1035 50.2655 49.6138 49.0138 45.6414C46.531 37.8517 43.4483 28.1586 43.4483 24.8276V14.4828H37.2414V12.4138H44.4827C45.0517 12.4138 45.5172 12.8793 45.5172 13.4483V24.8276C45.5172 27.8379 48.6724 37.769 50.9793 45.0207C53.0172 51.4345 53.7931 53.9483 53.7931 54.8276V58.9655Z" fill="white"/>
<path d="M64.1379 58.9655H62.069V54.8276C62.0379 53.9793 60.1448 48.6621 58.6138 44.3897C55.7069 36.2069 53.7931 30.7241 53.7931 28.9655V18.6207H47.5862V16.5517H54.8276C55.3966 16.5517 55.8621 17.0172 55.8621 17.5862V28.9655C55.8621 30.4966 58.5828 38.1207 60.569 43.6966C63.0517 50.6586 64.1379 53.8241 64.1379 54.8276V58.9655Z" fill="white"/>
<path d="M66.2069 57.931H0V60H66.2069V57.931Z" fill="white"/>
<path d="M23.7931 16.5517H21.7241V18.6207H23.7931V16.5517Z" fill="white"/>
<path d="M27.931 16.5517H25.8621V18.6207H27.931V16.5517Z" fill="white"/>
<path d="M19.6552 16.5517H17.5862V18.6207H19.6552V16.5517Z" fill="white"/>
<path d="M44.4827 6.2069C42.2793 6.2069 40.6965 3.94138 40.5207 3.68276C40.2414 3.26897 39.2172 2.06897 38.2759 2.06897C37.3138 2.06897 36.2586 3.34138 36.031 3.68276C35.8552 3.94138 34.2724 6.2069 32.069 6.2069C29.8655 6.2069 28.2827 3.94138 28.1069 3.68276C27.8276 3.26897 26.8034 2.06897 25.8621 2.06897V0C28.0655 0 29.6483 2.26552 29.8241 2.52414C30.1034 2.93793 31.1276 4.13793 32.069 4.13793C33.031 4.13793 34.0862 2.86552 34.3138 2.52414C34.4896 2.26552 36.0724 0 38.2759 0C40.4793 0 42.0621 2.26552 42.2379 2.52414C42.5172 2.93793 43.5414 4.13793 44.4827 4.13793C45.4448 4.13793 46.5 2.86552 46.7276 2.52414C46.9034 2.26552 48.4862 0 50.6896 0V2.06897C49.7276 2.06897 48.6724 3.34138 48.4448 3.68276C48.269 3.94138 46.6862 6.2069 44.4827 6.2069Z" fill="white"/>
<path d="M23.7931 4.13793H21.7241C21.7241 1.85172 23.5759 0 25.8621 0V2.06897C24.7241 2.06897 23.7931 3 23.7931 4.13793Z" fill="white"/>
<path d="M23.7931 4.13794H21.7241V6.20691H23.7931V4.13794Z" fill="white"/>
<path d="M34.1379 12.4138H11.3793V14.4828H34.1379V12.4138Z" fill="white"/>
<path d="M44.4827 16.5517H37.2414V18.6207H44.4827V16.5517Z" fill="white"/>
<path d="M54.8276 20.6896H47.5862V22.7586H54.8276V20.6896Z" fill="white"/>
<path d="M42.4138 53.7931H3.10344V55.8621H42.4138V53.7931Z" fill="white"/>
<path d="M52.7586 53.7931H45.5172V55.8621H52.7586V53.7931Z" fill="white"/>
<path d="M22.7586 39.3104C23.9013 39.3104 24.8276 38.384 24.8276 37.2414C24.8276 36.0987 23.9013 35.1724 22.7586 35.1724C21.616 35.1724 20.6897 36.0987 20.6897 37.2414C20.6897 38.384 21.616 39.3104 22.7586 39.3104Z" fill="white"/>
<path d="M14.4828 37.2413H12.4138C12.4138 34.1068 13.8103 31.1689 16.2517 29.1931L17.5552 30.7965C15.6 32.3896 14.4828 34.7275 14.4828 37.2413Z" fill="white"/>
<path d="M22.7586 47.5862C20.2138 47.5862 17.7621 46.6552 15.8586 44.9483L17.2345 43.4069C18.7552 44.7724 20.7207 45.5172 22.7586 45.5172C24.7966 45.5172 26.7621 44.7724 28.2724 43.4069L29.6483 44.9483C27.7552 46.6552 25.3035 47.5862 22.7586 47.5862Z" fill="white"/>
<path d="M33.1035 37.2413H31.0345C31.0345 34.7275 29.9173 32.3793 27.9517 30.7965L29.2552 29.1931C31.6966 31.1689 33.1035 34.0965 33.1035 37.2413Z" fill="white"/>
<path d="M18.6207 37.2413H16.5517C16.5517 35.2655 17.4517 33.4655 19.0345 32.2758L20.2759 33.931C19.2207 34.7172 18.6207 35.9275 18.6207 37.2413Z" fill="white"/>
<path d="M22.7586 43.4482C21.4034 43.4482 20.1103 43.0138 19.0345 42.2069L20.2758 40.5517C21.7138 41.6276 23.8034 41.6379 25.2414 40.5517L26.4827 42.2069C25.4069 43.0138 24.1138 43.4482 22.7586 43.4482Z" fill="white"/>
<path d="M28.9655 37.2413H26.8965C26.8965 35.9275 26.2965 34.7172 25.2414 33.931L26.4827 32.2758C28.0552 33.4551 28.9655 35.2655 28.9655 37.2413Z" fill="white"/>
</svg>
