<svg width="45" height="45" viewBox="0 0 45 45" fill="none" xmlns="http://www.w3.org/2000/svg">
<rect x="0.5" y="0.5" width="44" height="44" rx="22" stroke="black" stroke-opacity="0.5"/>
<g clip-path="url(#clip0_905_14494)">
<path d="M30.9375 20.625C30.9375 27.1875 22.5 32.8125 22.5 32.8125C22.5 32.8125 14.0625 27.1875 14.0625 20.625C14.0625 18.3872 14.9514 16.2411 16.5338 14.6588C18.1161 13.0764 20.2622 12.1875 22.5 12.1875C24.7378 12.1875 26.8839 13.0764 28.4662 14.6588C30.0486 16.2411 30.9375 18.3872 30.9375 20.625Z" stroke="black" stroke-opacity="0.5" stroke-linecap="round" stroke-linejoin="round"/>
<path d="M22.5 23.4375C24.0533 23.4375 25.3125 22.1783 25.3125 20.625C25.3125 19.0717 24.0533 17.8125 22.5 17.8125C20.9467 17.8125 19.6875 19.0717 19.6875 20.625C19.6875 22.1783 20.9467 23.4375 22.5 23.4375Z" stroke="black" stroke-opacity="0.5" stroke-linecap="round" stroke-linejoin="round"/>
</g>
<defs>
<clipPath id="clip0_905_14494">
<rect width="22.5" height="22.5" fill="white" transform="translate(11.25 11.25)"/>
</clipPath>
</defs>
</svg>
