<svg width="120" height="32" viewBox="0 0 120 32" fill="none" xmlns="http://www.w3.org/2000/svg">
<path d="M29.8152 31.9123C27.7233 31.6018 25.8937 30.6992 24.4965 29.2886C23.331 28.112 22.5754 26.818 22.0184 25.0449C21.1488 22.2768 21.1485 18.7178 22.0176 16.0061C22.86 13.3781 24.7565 11.0905 27.0777 9.90287C30.2921 8.25812 34.8164 8.36143 37.7935 10.1476C40.4728 11.7551 42.0958 14.6113 42.5474 18.5137C42.6852 19.7052 42.5958 22.2219 42.3786 23.2607C41.4899 27.5126 38.9016 30.4829 35.1095 31.6024C34.7008 31.723 34.0672 31.8641 33.7013 31.916C32.9271 32.0258 30.5644 32.0235 29.8152 31.9123ZM34.3427 31.584C35.8735 31.2198 37.0937 30.6637 38.1846 29.8333C40.8378 27.8135 42.2916 24.7166 42.4258 20.7985C42.5582 16.936 41.4153 13.6435 39.2055 11.5205C37.4116 9.79725 35.1511 8.97121 32.229 8.97121C29.1315 8.97121 26.6369 9.95015 24.7178 11.9188C22.662 14.0277 21.5746 16.9695 21.5746 20.4223C21.5746 24.0041 22.557 26.8956 24.4623 28.9214C25.5128 30.0383 26.5354 30.7082 28.0018 31.2399C28.5202 31.4279 28.9017 31.5182 30.2879 31.7808C30.4066 31.8033 31.2024 31.8075 32.0565 31.7901C33.2127 31.7666 33.7967 31.7139 34.3427 31.584ZM31.0693 30.3343C29.6522 29.679 28.6474 27.6874 28.1437 24.5358C27.8245 22.5379 27.7943 18.0951 28.0852 15.9181C28.4938 12.861 29.3568 11.0549 30.7006 10.4448C31.6216 10.0266 32.8981 10.274 33.7188 11.0298C35.5416 12.7084 36.4617 17.4815 36.0647 23.2003C35.7799 27.304 34.9061 29.5297 33.2763 30.3032C32.6855 30.5837 31.6404 30.5984 31.0693 30.3343ZM32.9448 30.2048C33.5559 30.0198 34.3096 29.2994 34.7115 28.5161C35.5412 26.8989 35.9117 24.5077 35.9209 20.7106C35.9323 15.9519 35.2005 12.9237 33.6557 11.3382C33.007 10.6724 32.547 10.4656 31.7176 10.467C29.8769 10.47 28.7086 12.4287 28.247 16.2857C28.0348 18.0585 28.0337 22.2822 28.245 23.8323C28.8989 28.6294 30.5871 30.9185 32.9448 30.2048ZM66.8668 31.9112C66.011 31.8227 63.3956 31.3791 62.482 31.1674L61.8499 31.0209L61.8992 27.5805C62.0179 19.2974 62.0328 14.7756 61.956 10.3782C61.8808 6.07041 61.8588 5.61494 61.6958 4.97773C61.4893 4.17032 61.1913 3.60711 60.8328 3.34693C60.6935 3.24585 60.3152 3.1026 59.992 3.02861C58.9178 2.78264 58.9761 2.82208 58.9474 2.32257C58.9309 2.03483 58.9615 1.84475 59.0337 1.78642C59.1305 1.70823 67.9412 -0.0048011 68.2218 1.01154e-05C68.3025 0.00139246 68.3139 1.1497 68.2726 5.10205C68.2432 7.90719 68.2395 10.2023 68.2642 10.2023C68.2889 10.2023 68.6109 10.0602 68.9796 9.88655C70.0912 9.36305 71.1158 9.1359 72.6039 9.08304C73.5946 9.04784 74.0535 9.06988 74.5618 9.17708C77.8852 9.87795 80.3446 12.6507 81.2041 16.6656C81.4283 17.7129 81.5117 20.3159 81.3629 21.6196C81.236 22.7309 80.874 24.2281 80.4973 25.1998C79.0759 28.8662 76.0262 31.2581 71.9805 31.8797C71.0486 32.0229 68.1222 32.0409 66.8668 31.9112ZM71.7411 31.7015C74.3618 31.3009 76.2841 30.3835 77.9121 28.7567C80.2653 26.4051 81.3987 23.0862 81.2455 18.9959C81.1666 16.8899 80.8292 15.5143 79.9729 13.8077C78.8128 11.4956 76.8287 9.8739 74.5759 9.39633C72.886 9.03811 70.7117 9.31869 69.0586 10.1083C68.6466 10.3051 68.2523 10.4661 68.1822 10.4661C68.0711 10.4661 68.0591 9.81495 68.0874 5.33701L68.1198 0.207913L67.7737 0.278632C67.5833 0.317527 65.6418 0.686271 63.4591 1.09806C61.2765 1.50985 59.4055 1.86712 59.3015 1.89199C59.1433 1.92979 59.1156 1.99123 59.1325 2.26655C59.1514 2.57337 59.1762 2.60113 59.4943 2.67248C60.5879 2.91777 60.7826 3.00518 61.1893 3.43334C61.6874 3.95784 61.9124 4.62762 62.0601 6.02537C62.1777 7.13918 62.2038 26.3287 62.0915 29.1611L62.0249 30.8406L62.9146 31.0346C66.2832 31.7688 69.6411 32.0226 71.7411 31.7015ZM68.6635 30.3638C68.4892 30.3451 68.3027 30.2758 68.249 30.2099C68.1012 30.0283 67.941 18.0913 68.0396 14.5991L68.1178 11.8291L68.8079 11.6263C69.8262 11.3271 70.9224 11.3736 71.6995 11.749C73.2602 12.5029 74.2855 14.3651 74.8179 17.413C74.9914 18.4058 74.9658 21.8541 74.7758 23.0812C74.3792 25.6433 73.6575 27.6208 72.6529 28.8983C72.1659 29.5176 71.3571 30.1034 70.7247 30.2948C70.3167 30.4183 69.4422 30.4476 68.6635 30.3638ZM70.3244 30.1623C70.9512 30.0412 71.4381 29.787 71.9608 29.3079C73.271 28.1072 74.2561 25.6284 74.6435 22.5572C74.8013 21.3064 74.78 18.456 74.6051 17.412C74.1321 14.5882 73.1155 12.7324 71.6326 11.9851C71.0174 11.6751 70.9226 11.6532 70.1929 11.6532C69.6711 11.6532 69.2222 11.7102 68.8405 11.8248L68.2691 11.9964L68.2269 15.2103C68.1729 19.3273 68.3043 29.6344 68.4146 29.9301C68.485 30.1188 68.5625 30.1589 68.9118 30.1868C69.7339 30.2526 69.8699 30.2502 70.3244 30.1623ZM91.6697 31.8676C87.3898 31.0808 84.3289 27.9871 83.3288 23.4373C83.2001 22.8521 83.1432 22.1973 83.111 20.9304C83.06 18.9262 83.2199 17.6822 83.7273 16.1366C84.7016 13.1687 86.4478 11.0657 88.9843 9.80521C91.6615 8.47479 95.3218 8.38765 97.6912 9.59793C100.359 10.9606 101.928 13.6814 102.327 17.6329C102.38 18.1649 102.411 18.798 102.396 19.0398L102.367 19.4795L95.9833 19.502L89.5992 19.5246L89.6236 20.2934C89.6799 22.0745 90.0556 23.6498 90.7505 25.0194C91.0664 25.642 91.3178 25.9814 91.9286 26.6099C93.3083 28.0297 94.6808 28.5795 96.846 28.5795C98.4159 28.5795 99.5449 28.2602 100.726 27.4821C101.056 27.2642 101.391 27.0859 101.47 27.0859C101.65 27.0859 102.065 27.6304 102.065 27.8669C102.065 28.2544 100.828 29.504 99.6203 30.3353C98.6315 31.0161 97.0634 31.6326 95.7037 31.875C94.7514 32.0448 92.6121 32.0409 91.6697 31.8676ZM95.5064 31.6986C97.5054 31.3682 99.4738 30.3903 100.889 29.0247C101.664 28.2767 101.921 27.9158 101.813 27.7267C101.525 27.2221 101.538 27.2226 100.803 27.6824C99.6342 28.4145 99.0482 28.6163 97.6746 28.76C96.0701 28.9278 94.5901 28.6545 93.2226 27.9377C92.3154 27.4623 91.2283 26.3687 90.6849 25.3851C89.9434 24.0427 89.5411 22.4747 89.4211 20.4597C89.3707 19.6136 89.3816 19.4028 89.4791 19.3399C89.5456 19.297 92.4222 19.2618 95.9186 19.261L102.238 19.2597V19.0052C102.238 18.4268 102.052 16.8722 101.885 16.0572C101.213 12.7799 99.4412 10.443 96.9142 9.50292C95.9083 9.12876 94.9568 8.97121 93.7028 8.97121C90.7314 8.97121 88.3047 9.96467 86.4274 11.9496C84.9307 13.5321 84.0427 15.3099 83.5007 17.8087C83.3374 18.5618 83.31 18.9532 83.31 20.5347C83.31 22.1046 83.3379 22.5094 83.4963 23.2355C84.5023 27.8478 87.4791 30.8851 91.756 31.6631C92.8399 31.8603 94.4371 31.8754 95.5064 31.6986ZM89.4393 17.7856C89.3744 17.6785 89.5354 16.1133 89.6948 15.3026C90.0788 13.3484 90.6937 11.9373 91.5398 11.0684C91.9949 10.601 92.2026 10.4553 92.5738 10.3429C92.8292 10.2656 93.1186 10.2025 93.2167 10.2028C93.6126 10.2039 94.0797 10.4098 94.4273 10.7364C95.3604 11.6131 95.8943 13.4958 96.0001 16.2825L96.0524 17.6581L95.1551 17.7091C93.3541 17.8114 89.4863 17.8631 89.4393 17.7856ZM94.3785 17.5342L95.8795 17.481L95.8255 16.3942C95.6349 12.562 94.7149 10.4678 93.2226 10.4695C91.6008 10.4713 90.3047 12.5966 89.7659 16.138C89.6996 16.5732 89.6448 17.0894 89.6439 17.285L89.6424 17.6407L91.2599 17.614C92.1496 17.5994 93.553 17.5635 94.3785 17.5342ZM108.924 31.9529C107.387 31.785 104.941 31.2391 104.126 30.8823L103.729 30.708L103.674 28.6991C103.644 27.5942 103.61 26.1169 103.598 25.4162L103.576 24.1422L103.814 24.0258C103.945 23.9617 104.21 23.9019 104.402 23.8928L104.752 23.8763L105.05 24.6237C106.212 27.5397 107.575 29.1119 109.356 29.5901C110.035 29.7725 111.308 29.7741 111.811 29.5932C113.22 29.0864 113.992 27.9993 113.999 26.5143C114.007 24.7557 113.058 23.9107 109.475 22.4841C107.256 21.6003 106.481 21.1454 105.559 20.1834C104.565 19.1458 104.087 17.9646 103.998 16.3195C103.89 14.3316 104.5 12.6558 105.852 11.2277C107.214 9.79056 108.981 9.01166 111.388 8.78776C113.507 8.5906 116.761 9.04885 118.466 9.78464L118.777 9.91888L118.832 11.7094C118.863 12.6942 118.894 14.0143 118.903 14.643L118.917 15.7861L118.499 15.9441C117.839 16.1941 117.796 16.1627 117.428 15.1707C116.399 12.3898 115.202 11.074 113.338 10.6721C112.202 10.4271 111.253 10.6904 110.563 11.4421C110.025 12.0285 109.815 12.5492 109.765 13.4236C109.709 14.3711 109.876 14.8832 110.443 15.5166C111.143 16.2972 112.29 16.9711 114.575 17.9442C117.373 19.136 118.708 20.1478 119.434 21.6265C119.905 22.5869 120.038 23.354 119.991 24.8305C119.955 25.9384 119.921 26.1662 119.673 26.9101C118.867 29.3354 117.047 30.9321 114.235 31.6807C113.283 31.9342 113.147 31.9473 111.253 31.9685C110.162 31.9806 109.114 31.9736 108.924 31.9529ZM113.022 31.7065C116.687 31.1391 119.054 29.1357 119.674 26.0747C119.974 24.5965 119.834 22.9529 119.315 21.8538C118.588 20.3149 117.36 19.3859 114.316 18.0742C112.055 17.1001 110.7 16.2743 110.145 15.5327C109.687 14.92 109.538 14.4489 109.544 13.6318C109.553 12.3993 110.011 11.4554 110.886 10.8669C111.619 10.3741 112.537 10.2539 113.606 10.5108C114.897 10.8212 115.869 11.6292 116.746 13.1231C117.025 13.5985 117.599 14.9331 117.878 15.7566C117.922 15.8844 117.972 15.8898 118.273 15.7991C118.463 15.742 118.645 15.6681 118.677 15.6349C118.71 15.6017 118.708 14.342 118.672 12.8355L118.608 10.0965L118.295 9.96137C117.767 9.73339 116.389 9.35111 115.481 9.18085C114.797 9.05273 114.196 9.01955 112.59 9.02135C110.674 9.0235 110.517 9.03627 109.726 9.25517C107.426 9.89103 105.722 11.2137 104.831 13.0529C104.357 14.0304 104.194 14.7839 104.199 15.9621C104.207 17.6349 104.654 18.8697 105.643 19.9486C106.494 20.8769 107.6 21.5392 109.485 22.2485C110.968 22.8067 112.498 23.586 113.079 24.0781C113.42 24.3674 113.688 24.6969 113.887 25.0728C114.171 25.6074 114.186 25.6781 114.186 26.5143C114.186 27.32 114.164 27.4431 113.913 27.9829C113.257 29.3934 111.946 30.0936 110.228 29.9505C107.894 29.7559 106.251 28.1827 104.913 24.8615C104.564 23.9952 104.54 23.9772 104.01 24.1828L103.766 24.2772L103.827 27.3743C103.881 30.1231 103.904 30.4842 104.033 30.5845C104.416 30.8844 106.899 31.4851 108.622 31.6948C109.959 31.8576 112.011 31.8631 113.022 31.7065ZM0.11467 31.4245C0.0429418 31.395 0.00683094 31.1758 0.00683094 30.77C0.00683094 30.0414 -0.0387291 30.074 1.34403 29.8125C2.40457 29.6119 2.784 29.4068 3.25233 28.781C4.16035 27.5675 4.35661 25.231 4.35865 15.6103C4.36056 6.57537 4.1898 4.67473 3.25069 3.27834C2.83404 2.6588 2.13189 2.32239 0.955812 2.17884L0.0499664 2.06828L0.0249832 1.34745L0 0.626618L0.283796 0.575071C0.439884 0.546721 5.92394 0.534741 12.4706 0.548449L24.3736 0.573375L24.4294 0.925117C24.4601 1.11857 24.5105 3.10292 24.5414 5.33477L24.5975 9.39269L23.9838 9.58269C23.06 9.86871 23.0656 9.87219 22.65 8.75137C21.6292 5.9983 20.4587 4.41194 18.857 3.61088C17.7524 3.0584 17.2416 2.9916 14.122 2.9916H11.407L11.3602 3.45326C11.2724 4.31899 11.1339 9.88799 11.1348 12.5106L11.1358 15.1267L11.9338 15.122C12.3727 15.1195 13.2382 15.0865 13.857 15.0489C14.7874 14.9922 15.0638 14.9419 15.4531 14.7582C16.4094 14.307 17.06 13.3138 17.4586 11.6967L17.6644 10.8618L18.3685 10.8363L19.0727 10.8107V16.094V21.3772L18.3683 21.3517L17.6638 21.3261L17.4639 20.4908C17.0882 18.9211 16.3652 17.7975 15.4718 17.3946C15.0592 17.2086 14.0382 17.1029 12.0632 17.0416L11.1358 17.0129V18.9977C11.1358 21.1606 11.2524 24.0866 11.402 25.6747C11.6104 27.8884 12.1655 29.1117 13.1622 29.5544C13.3525 29.6389 13.9547 29.7762 14.5004 29.8595C15.046 29.9428 15.5604 30.0467 15.6434 30.0904C15.854 30.2012 15.8665 31.3478 15.658 31.4293C15.4948 31.4931 0.270087 31.4884 0.11467 31.4245ZM15.6219 30.7352C15.6219 30.4692 15.5986 30.2516 15.5701 30.2516C15.159 30.2516 13.2435 29.8306 12.9356 29.6726C11.8401 29.1103 11.3337 27.774 11.1372 24.9268C10.9975 22.9029 10.8585 16.957 10.9487 16.865C11.0305 16.7816 14.678 16.9298 15.1042 17.0338C16.2829 17.3214 17.1914 18.5032 17.6462 20.3405L17.8467 21.1503L18.3735 21.1765L18.9002 21.2026V16.0982V10.9937H18.3394C17.8152 10.9937 17.7786 11.0066 17.7786 11.1919C17.7786 11.525 17.4514 12.5794 17.1416 13.2443C16.6565 14.2856 15.9732 14.9142 15.1042 15.1184C14.8907 15.1686 13.8828 15.249 12.8645 15.2971C11.4282 15.3648 10.9972 15.3605 10.9431 15.2775C10.8429 15.1243 11.0712 3.5466 11.1849 3.00864L11.2278 2.80584L14.3954 2.83277L17.563 2.8597L18.3001 3.12877C20.0074 3.75202 21.236 5.02473 22.2624 7.23356C22.493 7.7298 22.7885 8.45239 22.9192 8.83931C23.0498 9.22622 23.1655 9.55509 23.1761 9.57013C23.1868 9.58517 23.4701 9.51244 23.8058 9.4085L24.4162 9.21954L24.3733 6.34739C24.3497 4.76771 24.308 2.87179 24.2806 2.13423L24.2308 0.793213H12.201H0.17114L0.196824 1.34242L0.222508 1.89163L0.998947 1.99062C2.03472 2.12267 2.4145 2.23769 2.83159 2.54565C3.46383 3.01248 3.85266 3.69828 4.09751 4.77841C4.4779 6.45652 4.61481 10.241 4.55141 17.3251C4.48441 24.8104 4.39179 26.3672 3.92362 27.8773C3.53857 29.1194 2.82193 29.7778 1.63821 29.977C1.31242 30.0319 0.850905 30.1194 0.612619 30.1715L0.179373 30.2662V30.7425V31.2189H7.90062H15.6219V30.7352ZM42.642 31.4078C42.5633 31.3567 42.5376 31.1539 42.5557 30.7274L42.5816 30.1197L42.8835 30.0542C43.0496 30.0181 43.4063 29.9466 43.6762 29.8952C44.5115 29.7361 44.9916 29.2739 45.2617 28.3688C45.4817 27.6313 45.5787 25.2722 45.5838 20.5347C45.59 14.7407 45.4716 13.3724 44.8968 12.5967C44.5853 12.1764 44.3608 12.0568 43.6049 11.9089C43.2319 11.836 42.8393 11.7577 42.7325 11.7351C42.5596 11.6984 42.5384 11.641 42.5384 11.21C42.5384 10.791 42.5644 10.7153 42.7325 10.6448C42.9907 10.5366 51.5372 8.79534 51.8102 8.79534H52.0232L51.9814 10.0924C51.9584 10.8058 51.9217 11.8445 51.8998 12.4007L51.8599 13.412L52.1695 12.8428C53.1607 11.0209 54.2722 9.88999 55.7503 9.19955C56.5617 8.82053 57.103 8.70741 58.1055 8.70741C59.2943 8.70741 60.4828 9.10279 60.4828 9.4983C60.4828 9.76425 58.3882 15.4054 58.2727 15.4506C58.2164 15.4727 57.8074 15.3132 57.3639 15.0963C56.4389 14.6439 55.5711 14.4226 54.7287 14.4245C53.6797 14.4268 52.5079 14.8207 52.0453 15.3264C51.8474 15.5428 51.8464 15.5558 51.7973 18.7866C51.7486 21.9861 51.8532 25.8889 52.0297 27.4585C52.1801 28.7957 52.5287 29.4541 53.2486 29.7606C53.4888 29.8629 55.0084 30.0751 55.5043 30.0756C55.5418 30.0757 55.5612 30.3824 55.5474 30.7572L55.5222 31.4387L49.1381 31.4597C45.6269 31.4712 42.7036 31.4479 42.642 31.4078ZM55.3928 30.7427V30.2666L54.7242 30.2091C53.1821 30.0763 52.7596 29.9185 52.3546 29.3241C51.7678 28.4626 51.64 26.8729 51.64 20.4319V15.4047L51.8539 15.1726C52.1237 14.8798 52.9673 14.4713 53.5638 14.3445C54.775 14.0871 56.3235 14.3095 57.5345 14.9149C57.882 15.0886 58.181 15.2159 58.1988 15.1978C58.2344 15.1614 60.2235 9.80375 60.2852 9.57777C60.3132 9.47522 60.1986 9.38587 59.864 9.2494C59.148 8.95732 58.527 8.85716 57.7259 8.90454C55.5833 9.03127 53.6818 10.4822 52.3122 13.0354C52.0848 13.4592 51.8493 13.8064 51.7889 13.8068C51.7011 13.8075 51.6908 13.3206 51.738 11.3842L51.7971 8.96078L51.5891 9.01075C51.4748 9.03824 49.7507 9.39427 47.7578 9.80192C43.4837 10.6762 42.8896 10.8037 42.7876 10.8679C42.7455 10.8944 42.711 11.0516 42.711 11.2171C42.711 11.5491 42.6729 11.5299 43.6441 11.6891C44.9791 11.9079 45.4507 12.5714 45.6497 14.5111C45.9093 17.0402 45.8056 26.8993 45.5053 28.2453C45.3517 28.9335 44.9549 29.5964 44.5555 29.8319C44.4074 29.9192 43.9416 30.0592 43.5202 30.1431L42.7541 30.2956L42.728 30.7572L42.7019 31.2189H49.0474H55.3928V30.7427Z" fill="white"/>
<path d="M15.6219 30.7352C15.6219 30.4692 15.5986 30.2516 15.5701 30.2516C15.159 30.2516 13.2435 29.8306 12.9356 29.6726C11.8401 29.1103 11.3337 27.774 11.1372 24.9268C10.9975 22.9029 10.8585 16.957 10.9487 16.865C11.0305 16.7816 14.678 16.9298 15.1042 17.0338C16.2829 17.3214 17.1914 18.5032 17.6462 20.3405L17.8467 21.1503L18.3735 21.1765L18.9002 21.2026V16.0982V10.9937H18.3394C17.8152 10.9937 17.7786 11.0066 17.7786 11.1919C17.7786 11.525 17.4514 12.5794 17.1416 13.2443C16.6565 14.2856 15.9732 14.9142 15.1042 15.1184C14.8907 15.1686 13.8828 15.249 12.8645 15.2971C11.4282 15.3648 10.9972 15.3605 10.9431 15.2775C10.8429 15.1243 11.0712 3.5466 11.1849 3.00864L11.2278 2.80584L14.3954 2.83277L17.563 2.8597L18.3001 3.12877C20.0074 3.75202 21.236 5.02473 22.2624 7.23356C22.493 7.7298 22.7885 8.45239 22.9192 8.83931C23.0498 9.22622 23.1655 9.55509 23.1761 9.57013C23.1868 9.58517 23.4701 9.51244 23.8058 9.4085L24.4162 9.21954L24.3733 6.34739C24.3497 4.76771 24.308 2.87179 24.2806 2.13423L24.2308 0.793213H12.201H0.17114L0.196824 1.34242L0.222508 1.89163L0.998947 1.99062C2.03472 2.12267 2.4145 2.23769 2.83159 2.54565C3.46383 3.01248 3.85266 3.69828 4.09751 4.77841C4.4779 6.45652 4.61481 10.241 4.55141 17.3251C4.48441 24.8104 4.39179 26.3672 3.92362 27.8773C3.53857 29.1194 2.82193 29.7778 1.63821 29.977C1.31242 30.0319 0.850905 30.1194 0.612619 30.1715L0.179373 30.2662V30.7425V31.2189H7.90062H15.6219V30.7352Z" fill="white"/>
<path fill-rule="evenodd" clip-rule="evenodd" d="M34.3427 31.584C35.8735 31.2198 37.0937 30.6637 38.1846 29.8333C40.8378 27.8135 42.2916 24.7166 42.4258 20.7985C42.5582 16.936 41.4153 13.6435 39.2055 11.5205C37.4116 9.79725 35.1511 8.97121 32.229 8.97121C29.1315 8.97121 26.6369 9.95015 24.7178 11.9188C22.662 14.0277 21.5746 16.9695 21.5746 20.4223C21.5746 24.0041 22.557 26.8956 24.4623 28.9214C25.5128 30.0383 26.5354 30.7082 28.0018 31.2399C28.5202 31.4279 28.9017 31.5182 30.2879 31.7808C30.4066 31.8033 31.2024 31.8075 32.0565 31.7901C33.2127 31.7666 33.7967 31.7139 34.3427 31.584ZM28.1437 24.5358C28.6474 27.6874 29.6522 29.679 31.0693 30.3343C31.6404 30.5984 32.6855 30.5837 33.2763 30.3032C34.9061 29.5297 35.7799 27.304 36.0647 23.2003C36.4617 17.4815 35.5416 12.7084 33.7188 11.0298C32.8981 10.274 31.6216 10.0266 30.7006 10.4448C29.3568 11.0549 28.4938 12.861 28.0852 15.9181C27.7943 18.0951 27.8245 22.5379 28.1437 24.5358Z" fill="white"/>
<path d="M55.3928 30.7427V30.2666L54.7242 30.2091C53.1821 30.0763 52.7596 29.9185 52.3546 29.3241C51.7678 28.4626 51.64 26.8729 51.64 20.4319V15.4047L51.8539 15.1726C52.1237 14.8798 52.9673 14.4713 53.5638 14.3445C54.775 14.0871 56.3235 14.3095 57.5345 14.9149C57.882 15.0886 58.181 15.2159 58.1988 15.1978C58.2344 15.1614 60.2235 9.80375 60.2852 9.57777C60.3132 9.47522 60.1986 9.38587 59.864 9.2494C59.148 8.95732 58.527 8.85716 57.7259 8.90454C55.5833 9.03127 53.6818 10.4822 52.3122 13.0354C52.0848 13.4592 51.8493 13.8064 51.7889 13.8068C51.7011 13.8075 51.6908 13.3206 51.738 11.3842L51.7971 8.96078L51.5891 9.01075C51.4748 9.03824 49.7507 9.39427 47.7578 9.80192C43.4837 10.6762 42.8896 10.8037 42.7876 10.8679C42.7455 10.8944 42.711 11.0516 42.711 11.2171C42.711 11.5491 42.6729 11.5299 43.6441 11.6891C44.9791 11.9079 45.4507 12.5714 45.6497 14.5111C45.9093 17.0402 45.8056 26.8993 45.5053 28.2453C45.3517 28.9335 44.9549 29.5964 44.5555 29.8319C44.4074 29.9192 43.9416 30.0592 43.5202 30.1431L42.7541 30.2956L42.728 30.7572L42.7019 31.2189H49.0474H55.3928V30.7427Z" fill="white"/>
<path fill-rule="evenodd" clip-rule="evenodd" d="M71.7411 31.7015C74.3618 31.3009 76.2841 30.3835 77.9121 28.7567C80.2653 26.4051 81.3987 23.0862 81.2455 18.9959C81.1666 16.8899 80.8292 15.5143 79.9729 13.8077C78.8128 11.4956 76.8287 9.8739 74.5759 9.39633C72.886 9.03811 70.7117 9.31869 69.0586 10.1083C68.6466 10.3051 68.2523 10.4661 68.1822 10.4661C68.0711 10.4661 68.0591 9.81495 68.0874 5.33701L68.1198 0.207913L67.7737 0.278632C67.5833 0.317527 65.6418 0.686271 63.4591 1.09806C61.2765 1.50985 59.4055 1.86712 59.3015 1.89199C59.1433 1.92979 59.1156 1.99123 59.1325 2.26655C59.1514 2.57337 59.1762 2.60113 59.4943 2.67248C60.5879 2.91777 60.7826 3.00518 61.1893 3.43334C61.6874 3.95784 61.9124 4.62762 62.0601 6.02537C62.1777 7.13918 62.2038 26.3287 62.0915 29.1611L62.0249 30.8406L62.9146 31.0346C66.2832 31.7688 69.6411 32.0226 71.7411 31.7015ZM68.249 30.2099C68.3027 30.2758 68.4892 30.3451 68.6635 30.3638C69.4422 30.4476 70.3167 30.4183 70.7247 30.2948C71.3571 30.1034 72.1659 29.5176 72.6529 28.8983C73.6575 27.6208 74.3792 25.6433 74.7758 23.0812C74.9658 21.8541 74.9914 18.4058 74.8179 17.413C74.2855 14.3651 73.2602 12.5029 71.6995 11.749C70.9224 11.3736 69.8262 11.3271 68.8079 11.6263L68.1178 11.8291L68.0396 14.5991C67.941 18.0913 68.1012 30.0283 68.249 30.2099Z" fill="white"/>
<path fill-rule="evenodd" clip-rule="evenodd" d="M95.5064 31.6986C97.5054 31.3682 99.4738 30.3903 100.889 29.0247C101.664 28.2767 101.921 27.9158 101.813 27.7267C101.525 27.2221 101.538 27.2226 100.803 27.6824C99.6342 28.4145 99.0482 28.6163 97.6746 28.76C96.0701 28.9278 94.5901 28.6545 93.2226 27.9377C92.3154 27.4623 91.2283 26.3687 90.6849 25.3851C89.9434 24.0427 89.5411 22.4747 89.4211 20.4597C89.3707 19.6136 89.3816 19.4028 89.4791 19.3399C89.5456 19.297 92.4222 19.2618 95.9186 19.261L102.238 19.2597V19.0052C102.238 18.4268 102.052 16.8722 101.885 16.0572C101.213 12.7799 99.4412 10.443 96.9142 9.50292C95.9083 9.12876 94.9568 8.97121 93.7028 8.97121C90.7314 8.97121 88.3047 9.96467 86.4274 11.9496C84.9307 13.5321 84.0427 15.3099 83.5007 17.8087C83.3374 18.5618 83.31 18.9532 83.31 20.5347C83.31 22.1046 83.3379 22.5094 83.4963 23.2355C84.5023 27.8478 87.4791 30.8851 91.756 31.6631C92.8399 31.8603 94.4371 31.8754 95.5064 31.6986ZM89.6948 15.3026C89.5354 16.1133 89.3744 17.6785 89.4393 17.7856C89.4863 17.8631 93.3541 17.8114 95.1551 17.7091L96.0524 17.6581L96.0001 16.2825C95.8943 13.4958 95.3604 11.6131 94.4273 10.7364C94.0797 10.4098 93.6126 10.2039 93.2167 10.2028C93.1186 10.2025 92.8292 10.2656 92.5738 10.3429C92.2026 10.4553 91.9949 10.601 91.5398 11.0684C90.6937 11.9373 90.0788 13.3484 89.6948 15.3026Z" fill="white"/>
<path d="M113.022 31.7065C116.687 31.1391 119.054 29.1357 119.674 26.0747C119.974 24.5965 119.834 22.9529 119.315 21.8538C118.588 20.3149 117.36 19.3859 114.316 18.0742C112.055 17.1001 110.7 16.2743 110.145 15.5327C109.687 14.92 109.538 14.4489 109.544 13.6318C109.553 12.3993 110.011 11.4554 110.886 10.8669C111.619 10.3741 112.537 10.2539 113.606 10.5108C114.897 10.8212 115.869 11.6292 116.746 13.1231C117.025 13.5985 117.599 14.9331 117.878 15.7566C117.922 15.8844 117.972 15.8898 118.273 15.7991C118.463 15.742 118.645 15.6681 118.677 15.6349C118.71 15.6017 118.708 14.342 118.672 12.8355L118.608 10.0965L118.295 9.96137C117.767 9.73339 116.389 9.35111 115.481 9.18085C114.797 9.05273 114.196 9.01955 112.59 9.02135C110.674 9.0235 110.517 9.03627 109.726 9.25517C107.426 9.89103 105.722 11.2137 104.831 13.0529C104.357 14.0304 104.194 14.7839 104.199 15.9621C104.207 17.6349 104.654 18.8697 105.643 19.9486C106.494 20.8769 107.6 21.5392 109.485 22.2485C110.968 22.8067 112.498 23.586 113.079 24.0781C113.42 24.3674 113.688 24.6969 113.887 25.0728C114.171 25.6074 114.186 25.6781 114.186 26.5143C114.186 27.32 114.164 27.4431 113.913 27.9829C113.257 29.3934 111.946 30.0936 110.228 29.9505C107.894 29.7559 106.251 28.1827 104.913 24.8615C104.564 23.9952 104.54 23.9772 104.01 24.1828L103.766 24.2772L103.827 27.3743C103.881 30.1231 103.904 30.4842 104.033 30.5845C104.416 30.8844 106.899 31.4851 108.622 31.6948C109.959 31.8576 112.011 31.8631 113.022 31.7065Z" fill="white"/>
</svg>
