<svg width="62" height="62" viewBox="0 0 62 62" fill="none" xmlns="http://www.w3.org/2000/svg">
<path d="M33.3381 50.2885C33.1284 50.2885 32.9186 50.2122 32.747 50.0787C32.5373 49.9167 32.4134 49.6688 32.3848 49.4114C32.3085 48.4199 31.4982 47.6668 30.5067 47.6668C29.5152 47.6668 28.7049 48.4199 28.6191 49.4209C28.6 49.6879 28.4666 49.9262 28.2568 50.0883C28.0471 50.2503 27.7802 50.3266 27.5228 50.2885C24.3195 49.8118 21.2403 48.5343 18.6377 46.6181C18.4184 46.456 18.2754 46.2082 18.2563 45.9317C18.2373 45.6552 18.3326 45.3883 18.5233 45.1881C18.876 44.8163 19.0667 44.3492 19.0667 43.8534C19.0667 42.8048 18.2087 41.9468 17.16 41.9468C16.6643 41.9468 16.1971 42.1374 15.8349 42.4902C15.6347 42.6808 15.3677 42.7762 15.0913 42.7571C14.8148 42.738 14.5669 42.595 14.4048 42.3758C12.4791 39.7732 11.2112 36.6939 10.7345 33.4907C10.6964 33.2333 10.7631 32.9663 10.9347 32.7566C11.0968 32.5469 11.3446 32.4229 11.602 32.3943C12.5935 32.3085 13.3466 31.4982 13.3466 30.5067C13.3466 29.5153 12.5935 28.7049 11.5925 28.6191C11.3256 28.6001 11.0872 28.4666 10.9252 28.2569C10.7631 28.0471 10.6868 27.7802 10.725 27.5228C11.2016 24.3196 12.4696 21.2403 14.3953 18.6377C14.5574 18.4184 14.8053 18.2754 15.0817 18.2564C15.3582 18.2278 15.6251 18.3326 15.8253 18.5233C16.1971 18.876 16.6643 19.0667 17.16 19.0667C18.2087 19.0667 19.0667 18.2087 19.0667 17.16C19.0667 16.6643 18.876 16.1972 18.5233 15.8349C18.3326 15.6347 18.2373 15.3677 18.2563 15.0913C18.2754 14.8148 18.4184 14.5669 18.6377 14.4049C21.2498 12.4791 24.3195 11.2112 27.5228 10.7345C27.7802 10.6964 28.0471 10.7631 28.2568 10.9347C28.4666 11.0968 28.5905 11.3447 28.6191 11.6021C28.7049 12.5935 29.5152 13.3467 30.5067 13.3467C31.4982 13.3467 32.3085 12.5935 32.3943 11.5925C32.4134 11.3256 32.5468 11.0873 32.7566 10.9252C32.9663 10.7631 33.2332 10.6869 33.4906 10.725C36.6938 11.2017 39.7731 12.4791 42.3757 14.3953C42.595 14.5574 42.738 14.8053 42.7571 15.0817C42.7761 15.3582 42.6808 15.6252 42.4901 15.8254C42.1374 16.1972 41.9467 16.6643 41.9467 17.16C41.9467 18.2087 42.8047 19.0667 43.8534 19.0667C44.3491 19.0667 44.8163 18.876 45.1785 18.5233C45.3787 18.3326 45.6361 18.2278 45.9221 18.2564C46.1986 18.2754 46.4465 18.4184 46.6085 18.6377C48.5343 21.2403 49.8022 24.3196 50.2789 27.5228C50.317 27.7802 50.2503 28.0471 50.0787 28.2569C49.9166 28.4666 49.6688 28.5905 49.4114 28.6191C48.4199 28.7049 47.6667 29.5153 47.6667 30.5067C47.6667 31.4982 48.4199 32.3085 49.4209 32.3943C49.6878 32.4134 49.9262 32.5469 50.0882 32.7566C50.2503 32.9663 50.3266 33.2333 50.2884 33.4907C49.8118 36.6939 48.5438 39.7636 46.6181 42.3758C46.456 42.595 46.2081 42.738 45.9317 42.7571C45.6552 42.7857 45.3883 42.6808 45.1881 42.4902C44.8163 42.1374 44.3491 41.9468 43.8534 41.9468C42.8047 41.9468 41.9467 42.8048 41.9467 43.8534C41.9467 44.3492 42.1374 44.8163 42.4901 45.1786C42.6808 45.3788 42.7761 45.6457 42.7571 45.9222C42.738 46.1986 42.595 46.4465 42.3757 46.6086C39.7636 48.5343 36.6938 49.8023 33.4906 50.2789C33.4334 50.2885 33.3858 50.2885 33.3381 50.2885ZM30.5067 45.7601C32.1178 45.7601 33.5192 46.7897 34.0626 48.2483C36.3411 47.7907 38.5243 46.8946 40.4691 45.6076C40.1926 45.0737 40.0401 44.4731 40.0401 43.8534C40.0401 41.7466 41.7465 40.0401 43.8534 40.0401C44.4731 40.0401 45.0737 40.1926 45.6075 40.4691C46.885 38.5338 47.7811 36.3507 48.2388 34.0722C46.7801 33.5383 45.7601 32.1465 45.7601 30.5067C45.7601 28.867 46.7801 27.4751 48.2483 26.9412C47.7907 24.6628 46.8945 22.4796 45.6171 20.5444C45.0737 20.8208 44.4731 20.9734 43.8534 20.9734C41.7465 20.9734 40.0401 19.2669 40.0401 17.16C40.0401 16.5404 40.1926 15.9398 40.4691 15.4059C38.5243 14.1284 36.3411 13.2227 34.0626 12.7651C33.5192 14.2237 32.1178 15.2533 30.5067 15.2533C28.8956 15.2533 27.4942 14.2237 26.9508 12.7651C24.6723 13.2227 22.4891 14.1189 20.5443 15.4059C20.8208 15.9398 20.9733 16.5404 20.9733 17.16C20.9733 19.2669 19.2669 20.9734 17.16 20.9734C16.5403 20.9734 15.9397 20.8208 15.4059 20.5444C14.1284 22.4796 13.2322 24.6628 12.7746 26.9412C14.2332 27.4751 15.2533 28.867 15.2533 30.5067C15.2533 32.1465 14.2332 33.5383 12.7651 34.0722C13.2227 36.3507 14.1188 38.5338 15.3963 40.4691C15.9397 40.1926 16.5403 40.0401 17.16 40.0401C19.2669 40.0401 20.9733 41.7466 20.9733 43.8534C20.9733 44.4731 20.8208 45.0737 20.5443 45.6076C22.4891 46.885 24.6723 47.7907 26.9508 48.2483C27.4942 46.7897 28.8956 45.7601 30.5067 45.7601Z" fill="white"/>
<path d="M30.5067 40.0401C25.2538 40.0401 20.9734 35.7596 20.9734 30.5068C20.9734 25.2539 25.2538 20.9734 30.5067 20.9734C35.7596 20.9734 40.0401 25.2539 40.0401 30.5068C40.0401 35.7596 35.7596 40.0401 30.5067 40.0401ZM30.5067 22.8801C26.3025 22.8801 22.88 26.3025 22.88 30.5068C22.88 34.711 26.3025 38.1334 30.5067 38.1334C34.7109 38.1334 38.1334 34.711 38.1334 30.5068C38.1334 26.3025 34.7109 22.8801 30.5067 22.8801Z" fill="white"/>
<path d="M46.7134 14.3H44.8068V16.2067H46.7134V14.3Z" fill="white"/>
<path d="M46.7134 44.8068H44.8068V46.7134H46.7134V44.8068Z" fill="white"/>
<path d="M31.46 8.58002H29.5534V10.4867H31.46V8.58002Z" fill="white"/>
<path d="M31.46 50.5268H29.5534V52.4335H31.46V50.5268Z" fill="white"/>
<path d="M16.2067 14.3H14.3V16.2067H16.2067V14.3Z" fill="white"/>
<path d="M10.4867 29.5534H8.57999V31.4601H10.4867V29.5534Z" fill="white"/>
<path d="M52.4334 29.5534H50.5268V31.4601H52.4334V29.5534Z" fill="white"/>
<path d="M16.2067 44.8068H14.3V46.7134H16.2067V44.8068Z" fill="white"/>
<path d="M30.5068 57.2002C15.7872 57.2002 3.81334 45.2263 3.81334 30.5068C3.81334 15.7873 15.7872 3.81335 30.5068 3.81335C45.2263 3.81335 57.2002 15.7873 57.2002 30.5068C57.2002 45.2263 45.2263 57.2002 30.5068 57.2002ZM30.5068 5.72003C16.8359 5.72003 5.72001 16.8359 5.72001 30.5068C5.72001 44.1776 16.8359 55.2935 30.5068 55.2935C44.1776 55.2935 55.2935 44.1776 55.2935 30.5068C55.2935 16.8359 44.1776 5.72003 30.5068 5.72003Z" fill="white"/>
<path d="M30.5068 61.0135C13.6804 61.0135 0 47.3331 0 30.5068C0 13.6804 13.6804 0 30.5068 0C47.3331 0 61.0135 13.6804 61.0135 30.5068C61.0135 47.3331 47.3331 61.0135 30.5068 61.0135ZM30.5068 1.90667C14.7386 1.90667 1.90667 14.7386 1.90667 30.5068C1.90667 46.2749 14.7386 59.1068 30.5068 59.1068C46.2749 59.1068 59.1068 46.2749 59.1068 30.5068C59.1068 14.7386 46.2749 1.90667 30.5068 1.90667Z" fill="white"/>
</svg>
