<svg xmlns="http://www.w3.org/2000/svg">
    <symbol viewBox="0 0 31 32"  id="logo">
        <path fill-rule="evenodd" clip-rule="evenodd"
              d="M15.5 31.0757C24.0604 31.0757 31 24.1192 31 15.5378C31 6.95653 24.0604 0 15.5 0C6.93959 0 0 6.95653 0 15.5378C0 24.1192 6.93959 31.0757 15.5 31.0757ZM19.1268 6.88525L12.6797 6.88525L23.6399 17.8722L26.8634 14.6407L19.1268 6.88525ZM13.9697 17.2261L17.1931 13.9948L22.3505 19.1648L19.1271 22.3961L13.9697 17.2261ZM6.87689 12.7026L3.65332 15.9341L11.3899 23.6895L17.837 23.6896L6.87689 12.7026Z"
              fill="currentColor"/>
    </symbol>
    <symbol viewBox="0 0 16 16" id="search">
        <path d="M7.25 12.5C10.1495 12.5 12.5 10.1495 12.5 7.25C12.5 4.35051 10.1495 2 7.25 2C4.35051 2 2 4.35051 2 7.25C2 10.1495 4.35051 12.5 7.25 12.5Z"
              stroke="white" stroke-linecap="round" stroke-linejoin="round"/>
        <path d="M10.9619 10.9624L13.9995 13.9999" stroke="white" stroke-linecap="round" stroke-linejoin="round"/>
    </symbol>
    <symbol viewBox="0 0 102 23" id="logo-text">
        <path d="M0.415039 21.9083H13.5419V19.2193H3.47316V12.4524H12.6475V9.76339H3.47316V3.49885H13.3399V0.780273H0.415039V21.9083Z"
              fill="currentColor"/>
        <path d="M19.7999 6.39472H16.9149C16.9437 7.19256 16.9437 7.93131 16.9437 8.72915V21.9083H19.8576V12.9548C19.8576 10.5021 21.1847 8.49275 23.6081 8.49275C26.0027 8.49275 26.9836 10.4135 26.9836 13.4867V21.9083H29.9263V12.3638C29.9263 8.345 28.1087 5.95147 24.6179 5.95147C22.0791 5.95147 20.5788 7.16301 19.7999 8.49275V6.39472Z"
              fill="currentColor"/>
        <path d="M47.8089 14.9346V13.9594C47.8089 9.79294 45.5298 5.95147 40.5964 5.95147C36.0669 5.95147 33.0088 9.37924 33.0088 14.2254C33.0088 19.0715 35.9226 22.2925 40.5964 22.2925C44.2026 22.2925 46.6549 20.2831 47.4916 17.4759H44.5777C43.7987 18.8056 42.789 19.8103 40.7118 19.8103C37.8268 19.8103 36.038 17.6532 35.9515 14.9346H47.8089ZM36.0669 12.5706C36.3842 9.97024 38.1441 8.37455 40.5387 8.37455C43.0486 8.37455 44.52 10.0884 44.7796 12.5706H36.0669Z"
              fill="currentColor"/>
        <path d="M50.8927 6.39472C50.9216 7.34031 50.9216 8.19725 50.9216 9.17239V21.9083H53.8355V13.8708C53.8355 10.7681 54.3548 8.6996 57.0955 8.6996C57.4129 8.6996 57.8456 8.6996 58.1053 8.78825V6.06967C57.9033 6.04012 57.7302 6.01057 57.3552 6.01057C55.6242 6.01057 54.1817 6.92662 53.6912 8.37455V6.39472H50.8927Z"
              fill="currentColor"/>
        <path d="M71.0351 16.944C70.3716 18.7465 68.9579 19.8103 66.9961 19.8103C64.1111 19.8103 62.4666 17.5941 62.4666 14.1367C62.4666 10.8567 64.1399 8.4632 66.9961 8.4632C68.9868 8.4632 70.4293 9.61564 71.0928 11.5068H74.0933C73.4008 8.2268 71.0351 5.98102 67.1115 5.98102C62.4089 5.98102 59.3797 9.46789 59.3797 14.1072C59.3797 18.8056 62.3224 22.2925 67.0827 22.2925C70.9197 22.2925 73.2855 20.0171 74.0644 16.944H71.0351Z"
              fill="currentColor"/>
        <path d="M83.9019 5.98102C79.1704 5.98102 76.2277 9.37924 76.2277 14.1958C76.2277 18.9238 78.9973 22.2925 83.8442 22.2925C88.691 22.2925 91.5472 18.9238 91.5472 14.1958C91.5472 9.37924 88.6045 5.98102 83.9019 5.98102ZM83.8153 8.4632C86.6715 8.4632 88.3448 10.8567 88.3448 14.1663C88.3448 17.6236 86.7003 19.8103 83.8153 19.8103C80.9303 19.8103 79.3147 17.6236 79.3147 14.1663C79.3147 10.8567 80.9592 8.4632 83.8153 8.4632Z"
              fill="currentColor"/>
        <path d="M94.7879 6.39472C94.8167 7.34031 94.8167 8.19725 94.8167 9.17239V21.9083H97.7306V13.8708C97.7306 10.7681 98.2499 8.6996 100.991 8.6996C101.308 8.6996 101.741 8.6996 102 8.78825V6.06967C101.798 6.04012 101.625 6.01057 101.25 6.01057C99.5193 6.01057 98.0768 6.92662 97.5863 8.37455V6.39472H94.7879Z"
              fill="currentColor"/>
    </symbol>
    <symbol viewBox="0 0 22 22" id="arrowRight">
        <path class="arrowRightanimate" d="M3.375 10.8H18.225" stroke="currentColor" stroke-linecap="round" stroke-linejoin="round"/>
        <path class="arrowRightanimate" d="M12.1504 4.7251L18.2254 10.8001L12.1504 16.8751" stroke="currentColor" stroke-linecap="round"
              stroke-linejoin="round"/>
    </symbol>
    <symbol viewBox="0 0 8 193" id="arrowDown">
        <path d="M3.64644 192.354C3.8417 192.549 4.15828 192.549 4.35354 192.354L7.53553 189.172C7.73079 188.976 7.73079 188.66 7.53553 188.464C7.34026 188.269 7.02368 188.269 6.82842 188.464L3.99999 191.293L1.17156 188.464C0.976303 188.269 0.65972 188.269 0.464458 188.464C0.269196 188.66 0.269196 188.976 0.464458 189.172L3.64644 192.354ZM4.49999 192L4.5 2.18557e-08L3.5 -2.18557e-08L3.49999 192L4.49999 192Z" fill="black"/>
    </symbol>
    <symbol viewBox="0 0 23 23" id="instagram">
        <path d="M16.1875 2.125H6.8125C4.22367 2.125 2.125 4.22367 2.125 6.8125V16.1875C2.125 18.7763 4.22367 20.875 6.8125 20.875H16.1875C18.7763 20.875 20.875 18.7763 20.875 16.1875V6.8125C20.875 4.22367 18.7763 2.125 16.1875 2.125Z"
              stroke="black" stroke-opacity="0.5" stroke-linecap="round" stroke-linejoin="round"/>
        <path d="M15.25 10.9094C15.3657 11.6896 15.2324 12.4865 14.8691 13.1866C14.5058 13.8867 13.931 14.4545 13.2265 14.8091C12.5219 15.1637 11.7235 15.2872 10.9448 15.1618C10.166 15.0365 9.44662 14.6689 8.88888 14.1111C8.33114 13.5534 7.96347 12.834 7.83816 12.0552C7.71285 11.2765 7.83628 10.4781 8.1909 9.77351C8.54552 9.06896 9.11327 8.49417 9.81339 8.13089C10.5135 7.76761 11.3104 7.63434 12.0906 7.75004C12.8865 7.86806 13.6233 8.23891 14.1922 8.80783C14.7611 9.37674 15.132 10.1135 15.25 10.9094Z"
              stroke="black" stroke-opacity="0.5" stroke-linecap="round" stroke-linejoin="round"/>
        <path d="M16.6562 6.34375H16.6656" stroke="black" stroke-opacity="0.5" stroke-width="2" stroke-linecap="round"
              stroke-linejoin="round"/>
    </symbol>
    <symbol viewBox="0 0 23 23" id="facebook">
        <path d="M17.125 2.125H14.3125C13.0693 2.125 11.877 2.61886 10.9979 3.49794C10.1189 4.37701 9.625 5.5693 9.625 6.8125V9.625H6.8125V13.375H9.625V20.875H13.375V13.375H16.1875L17.125 9.625H13.375V6.8125C13.375 6.56386 13.4738 6.3254 13.6496 6.14959C13.8254 5.97377 14.0639 5.875 14.3125 5.875H17.125V2.125Z"
              stroke="black" stroke-opacity="0.5" stroke-linecap="round" stroke-linejoin="round"/>
    </symbol>

    <symbol viewBox="0 0 23 23" id="linkedin">
        <g clip-path="url(#clip0_1150_315)">
            <path d="M19.9375 9.625C19.9375 16.1875 11.5 21.8125 11.5 21.8125C11.5 21.8125 3.0625 16.1875 3.0625 9.625C3.0625 7.38724 3.95145 5.24112 5.53379 3.65879C7.11612 2.07645 9.26224 1.1875 11.5 1.1875C13.7378 1.1875 15.8839 2.07645 17.4662 3.65879C19.0486 5.24112 19.9375 7.38724 19.9375 9.625Z"
                  stroke="black" stroke-opacity="0.5" stroke-linecap="round" stroke-linejoin="round"/>
            <path d="M11.5 12.4375C13.0533 12.4375 14.3125 11.1783 14.3125 9.625C14.3125 8.0717 13.0533 6.8125 11.5 6.8125C9.9467 6.8125 8.6875 8.0717 8.6875 9.625C8.6875 11.1783 9.9467 12.4375 11.5 12.4375Z"
                  stroke="black" stroke-opacity="0.5" stroke-linecap="round" stroke-linejoin="round"/>
        </g>
        <defs>
            <clipPath id="clip0_1150_315">
                <rect width="22.5" height="22.5" fill="white" transform="translate(0.25 0.25)"/>
            </clipPath>
        </defs>
    </symbol>

    <symbol  viewBox="0 0 23 23"  id="twitter">
        <path d="M16.1875 2.125H6.8125C4.22367 2.125 2.125 4.22367 2.125 6.8125V16.1875C2.125 18.7763 4.22367 20.875 6.8125 20.875H16.1875C18.7763 20.875 20.875 18.7763 20.875 16.1875V6.8125C20.875 4.22367 18.7763 2.125 16.1875 2.125Z" stroke="black" stroke-opacity="0.5" stroke-linecap="round" stroke-linejoin="round"/>
        <path d="M15.25 10.9094C15.3657 11.6896 15.2324 12.4865 14.8691 13.1866C14.5058 13.8867 13.931 14.4545 13.2265 14.8091C12.5219 15.1637 11.7235 15.2872 10.9448 15.1618C10.166 15.0365 9.44662 14.6689 8.88888 14.1111C8.33114 13.5534 7.96347 12.834 7.83816 12.0552C7.71285 11.2765 7.83628 10.4781 8.1909 9.77351C8.54552 9.06896 9.11327 8.49417 9.81339 8.13089C10.5135 7.76761 11.3104 7.63434 12.0906 7.75004C12.8865 7.86806 13.6233 8.23891 14.1922 8.80783C14.7611 9.37674 15.132 10.1135 15.25 10.9094Z" stroke="black" stroke-opacity="0.5" stroke-linecap="round" stroke-linejoin="round"/>
        <path d="M16.6562 6.34375H16.6656" stroke="black" stroke-opacity="0.5" stroke-width="2" stroke-linecap="round" stroke-linejoin="round"/>
    </symbol>

    <symbol viewBox="0 0 62 62" id="international-1">
        <path d="M33.3381 50.2885C33.1283 50.2885 32.9186 50.2122 32.747 50.0787C32.5373 49.9167 32.4133 49.6688 32.3847 49.4114C32.3085 48.4199 31.4981 47.6668 30.5067 47.6668C29.5152 47.6668 28.7049 48.4199 28.6191 49.4209C28.6 49.6879 28.4665 49.9262 28.2568 50.0883C28.0471 50.2503 27.7801 50.3266 27.5227 50.2885C24.3195 49.8118 21.2402 48.5343 18.6376 46.6181C18.4184 46.4561 18.2754 46.2082 18.2563 45.9317C18.2372 45.6553 18.3326 45.3883 18.5232 45.1881C18.876 44.8163 19.0666 44.3492 19.0666 43.8535C19.0666 42.8048 18.2086 41.9468 17.16 41.9468C16.6642 41.9468 16.1971 42.1375 15.8348 42.4902C15.6346 42.6809 15.3677 42.7762 15.0912 42.7571C14.8148 42.7381 14.5669 42.5951 14.4048 42.3758C12.4791 39.7732 11.2111 36.6939 10.7345 33.4907C10.6963 33.2333 10.7631 32.9664 10.9347 32.7566C11.0967 32.5469 11.3446 32.423 11.602 32.3944C12.5935 32.3086 13.3466 31.4982 13.3466 30.5068C13.3466 29.5153 12.5935 28.705 11.5925 28.6192C11.3255 28.6001 11.0872 28.4666 10.9251 28.2569C10.7631 28.0471 10.6868 27.7802 10.7249 27.5228C11.2016 24.3196 12.4695 21.2403 14.3953 18.6377C14.5574 18.4185 14.8052 18.2755 15.0817 18.2564C15.3582 18.2278 15.6251 18.3327 15.8253 18.5233C16.1971 18.8761 16.6642 19.0667 17.16 19.0667C18.2086 19.0667 19.0666 18.2087 19.0666 17.16C19.0666 16.6643 18.876 16.1972 18.5232 15.8349C18.3326 15.6347 18.2372 15.3678 18.2563 15.0913C18.2754 14.8148 18.4184 14.567 18.6376 14.4049C21.2498 12.4792 24.3195 11.2112 27.5227 10.7346C27.7801 10.6964 28.0471 10.7632 28.2568 10.9348C28.4665 11.0968 28.5905 11.3447 28.6191 11.6021C28.7049 12.5936 29.5152 13.3467 30.5067 13.3467C31.4981 13.3467 32.3085 12.5936 32.3943 11.5926C32.4133 11.3256 32.5468 11.0873 32.7565 10.9252C32.9663 10.7632 33.2332 10.6869 33.4906 10.725C36.6938 11.2017 39.7731 12.4792 42.3757 14.3954C42.595 14.5574 42.738 14.8053 42.757 15.0818C42.7761 15.3582 42.6808 15.6252 42.4901 15.8254C42.1374 16.1972 41.9467 16.6643 41.9467 17.16C41.9467 18.2087 42.8047 19.0667 43.8534 19.0667C44.3491 19.0667 44.8162 18.8761 45.1785 18.5233C45.3787 18.3327 45.6361 18.2278 45.9221 18.2564C46.1986 18.2755 46.4464 18.4185 46.6085 18.6377C48.5343 21.2403 49.8022 24.3196 50.2789 27.5228C50.317 27.7802 50.2503 28.0471 50.0787 28.2569C49.9166 28.4666 49.6687 28.5906 49.4113 28.6192C48.4199 28.705 47.6667 29.5153 47.6667 30.5068C47.6667 31.4982 48.4199 32.3086 49.4209 32.3944C49.6878 32.4134 49.9261 32.5469 50.0882 32.7566C50.2503 32.9664 50.3265 33.2333 50.2884 33.4907C49.8117 36.6939 48.5438 39.7637 46.618 42.3758C46.456 42.5951 46.2081 42.7381 45.9316 42.7571C45.6552 42.7857 45.3882 42.6809 45.188 42.4902C44.8162 42.1375 44.3491 41.9468 43.8534 41.9468C42.8047 41.9468 41.9467 42.8048 41.9467 43.8535C41.9467 44.3492 42.1374 44.8163 42.4901 45.1786C42.6808 45.3788 42.7761 45.6457 42.757 45.9222C42.738 46.1987 42.595 46.4465 42.3757 46.6086C39.7636 48.5343 36.6938 49.8023 33.4906 50.279C33.4334 50.2885 33.3857 50.2885 33.3381 50.2885ZM30.5067 45.7601C32.1178 45.7601 33.5192 46.7897 34.0626 48.2483C36.3411 47.7907 38.5242 46.8946 40.469 45.6076C40.1926 45.0737 40.04 44.4731 40.04 43.8535C40.04 41.7466 41.7465 40.0401 43.8534 40.0401C44.473 40.0401 45.0736 40.1927 45.6075 40.4691C46.885 38.5338 47.7811 36.3507 48.2387 34.0722C46.7801 33.5384 45.76 32.1465 45.76 30.5068C45.76 28.867 46.7801 27.4751 48.2483 26.9413C47.7907 24.6628 46.8945 22.4797 45.617 20.5444C45.0736 20.8209 44.473 20.9734 43.8534 20.9734C41.7465 20.9734 40.04 19.2669 40.04 17.16C40.04 16.5404 40.1926 15.9398 40.469 15.4059C38.5242 14.1284 36.3411 13.2228 34.0626 12.7652C33.5192 14.2238 32.1178 15.2534 30.5067 15.2534C28.8955 15.2534 27.4941 14.2238 26.9507 12.7652C24.6722 13.2228 22.4891 14.1189 20.5443 15.4059C20.8208 15.9398 20.9733 16.5404 20.9733 17.16C20.9733 19.2669 19.2668 20.9734 17.16 20.9734C16.5403 20.9734 15.9397 20.8209 15.4058 20.5444C14.1284 22.4797 13.2322 24.6628 12.7746 26.9413C14.2332 27.4751 15.2533 28.867 15.2533 30.5068C15.2533 32.1465 14.2332 33.5384 12.7651 34.0722C13.2227 36.3507 14.1188 38.5338 15.3963 40.4691C15.9397 40.1927 16.5403 40.0401 17.16 40.0401C19.2668 40.0401 20.9733 41.7466 20.9733 43.8535C20.9733 44.4731 20.8208 45.0737 20.5443 45.6076C22.4891 46.8851 24.6722 47.7907 26.9507 48.2483C27.4941 46.7897 28.8955 45.7601 30.5067 45.7601Z"
              fill="white"/>
        <path d="M30.5067 40.0401C25.2538 40.0401 20.9733 35.7596 20.9733 30.5068C20.9733 25.2539 25.2538 20.9734 30.5067 20.9734C35.7596 20.9734 40.0401 25.2539 40.0401 30.5068C40.0401 35.7596 35.7596 40.0401 30.5067 40.0401ZM30.5067 22.8801C26.3025 22.8801 22.88 26.3025 22.88 30.5068C22.88 34.711 26.3025 38.1334 30.5067 38.1334C34.7109 38.1334 38.1334 34.711 38.1334 30.5068C38.1334 26.3025 34.7109 22.8801 30.5067 22.8801Z"
              fill="white"/>
        <path d="M46.7134 14.3H44.8068V16.2067H46.7134V14.3Z" fill="white"/>
        <path d="M46.7134 44.8068H44.8068V46.7135H46.7134V44.8068Z" fill="white"/>
        <path d="M31.46 8.58002H29.5533V10.4867H31.46V8.58002Z" fill="white"/>
        <path d="M31.46 50.5268H29.5533V52.4335H31.46V50.5268Z" fill="white"/>
        <path d="M16.2067 14.3H14.3V16.2067H16.2067V14.3Z" fill="white"/>
        <path d="M10.4866 29.5534H8.57996V31.4601H10.4866V29.5534Z" fill="white"/>
        <path d="M52.4334 29.5534H50.5267V31.4601H52.4334V29.5534Z" fill="white"/>
        <path d="M16.2067 44.8068H14.3V46.7135H16.2067V44.8068Z" fill="white"/>
        <path d="M30.5068 57.2002C15.7873 57.2002 3.81335 45.2263 3.81335 30.5068C3.81335 15.7872 15.7873 3.81335 30.5068 3.81335C45.2263 3.81335 57.2002 15.7872 57.2002 30.5068C57.2002 45.2263 45.2263 57.2002 30.5068 57.2002ZM30.5068 5.72002C16.8359 5.72002 5.72003 16.8359 5.72003 30.5068C5.72003 44.1776 16.8359 55.2935 30.5068 55.2935C44.1776 55.2935 55.2935 44.1776 55.2935 30.5068C55.2935 16.8359 44.1776 5.72002 30.5068 5.72002Z"
              fill="white"/>
        <path d="M30.5068 61.0135C13.6804 61.0135 0 47.3331 0 30.5068C0 13.6804 13.6804 0 30.5068 0C47.3331 0 61.0135 13.6804 61.0135 30.5068C61.0135 47.3331 47.3331 61.0135 30.5068 61.0135ZM30.5068 1.90667C14.7386 1.90667 1.90667 14.7386 1.90667 30.5068C1.90667 46.2749 14.7386 59.1068 30.5068 59.1068C46.2749 59.1068 59.1068 46.2749 59.1068 30.5068C59.1068 14.7386 46.2749 1.90667 30.5068 1.90667Z"
              fill="white"/>
    </symbol>

    <symbol viewBox="0 0 64 48" id="international-2">
        <path d="M41.0005 40H21.0005V42H41.0005V40Z" fill="white"/>
        <path d="M59.0004 42H57.0004V40H58.7604L62.0004 38.38V33.41L60.5204 31.93L42.8404 28.98C42.6904 28.96 42.5504 28.9 42.4304 28.81L32.6804 22H21.2104L4.00042 29.65V35C4.00042 35.55 3.55042 36 3.00042 36H2.39042L3.72042 40H5.00042V42H3.00042C2.57042 42 2.19042 41.72 2.05042 41.32L0.0504225 35.32C-0.0495775 35.02 0.000422463 34.68 0.190422 34.42C0.380422 34.15 0.680422 34 1.00042 34H2.00042V29C2.00042 28.6 2.23042 28.25 2.59042 28.09L20.5904 20.09C20.7204 20.03 20.8604 20 21.0004 20H33.0004C33.2104 20 33.4104 20.06 33.5704 20.18L43.3804 27.05L61.1604 30.01C61.3704 30.04 61.5604 30.14 61.7004 30.29L63.7004 32.29C63.8904 32.48 64.0004 32.73 64.0004 33V39C64.0004 39.38 63.7904 39.72 63.4504 39.89L59.4504 41.89C59.3104 41.96 59.1604 42 59.0004 42Z"
              fill="white"/>
        <path d="M39.0005 36H25.0005C24.6705 36 24.3505 35.83 24.1705 35.55L20.1705 29.55C20.0605 29.39 20.0005 29.2 20.0005 29V21H22.0005V28.7L25.5405 34H38.4205L42.1305 27.5L43.8705 28.49L39.8705 35.49C39.6905 35.81 39.3605 36 39.0005 36Z"
              fill="white"/>
        <path d="M42.8704 28.99L27.8704 26.99C27.5704 26.95 27.3004 26.77 27.1404 26.51L24.1404 21.51L25.8504 20.48L28.6004 25.07L43.1204 27.01L42.8704 28.99Z"
              fill="white"/>
        <path d="M63.0005 32H45.0005V34H63.0005V32Z" fill="white"/>
        <path d="M7.00049 34H3.00049V36H7.00049V34Z" fill="white"/>
        <path d="M30.0005 30H28.0005V32H30.0005V30Z" fill="white"/>
        <path d="M17.0005 32H15.0005V30H3.00049V28H16.0005C16.5505 28 17.0005 28.45 17.0005 29V32Z" fill="white"/>
        <path d="M13.0005 29H11.0005V32H13.0005V29Z" fill="white"/>
        <path d="M64.0005 46H0.000488281V48H64.0005V46Z" fill="white"/>
        <path d="M49.0005 48C45.6905 48 43.0005 45.31 43.0005 42C43.0005 38.69 45.6905 36 49.0005 36C52.3105 36 55.0005 38.69 55.0005 42C55.0005 45.31 52.3105 48 49.0005 48ZM49.0005 38C46.7905 38 45.0005 39.79 45.0005 42C45.0005 44.21 46.7905 46 49.0005 46C51.2105 46 53.0005 44.21 53.0005 42C53.0005 39.79 51.2105 38 49.0005 38Z"
              fill="white"/>
        <path d="M13.0005 48C9.69049 48 7.00049 45.31 7.00049 42C7.00049 38.69 9.69049 36 13.0005 36C16.3105 36 19.0005 38.69 19.0005 42C19.0005 45.31 16.3105 48 13.0005 48ZM13.0005 38C10.7905 38 9.00049 39.79 9.00049 42C9.00049 44.21 10.7905 46 13.0005 46C15.2105 46 17.0005 44.21 17.0005 42C17.0005 39.79 15.2105 38 13.0005 38Z"
              fill="white"/>
        <path d="M6.00049 28H4.00049V21C4.00049 20.7 4.13049 20.42 4.36049 20.23C4.59049 20.04 4.89049 19.96 5.18049 20.01L16.1805 22.01L15.8205 23.98L6.00049 22.2V28Z"
              fill="white"/>
        <path d="M32.0004 16C33.105 16 34.0004 15.1046 34.0004 14C34.0004 12.8954 33.105 12 32.0004 12C30.8959 12 30.0004 12.8954 30.0004 14C30.0004 15.1046 30.8959 16 32.0004 16Z"
              fill="white"/>
        <path d="M34.8304 11.17C33.3204 9.66001 30.6804 9.65001 29.1704 11.17L27.7604 9.76001C28.8904 8.62001 30.4004 8.00001 32.0004 8.00001C33.6004 8.00001 35.1104 8.62001 36.2504 9.76001L34.8304 11.17Z"
              fill="white"/>
        <path d="M26.3404 8.33999L24.9304 6.92999C26.8204 5.03999 29.3304 3.99999 32.0004 3.99999C34.6704 3.99999 37.1804 5.03999 39.0704 6.92999L37.6604 8.33999C36.1504 6.82999 34.1404 5.99999 32.0004 5.99999C29.8604 5.99999 27.8504 6.82999 26.3404 8.33999Z"
              fill="white"/>
        <path d="M40.4904 5.52C38.2204 3.25 35.2104 2 32.0004 2C28.7904 2 25.7804 3.25 23.5104 5.51L22.1004 4.1C24.7404 1.46 28.2604 0 32.0004 0C35.7404 0 39.2604 1.46 41.9004 4.1L40.4904 5.52Z"
              fill="white"/>
    </symbol>

    <symbol viewBox="0 0 60 60" id="international-3">
        <path d="M51.5625 34.6875H39.375V32.8125H51.5625C54.3 32.8125 57.1312 31.1062 58.125 30.45V29.5594C57.1312 28.8938 54.3 27.1875 51.5625 27.1875H11.25C10.9969 27.1875 10.7625 27.0844 10.5844 26.9156L6.17812 22.5H4.93124L7.31249 32.8125H17.8125V34.6875H6.56249C6.12187 34.6875 5.74687 34.3875 5.65312 33.9656L2.84061 21.7781C2.77499 21.4969 2.84061 21.2062 3.01874 20.9812C3.19686 20.7562 3.46874 20.625 3.74999 20.625H6.56249C6.81561 20.625 7.04999 20.7281 7.22811 20.8969L11.6344 25.3125H51.5625C55.575 25.3125 59.4656 28.1906 59.625 28.3125C59.8594 28.4906 60 28.7625 60 29.0625V30.9375C60 31.2281 59.8594 31.5094 59.625 31.6875C59.4656 31.8094 55.575 34.6875 51.5625 34.6875Z"
              fill="white"/>
        <path d="M40.3125 27.1875H25.3125C25.0594 27.1875 24.825 27.0844 24.6469 26.9156L15.2719 17.5406C15 17.2687 14.925 16.8656 15.0656 16.5188C15.2156 16.1625 15.5625 15.9375 15.9375 15.9375H23.4375C23.5969 15.9375 23.7563 15.975 23.8969 16.0594L40.7719 25.4344C41.1469 25.6406 41.3344 26.0719 41.2219 26.4844C41.1094 26.8969 40.7438 27.1875 40.3125 27.1875ZM25.6969 25.3125H36.6938L23.1938 17.8125H18.1969L25.6969 25.3125Z"
              fill="white"/>
        <path d="M23.4375 40.3125H15.9375C15.5625 40.3125 15.2156 40.0875 15.075 39.7313C14.925 39.3844 15.0094 38.9813 15.2812 38.7094L24.6562 29.3344C24.825 29.1656 25.0594 29.0625 25.3125 29.0625H40.3125C40.7437 29.0625 41.1094 29.3531 41.2219 29.7656C41.325 30.1781 41.1469 30.6094 40.7719 30.8156L23.8969 40.1906C23.7562 40.275 23.5969 40.3125 23.4375 40.3125ZM18.1969 38.4375H23.1937L36.6937 30.9375H25.6969L18.1969 38.4375Z"
              fill="white"/>
        <path d="M48.75 29.0625H46.875V30.9375H48.75V29.0625Z" fill="white"/>
        <path d="M45 29.0625H43.125V30.9375H45V29.0625Z" fill="white"/>
        <path d="M20.625 29.0625H18.75V30.9375H20.625V29.0625Z" fill="white"/>
        <path d="M16.875 29.0625H15V30.9375H16.875V29.0625Z" fill="white"/>
        <path d="M13.125 29.0625H11.25V30.9375H13.125V29.0625Z" fill="white"/>
        <path d="M13.125 38.4375H5.625V40.3125H13.125V38.4375Z" fill="white"/>
        <path d="M3.75 38.4375H0V40.3125H3.75V38.4375Z" fill="white"/>
        <path d="M13.125 15.9375H9.375V17.8125H13.125V15.9375Z" fill="white"/>
        <path d="M7.5 15.9375H0V17.8125H7.5V15.9375Z" fill="white"/>
        <path d="M53.4375 21.5625H51.5625V20.625C51.5625 16.4906 48.1969 13.125 44.0625 13.125H41.25L42.375 11.625C42.8625 10.9688 43.125 10.1906 43.125 9.375C43.125 7.30312 41.4469 5.625 39.375 5.625C38.5594 5.625 37.7812 5.8875 37.125 6.375L36.3937 6.92812L35.8219 6.20625C33.5531 3.32812 30.6469 1.875 27.1875 1.875C21.4969 1.875 16.875 6.49687 16.875 12.1875H15C15 5.46562 20.4656 0 27.1875 0C30.9187 0 34.2094 1.51875 36.7594 4.39687C37.5562 3.975 38.4469 3.75 39.375 3.75C42.4781 3.75 45 6.27187 45 9.375C45 10.0312 44.8875 10.6688 44.6719 11.2688C49.5563 11.5875 53.4375 15.6656 53.4375 20.625V21.5625Z"
              fill="white"/>
        <path d="M30.8812 45.3187L29.1187 44.6812C29.7937 42.8062 32.1469 38.4375 39.375 38.4375C43.1812 38.4375 46.7531 39.9375 49.4156 42.6562L48.075 43.9688C45.7687 41.6156 42.675 40.3125 39.375 40.3125C33.5531 40.3125 31.5562 43.4437 30.8812 45.3187Z"
              fill="white"/>
        <path d="M17.8125 56.25H15.9375C15.9375 51.0844 20.1469 46.875 25.3125 46.875C27.6188 46.875 29.8406 47.7187 31.5656 49.2656L30.3188 50.6625C28.9406 49.425 27.1594 48.75 25.3125 48.75C21.1781 48.75 17.8125 52.1156 17.8125 56.25Z"
              fill="white"/>
        <path d="M52.5 56.25V54.375C55.6031 54.375 58.125 51.8531 58.125 48.75C58.125 45.6469 55.6031 43.125 52.5 43.125C49.3969 43.125 46.875 45.6469 46.875 48.75H45C45 44.6156 48.3656 41.25 52.5 41.25C56.6344 41.25 60 44.6156 60 48.75C60 52.8844 56.6344 56.25 52.5 56.25Z"
              fill="white"/>
        <path d="M52.5 54.375H39.375V56.25H52.5V54.375Z" fill="white"/>
        <path d="M37.5 54.375H33.75V56.25H37.5V54.375Z" fill="white"/>
        <path d="M9.375 58.125H5.625V60H9.375V58.125Z" fill="white"/>
        <path d="M5.625 60C2.52188 60 0 57.4781 0 54.375C0 51.4969 2.175 49.1156 4.96875 48.7875C6.23438 45.8531 9.3 44.0625 13.125 44.0625C17.2781 44.0625 20.625 47.1375 20.625 49.6875H18.75C18.75 48.375 16.4344 45.9375 13.125 45.9375C9.88125 45.9375 7.35 47.4844 6.51562 49.9875L6.3 50.625H5.625C3.55312 50.625 1.875 52.3031 1.875 54.375C1.875 56.4469 3.55312 58.125 5.625 58.125V60Z"
              fill="white"/>
    </symbol>

    <symbol viewBox="0 0 62 62" id="international-4">
        <path d="M33.3381 50.2885C33.1283 50.2885 32.9186 50.2122 32.747 50.0788C32.5373 49.9167 32.4133 49.6688 32.3847 49.4114C32.3085 48.4199 31.4981 47.6668 30.5067 47.6668C29.5152 47.6668 28.7049 48.4199 28.6191 49.4209C28.6 49.6879 28.4665 49.9262 28.2568 50.0883C28.0471 50.2504 27.7801 50.3266 27.5227 50.2885C24.3195 49.8118 21.2402 48.5343 18.6376 46.6181C18.4184 46.4561 18.2754 46.2082 18.2563 45.9317C18.2372 45.6553 18.3326 45.3883 18.5232 45.1881C18.876 44.8163 19.0666 44.3492 19.0666 43.8535C19.0666 42.8048 18.2086 41.9468 17.16 41.9468C16.6642 41.9468 16.1971 42.1375 15.8348 42.4902C15.6346 42.6809 15.3677 42.7762 15.0912 42.7571C14.8148 42.7381 14.5669 42.5951 14.4048 42.3758C12.4791 39.7732 11.2111 36.6939 10.7345 33.4907C10.6963 33.2333 10.7631 32.9664 10.9347 32.7566C11.0967 32.5469 11.3446 32.423 11.602 32.3944C12.5935 32.3086 13.3466 31.4982 13.3466 30.5068C13.3466 29.5153 12.5935 28.705 11.5925 28.6192C11.3255 28.6001 11.0872 28.4666 10.9251 28.2569C10.7631 28.0471 10.6868 27.7802 10.7249 27.5228C11.2016 24.3196 12.4695 21.2403 14.3953 18.6377C14.5574 18.4185 14.8052 18.2755 15.0817 18.2564C15.3582 18.2278 15.6251 18.3327 15.8253 18.5233C16.1971 18.8761 16.6642 19.0667 17.16 19.0667C18.2086 19.0667 19.0666 18.2087 19.0666 17.1601C19.0666 16.6643 18.876 16.1972 18.5232 15.8349C18.3326 15.6347 18.2372 15.3678 18.2563 15.0913C18.2754 14.8148 18.4184 14.567 18.6376 14.4049C21.2498 12.4792 24.3195 11.2112 27.5227 10.7346C27.7801 10.6964 28.0471 10.7632 28.2568 10.9348C28.4665 11.0968 28.5905 11.3447 28.6191 11.6021C28.7049 12.5936 29.5152 13.3467 30.5067 13.3467C31.4981 13.3467 32.3085 12.5936 32.3943 11.5926C32.4133 11.3256 32.5468 11.0873 32.7565 10.9252C32.9663 10.7632 33.2332 10.6869 33.4906 10.725C36.6938 11.2017 39.7731 12.4792 42.3757 14.3954C42.595 14.5574 42.738 14.8053 42.757 15.0818C42.7761 15.3582 42.6808 15.6252 42.4901 15.8254C42.1374 16.1972 41.9467 16.6643 41.9467 17.1601C41.9467 18.2087 42.8047 19.0667 43.8534 19.0667C44.3491 19.0667 44.8162 18.8761 45.1785 18.5233C45.3787 18.3327 45.6361 18.2278 45.9221 18.2564C46.1986 18.2755 46.4464 18.4185 46.6085 18.6377C48.5343 21.2403 49.8022 24.3196 50.2789 27.5228C50.317 27.7802 50.2503 28.0471 50.0787 28.2569C49.9166 28.4666 49.6687 28.5906 49.4113 28.6192C48.4199 28.705 47.6667 29.5153 47.6667 30.5068C47.6667 31.4982 48.4199 32.3086 49.4209 32.3944C49.6878 32.4134 49.9261 32.5469 50.0882 32.7566C50.2503 32.9664 50.3265 33.2333 50.2884 33.4907C49.8117 36.6939 48.5438 39.7637 46.618 42.3758C46.456 42.5951 46.2081 42.7381 45.9316 42.7571C45.6552 42.7857 45.3882 42.6809 45.188 42.4902C44.8162 42.1375 44.3491 41.9468 43.8534 41.9468C42.8047 41.9468 41.9467 42.8048 41.9467 43.8535C41.9467 44.3492 42.1374 44.8163 42.4901 45.1786C42.6808 45.3788 42.7761 45.6457 42.757 45.9222C42.738 46.1987 42.595 46.4465 42.3757 46.6086C39.7636 48.5343 36.6938 49.8023 33.4906 50.279C33.4334 50.2885 33.3857 50.2885 33.3381 50.2885ZM30.5067 45.7601C32.1178 45.7601 33.5192 46.7897 34.0626 48.2483C36.3411 47.7907 38.5242 46.8946 40.469 45.6076C40.1926 45.0737 40.04 44.4731 40.04 43.8535C40.04 41.7466 41.7465 40.0401 43.8534 40.0401C44.473 40.0401 45.0736 40.1927 45.6075 40.4691C46.885 38.5338 47.7811 36.3507 48.2387 34.0722C46.7801 33.5384 45.76 32.1465 45.76 30.5068C45.76 28.867 46.7801 27.4751 48.2483 26.9413C47.7907 24.6628 46.8945 22.4797 45.617 20.5444C45.0736 20.8209 44.473 20.9734 43.8534 20.9734C41.7465 20.9734 40.04 19.2669 40.04 17.1601C40.04 16.5404 40.1926 15.9398 40.469 15.4059C38.5242 14.1284 36.3411 13.2228 34.0626 12.7652C33.5192 14.2238 32.1178 15.2534 30.5067 15.2534C28.8955 15.2534 27.4941 14.2238 26.9507 12.7652C24.6722 13.2228 22.4891 14.1189 20.5443 15.4059C20.8208 15.9398 20.9733 16.5404 20.9733 17.1601C20.9733 19.2669 19.2668 20.9734 17.16 20.9734C16.5403 20.9734 15.9397 20.8209 15.4058 20.5444C14.1284 22.4797 13.2322 24.6628 12.7746 26.9413C14.2332 27.4751 15.2533 28.867 15.2533 30.5068C15.2533 32.1465 14.2332 33.5384 12.7651 34.0722C13.2227 36.3507 14.1188 38.5338 15.3963 40.4691C15.9397 40.1927 16.5403 40.0401 17.16 40.0401C19.2668 40.0401 20.9733 41.7466 20.9733 43.8535C20.9733 44.4731 20.8208 45.0737 20.5443 45.6076C22.4891 46.8851 24.6722 47.7907 26.9507 48.2483C27.4941 46.7897 28.8955 45.7601 30.5067 45.7601Z"
              fill="white"/>
        <path d="M30.5067 40.0401C25.2538 40.0401 20.9733 35.7596 20.9733 30.5068C20.9733 25.2539 25.2538 20.9734 30.5067 20.9734C35.7596 20.9734 40.0401 25.2539 40.0401 30.5068C40.0401 35.7596 35.7596 40.0401 30.5067 40.0401ZM30.5067 22.8801C26.3025 22.8801 22.88 26.3025 22.88 30.5068C22.88 34.711 26.3025 38.1334 30.5067 38.1334C34.7109 38.1334 38.1334 34.711 38.1334 30.5068C38.1334 26.3025 34.7109 22.8801 30.5067 22.8801Z"
              fill="white"/>
        <path d="M46.7134 14.3H44.8068V16.2067H46.7134V14.3Z" fill="white"/>
        <path d="M46.7134 44.8068H44.8068V46.7135H46.7134V44.8068Z" fill="white"/>
        <path d="M31.46 8.58002H29.5533V10.4867H31.46V8.58002Z" fill="white"/>
        <path d="M31.46 50.5268H29.5533V52.4335H31.46V50.5268Z" fill="white"/>
        <path d="M16.2067 14.3H14.3V16.2067H16.2067V14.3Z" fill="white"/>
        <path d="M10.4866 29.5534H8.57996V31.4601H10.4866V29.5534Z" fill="white"/>
        <path d="M52.4334 29.5534H50.5267V31.4601H52.4334V29.5534Z" fill="white"/>
        <path d="M16.2067 44.8068H14.3V46.7135H16.2067V44.8068Z" fill="white"/>
        <path d="M30.5068 57.2002C15.7873 57.2002 3.81335 45.2263 3.81335 30.5068C3.81335 15.7873 15.7873 3.81335 30.5068 3.81335C45.2263 3.81335 57.2002 15.7873 57.2002 30.5068C57.2002 45.2263 45.2263 57.2002 30.5068 57.2002ZM30.5068 5.72003C16.8359 5.72003 5.72003 16.8359 5.72003 30.5068C5.72003 44.1776 16.8359 55.2935 30.5068 55.2935C44.1776 55.2935 55.2935 44.1776 55.2935 30.5068C55.2935 16.8359 44.1776 5.72003 30.5068 5.72003Z"
              fill="white"/>
        <path d="M30.5068 61.0135C13.6804 61.0135 0 47.3331 0 30.5068C0 13.6804 13.6804 0 30.5068 0C47.3331 0 61.0135 13.6804 61.0135 30.5068C61.0135 47.3331 47.3331 61.0135 30.5068 61.0135ZM30.5068 1.90667C14.7386 1.90667 1.90667 14.7386 1.90667 30.5068C1.90667 46.2749 14.7386 59.1068 30.5068 59.1068C46.2749 59.1068 59.1068 46.2749 59.1068 30.5068C59.1068 14.7386 46.2749 1.90667 30.5068 1.90667Z"
              fill="white"/>
    </symbol>

    <symbol viewBox="0 0 67 60" id="international-5">
        <path d="M42.4138 60H3.10345C2.53449 60 2.06897 59.5345 2.06897 58.9655V53.7931C2.06897 52.9862 2.74138 50.7621 4.26207 45.8276C6.68276 37.9552 10.3448 26.0483 10.3448 20.6897V9.31036C10.3448 8.7414 10.8103 8.27588 11.3793 8.27588H34.1379C34.7069 8.27588 35.1724 8.7414 35.1724 9.31036V20.6897C35.1724 26.0483 38.8345 37.9552 41.2552 45.8276C42.7759 50.7621 43.4483 52.9862 43.4483 53.7931V58.9655C43.4483 59.5345 42.9828 60 42.4138 60ZM4.13794 57.931H41.3793V53.7931C41.3586 53.1931 40.3035 49.7586 39.2793 46.4379C36.8172 38.4414 33.1035 26.3586 33.1035 20.6897V10.3448H12.4138V20.6897C12.4138 26.3586 8.7 38.4414 6.23794 46.4379C5.2138 49.7586 4.15862 53.1931 4.13794 53.7931V57.931Z"
              fill="white"/>
        <path d="M53.7931 58.9655H51.7241V54.8276C51.7034 54.1035 50.2655 49.6138 49.0138 45.6414C46.531 37.8517 43.4483 28.1586 43.4483 24.8276V14.4828H37.2414V12.4138H44.4827C45.0517 12.4138 45.5172 12.8793 45.5172 13.4483V24.8276C45.5172 27.8379 48.6724 37.769 50.9793 45.0207C53.0172 51.4345 53.7931 53.9483 53.7931 54.8276V58.9655Z"
              fill="white"/>
        <path d="M64.1379 58.9655H62.069V54.8276C62.0379 53.9793 60.1448 48.6621 58.6138 44.3897C55.7069 36.2069 53.7931 30.7241 53.7931 28.9655V18.6207H47.5862V16.5517H54.8276C55.3966 16.5517 55.8621 17.0172 55.8621 17.5862V28.9655C55.8621 30.4966 58.5828 38.1207 60.569 43.6966C63.0517 50.6586 64.1379 53.8241 64.1379 54.8276V58.9655Z"
              fill="white"/>
        <path d="M66.2069 57.931H0V60H66.2069V57.931Z" fill="white"/>
        <path d="M23.7931 16.5517H21.7241V18.6207H23.7931V16.5517Z" fill="white"/>
        <path d="M27.931 16.5517H25.8621V18.6207H27.931V16.5517Z" fill="white"/>
        <path d="M19.6552 16.5517H17.5862V18.6207H19.6552V16.5517Z" fill="white"/>
        <path d="M44.4827 6.2069C42.2793 6.2069 40.6965 3.94138 40.5207 3.68276C40.2414 3.26897 39.2172 2.06897 38.2759 2.06897C37.3138 2.06897 36.2586 3.34138 36.031 3.68276C35.8552 3.94138 34.2724 6.2069 32.069 6.2069C29.8655 6.2069 28.2827 3.94138 28.1069 3.68276C27.8276 3.26897 26.8034 2.06897 25.8621 2.06897V0C28.0655 0 29.6483 2.26552 29.8241 2.52414C30.1034 2.93793 31.1276 4.13793 32.069 4.13793C33.031 4.13793 34.0862 2.86552 34.3138 2.52414C34.4896 2.26552 36.0724 0 38.2759 0C40.4793 0 42.0621 2.26552 42.2379 2.52414C42.5172 2.93793 43.5414 4.13793 44.4827 4.13793C45.4448 4.13793 46.5 2.86552 46.7276 2.52414C46.9034 2.26552 48.4862 0 50.6896 0V2.06897C49.7276 2.06897 48.6724 3.34138 48.4448 3.68276C48.269 3.94138 46.6862 6.2069 44.4827 6.2069Z"
              fill="white"/>
        <path d="M23.7931 4.13793H21.7241C21.7241 1.85172 23.5759 0 25.8621 0V2.06897C24.7241 2.06897 23.7931 3 23.7931 4.13793Z"
              fill="white"/>
        <path d="M23.7931 4.13794H21.7241V6.20691H23.7931V4.13794Z" fill="white"/>
        <path d="M34.1379 12.4138H11.3793V14.4828H34.1379V12.4138Z" fill="white"/>
        <path d="M44.4827 16.5517H37.2414V18.6207H44.4827V16.5517Z" fill="white"/>
        <path d="M54.8276 20.6896H47.5862V22.7586H54.8276V20.6896Z" fill="white"/>
        <path d="M42.4138 53.7931H3.10344V55.8621H42.4138V53.7931Z" fill="white"/>
        <path d="M52.7586 53.7931H45.5172V55.8621H52.7586V53.7931Z" fill="white"/>
        <path d="M22.7586 39.3104C23.9013 39.3104 24.8276 38.384 24.8276 37.2414C24.8276 36.0987 23.9013 35.1724 22.7586 35.1724C21.616 35.1724 20.6897 36.0987 20.6897 37.2414C20.6897 38.384 21.616 39.3104 22.7586 39.3104Z"
              fill="white"/>
        <path d="M14.4828 37.2413H12.4138C12.4138 34.1068 13.8103 31.1689 16.2517 29.1931L17.5552 30.7965C15.6 32.3896 14.4828 34.7275 14.4828 37.2413Z"
              fill="white"/>
        <path d="M22.7586 47.5862C20.2138 47.5862 17.7621 46.6552 15.8586 44.9483L17.2345 43.4069C18.7552 44.7724 20.7207 45.5172 22.7586 45.5172C24.7966 45.5172 26.7621 44.7724 28.2724 43.4069L29.6483 44.9483C27.7552 46.6552 25.3035 47.5862 22.7586 47.5862Z"
              fill="white"/>
        <path d="M33.1035 37.2413H31.0345C31.0345 34.7275 29.9173 32.3793 27.9517 30.7965L29.2552 29.1931C31.6966 31.1689 33.1035 34.0965 33.1035 37.2413Z"
              fill="white"/>
        <path d="M18.6207 37.2413H16.5517C16.5517 35.2655 17.4517 33.4655 19.0345 32.2758L20.2759 33.931C19.2207 34.7172 18.6207 35.9275 18.6207 37.2413Z"
              fill="white"/>
        <path d="M22.7586 43.4482C21.4034 43.4482 20.1103 43.0138 19.0345 42.2069L20.2758 40.5517C21.7138 41.6276 23.8034 41.6379 25.2414 40.5517L26.4827 42.2069C25.4069 43.0138 24.1138 43.4482 22.7586 43.4482Z"
              fill="white"/>
        <path d="M28.9655 37.2413H26.8965C26.8965 35.9275 26.2965 34.7172 25.2414 33.931L26.4827 32.2758C28.0552 33.4551 28.9655 35.2655 28.9655 37.2413Z"
              fill="white"/>
    </symbol>

    <symbol viewBox="0 0 60 60" id="international-6">
        <path d="M20.625 43.125C18.5531 43.125 16.875 41.4469 16.875 39.375C16.875 37.3031 18.5531 35.625 20.625 35.625C22.6969 35.625 24.375 37.3031 24.375 39.375C24.375 41.4469 22.6969 43.125 20.625 43.125ZM20.625 37.5C19.5938 37.5 18.75 38.3438 18.75 39.375C18.75 40.4062 19.5938 41.25 20.625 41.25C21.6562 41.25 22.5 40.4062 22.5 39.375C22.5 38.3438 21.6562 37.5 20.625 37.5Z"
              fill="white"/>
        <path d="M15.9375 33.75C13.8656 33.75 12.1875 32.0719 12.1875 30C12.1875 27.9281 13.8656 26.25 15.9375 26.25C18.0094 26.25 19.6875 27.9281 19.6875 30C19.6875 32.0719 18.0094 33.75 15.9375 33.75ZM15.9375 28.125C14.9062 28.125 14.0625 28.9688 14.0625 30C14.0625 31.0312 14.9062 31.875 15.9375 31.875C16.9688 31.875 17.8125 31.0312 17.8125 30C17.8125 28.9688 16.9688 28.125 15.9375 28.125Z"
              fill="white"/>
        <path d="M25.3125 33.75C23.2406 33.75 21.5625 32.0719 21.5625 30C21.5625 27.9281 23.2406 26.25 25.3125 26.25C27.3844 26.25 29.0625 27.9281 29.0625 30C29.0625 32.0719 27.3844 33.75 25.3125 33.75ZM25.3125 28.125C24.2812 28.125 23.4375 28.9688 23.4375 30C23.4375 31.0312 24.2812 31.875 25.3125 31.875C26.3438 31.875 27.1875 31.0312 27.1875 30C27.1875 28.9688 26.3438 28.125 25.3125 28.125Z"
              fill="white"/>
        <path d="M34.6875 33.75C32.6156 33.75 30.9375 32.0719 30.9375 30C30.9375 27.9281 32.6156 26.25 34.6875 26.25C36.7594 26.25 38.4375 27.9281 38.4375 30C38.4375 32.0719 36.7594 33.75 34.6875 33.75ZM34.6875 28.125C33.6562 28.125 32.8125 28.9688 32.8125 30C32.8125 31.0312 33.6562 31.875 34.6875 31.875C35.7188 31.875 36.5625 31.0312 36.5625 30C36.5625 28.9688 35.7188 28.125 34.6875 28.125Z"
              fill="white"/>
        <path d="M30 43.125C27.9281 43.125 26.25 41.4469 26.25 39.375C26.25 37.3031 27.9281 35.625 30 35.625C32.0719 35.625 33.75 37.3031 33.75 39.375C33.75 41.4469 32.0719 43.125 30 43.125ZM30 37.5C28.9688 37.5 28.125 38.3438 28.125 39.375C28.125 40.4062 28.9688 41.25 30 41.25C31.0312 41.25 31.875 40.4062 31.875 39.375C31.875 38.3438 31.0312 37.5 30 37.5Z"
              fill="white"/>
        <path d="M39.375 43.125C37.3031 43.125 35.625 41.4469 35.625 39.375C35.625 37.3031 37.3031 35.625 39.375 35.625C41.4469 35.625 43.125 37.3031 43.125 39.375C43.125 41.4469 41.4469 43.125 39.375 43.125ZM39.375 37.5C38.3438 37.5 37.5 38.3438 37.5 39.375C37.5 40.4062 38.3438 41.25 39.375 41.25C40.4062 41.25 41.25 40.4062 41.25 39.375C41.25 38.3438 40.4062 37.5 39.375 37.5Z"
              fill="white"/>
        <path d="M20.625 24.375C18.5531 24.375 16.875 22.6969 16.875 20.625C16.875 18.5531 18.5531 16.875 20.625 16.875C22.6969 16.875 24.375 18.5531 24.375 20.625C24.375 22.6969 22.6969 24.375 20.625 24.375ZM20.625 18.75C19.5938 18.75 18.75 19.5938 18.75 20.625C18.75 21.6562 19.5938 22.5 20.625 22.5C21.6562 22.5 22.5 21.6562 22.5 20.625C22.5 19.5938 21.6562 18.75 20.625 18.75Z"
              fill="white"/>
        <path d="M30 24.375C27.9281 24.375 26.25 22.6969 26.25 20.625C26.25 18.5531 27.9281 16.875 30 16.875C32.0719 16.875 33.75 18.5531 33.75 20.625C33.75 22.6969 32.0719 24.375 30 24.375ZM30 18.75C28.9688 18.75 28.125 19.5938 28.125 20.625C28.125 21.6562 28.9688 22.5 30 22.5C31.0312 22.5 31.875 21.6562 31.875 20.625C31.875 19.5938 31.0312 18.75 30 18.75Z"
              fill="white"/>
        <path d="M39.375 24.375C37.3031 24.375 35.625 22.6969 35.625 20.625C35.625 18.5531 37.3031 16.875 39.375 16.875C41.4469 16.875 43.125 18.5531 43.125 20.625C43.125 22.6969 41.4469 24.375 39.375 24.375ZM39.375 18.75C38.3438 18.75 37.5 19.5938 37.5 20.625C37.5 21.6562 38.3438 22.5 39.375 22.5C40.4062 22.5 41.25 21.6562 41.25 20.625C41.25 19.5938 40.4062 18.75 39.375 18.75Z"
              fill="white"/>
        <path d="M44.0625 33.75C41.9906 33.75 40.3125 32.0719 40.3125 30C40.3125 27.9281 41.9906 26.25 44.0625 26.25C46.1344 26.25 47.8125 27.9281 47.8125 30C47.8125 32.0719 46.1344 33.75 44.0625 33.75ZM44.0625 28.125C43.0312 28.125 42.1875 28.9688 42.1875 30C42.1875 31.0312 43.0312 31.875 44.0625 31.875C45.0938 31.875 45.9375 31.0312 45.9375 30C45.9375 28.9688 45.0938 28.125 44.0625 28.125Z"
              fill="white"/>
        <path d="M21.5625 42.1875H19.6875V60H21.5625V42.1875Z" fill="white"/>
        <path d="M40.3125 42.1875H38.4375V60H40.3125V42.1875Z" fill="white"/>
        <path d="M30.9375 42.1875H29.0625V60H30.9375V42.1875Z" fill="white"/>
        <path d="M40.3125 0H38.4375V17.8125H40.3125V0Z" fill="white"/>
        <path d="M21.5625 0H19.6875V17.8125H21.5625V0Z" fill="white"/>
        <path d="M30.9375 0H29.0625V17.8125H30.9375V0Z" fill="white"/>
        <path d="M13.125 29.0625H0V30.9375H13.125V29.0625Z" fill="white"/>
        <path d="M17.8125 19.6875H0V21.5625H17.8125V19.6875Z" fill="white"/>
        <path d="M17.8125 38.4375H0V40.3125H17.8125V38.4375Z" fill="white"/>
        <path d="M60 19.6875H42.1875V21.5625H60V19.6875Z" fill="white"/>
        <path d="M60 29.0625H46.875V30.9375H60V29.0625Z" fill="white"/>
        <path d="M60 38.4375H42.1875V40.3125H60V38.4375Z" fill="white"/>
        <path d="M1.875 24.375H0V26.25H1.875V24.375Z" fill="white"/>
        <path d="M5.625 24.375H3.75V26.25H5.625V24.375Z" fill="white"/>
        <path d="M9.375 24.375H7.5V26.25H9.375V24.375Z" fill="white"/>
        <path d="M1.875 33.75H0V35.625H1.875V33.75Z" fill="white"/>
        <path d="M5.625 33.75H3.75V35.625H5.625V33.75Z" fill="white"/>
        <path d="M9.375 33.75H7.5V35.625H9.375V33.75Z" fill="white"/>
        <path d="M52.5 24.375H50.625V26.25H52.5V24.375Z" fill="white"/>
        <path d="M56.25 24.375H54.375V26.25H56.25V24.375Z" fill="white"/>
        <path d="M60 24.375H58.125V26.25H60V24.375Z" fill="white"/>
        <path d="M52.5 33.75H50.625V35.625H52.5V33.75Z" fill="white"/>
        <path d="M56.25 33.75H54.375V35.625H56.25V33.75Z" fill="white"/>
        <path d="M60 33.75H58.125V35.625H60V33.75Z" fill="white"/>
        <path d="M26.25 58.125H24.375V60H26.25V58.125Z" fill="white"/>
        <path d="M26.25 54.375H24.375V56.25H26.25V54.375Z" fill="white"/>
        <path d="M26.25 50.625H24.375V52.5H26.25V50.625Z" fill="white"/>
        <path d="M26.25 46.875H24.375V48.75H26.25V46.875Z" fill="white"/>
        <path d="M35.625 58.125H33.75V60H35.625V58.125Z" fill="white"/>
        <path d="M35.625 54.375H33.75V56.25H35.625V54.375Z" fill="white"/>
        <path d="M35.625 50.625H33.75V52.5H35.625V50.625Z" fill="white"/>
        <path d="M35.625 46.875H33.75V48.75H35.625V46.875Z" fill="white"/>
        <path d="M26.25 11.25H24.375V13.125H26.25V11.25Z" fill="white"/>
        <path d="M26.25 7.5H24.375V9.375H26.25V7.5Z" fill="white"/>
        <path d="M26.25 3.75H24.375V5.625H26.25V3.75Z" fill="white"/>
        <path d="M26.25 0H24.375V1.875H26.25V0Z" fill="white"/>
        <path d="M35.625 11.25H33.75V13.125H35.625V11.25Z" fill="white"/>
        <path d="M35.625 7.5H33.75V9.375H35.625V7.5Z" fill="white"/>
        <path d="M35.625 3.75H33.75V5.625H35.625V3.75Z" fill="white"/>
        <path d="M35.625 0H33.75V1.875H35.625V0Z" fill="white"/>
        <path d="M15.9375 60H14.0625V46.875C14.0625 46.3594 13.6406 45.9375 13.125 45.9375H0V44.0625H13.125C14.6719 44.0625 15.9375 45.3281 15.9375 46.875V60Z"
              fill="white"/>
        <path d="M13.125 15.9375H0V14.0625H13.125C13.6406 14.0625 14.0625 13.6406 14.0625 13.125V0H15.9375V13.125C15.9375 14.6719 14.6719 15.9375 13.125 15.9375Z"
              fill="white"/>
        <path d="M45.9375 60H44.0625V46.875C44.0625 45.3281 45.3281 44.0625 46.875 44.0625H60V45.9375H46.875C46.3594 45.9375 45.9375 46.3594 45.9375 46.875V60Z"
              fill="white"/>
        <path d="M60 15.9375H46.875C45.3281 15.9375 44.0625 14.6719 44.0625 13.125V0H45.9375V13.125C45.9375 13.6406 46.3594 14.0625 46.875 14.0625H60V15.9375Z"
              fill="white"/>
    </symbol>
    <symbol viewBox="0 0 62 62" id="popup-logo">
        <path d="M33.3381 50.2885C33.1284 50.2885 32.9186 50.2122 32.747 50.0787C32.5373 49.9167 32.4134 49.6688 32.3848 49.4114C32.3085 48.4199 31.4982 47.6668 30.5067 47.6668C29.5152 47.6668 28.7049 48.4199 28.6191 49.4209C28.6 49.6879 28.4666 49.9262 28.2568 50.0883C28.0471 50.2503 27.7802 50.3266 27.5228 50.2885C24.3195 49.8118 21.2403 48.5343 18.6377 46.6181C18.4184 46.456 18.2754 46.2082 18.2563 45.9317C18.2373 45.6552 18.3326 45.3883 18.5233 45.1881C18.876 44.8163 19.0667 44.3492 19.0667 43.8534C19.0667 42.8048 18.2087 41.9468 17.16 41.9468C16.6643 41.9468 16.1971 42.1374 15.8349 42.4902C15.6347 42.6808 15.3677 42.7762 15.0913 42.7571C14.8148 42.738 14.5669 42.595 14.4048 42.3758C12.4791 39.7732 11.2112 36.6939 10.7345 33.4907C10.6964 33.2333 10.7631 32.9663 10.9347 32.7566C11.0968 32.5469 11.3446 32.4229 11.602 32.3943C12.5935 32.3085 13.3466 31.4982 13.3466 30.5067C13.3466 29.5153 12.5935 28.7049 11.5925 28.6191C11.3256 28.6001 11.0872 28.4666 10.9252 28.2569C10.7631 28.0471 10.6868 27.7802 10.725 27.5228C11.2016 24.3196 12.4696 21.2403 14.3953 18.6377C14.5574 18.4184 14.8053 18.2754 15.0817 18.2564C15.3582 18.2278 15.6251 18.3326 15.8253 18.5233C16.1971 18.876 16.6643 19.0667 17.16 19.0667C18.2087 19.0667 19.0667 18.2087 19.0667 17.16C19.0667 16.6643 18.876 16.1972 18.5233 15.8349C18.3326 15.6347 18.2373 15.3677 18.2563 15.0913C18.2754 14.8148 18.4184 14.5669 18.6377 14.4049C21.2498 12.4791 24.3195 11.2112 27.5228 10.7345C27.7802 10.6964 28.0471 10.7631 28.2568 10.9347C28.4666 11.0968 28.5905 11.3447 28.6191 11.6021C28.7049 12.5935 29.5152 13.3467 30.5067 13.3467C31.4982 13.3467 32.3085 12.5935 32.3943 11.5925C32.4134 11.3256 32.5468 11.0873 32.7566 10.9252C32.9663 10.7631 33.2332 10.6869 33.4906 10.725C36.6938 11.2017 39.7731 12.4791 42.3757 14.3953C42.595 14.5574 42.738 14.8053 42.7571 15.0817C42.7761 15.3582 42.6808 15.6252 42.4901 15.8254C42.1374 16.1972 41.9467 16.6643 41.9467 17.16C41.9467 18.2087 42.8047 19.0667 43.8534 19.0667C44.3491 19.0667 44.8163 18.876 45.1785 18.5233C45.3787 18.3326 45.6361 18.2278 45.9221 18.2564C46.1986 18.2754 46.4465 18.4184 46.6085 18.6377C48.5343 21.2403 49.8022 24.3196 50.2789 27.5228C50.317 27.7802 50.2503 28.0471 50.0787 28.2569C49.9166 28.4666 49.6688 28.5905 49.4114 28.6191C48.4199 28.7049 47.6667 29.5153 47.6667 30.5067C47.6667 31.4982 48.4199 32.3085 49.4209 32.3943C49.6878 32.4134 49.9262 32.5469 50.0882 32.7566C50.2503 32.9663 50.3266 33.2333 50.2884 33.4907C49.8118 36.6939 48.5438 39.7636 46.6181 42.3758C46.456 42.595 46.2081 42.738 45.9317 42.7571C45.6552 42.7857 45.3883 42.6808 45.1881 42.4902C44.8163 42.1374 44.3491 41.9468 43.8534 41.9468C42.8047 41.9468 41.9467 42.8048 41.9467 43.8534C41.9467 44.3492 42.1374 44.8163 42.4901 45.1786C42.6808 45.3788 42.7761 45.6457 42.7571 45.9222C42.738 46.1986 42.595 46.4465 42.3757 46.6086C39.7636 48.5343 36.6938 49.8023 33.4906 50.2789C33.4334 50.2885 33.3858 50.2885 33.3381 50.2885ZM30.5067 45.7601C32.1178 45.7601 33.5192 46.7897 34.0626 48.2483C36.3411 47.7907 38.5243 46.8946 40.4691 45.6076C40.1926 45.0737 40.0401 44.4731 40.0401 43.8534C40.0401 41.7466 41.7465 40.0401 43.8534 40.0401C44.4731 40.0401 45.0737 40.1926 45.6075 40.4691C46.885 38.5338 47.7811 36.3507 48.2388 34.0722C46.7801 33.5383 45.7601 32.1465 45.7601 30.5067C45.7601 28.867 46.7801 27.4751 48.2483 26.9412C47.7907 24.6628 46.8945 22.4796 45.6171 20.5444C45.0737 20.8208 44.4731 20.9734 43.8534 20.9734C41.7465 20.9734 40.0401 19.2669 40.0401 17.16C40.0401 16.5404 40.1926 15.9398 40.4691 15.4059C38.5243 14.1284 36.3411 13.2227 34.0626 12.7651C33.5192 14.2237 32.1178 15.2533 30.5067 15.2533C28.8956 15.2533 27.4942 14.2237 26.9508 12.7651C24.6723 13.2227 22.4891 14.1189 20.5443 15.4059C20.8208 15.9398 20.9733 16.5404 20.9733 17.16C20.9733 19.2669 19.2669 20.9734 17.16 20.9734C16.5403 20.9734 15.9397 20.8208 15.4059 20.5444C14.1284 22.4796 13.2322 24.6628 12.7746 26.9412C14.2332 27.4751 15.2533 28.867 15.2533 30.5067C15.2533 32.1465 14.2332 33.5383 12.7651 34.0722C13.2227 36.3507 14.1188 38.5338 15.3963 40.4691C15.9397 40.1926 16.5403 40.0401 17.16 40.0401C19.2669 40.0401 20.9733 41.7466 20.9733 43.8534C20.9733 44.4731 20.8208 45.0737 20.5443 45.6076C22.4891 46.885 24.6723 47.7907 26.9508 48.2483C27.4942 46.7897 28.8956 45.7601 30.5067 45.7601Z" fill="white"/>
        <path d="M30.5067 40.0401C25.2538 40.0401 20.9734 35.7596 20.9734 30.5068C20.9734 25.2539 25.2538 20.9734 30.5067 20.9734C35.7596 20.9734 40.0401 25.2539 40.0401 30.5068C40.0401 35.7596 35.7596 40.0401 30.5067 40.0401ZM30.5067 22.8801C26.3025 22.8801 22.88 26.3025 22.88 30.5068C22.88 34.711 26.3025 38.1334 30.5067 38.1334C34.7109 38.1334 38.1334 34.711 38.1334 30.5068C38.1334 26.3025 34.7109 22.8801 30.5067 22.8801Z" fill="white"/>
        <path d="M46.7134 14.3H44.8068V16.2067H46.7134V14.3Z" fill="white"/>
        <path d="M46.7134 44.8068H44.8068V46.7134H46.7134V44.8068Z" fill="white"/>
        <path d="M31.46 8.58002H29.5534V10.4867H31.46V8.58002Z" fill="white"/>
        <path d="M31.46 50.5268H29.5534V52.4335H31.46V50.5268Z" fill="white"/>
        <path d="M16.2067 14.3H14.3V16.2067H16.2067V14.3Z" fill="white"/>
        <path d="M10.4867 29.5534H8.57999V31.4601H10.4867V29.5534Z" fill="white"/>
        <path d="M52.4334 29.5534H50.5268V31.4601H52.4334V29.5534Z" fill="white"/>
        <path d="M16.2067 44.8068H14.3V46.7134H16.2067V44.8068Z" fill="white"/>
        <path d="M30.5068 57.2002C15.7872 57.2002 3.81334 45.2263 3.81334 30.5068C3.81334 15.7873 15.7872 3.81335 30.5068 3.81335C45.2263 3.81335 57.2002 15.7873 57.2002 30.5068C57.2002 45.2263 45.2263 57.2002 30.5068 57.2002ZM30.5068 5.72003C16.8359 5.72003 5.72001 16.8359 5.72001 30.5068C5.72001 44.1776 16.8359 55.2935 30.5068 55.2935C44.1776 55.2935 55.2935 44.1776 55.2935 30.5068C55.2935 16.8359 44.1776 5.72003 30.5068 5.72003Z" fill="white"/>
        <path d="M30.5068 61.0135C13.6804 61.0135 0 47.3331 0 30.5068C0 13.6804 13.6804 0 30.5068 0C47.3331 0 61.0135 13.6804 61.0135 30.5068C61.0135 47.3331 47.3331 61.0135 30.5068 61.0135ZM30.5068 1.90667C14.7386 1.90667 1.90667 14.7386 1.90667 30.5068C1.90667 46.2749 14.7386 59.1068 30.5068 59.1068C46.2749 59.1068 59.1068 46.2749 59.1068 30.5068C59.1068 14.7386 46.2749 1.90667 30.5068 1.90667Z" fill="white"/>

    </symbol>
    <symbol viewBox="0 0 48 46" id="addFile">
        <rect width="47.4009" height="45.3777" rx="22.6889" fill="white"/>
        <rect x="0.5" y="0.5" width="46.4009" height="44.3777" rx="22.1889" stroke="black" stroke-opacity="0.5"/>
        <path d="M16.3687 22.6885H31.0333" stroke="#1C1C1C" stroke-linecap="round" stroke-linejoin="round"/>
        <path d="M13.0356 12.4785V11.4785H12.0356V12.4785H13.0356ZM34.366 12.4785H35.366V11.4785H34.366V12.4785ZM34.366 32.8985V33.8985H35.366V32.8985H34.366ZM13.0356 32.8985H12.0356V33.8985H13.0356V32.8985ZM13.0356 13.4785H34.366V11.4785H13.0356V13.4785ZM33.366 12.4785V32.8985H35.366V12.4785H33.366ZM34.366 31.8985H13.0356V33.8985H34.366V31.8985ZM14.0356 32.8985V12.4785H12.0356V32.8985H14.0356Z" fill="white"/>
        <path d="M23.7007 15.3562L23.7007 30.0208" stroke="#1C1C1C" stroke-linecap="round" stroke-linejoin="round"/>
        <path d="M33.9106 12.0234L34.9106 12.0234L34.9106 11.0234L33.9106 11.0234L33.9106 12.0234ZM33.9106 33.3538L33.9106 34.3538L34.9106 34.3538L34.9106 33.3538L33.9106 33.3538ZM13.4907 33.3538L12.4907 33.3538L12.4907 34.3538L13.4907 34.3538L13.4907 33.3538ZM13.4907 12.0234L13.4907 11.0234L12.4907 11.0234L12.4907 12.0234L13.4907 12.0234ZM32.9106 12.0234L32.9106 33.3538L34.9106 33.3538L34.9106 12.0234L32.9106 12.0234ZM33.9106 32.3538L13.4907 32.3538L13.4907 34.3538L33.9106 34.3538L33.9106 32.3538ZM14.4907 33.3538L14.4907 12.0234L12.4907 12.0234L12.4907 33.3538L14.4907 33.3538ZM13.4907 13.0234L33.9106 13.0234L33.9106 11.0234L13.4907 11.0234L13.4907 13.0234Z" fill="white"/>
    </symbol>
    <symbol viewBox="0 0 48 46" id="arrowSend">
        <rect width="47.4009" height="45.3777" rx="22.6889" fill="white"/>
        <rect x="0.5" y="0.5" width="46.4009" height="44.3777" rx="22.1889" stroke="black" stroke-opacity="0.5"/>
        <path d="M16.3687 22.6885H31.0333" stroke="#1C1C1C" stroke-linecap="round" stroke-linejoin="round"/>
        <path d="M25.0342 16.9453L31.0334 22.6884L25.0342 28.4316" stroke="#1C1C1C" stroke-linecap="round" stroke-linejoin="round"/>
        <path d="M13.0356 12.4785V11.4785H12.0356V12.4785H13.0356ZM34.366 12.4785H35.366V11.4785H34.366V12.4785ZM34.366 32.8985V33.8985H35.366V32.8985H34.366ZM13.0356 32.8985H12.0356V33.8985H13.0356V32.8985ZM13.0356 13.4785H34.366V11.4785H13.0356V13.4785ZM33.366 12.4785V32.8985H35.366V12.4785H33.366ZM34.366 31.8985H13.0356V33.8985H34.366V31.8985ZM14.0356 32.8985V12.4785H12.0356V32.8985H14.0356Z" fill="white"/>
    </symbol>
</svg>