<svg width="50" height="50" viewBox="0 0 26 25" fill="none" xmlns="http://www.w3.org/2000/svg">
<path d="M24.1379 12.1684C24.1394 6.4237 19.2443 1.76305 13.2131 1.76305C7.22153 1.76376 2.289 6.46142 2.28975 12.1677C2.28975 17.8746 7.2238 22.5694 13.2139 22.5709C19.2092 22.573 24.1357 17.876 24.1379 12.1684ZM0.438477 12.1677C0.438477 5.49057 6.20138 0 13.2131 0C20.2584 0 25.9877 5.45427 25.9892 12.1648C25.9907 18.8405 20.2233 24.3318 13.2153 24.3339C6.20364 24.336 0.438477 18.8448 0.438477 12.1677Z" fill="#0F5576"/>
<path fill-rule="evenodd" clip-rule="evenodd" d="M12.839 3.2273C13.1747 6.20889 15.6947 4.51489 16.7821 3.68212C17.1792 3.38247 17.6663 2.83085 17.9308 2.67568C18.1037 2.57888 18.3573 2.64723 18.4594 2.85007C18.5609 3.14972 18.6023 3.52767 18.4094 4.07929C18.1751 4.72771 17.7794 5.35691 17.5559 5.69571C16.9765 6.58613 16.4072 7.36979 15.7264 8.1926C14.6188 9.50937 13.216 10.5542 12.0576 11.8418C10.2789 13.8163 9.27286 16.8655 9.82143 19.4399C9.96424 20.0976 10.2894 20.9304 10.95 21.2784C14.8729 23.3504 17.7487 14.4647 16.4177 11.8418C16.2348 11.503 15.869 10.893 15.3811 10.9806C12.9215 11.4162 11.7832 19.0236 13.3175 19.5752C13.243 20.4756 11.7429 21.0272 11.3057 19.3624C11.1629 18.7816 11.1329 18.1716 11.1535 17.5716C11.2281 15.0355 13.359 11.2027 15.7976 10.0318C16.9059 9.48943 18.4709 9.4994 19.0904 10.7094C21.2757 15.0163 15.3708 22.9725 10.2589 22.2464C7.78959 21.8884 6.89501 19.6335 7.08781 17.494C7.24001 15.7331 8.01309 14.0583 9.08034 12.6255C11.2349 9.7414 14.6287 8.89938 16.2752 6.63454C16.2752 6.63454 16.3378 6.5477 16.3497 6.4993C16.3748 6.42812 16.287 6.34413 16.1762 6.42812C15.9939 6.58329 15.0485 7.04807 14.3878 7.12494C13.0567 7.27014 12.3348 5.5377 12.1113 4.57966C12.0612 4.36684 12.0486 4.20242 11.8369 4.47289C11.1867 5.27648 10.6883 9.76773 10.0276 10.019L7.44621 10.997C7.44621 10.997 7.33477 11.0468 7.29406 10.9002C6.99967 9.85457 9.66242 6.22527 10.4045 5.0053C10.5054 4.85084 11.1152 3.71842 11.2273 3.63087C11.4202 3.47642 12.5996 3.18602 12.8432 3.22445L12.839 3.2273Z" fill="#0F5576"/>
</svg>
