<svg width="101" height="78" viewBox="0 0 101 78" fill="none" xmlns="http://www.w3.org/2000/svg">
<path fill-rule="evenodd" clip-rule="evenodd" d="M56.9121 1.0049C56.6324 1.57787 56.1844 2.43711 55.9168 2.91429C55.4447 3.75621 55.4368 3.7865 55.6528 3.93517C55.7752 4.01945 57.072 5.00354 58.5348 6.12211C59.9974 7.24056 61.2545 8.17849 61.3283 8.20621C61.4084 8.2365 61.8622 7.49508 62.4552 6.36467L63.4481 4.4726L60.5492 2.25536C58.9548 1.03597 57.5987 0.0213613 57.5355 0.000682349C57.4725 -0.0199966 57.1919 0.431922 56.9121 1.0049ZM67.4394 2.74585C67.2273 3.34498 66.856 4.28369 66.6145 4.83196C66.3729 5.38035 66.188 5.83651 66.2036 5.84579C66.219 5.85518 67.5248 6.85269 69.105 8.06258C70.6853 9.27247 72.0249 10.2624 72.0818 10.2624C72.2235 10.2624 73.8822 6.26977 73.7763 6.18336C73.564 6.00999 67.8588 1.65556 67.8446 1.65601C67.8339 1.65634 67.6516 2.14671 67.4394 2.74585ZM54.6767 4.97649C54.4597 5.32882 53.9363 6.09349 53.5138 6.67574C53.0913 7.25788 52.7456 7.76793 52.7456 7.80918C52.7456 7.86831 57.6169 11.6593 58.4455 12.2451C58.6189 12.3676 58.7478 12.2327 59.5673 11.0714C60.0766 10.3498 60.6186 9.55169 60.7717 9.29784L61.05 8.83631L58.1523 6.61606C56.5585 5.39488 55.2133 4.38217 55.163 4.36573C55.1126 4.34919 54.8937 4.62405 54.6767 4.97649ZM65.6268 7.04875C65.49 7.37145 65.0464 8.23606 64.641 8.9701C64.2355 9.70404 63.9154 10.3111 63.9297 10.3193C63.9439 10.3273 65.2534 11.3275 66.8394 12.5419C68.4255 13.7562 69.7874 14.7256 69.8657 14.6961C69.9826 14.652 71.8653 11.186 71.8653 11.015C71.8653 10.9573 65.9977 6.46191 65.9225 6.46191C65.8965 6.46191 65.7635 6.72604 65.6268 7.04875ZM52.1766 8.43636C52.1766 8.49035 51.5367 9.19523 50.7547 10.0028L49.3329 11.471L52.1488 13.6221C53.6976 14.8052 55.0362 15.828 55.1235 15.8951C55.2491 15.9918 55.5865 15.7064 56.7453 14.5234C57.55 13.7017 58.2084 12.9882 58.2084 12.9377C58.2084 12.8391 52.5755 8.48856 52.3261 8.39456C52.2438 8.3636 52.1766 8.38238 52.1766 8.43636ZM63.3745 11.1251C62.8218 12.0168 62.0999 13.0733 61.6428 13.6594L61.1293 14.3179L61.4044 14.5191C61.5557 14.6298 62.883 15.6477 64.354 16.7814C66.3651 18.3313 67.0651 18.8137 67.1759 18.7262C67.2571 18.6622 67.8178 17.8873 68.4219 17.0043C69.5059 15.4196 69.5174 15.3959 69.2987 15.189C69.0689 14.9717 63.9473 11.0415 63.7046 10.8963C63.62 10.8456 63.4934 10.9335 63.3745 11.1251ZM47.9657 12.5821C47.4962 12.9812 46.7113 13.585 46.2214 13.9241C45.4881 14.4316 45.3573 14.5661 45.4816 14.6843C45.7543 14.9438 51.205 19.0929 51.2732 19.0929C51.5248 19.0929 54.6803 16.6042 54.6803 16.4058C54.6803 16.3342 49.7596 12.5067 48.933 11.9354C48.8705 11.8921 48.4351 12.1832 47.9657 12.5821ZM59.4163 16.2984C58.68 17.0976 58.03 17.7515 57.9722 17.7515C57.6058 17.7515 58.1963 18.2773 60.7652 20.2386C62.3556 21.4528 63.706 22.4462 63.7659 22.4462C64 22.4462 66.6771 19.5088 66.6124 19.323C66.572 19.207 60.9326 14.8499 60.8191 14.847C60.7839 14.8461 60.1528 15.4992 59.4163 16.2984ZM43.9255 15.4179C43.4874 15.6698 42.5784 16.1474 41.9054 16.4793C41.2325 16.8111 40.6848 17.12 40.6884 17.1656C40.6958 17.2632 46.1821 21.45 46.4922 21.5948C46.6541 21.6704 47.116 21.4753 48.4678 20.7605C50.5512 19.6589 50.8293 19.47 50.5833 19.3245C50.4894 19.2689 49.1865 18.2835 47.6879 17.1345C46.1893 15.9855 44.9089 15.0262 44.8427 15.0027C44.7765 14.9792 44.3637 15.1661 43.9255 15.4179ZM71.8057 17.7198C71.682 17.9481 71.154 18.7336 70.6323 19.4652C70.1106 20.1968 69.7265 20.8366 69.7787 20.8871C69.831 20.9375 71.154 21.9629 72.7188 23.1656L75.564 25.3523L75.8269 25.045C76.5128 24.2432 78.038 21.8692 77.9333 21.7664C77.7293 21.5661 72.1509 17.3078 72.0903 17.3061C72.0576 17.3052 71.9296 17.4913 71.8057 17.7198ZM37.6919 18.3437C36.4543 18.8395 35.4556 19.2831 35.4727 19.3295C35.5361 19.5017 41.2005 23.7811 41.3648 23.7808C41.6242 23.7805 45.8283 22.0678 45.819 21.9663C45.812 21.8875 40.0158 17.3967 39.9633 17.4293C39.9517 17.4365 38.9296 17.848 37.6919 18.3437ZM56.7858 18.8213C56.5354 19.0363 55.7801 19.6194 55.1071 20.1172C54.4342 20.6149 53.8872 21.0533 53.8916 21.0915C53.8985 21.1515 58.0981 24.3812 59.3385 25.2805L59.7787 25.5996L60.4772 25.1337C61.4777 24.4665 63.2359 23.0083 63.1929 22.8816C63.1417 22.7306 57.4956 18.4213 57.3556 18.4264C57.2926 18.4287 57.0361 18.6064 56.7858 18.8213ZM33.3414 20.0834C31.1167 21.0375 30.2633 21.5381 30.4962 21.7527C30.6808 21.9227 35.9285 25.9256 36.1228 26.0446C36.2547 26.1254 36.4973 26.0403 37.0644 25.7148C37.4845 25.4735 38.4063 25.0358 39.1129 24.742C39.8195 24.4484 40.4391 24.1705 40.4901 24.1247C40.5683 24.0545 34.9508 19.6506 34.6841 19.5731C34.6342 19.5585 34.0299 19.7882 33.3414 20.0834ZM68.8469 21.8044C68.6129 22.0652 67.9618 22.7407 67.4001 23.3056C66.8384 23.8705 66.3969 24.3858 66.4191 24.4507C66.4765 24.619 72.1216 28.927 72.2862 28.9283C72.4268 28.9293 75.1657 26.0462 75.1657 25.8972C75.1657 25.8278 69.8036 21.652 69.4024 21.4089C69.3268 21.3632 69.0946 21.5284 68.8469 21.8044ZM52.5749 21.8002C52.2619 21.9904 51.3498 22.483 50.5477 22.8949L49.0896 23.6439L51.8565 25.7664C53.3784 26.9338 54.7284 27.9527 54.8567 28.0308C55.0577 28.1532 55.1913 28.1233 55.8241 27.8148C57.3201 27.0852 59.1162 26.0755 59.1106 25.9672C59.1043 25.8446 53.4628 21.5088 53.2658 21.4753C53.1988 21.4639 52.8879 21.6101 52.5749 21.8002ZM28.786 22.7151C28.287 23.1102 27.5545 23.7572 27.1585 24.1532L26.4382 24.8731L28.9794 26.8111C30.377 27.8769 31.7106 28.897 31.9427 29.0779L32.3651 29.4067L33.4432 28.4047C34.0361 27.8535 34.7794 27.2304 35.0948 27.0202C35.4104 26.8099 35.6699 26.6068 35.6715 26.5689C35.6746 26.4983 29.9488 22.0807 29.7845 22.0269C29.7344 22.0105 29.2851 22.3202 28.786 22.7151ZM47.6812 24.2361C47.3056 24.4108 46.2942 24.821 45.4335 25.1477C44.5729 25.4744 43.8708 25.7672 43.8735 25.7985C43.8818 25.896 49.5831 30.2127 49.7566 30.2528C49.9261 30.2921 54.3373 28.5843 54.3383 28.4789C54.3389 28.4162 48.4601 23.8925 48.3994 23.9089C48.3799 23.9142 48.0567 24.0614 47.6812 24.2361ZM65.1124 25.4082C64.598 25.8765 63.1552 26.9783 62.5432 27.3704C62.2745 27.5425 62.2969 27.563 65.2183 29.8016C66.8386 31.0432 68.1975 32.0591 68.2379 32.0591C68.4597 32.0591 71.7571 29.5343 71.7414 29.3765C71.7307 29.2693 66.0381 24.9903 65.8512 24.949C65.7444 24.9254 65.4244 25.1243 65.1124 25.4082ZM25.6373 25.8275C25.0957 26.4858 24.2746 27.6496 23.8917 28.3018C23.6151 28.7731 23.5942 28.865 23.7402 28.9725C23.833 29.041 25.1431 30.0402 26.6511 31.1929C28.1593 32.3456 29.4366 33.2882 29.4895 33.2877C29.5424 33.2872 29.8106 32.9288 30.0855 32.4913C30.3603 32.0538 30.8947 31.2924 31.2729 30.7994L31.9605 29.9032L31.6721 29.6595C31.135 29.2058 26.1319 25.3524 26.0799 25.3524C26.0515 25.3524 25.8523 25.5663 25.6373 25.8275ZM42.6167 26.2167C41.2937 26.8122 39.2255 27.8306 39.0318 27.9819C38.8374 28.1338 38.8291 28.1738 38.9749 28.2555C39.0688 28.3082 40.3965 29.3113 41.9252 30.4846C43.454 31.658 44.7435 32.618 44.7907 32.618C44.8379 32.618 45.1804 32.4403 45.5515 32.2231C45.9227 32.0059 46.8611 31.5585 47.6367 31.2288C48.4123 30.8992 49.0469 30.6011 49.0469 30.5664C49.0469 30.485 43.181 26.0208 43.0864 26.0303C43.0471 26.0342 42.8358 26.1181 42.6167 26.2167ZM60.4695 28.6291C59.8041 29.0094 58.895 29.4937 58.4494 29.7054C58.0038 29.9171 57.6427 30.1183 57.6468 30.1525C57.6568 30.2357 63.1805 34.4363 63.4371 34.556C63.5767 34.6211 63.86 34.5414 64.3658 34.2948C65.6262 33.6803 67.6519 32.5654 67.6531 32.4856C67.6546 32.3972 62.0033 28.0387 61.8085 27.9779C61.7375 27.9558 61.135 28.2488 60.4695 28.6291ZM37.3216 29.1953C36.4052 29.9153 34.9047 31.3514 34.998 31.419C35.0258 31.4391 36.3033 32.4115 37.8368 33.5797C39.3704 34.748 40.6918 35.7435 40.7734 35.792C40.8732 35.8513 41.2448 35.5745 41.9115 34.9438C42.4558 34.4288 43.1981 33.7877 43.5609 33.5191C43.9236 33.2504 44.1796 32.9947 44.1299 32.9509C43.8992 32.7478 38.3054 28.4822 38.2696 28.4822C38.2473 28.4822 37.8208 28.803 37.3216 29.1953ZM22.5965 30.7348C22.2275 31.4939 21.8211 32.3988 21.6933 32.7456L21.4609 33.3762L24.3581 35.5959C25.9514 36.8169 27.2966 37.8295 27.3472 37.8462C27.3978 37.863 27.6092 37.4354 27.817 36.8961C28.1117 36.1308 28.9013 34.3938 29.1564 33.9499C29.177 33.9139 28.181 33.1112 26.9429 32.1661C25.7049 31.221 24.3714 30.2018 23.9797 29.9011L23.2674 29.3544L22.5965 30.7348ZM56.2167 30.7085C55.8412 30.8782 54.8298 31.2874 53.969 31.6178C53.1084 31.9483 52.4044 32.2456 52.4046 32.2786C52.4054 32.3993 58.251 36.8087 58.3701 36.7784C58.7038 36.6932 62.8729 35.0138 62.8706 34.9654C62.8679 34.9094 57.0787 30.4552 56.9617 30.4191C56.9276 30.4086 56.5923 30.5388 56.2167 30.7085ZM33.563 33.0954C32.5412 34.4948 31.9969 35.307 32.0525 35.3493C32.0729 35.3649 33.414 36.39 35.0329 37.6275L37.9763 39.8775L38.5996 38.9025C38.9422 38.3663 39.5057 37.5838 39.8514 37.1634C40.1972 36.743 40.436 36.3604 40.3819 36.3131C39.9305 35.9179 34.6183 31.8361 34.5579 31.8379C34.5148 31.8393 34.0671 32.4052 33.563 33.0954ZM50.1849 33.1129C48.6633 33.7745 47.3655 34.4867 47.4187 34.6308C47.4378 34.6828 48.6827 35.6663 50.1849 36.8164C51.6872 37.9665 52.9795 38.9565 53.0566 39.0164C53.1544 39.0923 53.6375 38.9069 54.6499 38.4046C55.4491 38.0082 56.4231 37.5629 56.8144 37.415C57.2057 37.2671 57.5115 37.1037 57.4939 37.0519C57.458 36.9462 51.6964 32.5033 51.6075 32.5128C51.5762 32.5163 50.9361 32.7863 50.1849 33.1129ZM46.031 35.4859C44.6986 36.5678 43.5173 37.6817 43.55 37.8256C43.5808 37.9613 49.0028 42.1991 49.2745 42.2997C49.3371 42.3228 49.8132 41.9477 50.3327 41.4659C50.8522 40.9842 51.5799 40.3682 51.9499 40.0971C52.3198 39.8259 52.6247 39.5719 52.6272 39.5324C52.632 39.4579 46.8959 35.0389 46.7435 34.9999C46.6959 34.9876 46.3752 35.2064 46.031 35.4859ZM31.2516 36.8377C31.0084 37.3141 30.6206 38.2001 30.3899 38.8065C29.9852 39.8707 29.9782 39.9144 30.1855 40.057C30.3038 40.1384 31.6255 41.1375 33.1228 42.2773C34.6202 43.4173 35.8875 44.3371 35.9392 44.3215C35.9909 44.3059 36.2264 43.7915 36.4627 43.1783C36.699 42.5651 37.0833 41.6919 37.3167 41.2379C37.6676 40.5559 37.7149 40.3881 37.5898 40.2716C37.2281 39.9349 31.8875 35.9714 31.7956 35.9714C31.7396 35.9714 31.4948 36.3613 31.2516 36.8377ZM42.2467 39.301C41.2266 40.6304 40.5131 41.7765 40.6369 41.8867C41.4603 42.6196 46.5417 46.3707 46.5758 46.2706C46.6629 46.0136 47.9269 44.1852 48.4668 43.5347C48.7647 43.176 48.9914 42.8708 48.9707 42.8565C48.95 42.842 47.6527 41.851 46.0879 40.6541C44.523 39.4572 43.1867 38.444 43.1183 38.4026C43.0458 38.3586 42.6822 38.7335 42.2467 39.301ZM39.9973 42.8178C39.6132 43.4348 38.6102 45.8453 38.593 46.1929C38.5779 46.4954 38.7984 46.693 41.3079 48.627C42.8102 49.7848 44.1227 50.7794 44.2247 50.8375C44.3812 50.9266 44.4677 50.7916 44.7812 49.9682C44.9854 49.4322 45.3751 48.5224 45.6471 47.9465L46.1417 46.8995L45.836 46.6611C43.1805 44.5891 40.3785 42.4566 40.3104 42.4556C40.2626 42.4551 40.1216 42.6179 39.9973 42.8178ZM9.95396 59.8919V60.6744H7.98054C6.3878 60.6744 5.83754 60.717 5.12807 60.8951C2.69555 61.5062 1.01927 63.1824 0.257902 65.7653C0.0242556 66.5579 -0.00374115 66.8852 0.000355922 68.7783C0.0045668 70.7899 0.0212962 70.9506 0.316968 71.8203C0.904557 73.5488 2.06061 74.8962 3.62126 75.672C4.78687 76.2512 5.81296 76.4496 7.99078 76.5168L9.95396 76.5774V77.2886V78H12.1732H14.3925V77.2896V76.5793L16.3556 76.5144C17.613 76.4727 18.5848 76.3822 19.0586 76.2627C21.4794 75.6522 23.1866 74.128 23.9935 71.8571C24.2955 71.007 24.3386 70.7201 24.3845 69.2454C24.4439 67.339 24.3069 66.2807 23.8364 65.0119C23.2267 63.3672 22.1241 62.1308 20.6183 61.403C19.4336 60.8305 18.5306 60.6786 16.2987 60.6763L14.3925 60.6744V59.8919V59.1095H12.1732H9.95396V59.8919ZM63.1021 62.2243V63.9017L67.5205 63.9367L71.9389 63.9718L72.6068 64.3075C73.3978 64.705 73.7445 65.2632 73.8385 66.2912L73.8973 66.934L70.5198 66.9348C68.6622 66.9353 66.8203 66.9869 66.4268 67.0496C63.8463 67.461 62.3671 69.0131 62.2197 71.4644C62.1024 73.4151 62.9482 75.064 64.4493 75.8112C65.7548 76.4608 65.8537 76.4699 72.1782 76.5175L78.0109 76.5614V71.4829C78.0109 65.9758 77.9485 65.2082 77.3813 63.7279C76.8169 62.2552 75.8789 61.3657 74.369 60.8712C73.6614 60.6394 73.4013 60.6271 68.3657 60.5879L63.1021 60.5467V62.2243ZM26.2284 68.6106V76.5469H28.4879H30.7474L31.2647 75.7924C31.5491 75.3775 33.0162 73.2837 34.5248 71.1397L37.2678 67.2415V71.8942V76.5469H39.5439H41.8201V68.6106V60.6744H39.5506H37.2812L34.0594 65.245L30.8376 69.8156L30.8079 65.245L30.7782 60.6744H28.5033H26.2284V68.6106ZM44.4376 68.6106V76.5469H46.7138H48.99V73.3612V70.1755H52.2335H55.477V73.3612V76.5469H57.6962H59.9155V68.6106V60.6744H57.6962H55.477V63.8042V66.934H52.2335H48.99V63.8042V60.6744H46.7138H44.4376V68.6106ZM80.6284 68.5547V76.4351H82.9046H85.1807L85.1897 71.2095L85.1987 65.9838L85.4111 66.5986C85.5279 66.9367 86.3222 69.3145 87.1763 71.8826L88.7292 76.5517L90.8528 76.5214L92.9766 76.491L93.1869 75.8762C93.3026 75.5381 94.1053 73.1488 94.9708 70.5667L96.5443 65.8721L96.5529 71.2095L96.5615 76.5469H98.7808H101V68.603V60.6593L98.4016 60.6947L95.8031 60.7303L95.2474 61.0679C94.2109 61.6977 94.0985 61.9306 92.4429 66.8742C91.6097 69.3622 90.9024 71.3989 90.8711 71.4002C90.8398 71.4015 90.2005 69.5546 89.4504 67.296C87.9734 62.8487 87.5556 61.8686 86.9163 61.3512C86.1751 60.751 85.7378 60.6744 83.0551 60.6744H80.6284V68.5547ZM9.95396 68.569V73.2223L8.70242 73.1716C7.55388 73.1251 7.38783 73.0895 6.68655 72.738C6.13743 72.463 5.80056 72.1979 5.48941 71.7963C4.16378 70.085 4.2225 66.6803 5.60447 65.1344C6.02817 64.6605 6.92589 64.1631 7.58938 64.0347C7.85706 63.9828 8.49871 63.9349 9.01505 63.9282L9.95396 63.9159V68.569ZM16.9577 64.0876C18.7706 64.5466 19.7258 65.8838 19.8302 68.1089C19.9419 70.492 19.165 72.0938 17.552 72.8057C16.9641 73.0651 16.6355 73.1292 15.6753 73.1714L14.5113 73.2226L14.4803 68.5693L14.4494 63.9158L15.3644 63.9159C15.8676 63.9159 16.5846 63.9932 16.9577 64.0876ZM73.8 71.7404V73.1935L70.5849 73.1933C66.9334 73.1932 66.75 73.1578 66.362 72.3776C66.1314 71.914 66.1715 71.1811 66.447 70.8206C66.8281 70.3222 67.0849 70.2887 70.528 70.288L73.8 70.2873V71.7404Z" fill="#0F5576"/>
</svg>
