<svg width="250" height="63" viewBox="0 0 131 33" fill="none" xmlns="http://www.w3.org/2000/svg">
<path fill-rule="evenodd" clip-rule="evenodd" d="M130.999 25.4471V24.4277H0V25.4471H81.3399" fill="#0F5576"/>
<path fill-rule="evenodd" clip-rule="evenodd" d="M6.76321 9.85006V1.58948H7.47043C8.00054 1.58948 8.88488 1.50158 8.88488 3.97493V7.42005C8.88488 9.89401 8.00115 9.84945 7.47043 9.84945H6.76321V9.85006ZM1.3265 19.7453H0V20.4521H9.63485C11.9776 20.4521 14.4083 19.6122 14.4083 15.8137C14.4083 13.2073 13.48 10.7345 9.85594 10.3805V10.071C11.6234 9.93857 14.0987 9.09988 14.0987 5.43319C14.0987 1.28062 10.8722 0.839294 9.81196 0.839294H0V1.59009H1.32589V19.7459L1.3265 19.7453ZM6.76321 19.7453V10.5569H7.47043C8.00054 10.5569 8.88488 10.5123 8.88488 12.9857V17.3153C8.88488 19.7874 8.00115 19.7441 7.47043 19.7441H6.76321V19.7453ZM16.6625 1.58948H15.292V0.838684H27.4901V7.86259H27.0479C26.4739 1.63465 23.3805 1.5907 22.4076 1.5907H22.0546V10.2047H22.3191C24.0871 10.2047 24.7944 7.99566 24.7058 6.00818H25.1919V15.0635H24.7058C24.7944 13.0754 24.0871 10.9109 22.3191 10.9109H22.0546V19.7459C25.7672 19.8338 27.0486 16.3893 27.3588 12.8984H27.8443V20.4528H15.292V19.7459H16.6625V1.58948ZM34.3852 1.58948V19.7453H30.8051C32.3967 17.4044 32.5732 14.0026 32.5732 9.14321V3.17958C32.5732 1.63343 33.0587 1.58887 33.4563 1.58887H34.3852V1.58948ZM30.275 0.839294V1.59009H30.9823C31.4244 1.59009 32.0431 1.6786 32.0431 3.40115V9.14321C32.0431 17.0949 30.9383 19.7453 29.2142 19.7453H28.9491V23.6757H29.3913C29.4793 20.761 30.5407 20.4521 32.8828 20.4521H37.5684C39.9105 20.4521 40.9713 20.7616 41.0599 23.6757H41.5021V19.7453H39.8226V1.58948H41.1484V0.838684H30.275V0.839294Z" fill="#0F5576"/>
<path fill-rule="evenodd" clip-rule="evenodd" d="M47.0254 2.95923C47.0254 1.72256 47.423 1.19212 48.0862 1.19212C48.7049 1.19212 49.1471 1.72256 49.1471 2.95923V18.4201C49.1471 19.6122 48.7049 20.1427 48.0862 20.1427C47.423 20.1427 47.0254 19.6122 47.0254 18.4201V2.95923ZM41.2803 10.6894C41.2803 15.5488 43.5784 20.8941 48.0868 20.8941C52.5946 20.8941 54.8488 15.5488 54.8488 10.6894C54.8488 5.78662 52.5946 0.441321 48.0868 0.441321C43.5778 0.440711 41.2803 5.78662 41.2803 10.6894ZM57.2349 3.09169H57.1904V17.3159C57.1904 19.5237 57.9422 19.7447 58.5608 19.7447H58.9138V20.4515H55.2898V19.7447C55.8639 19.788 56.6603 19.4786 56.6603 17.3159V1.58949H55.2898V0.838693H62.0963L63.8198 8.83375H63.9084L65.677 0.838693H72.483V1.58949H71.1571V19.7453H72.483V20.4522H64.3939V19.7453H65.7198V3.1802H65.6319L61.7867 20.4522H61.0361L57.2349 3.09169ZM78.8474 2.95923C78.8474 1.72256 79.2884 1.19212 79.907 1.19212C80.5709 1.19212 80.9685 1.72256 80.9685 2.95923V18.4201C80.9685 19.6122 80.5709 20.1427 79.907 20.1427C79.2884 20.1427 78.8474 19.6122 78.8474 18.4201V2.95923ZM73.145 10.6894C73.145 15.5488 75.3992 20.8941 79.907 20.8941C84.4148 20.8941 86.7142 15.5488 86.7142 10.6894C86.7142 5.78662 84.4154 0.441321 79.907 0.441321C75.3986 0.440711 73.145 5.78662 73.145 10.6894ZM99.9298 7.28821H99.4424C99.0014 4.10801 97.4545 1.63405 95.6864 1.63405C93.7419 1.63405 93.6539 4.50538 93.6539 5.87452V14.9298C93.6539 15.8131 93.6991 19.1703 95.9081 19.1703C98.3834 19.1703 99.3551 15.7698 99.7093 13.1639L100.152 13.2964C99.7526 16.5651 98.5171 20.8947 94.716 20.8947C90.163 20.8947 87.954 15.3284 87.954 10.6454C87.954 5.03582 90.6937 0.441321 94.716 0.441321C95.5111 0.441321 96.7039 0.706236 97.8081 1.72317L99.2677 0H99.7105L99.9298 7.28821ZM104.966 1.58949C102.448 1.81045 101.564 5.74206 101.386 7.86199H100.945V0.839304H114.425V7.86321H113.94C113.762 5.74328 112.878 1.81168 110.403 1.59071V19.7465H111.995V20.4534H103.332V19.7465H104.966V1.58949ZM116.68 1.58949H115.354V0.838693H122.778V1.58949H122.116V14.5325H122.205L124.237 2.91467V1.58949H123.575V0.838693H131V1.58949H129.674V19.7453H131V20.4522H123.575V19.7453H124.237V6.00697H124.149L122.116 17.5808V19.7453H122.778V20.4522H115.353V19.7453H116.679V1.58949H116.68Z" fill="#0F5576"/>
<path fill-rule="evenodd" clip-rule="evenodd" d="M3.69673 29.5234H3.5697C3.5697 29.5234 3.50557 29.5234 3.50557 29.4605C3.50557 28.9502 3.31502 27.6769 2.9321 27.6769C2.86797 27.6769 2.80384 27.7422 2.80384 27.8039V31.7538C2.80384 31.8826 2.86797 32.0107 2.99561 32.0107H3.31441V32.2006H1.78454V32.0107H2.10456C2.23159 32.0107 2.29511 31.8838 2.29511 31.7538V27.8039C2.29511 27.741 2.23098 27.6769 2.10456 27.6769C1.78576 27.6769 1.53109 28.9502 1.53109 29.4605V29.5234H1.40283V27.4852H3.69795V29.4605L3.69673 29.5234Z" fill="#0F5576"/>
<path d="M3.69673 29.5234H3.5697L3.50557 29.4605C3.50557 28.9502 3.31502 27.6769 2.9321 27.6769C2.86797 27.6769 2.80384 27.8039 2.80384 27.8039V31.7538C2.80384 31.8826 2.86797 32.0107 2.99561 32.0107H3.31441V32.2006H1.78454V32.0107H2.10456C2.23159 32.0107 2.29511 31.8838 2.29511 31.7538V27.8039C2.29511 27.8039 2.23098 27.6769 2.10456 27.6769C1.78576 27.6769 1.53109 28.9502 1.53109 29.4605V29.5234H1.40283V27.4852H3.69795V29.5234H3.69673Z" fill="#0F5576"/>
<path fill-rule="evenodd" clip-rule="evenodd" d="M6.94854 32.2H5.5457V32.0101H5.8016C5.92863 32.0101 5.99214 31.8832 5.99214 31.7532V29.9067H4.90932V31.7532C4.90932 31.882 4.97345 32.0101 5.09987 32.0101H5.35454V32.2H3.88818V32.0101H4.14286C4.26989 32.0101 4.3334 31.8832 4.3334 31.7532V27.9302C4.3334 27.8032 4.26928 27.6757 4.14286 27.6757H3.95231C3.88818 27.6757 3.88818 27.6757 3.88818 27.6104V27.4834H5.35515V27.6104C5.35515 27.6757 5.35515 27.6757 5.29103 27.6757H5.10048C4.97345 27.6757 4.90993 27.8026 4.90993 27.9302V29.6522H5.99275V27.9302C5.99275 27.8032 5.92863 27.6757 5.80221 27.6757H5.5457V27.484H7.01267V27.611C7.01267 27.6763 7.01267 27.6763 6.94854 27.6763H6.758C6.62974 27.6763 6.56745 27.8032 6.56745 27.9308V31.7538C6.56745 31.8826 6.63158 32.0108 6.758 32.0108H7.01267V32.2006H6.94854V32.2Z" fill="#0F5576"/>
<path d="M6.94854 32.2H5.5457V32.0101H5.8016C5.92863 32.0101 5.99214 31.8832 5.99214 31.7532V29.9067H4.90932V31.7532C4.90932 31.882 4.97345 32.0101 5.09987 32.0101H5.35454V32.2H3.88818V32.0101H4.14286C4.26989 32.0101 4.3334 31.8832 4.3334 31.7532V27.9302C4.3334 27.8032 4.26928 27.6757 4.14286 27.6757H3.95231L3.88818 27.6104V27.4834H5.35515V27.6104L5.29103 27.6757H5.10048C4.97345 27.6757 4.90993 27.8026 4.90993 27.9302V29.6522H5.99275V27.9302C5.99275 27.8032 5.92863 27.6757 5.80221 27.6757H5.5457V27.484H7.01267V27.611L6.94854 27.6763H6.758C6.62974 27.6763 6.56745 27.8032 6.56745 27.9308V31.7538C6.56745 31.8826 6.63158 32.0108 6.758 32.0108H7.01267V32.2006H6.94854V32.2Z" fill="#0F5576"/>
<path fill-rule="evenodd" clip-rule="evenodd" d="M9.56188 32.1999H7.20386V32.0101H7.45731C7.58556 32.0101 7.64786 31.8831 7.64786 31.7531V27.9302C7.64786 27.8032 7.58373 27.6756 7.45731 27.6756H7.20264V27.4839H9.62479V29.2675L9.56066 29.3329H9.43363V29.2675C9.43363 28.6944 9.3695 27.6744 8.66961 27.6744C8.54258 27.6744 8.22316 27.6091 8.22316 27.9289V29.5221C8.22316 29.5874 8.22316 29.6509 8.28729 29.6509C8.669 29.6509 8.73373 29.0124 8.73373 28.4392H8.9255V31.1158H8.79725C8.73312 31.1158 8.73312 31.0505 8.73312 31.0505C8.73312 30.4774 8.669 29.8389 8.28668 29.8389C8.22255 29.8389 8.22255 29.9042 8.22255 29.9677V31.7501C8.22255 32.0687 8.47845 32.007 8.669 32.007C9.37072 32.007 9.43302 30.9877 9.43302 30.4133V30.3504H9.56127C9.6254 30.3504 9.6254 30.4133 9.6254 30.4133V32.1969H9.56127V32.1999H9.56188Z" fill="#0F5576"/>
<path d="M9.56188 32.1999H7.20386V32.0101H7.45731C7.58556 32.0101 7.64786 31.8831 7.64786 31.7531V27.9302C7.64786 27.8032 7.58373 27.6756 7.45731 27.6756H7.20264V27.4839H9.62479V29.2675L9.56066 29.3329H9.43363V29.2675C9.43363 28.6944 9.3695 27.6744 8.66961 27.6744C8.54258 27.6744 8.22316 27.6091 8.22316 27.9289V29.5221C8.22316 29.5874 8.22316 29.6509 8.28729 29.6509C8.669 29.6509 8.73373 29.0124 8.73373 28.4392H8.9255V31.1158H8.79725L8.73312 31.0505C8.73312 30.4774 8.669 29.8389 8.28668 29.8389C8.22255 29.8389 8.22255 29.9042 8.22255 29.9677V31.7501C8.22255 32.0687 8.47845 32.007 8.669 32.007C9.37072 32.007 9.43302 30.9877 9.43302 30.4133V30.3504H9.56127L9.6254 30.4133V32.1969H9.56127V32.1999H9.56188Z" fill="#0F5576"/>
<path fill-rule="evenodd" clip-rule="evenodd" d="M15.9364 27.6769C15.7458 27.6769 15.5547 27.7422 15.427 28.1231L14.5348 32.1994H14.2801L13.7707 29.5228L13.1973 32.1994H12.9426L12.2409 27.9949C12.1767 27.868 12.0503 27.6763 11.8592 27.6763H11.6686C11.6686 27.6763 11.6045 27.6763 11.6045 27.611V27.484H13.0715V27.6757C12.8809 27.6757 12.7527 27.8026 12.7527 27.9943L13.262 30.7326L13.7078 28.8861L13.5173 27.9943C13.5173 27.8673 13.4532 27.7398 13.2626 27.6757C13.1985 27.6757 13.1985 27.6757 13.1985 27.6104V27.4834H14.5372V27.6751C14.2184 27.6751 14.0914 27.8667 14.0914 28.0566L14.6007 30.7332L15.1742 28.0566C15.2383 27.8667 15.1101 27.6751 14.7925 27.6751V27.4834H16.0036V27.6104C15.9999 27.6769 15.9364 27.6769 15.9364 27.6769Z" fill="#0F5576"/>
<path d="M15.9364 27.6769C15.7458 27.6769 15.5547 27.7422 15.427 28.1231L14.5348 32.1994H14.2801L13.7707 29.5228L13.1973 32.1994H12.9426L12.2409 27.9949C12.1767 27.868 12.0503 27.6763 11.8592 27.6763H11.6686L11.6045 27.611V27.484H13.0715V27.6757C12.8809 27.6757 12.7527 27.8026 12.7527 27.9943L13.262 30.7326L13.7078 28.8861L13.5173 27.9943C13.5173 27.8673 13.4532 27.7398 13.2626 27.6757L13.1985 27.6104V27.4834H14.5372V27.6751C14.2184 27.6751 14.0914 27.8667 14.0914 28.0566L14.6007 30.7332L15.1742 28.0566C15.2383 27.8667 15.1101 27.6751 14.7925 27.6751V27.4834H16.0036V27.6104L15.9364 27.6769Z" fill="#0F5576"/>
<path fill-rule="evenodd" clip-rule="evenodd" d="M16.7014 30.8614H15.9997L16.3185 28.8873L16.7014 30.8614ZM17.8484 32.2V32.073C17.8484 32.0102 17.8484 32.0102 17.7842 32.0102C17.5296 32.0102 17.5296 31.8832 17.4654 31.6915L16.6361 27.4852C16.6361 27.4224 16.6361 27.4224 16.5719 27.4224H16.4449C16.3808 27.4224 16.3808 27.4224 16.3808 27.4852L15.6168 31.6915C15.4885 32.0102 15.3621 32.0102 15.1074 32.0102V32.2H16.1915V32.073C16.1915 32.0102 16.1915 32.0102 16.1273 32.0102C15.8727 32.0102 15.8085 31.9448 15.8727 31.6915L15.9368 31.053H16.7662L16.8932 31.6915C16.8932 31.9461 16.7662 32.0102 16.5103 32.0102C16.5103 32.0102 16.4474 32.0102 16.4474 32.073V32.2H17.8484Z" fill="#0F5576"/>
<path d="M16.7014 30.8614H15.9997L16.3185 28.8873L16.7014 30.8614ZM17.8484 32.2V32.073L17.7842 32.0102C17.5296 32.0102 17.5296 31.8832 17.4654 31.6915L16.6361 27.4852L16.5719 27.4224H16.4449L16.3808 27.4852L15.6168 31.6915C15.4885 32.0102 15.3621 32.0102 15.1074 32.0102V32.2H16.1915V32.073L16.1273 32.0102C15.8727 32.0102 15.8085 31.9448 15.8727 31.6915L15.9368 31.053H16.7662L16.8932 31.6915C16.8932 31.9461 16.7662 32.0102 16.5103 32.0102L16.4474 32.073V32.2H17.8484Z" fill="#0F5576"/>
<path fill-rule="evenodd" clip-rule="evenodd" d="M20.3346 32.2H17.9766V32.0101H18.2312C18.3595 32.0101 18.4218 31.8832 18.4218 31.7532V27.9302C18.4218 27.8033 18.3577 27.6757 18.2312 27.6757H18.0407C18.0407 27.6757 17.9766 27.6757 17.9766 27.6104V27.4834H19.4435V27.6751H19.1876C19.0606 27.6751 18.9971 27.802 18.9971 27.9296V31.7526C18.9971 32.0712 19.3147 32.0095 19.4435 32.0095C20.0811 32.0095 20.2076 30.6715 20.2076 30.0984V30.0331H20.3358C20.3999 30.0331 20.3999 30.0984 20.3999 30.0984V32.1994L20.3346 32.2Z" fill="#0F5576"/>
<path d="M20.3346 32.2H17.9766V32.0101H18.2312C18.3595 32.0101 18.4218 31.8832 18.4218 31.7532V27.9302C18.4218 27.8033 18.3577 27.6757 18.2312 27.6757H18.0407L17.9766 27.6104V27.4834H19.4423V27.6751H19.1876C19.0606 27.6751 18.9971 27.802 18.9971 27.9296V31.7526C18.9971 32.0712 19.3159 32.0095 19.4435 32.0095C20.0811 32.0095 20.2076 30.6715 20.2076 30.0984V30.0331H20.3358L20.3999 30.0984V32.1994L20.3346 32.2Z" fill="#0F5576"/>
<path fill-rule="evenodd" clip-rule="evenodd" d="M22.8846 32.2H20.5254V32.0101H20.8442C20.9724 32.0101 21.0347 31.8832 21.0347 31.7532V27.9302C21.0347 27.8033 20.9706 27.6757 20.8442 27.6757H20.5895C20.5895 27.6757 20.5254 27.6757 20.5254 27.6104V27.4834H21.9924V27.6751H21.7377C21.6094 27.6751 21.5471 27.802 21.5471 27.9296V31.7526C21.5471 32.0712 21.8659 32.0095 21.9936 32.0095C22.6312 32.0095 22.7588 30.6715 22.7588 30.0984C22.7588 30.0984 22.7588 30.0331 22.823 30.0331H22.95V32.1994H22.8846V32.2Z" fill="#0F5576"/>
<path d="M22.8846 32.2H20.5254V32.0101H20.8442C20.9724 32.0101 21.0347 31.8832 21.0347 31.7532V27.9302C21.0347 27.8033 20.9706 27.6757 20.8442 27.6757H20.5895L20.5254 27.6104V27.4834H21.9924V27.6751H21.7377C21.6094 27.6751 21.5471 27.802 21.5471 27.9296V31.7526C21.5471 32.0712 21.8659 32.0095 21.9936 32.0095C22.6312 32.0095 22.7588 30.6715 22.7588 30.0984L22.823 30.0331H22.95V32.1994H22.8846V32.2Z" fill="#0F5576"/>
<path fill-rule="evenodd" clip-rule="evenodd" d="M26.0079 32.1999C25.4985 32.1999 25.3703 31.9454 25.2438 31.9454C25.1797 31.9454 25.1797 32.0724 25.1797 32.1371H24.9238V30.1618L24.988 30.0989H25.1162V30.1618C25.1162 31.6921 25.6897 32.0107 26.0085 32.0107C26.3273 32.0107 26.6461 31.7537 26.6461 31.1806C26.6461 29.9713 24.9244 29.9713 24.9244 28.5692C24.9244 27.9961 25.2432 27.4229 25.8167 27.4229C26.3273 27.4229 26.3273 27.7415 26.5184 27.7415C26.5826 27.7415 26.6455 27.6127 26.6455 27.5499V27.4846H26.7096C26.7737 27.4846 26.7737 27.4846 26.7737 27.5499V29.3963H26.6467C26.5826 29.3963 26.5826 29.3335 26.5826 29.3335C26.5826 28.695 26.5184 27.7403 25.8173 27.7403C25.4356 27.7403 25.308 28.0565 25.308 28.3135C25.308 29.3329 27.0296 29.2682 27.0296 30.9901C27.0284 31.6902 26.6455 32.1999 26.0079 32.1999Z" fill="#0F5576"/>
<path d="M26.0079 32.1999C25.4985 32.1999 25.3703 31.9454 25.2438 31.9454C25.1797 31.9454 25.1797 32.1371 25.1797 32.1371H24.9238V30.1618L24.988 30.0989H25.1162V30.1618C25.1162 31.6921 25.6897 32.0107 26.0085 32.0107C26.3273 32.0107 26.6461 31.7537 26.6461 31.1806C26.6461 29.9713 24.9244 29.9713 24.9244 28.5692C24.9244 27.9961 25.2432 27.4229 25.8167 27.4229C26.3273 27.4229 26.3273 27.7415 26.5184 27.7415C26.5826 27.7415 26.6455 27.6127 26.6455 27.5499V27.4846H26.7096L26.7737 27.5499V29.3963H26.6467L26.5826 29.3335C26.5826 28.695 26.5184 27.7403 25.8173 27.7403C25.4356 27.7403 25.308 28.0565 25.308 28.3135C25.308 29.3329 27.0296 29.2682 27.0296 30.9901C27.0284 31.6902 26.6455 32.1999 26.0079 32.1999Z" fill="#0F5576"/>
<path fill-rule="evenodd" clip-rule="evenodd" d="M29.4508 29.5234H29.3237V29.4605C29.3237 28.9502 29.0678 27.6769 28.7503 27.6769C28.622 27.6769 28.622 27.7422 28.622 27.8039V31.7538C28.622 31.8826 28.6861 32.0107 28.8125 32.0107H29.0672V32.2006H27.6003V32.0107H27.8561C27.9832 32.0107 28.0467 31.8838 28.0467 31.7538V27.8039C28.0467 27.741 28.0467 27.6769 27.9197 27.6769C27.5367 27.6769 27.3462 28.9502 27.3462 29.4605C27.3462 29.5234 27.3462 29.5234 27.2821 29.5234H27.2179C27.1538 29.5234 27.1538 29.5234 27.1538 29.4605V27.4852H29.5131V29.4605C29.5143 29.5234 29.5143 29.5234 29.4508 29.5234Z" fill="#0F5576"/>
<path d="M29.4505 29.5234H29.3235V29.4605C29.3235 28.9502 29.0676 27.6769 28.75 27.6769C28.6218 27.6769 28.6218 27.8039 28.6218 27.8039V31.7538C28.6218 31.8826 28.6859 32.0107 28.8123 32.0107H29.067V32.2006H27.6012V32.0107H27.8571C27.9842 32.0107 28.0477 31.8838 28.0477 31.7538V27.8039C28.0477 27.8039 28.0477 27.6769 27.9206 27.6769C27.5377 27.6769 27.3472 28.9502 27.3472 29.4605L27.283 29.5234H27.2189L27.1548 29.4605V27.4852H29.514V29.4605L29.4505 29.5234Z" fill="#0F5576"/>
<path fill-rule="evenodd" clip-rule="evenodd" d="M31.5542 28.8873C31.5542 29.6522 31.1077 29.715 31.0448 29.715H30.726C30.6631 29.715 30.6631 29.6522 30.6631 29.5881V27.9314C30.6631 27.8045 30.726 27.6769 30.8537 27.6769H31.0442C31.1083 27.6769 31.5535 27.6769 31.5535 28.5046V28.8873H31.5542ZM32.4464 31.6268V31.1806H32.2559V31.6268C32.2559 31.7538 32.1918 31.7538 32.0653 31.7538C32.0012 31.7538 31.9371 31.7538 31.9371 31.5639V30.6721C31.9371 30.1618 31.6824 29.9073 31.4906 29.7803C31.6824 29.715 32.1924 29.3964 32.1924 28.634C32.1924 27.932 31.7459 27.4852 31.1725 27.4852H29.6426V27.6122C29.6426 27.6775 29.6426 27.6775 29.7067 27.6775H29.8973C30.0243 27.6775 30.0878 27.8045 30.0878 27.932V31.6921C30.0878 31.8838 30.0237 32.0107 29.8973 32.0107H29.6426V32.2006H31.1095V32.0107H30.8549C30.7266 32.0107 30.6643 31.8191 30.6643 31.6921V30.0355C30.6643 29.9726 30.6643 29.9085 30.7272 29.9085H30.9831C31.3019 29.9085 31.3648 30.2272 31.3648 30.547V31.5664C31.3648 32.0126 31.5554 32.2665 31.9383 32.2665C32.3188 32.2641 32.4464 31.8185 32.4464 31.6268Z" fill="#0F5576"/>
<path d="M31.5542 28.8873C31.5542 29.6522 31.1077 29.715 31.0448 29.715H30.726C30.6631 29.715 30.6631 29.6522 30.6631 29.5881V27.9314C30.6631 27.8045 30.726 27.6769 30.8537 27.6769H31.0442C31.1083 27.6769 31.5535 27.6769 31.5535 28.5046V28.8873H31.5542ZM32.4464 31.6268V31.1806H32.2559V31.6268C32.2559 31.7538 32.1918 31.7538 32.0653 31.7538C32.0012 31.7538 31.9371 31.7538 31.9371 31.5639V30.6721C31.9371 30.1618 31.6824 29.9073 31.4906 29.7803C31.6824 29.715 32.1924 29.3964 32.1924 28.634C32.1924 27.932 31.7459 27.4852 31.1725 27.4852H29.6426V27.6122L29.7067 27.6775H29.8973C30.0243 27.6775 30.0878 27.8045 30.0878 27.932V31.6921C30.0878 31.8838 30.0237 32.0107 29.8973 32.0107H29.6426V32.2006H31.1095V32.0107H30.8549C30.7266 32.0107 30.6643 31.8191 30.6643 31.6921V30.0355C30.6643 29.9726 30.6643 29.9085 30.7272 29.9085H30.9819C31.3007 29.9085 31.3648 30.2272 31.3648 30.547V31.5664C31.3648 32.0126 31.5554 32.2665 31.9383 32.2665C32.3188 32.2641 32.4464 31.8185 32.4464 31.6268Z" fill="#0F5576"/>
<path fill-rule="evenodd" clip-rule="evenodd" d="M34.8686 32.1999H32.5747V32.0101H32.8294C32.9576 32.0101 33.0211 31.8831 33.0211 31.7531V27.9302C33.0211 27.8032 32.957 27.6756 32.8294 27.6756H32.5747V27.4839H34.9327V29.3329H34.8045L34.7404 29.2675C34.7404 28.6944 34.6762 27.6744 34.0398 27.6744C33.8493 27.6744 33.5934 27.6091 33.5934 27.9289V29.5221C33.5934 29.5874 33.5934 29.6509 33.6575 29.6509C33.9763 29.6509 34.104 29.0124 34.104 28.4392H34.231V31.1158H34.104V31.0505C34.104 30.4774 33.9757 29.8389 33.6575 29.8389C33.5293 29.8389 33.5934 29.9042 33.5934 29.9677V31.7501C33.5934 32.0687 33.8481 32.007 34.0398 32.007C34.6774 32.007 34.7404 30.9877 34.7404 30.4133L34.8045 30.3504H34.9327V32.1969C34.9327 32.1999 34.9327 32.1999 34.8686 32.1999Z" fill="#0F5576"/>
<path d="M34.8686 32.1999H32.5747V32.0101H32.8294C32.9576 32.0101 33.0211 31.8831 33.0211 31.7531V27.9302C33.0211 27.8032 32.957 27.6756 32.8294 27.6756H32.5747V27.4839H34.9327V29.3329H34.8045L34.7404 29.2675C34.7404 28.6944 34.6762 27.6744 34.0398 27.6744C33.8493 27.6744 33.5934 27.6091 33.5934 27.9289V29.5221C33.5934 29.5874 33.5934 29.6509 33.6575 29.6509C33.9763 29.6509 34.104 29.0124 34.104 28.4392H34.231V31.1158H34.104V31.0505C34.104 30.4774 33.9757 29.8389 33.6575 29.8389C33.5293 29.8389 33.5934 29.9042 33.5934 29.9677V31.7501C33.5934 32.0687 33.8481 32.007 34.0398 32.007C34.6774 32.007 34.7404 30.9877 34.7404 30.4133L34.8045 30.3504H34.9327V32.1969H34.8686V32.1999Z" fill="#0F5576"/>
<path fill-rule="evenodd" clip-rule="evenodd" d="M37.6101 32.1999H35.3149V32.0101H35.5696C35.6979 32.0101 35.7602 31.8831 35.7602 31.7531V27.9302C35.7602 27.8032 35.696 27.6756 35.5696 27.6756H35.3149V27.4839H37.6742V29.3329H37.5459C37.4818 29.3329 37.4818 29.2675 37.4818 29.2675C37.4818 28.6944 37.4177 27.6744 36.7178 27.6744C36.5908 27.6744 36.2713 27.6091 36.2713 27.9289V29.5221C36.2713 29.5874 36.2713 29.6509 36.3996 29.6509C36.7184 29.6509 36.846 29.0124 36.846 28.4392H36.9731V31.1158H36.846V31.0505C36.846 30.4774 36.7178 29.8389 36.3996 29.8389C36.2713 29.8389 36.2713 29.9042 36.2713 29.9677V31.7501C36.2713 32.0687 36.5901 32.007 36.7178 32.007C37.4195 32.007 37.4818 30.9877 37.4818 30.4133C37.4818 30.4133 37.4818 30.3504 37.5459 30.3504H37.6742V32.1969C37.6742 32.1999 37.6742 32.1999 37.6101 32.1999Z" fill="#0F5576"/>
<path d="M37.6101 32.1999H35.3149V32.0101H35.5696C35.6979 32.0101 35.7602 31.8831 35.7602 31.7531V27.9302C35.7602 27.8032 35.696 27.6756 35.5696 27.6756H35.3149V27.4839H37.6742V29.3329H37.5459L37.4818 29.2675C37.4818 28.6944 37.4177 27.6744 36.7178 27.6744C36.5895 27.6744 36.2713 27.6091 36.2713 27.9289V29.5221C36.2713 29.5874 36.2713 29.6509 36.3996 29.6509C36.7184 29.6509 36.846 29.0124 36.846 28.4392H36.9731V31.1158H36.846V31.0505C36.846 30.4774 36.7178 29.8389 36.3996 29.8389C36.2713 29.8389 36.2713 29.9042 36.2713 29.9677V31.7501C36.2713 32.0687 36.5901 32.007 36.7178 32.007C37.4195 32.007 37.4818 30.9877 37.4818 30.4133L37.5459 30.3504H37.6742V32.1969H37.6101V32.1999Z" fill="#0F5576"/>
<path fill-rule="evenodd" clip-rule="evenodd" d="M40.3511 29.5234H40.224C40.1599 29.5234 40.1599 29.5234 40.1599 29.4605C40.1599 28.9502 39.9694 27.6769 39.5864 27.6769C39.5223 27.6769 39.4582 27.7422 39.4582 27.8039V31.7538C39.4582 31.8826 39.5223 32.0107 39.6499 32.0107H39.9046V32.2006H38.4389V32.0107H38.6935C38.8218 32.0107 38.8841 31.8838 38.8841 31.7538V27.8039C38.8841 27.741 38.8841 27.6769 38.7571 27.6769C38.4383 27.6769 38.1836 28.9502 38.1836 29.4605V29.5234H38.0553C38.0553 29.5234 37.9912 29.5234 37.9912 29.4605V27.4852H40.3505V29.4605L40.3511 29.5234Z" fill="#0F5576"/>
<path d="M40.3511 29.5234H40.224L40.1599 29.4605C40.1599 28.9502 39.9694 27.6769 39.5864 27.6769C39.5223 27.6769 39.4582 27.8039 39.4582 27.8039V31.7538C39.4582 31.8826 39.5223 32.0107 39.6499 32.0107H39.9046V32.2006H38.4389V32.0107H38.6935C38.8218 32.0107 38.8841 31.8838 38.8841 31.7538V27.8039C38.8841 27.8039 38.8841 27.6769 38.7571 27.6769C38.4383 27.6769 38.1836 28.9502 38.1836 29.4605V29.5234H38.0553L37.9912 29.4605V27.4852H40.3505V29.5234H40.3511Z" fill="#0F5576"/>
<path fill-rule="evenodd" clip-rule="evenodd" d="M44.1758 27.6768H43.9853C43.857 27.6768 43.7947 27.8038 43.7947 27.9314V31.4369C43.7947 31.8831 43.4759 32.1999 42.9024 32.1999C42.456 32.1999 42.1372 31.6267 42.1372 31.1805C42.1372 30.799 42.3919 30.6727 42.5201 30.6727C42.7107 30.6727 42.8389 30.7997 42.8389 31.0542C42.8389 31.3728 42.5843 31.4381 42.5843 31.5645C42.5843 31.7543 42.6484 31.946 42.9031 31.946C43.1577 31.946 43.2219 31.7543 43.2219 31.4381V27.9326C43.2219 27.8056 43.1577 27.6781 43.0313 27.6781H42.8408C42.7766 27.6781 42.7766 27.6781 42.7766 27.6127V27.4858H44.2424V27.6127C44.2393 27.6768 44.2393 27.6768 44.1758 27.6768Z" fill="#0F5576"/>
<path d="M44.1758 27.6768H43.9853C43.857 27.6768 43.7947 27.8038 43.7947 27.9314V31.4369C43.7947 31.8831 43.4759 32.1999 42.9024 32.1999C42.456 32.1999 42.1372 31.6267 42.1372 31.1805C42.1372 30.799 42.3919 30.6727 42.5201 30.6727C42.7107 30.6727 42.8389 30.7997 42.8389 31.0542C42.8389 31.3728 42.5843 31.4381 42.5843 31.5645C42.5843 31.7543 42.6484 31.946 42.9031 31.946C43.1577 31.946 43.2219 31.7543 43.2219 31.4381V27.9326C43.2219 27.8056 43.1577 27.6781 43.0313 27.6781H42.8408L42.7766 27.6127V27.4858H44.2424V27.6127L44.1758 27.6768Z" fill="#0F5576"/>
<path fill-rule="evenodd" clip-rule="evenodd" d="M45.9605 31.437C45.9605 31.7532 45.7699 31.9448 45.514 31.9448C45.2593 31.9448 45.0676 31.7532 45.0676 31.437V28.1872C45.0676 27.9302 45.2593 27.6769 45.514 27.6769C45.7699 27.6769 45.9605 27.9314 45.9605 28.1872V31.437ZM46.6616 29.842C46.6616 28.504 46.2799 27.4852 45.5146 27.4852C44.7506 27.4852 44.3677 28.5046 44.3677 29.842C44.3677 31.1794 44.7494 32.1988 45.5146 32.1988C46.2799 32.2 46.6616 31.18 46.6616 29.842Z" fill="#0F5576"/>
<path fill-rule="evenodd" clip-rule="evenodd" d="M49.2755 27.6769H49.0208C48.8925 27.6769 48.8302 27.8039 48.8302 27.9314V31.1183C48.8302 31.6262 48.7661 32.2 48.0662 32.2C47.301 32.2 47.0463 31.6268 47.0463 31.1183V27.9314C47.0463 27.8045 46.9822 27.6769 46.8558 27.6769H46.5986V27.4852H48.0656V27.6122C48.0656 27.6775 48.0015 27.6775 48.0015 27.6775H47.7468C47.6198 27.6775 47.5563 27.8045 47.5563 27.932V31.1189C47.5563 31.4376 47.7468 31.9467 48.1297 31.9467C48.5762 31.9467 48.6391 31.4388 48.6391 31.1189V27.932C48.6391 27.8051 48.575 27.6775 48.4485 27.6775H48.2555C48.1914 27.6775 48.1914 27.6775 48.1914 27.6122V27.4852H49.2755V27.6769Z" fill="#0F5576"/>
<path d="M49.2755 27.6769H49.0208C48.8925 27.6769 48.8302 27.8039 48.8302 27.9314V31.1183C48.8302 31.6262 48.7661 32.2 48.0662 32.2C47.301 32.2 47.0463 31.6268 47.0463 31.1183V27.9314C47.0463 27.8045 46.9822 27.6769 46.8558 27.6769H46.5986V27.4852H48.0656V27.6122L48.0015 27.6775H47.7468C47.6198 27.6775 47.5563 27.8045 47.5563 27.932V31.1189C47.5563 31.4376 47.7468 31.9467 48.1297 31.9467C48.5762 31.9467 48.6391 31.4388 48.6391 31.1189V27.932C48.6391 27.8051 48.575 27.6775 48.4485 27.6775H48.2555L48.1914 27.6122V27.4852H49.2755V27.6769Z" fill="#0F5576"/>
<path fill-rule="evenodd" clip-rule="evenodd" d="M51.3143 28.8873C51.3143 29.6522 50.8678 29.715 50.8049 29.715H50.4861C50.3591 29.715 50.3591 29.6522 50.3591 29.5881V27.9314C50.3591 27.8045 50.4232 27.6769 50.6138 27.6769H50.742C50.8691 27.6769 51.3155 27.6769 51.3155 28.5046V28.8873H51.3143ZM52.1436 31.6268V31.1806H51.9519V31.6268C51.9519 31.7538 51.8878 31.7538 51.8248 31.7538C51.7607 31.7538 51.6966 31.7538 51.6966 31.5639V30.6721C51.6966 30.1618 51.379 29.9073 51.2508 29.7803C51.379 29.715 51.8884 29.3964 51.8884 28.634C51.8884 27.932 51.5054 27.4852 50.932 27.4852H49.4009V27.6769H49.6556C49.7826 27.6769 49.8461 27.8039 49.8461 27.9314V31.6915C49.8461 31.8832 49.782 32.0101 49.6556 32.0101H49.4009V32.2H50.8678V32.0101H50.6132C50.4226 32.0101 50.3585 31.8185 50.3585 31.6915V30.0349C50.3585 29.972 50.3585 29.9079 50.4855 29.9079H50.7402C50.9949 29.9079 51.1219 30.2265 51.1219 30.5464V31.5658C51.1219 32.012 51.3124 32.2659 51.6312 32.2659C52.0801 32.2641 52.1436 31.8185 52.1436 31.6268Z" fill="#0F5576"/>
<path d="M51.3144 28.8873C51.3144 29.6522 50.868 29.715 50.8051 29.715H50.4863C50.358 29.715 50.358 29.6522 50.358 29.5881V27.9314C50.358 27.8045 50.4221 27.6769 50.6127 27.6769H50.7409C50.868 27.6769 51.3144 27.6769 51.3144 28.5046V28.8873ZM52.1438 31.6268V31.1806H51.9532V31.6268C51.9532 31.7538 51.8891 31.7538 51.8262 31.7538C51.7621 31.7538 51.698 31.7538 51.698 31.5639V30.6721C51.698 30.1618 51.3804 29.9073 51.2515 29.7803C51.3798 29.715 51.8903 29.3964 51.8903 28.634C51.8903 27.932 51.5074 27.4852 50.9339 27.4852H49.4028V27.6769H49.6575C49.7845 27.6769 49.8481 27.8039 49.8481 27.9314V31.6915C49.8481 31.8832 49.7839 32.0101 49.6575 32.0101H49.4028V32.2H50.8698V32.0101H50.6151C50.4246 32.0101 50.3605 31.8185 50.3605 31.6915V30.0349C50.3605 29.972 50.3605 29.9079 50.4887 29.9079H50.7434C50.9981 29.9079 51.1251 30.2265 51.1251 30.5464V31.5658C51.1251 32.012 51.3156 32.2659 51.6344 32.2659C52.0803 32.2641 52.1438 31.8185 52.1438 31.6268Z" fill="#0F5576"/>
<path fill-rule="evenodd" clip-rule="evenodd" d="M54.8211 27.6769H54.5664C54.4381 27.6769 54.3758 27.8039 54.3758 27.9314V32.2006H54.1853V32.1377L52.8466 28.5046V31.7544C52.8466 31.8832 52.9107 32.0114 53.0371 32.0114H53.293V32.2012H52.209V32.0742C52.209 32.0114 52.209 32.0114 52.2731 32.0114H52.4637C52.5907 32.0114 52.6542 31.8844 52.6542 31.7544V27.9314C52.6542 27.8045 52.5901 27.6769 52.4637 27.6769H52.209V27.4852H53.1666L54.1865 30.5452V27.9314C54.1865 27.8045 54.1224 27.6769 53.996 27.6769H53.7413V27.4852H54.8241V27.6769H54.8211Z" fill="#0F5576"/>
<path d="M54.8211 27.6769H54.5664C54.4381 27.6769 54.3758 27.8039 54.3758 27.9314V32.2006H54.1853V32.1377L52.8466 28.5046V31.7544C52.8466 31.8832 52.9107 32.0114 53.0371 32.0114H53.293V32.2012H52.209V32.0742L52.2731 32.0114H52.4637C52.5907 32.0114 52.6542 31.8844 52.6542 31.7544V27.9314C52.6542 27.8045 52.5901 27.6769 52.4637 27.6769H52.209V27.4852H53.1666L54.1865 30.5452V27.9314C54.1865 27.8045 54.1224 27.6769 53.996 27.6769H53.7413V27.4852H54.8241V27.6769H54.8211Z" fill="#0F5576"/>
<path fill-rule="evenodd" clip-rule="evenodd" d="M56.2236 30.8614H55.4595L55.8412 28.8873L56.2236 30.8614ZM57.3082 32.2V32.073V32.0102C56.9894 32.0102 56.9894 31.8832 56.9253 31.6915L56.0971 27.4852V27.4224H55.9066V27.4852L55.0784 31.6915C55.0143 32.0102 54.8225 32.0102 54.632 32.0102C54.5679 32.0102 54.5679 32.0102 54.5679 32.073V32.2H55.6519V32.073V32.0102C55.3331 32.0102 55.269 31.9448 55.3331 31.6915L55.4614 31.053H56.2254L56.3536 31.6915C56.4178 31.9461 56.2895 32.0102 55.9719 32.0102V32.2H57.3082Z" fill="#0F5576"/>
<path d="M56.2237 30.8614H55.4597L55.8414 28.8873L56.2237 30.8614ZM57.3071 32.2V32.0102C56.9895 32.0102 56.9895 31.8832 56.9254 31.6915L56.0973 27.4852V27.4224H55.9067V27.4852L55.0773 31.6915C55.0132 32.0102 54.8227 32.0102 54.6315 32.0102L54.5674 32.073V32.2H55.6514V32.0102C55.3326 32.0102 55.2685 31.9448 55.3326 31.6915L55.4609 31.053H56.2249L56.3532 31.6915C56.4173 31.9461 56.289 32.0102 55.9702 32.0102V32.2H57.3071Z" fill="#0F5576"/>
<path fill-rule="evenodd" clip-rule="evenodd" d="M59.7296 32.2H57.3716V32.0101H57.6904C57.8186 32.0101 57.8821 31.8832 57.8821 31.7532V27.9302C57.8821 27.8033 57.818 27.6757 57.6904 27.6757H57.4357C57.4357 27.6757 57.3716 27.6757 57.3716 27.6104V27.4834H58.9015V27.6104C58.9015 27.6757 58.8373 27.6757 58.8373 27.6757H58.5827C58.4556 27.6757 58.3921 27.8026 58.3921 27.9302V31.7532C58.3921 32.0718 58.7109 32.0101 58.8385 32.0101C59.4761 32.0101 59.6026 30.6721 59.6026 30.099C59.6026 30.099 59.6026 30.0337 59.6667 30.0337H59.795V32.2H59.7296Z" fill="#0F5576"/>
<path d="M59.7296 32.2H57.3716V32.0101H57.6904C57.8186 32.0101 57.8821 31.8832 57.8821 31.7532V27.9302C57.8821 27.8033 57.818 27.6757 57.6904 27.6757H57.4357L57.3716 27.6104V27.4834H58.9015V27.6104L58.8373 27.6757H58.5827C58.4556 27.6757 58.3921 27.8026 58.3921 27.9302V31.7532C58.3921 32.0718 58.7109 32.0101 58.8385 32.0101C59.4761 32.0101 59.6026 30.6721 59.6026 30.099L59.6667 30.0337H59.795V32.2H59.7296Z" fill="#0F5576"/>
<path fill-rule="evenodd" clip-rule="evenodd" d="M60.1759 32.2C60.1118 32.2 59.9854 32.073 59.9854 31.9455C59.9854 31.7538 60.1124 31.6909 60.1759 31.6909C60.3041 31.6909 60.4306 31.7538 60.4306 31.9455C60.4214 32.0816 60.3127 32.1902 60.1759 32.2Z" fill="#0F5576"/>
<path fill-rule="evenodd" clip-rule="evenodd" d="M70.9504 28.377H70.885C70.758 28.0584 70.6932 27.8039 70.0569 27.8039H69.0345V29.715H69.9268C70.1839 29.715 70.6291 29.6522 70.6291 29.1419H70.7562V30.4799H70.6291C70.6291 30.2882 70.4373 29.972 69.9903 29.972H69.0327V31.5652C69.0327 31.8838 69.1615 32.2012 69.6715 32.2012V32.2665H67.3135V32.2012C67.887 32.2012 67.8869 31.8197 67.8869 31.5652V28.2513C67.8869 27.9967 67.887 27.6128 67.3135 27.6128V27.5499H70.8838L70.9504 28.377ZM71.205 27.5499H73.436V27.6128C72.8626 27.6128 72.8626 27.9314 72.8626 28.2513V31.5652C72.8626 31.755 72.8625 32.2012 73.3707 32.2012H73.436V32.2665H71.205V32.2012C71.7785 32.2012 71.8414 31.8197 71.8414 31.5652V28.2513C71.8414 27.8051 71.6515 27.6128 71.205 27.6128V27.5499ZM78.0256 30.6068V28.377C78.0256 27.8039 77.7685 27.6769 77.3868 27.6122V27.5493H78.9155V27.6122C78.342 27.6775 78.342 28.0584 78.342 28.377V32.3288H78.215L74.9635 28.634V31.3082C74.9635 31.6921 75.0288 32.1383 75.6023 32.2V32.2653H74.0083V32.2C74.263 32.1371 74.6447 32.0101 74.6447 31.4998V28.3154H74.5817C74.5817 28.2501 74.4547 28.1237 74.39 28.0584C74.0712 27.7422 73.8819 27.6122 73.6895 27.6122V27.5493H75.2835L78.0256 30.6068ZM87.9066 30.6068V28.377C87.9066 27.8039 87.6495 27.6769 87.2678 27.6122V27.5493H88.7964V27.6122C88.223 27.6775 88.223 28.0584 88.223 28.377V32.3288H88.0959L84.8444 28.634V31.3082C84.8444 31.6921 84.9098 32.1383 85.4832 32.2V32.2653H83.8257V32.2C84.1445 32.1371 84.5262 32.0101 84.5262 31.4998V28.3154H84.4633C84.4633 28.2501 84.2716 28.1237 84.2716 28.0584C83.8899 27.7422 83.6981 27.6122 83.5711 27.6122V27.5493H85.1651L87.9066 30.6068ZM82.9976 31.5639C83.1894 32.0718 83.444 32.1371 83.6981 32.2V32.2653H81.5318V32.2C81.5947 32.2 81.9783 32.1371 81.9783 31.8838C81.9783 31.8185 81.9129 31.5652 81.8512 31.4998L81.4671 30.4805H80.0655L79.7467 31.4376C79.7467 31.5645 79.6813 31.6274 79.6813 31.7538C79.6813 32.1377 80.0001 32.1377 80.1278 32.2V32.2653H78.7262V32.2C78.9808 32.1371 79.2343 32.0101 79.4914 31.3082L80.8301 27.4852H81.4036L82.9976 31.5639ZM81.3401 30.1618L80.7666 28.5687L80.1931 30.1618H81.3401Z" fill="#0F5576"/>
<path fill-rule="evenodd" clip-rule="evenodd" d="M93.1326 29.1419C93.0056 28.2501 92.3674 27.741 91.604 27.741C91.0934 27.741 90.6464 28.0572 90.5199 28.3142C90.2011 28.7604 90.1358 29.3335 90.1358 29.842C90.1358 31.4986 91.2198 31.8826 91.7933 31.8826C92.6239 31.8826 93.0697 31.3723 93.3244 30.9908V31.437C93.0056 31.8832 92.4321 32.3288 91.4122 32.3288C89.8182 32.3288 89.0542 31.18 89.0542 29.972C89.0542 29.1419 89.373 28.5046 89.8194 28.1231C90.3929 27.6128 90.9664 27.4846 91.5399 27.4846C91.9216 27.4846 92.2404 27.5499 92.6239 27.6763H92.8786C93.0704 27.6763 93.1333 27.5493 93.1974 27.4846H93.2603V29.1413L93.1326 29.1419Z" fill="#0F5576"/>
<path d="M93.1326 29.1419C93.0056 28.2501 92.3674 27.741 91.604 27.741C91.0934 27.741 90.6464 28.0572 90.5199 28.3142C90.2011 28.7604 90.1358 29.3335 90.1358 29.842C90.1358 31.4986 91.2198 31.8826 91.7933 31.8826C92.6239 31.8826 93.0697 31.3723 93.3244 30.9908V31.437C93.0056 31.8832 92.4321 32.3288 91.4122 32.3288C89.8182 32.3288 89.0542 31.18 89.0542 29.972C89.0542 29.1419 89.373 28.5046 89.8194 28.1231C90.3929 27.6128 90.9664 27.4846 91.5399 27.4846C91.9216 27.4846 92.2404 27.5499 92.6239 27.6763H92.8786C93.0704 27.6763 93.1333 27.5493 93.1974 27.4846H93.2603V29.1413L93.1326 29.1419Z" fill="#0F5576"/>
<path fill-rule="evenodd" clip-rule="evenodd" d="M93.7061 27.5499H96.0024V27.6128C95.4289 27.6128 95.4289 27.9967 95.4289 28.2513V31.5652C95.4289 31.8197 95.4289 32.2012 96.0024 32.2012V32.2665H93.7061V32.2012C94.2795 32.2012 94.2795 31.885 94.2795 31.5652V28.2513C94.2795 27.8051 94.0896 27.6128 93.7061 27.6128V27.5499ZM100.528 31.5639C100.72 32.0718 100.974 32.1371 101.293 32.2V32.2653H98.9968V32.2C99.1257 32.2 99.4432 32.1371 99.4432 31.8838C99.4432 31.8185 99.3803 31.5652 99.3803 31.4998L98.9962 30.4805H97.5304L97.2141 31.4376C97.1487 31.5645 97.1487 31.6274 97.1487 31.7538C97.1487 32.1377 97.4034 32.1377 97.5952 32.2V32.2653H96.1294V32.2C96.3841 32.1371 96.6376 32.0101 96.8947 31.3082L98.2963 27.4852H98.9351L100.528 31.5639ZM98.8685 30.1618L98.2322 28.5687L97.6562 30.1618H98.8685ZM101.355 32.2635V32.1981C101.931 32.1981 101.994 31.8166 101.994 31.5621V28.2482C101.994 27.802 101.802 27.6098 101.355 27.6098V27.5469H103.651V27.6098C103.078 27.6098 103.012 27.9284 103.012 28.2482V31.4357C103.012 31.7519 103.139 32.0089 103.586 32.0089H103.905C104.223 32.0089 104.735 32.0089 105.117 31.0518H105.182L105.053 32.2635H101.355ZM110.791 27.5499C110.981 27.5499 111.046 27.4846 111.173 27.4846H111.238L111.301 28.5681H111.174C111.047 27.8032 110.728 27.8032 110.535 27.8032H109.643V31.5633C109.643 31.882 109.708 32.1994 110.216 32.1994V32.2647H107.987V32.1994C108.561 32.1994 108.561 31.8179 108.561 31.5633V27.8032H107.669C107.411 27.8032 107.222 27.8686 107.03 28.5681H106.903L106.966 27.4846H107.031C107.096 27.4846 107.223 27.5499 107.413 27.5499H110.791ZM111.428 27.5499H113.724V27.6128C113.15 27.6128 113.15 27.9314 113.15 28.2513V31.5652C113.15 31.755 113.15 32.2012 113.724 32.2012V32.2665H111.428V32.2012C112.001 32.2012 112.001 31.8197 112.001 31.5652V28.2513C112.001 27.8051 111.811 27.6128 111.428 27.6128V27.5499ZM120.289 27.6116C119.97 27.6116 119.65 27.6769 119.65 28.1872L119.969 31.3717C120.034 32.0718 120.16 32.0718 120.542 32.1994V32.2647H118.313V32.1994C118.568 32.1994 118.886 32.0724 118.886 31.4992L118.629 28.4411L116.974 32.2641H116.908L115.251 28.5693L114.996 31.2459C114.931 32.0736 115.315 32.1377 115.635 32.2006V32.2659H113.977V32.2006C114.424 32.1377 114.616 31.8844 114.678 31.1812L114.997 28.1884C114.87 27.9967 114.678 27.6781 114.169 27.6128V27.5499H115.953L117.355 30.6715L118.693 27.5499H120.287V27.6116H120.289ZM124.305 28.5687H124.239C124.112 28.0584 123.985 27.8039 123.411 27.8039H122.454V29.7791H123.219C123.729 29.7791 123.921 29.5875 123.921 29.206H124.048V30.544H123.921C123.856 30.0978 123.475 30.0337 123.219 30.0337H122.454V31.437C122.454 31.6915 122.519 32.0101 123.092 32.0101H123.347C123.986 32.0101 124.239 31.8185 124.431 31.1183H124.497L124.431 32.2647H120.734V32.1994C121.308 32.1994 121.373 31.8179 121.373 31.5633V28.2495C121.373 27.9949 121.373 27.611 120.8 27.611H120.734V27.5481H124.305V28.5687Z" fill="#0F5576"/>
<path fill-rule="evenodd" clip-rule="evenodd" d="M127.682 28.6957C127.491 28.1225 127.109 27.741 126.535 27.741C126.151 27.741 125.77 27.9955 125.77 28.377C125.77 28.5687 125.836 28.761 126.471 29.2072C126.536 29.2072 126.79 29.397 126.855 29.4617C127.683 29.972 128.129 30.2894 128.129 30.992C128.129 31.755 127.428 32.33 126.471 32.33C126.153 32.33 125.898 32.2647 125.643 32.2012C125.578 32.2012 125.451 32.1383 125.389 32.1383C125.323 32.1383 125.197 32.1383 125.131 32.33H125.004L125.07 30.992H125.197C125.324 31.8197 125.962 32.0736 126.409 32.0736C126.917 32.0736 127.301 31.755 127.301 31.3735C127.301 30.992 127.044 30.8632 126.089 30.29C125.258 29.7822 125.069 29.3982 125.069 28.952C125.069 28.2519 125.643 27.4871 126.535 27.4871H126.917C126.982 27.5524 127.171 27.5524 127.235 27.5524C127.301 27.6152 127.427 27.6152 127.427 27.6152C127.617 27.6152 127.617 27.5524 127.682 27.4883H127.809V28.6999H127.684L127.682 28.6957Z" fill="#0F5576"/>
<path d="M127.682 28.6957C127.491 28.1225 127.109 27.741 126.535 27.741C126.151 27.741 125.77 27.9955 125.77 28.377C125.77 28.5687 125.836 28.761 126.471 29.2072C126.536 29.2072 126.79 29.397 126.855 29.4617C127.683 29.972 128.129 30.2894 128.129 30.992C128.129 31.755 127.428 32.33 126.471 32.33C126.153 32.33 125.898 32.2647 125.643 32.2012C125.643 32.2012 125.451 32.1383 125.389 32.1383C125.389 32.1383 125.197 32.1383 125.131 32.33H125.004L125.07 30.992H125.197C125.324 31.8197 125.962 32.0736 126.409 32.0736C126.917 32.0736 127.301 31.755 127.301 31.3735C127.301 30.992 127.044 30.8632 126.089 30.29C125.258 29.7822 125.069 29.3982 125.069 28.952C125.069 28.2519 125.643 27.4871 126.535 27.4871H126.917L127.235 27.5524C127.301 27.6152 127.427 27.6152 127.427 27.6152C127.617 27.6152 127.617 27.5524 127.682 27.4883H127.809V28.6999H127.684L127.682 28.6957Z" fill="#0F5576"/>
<path fill-rule="evenodd" clip-rule="evenodd" d="M62.8538 29.7803C63.1726 30.7349 63.4914 31.2452 63.6832 31.5639C63.4926 31.7537 63.3003 31.8184 63.2368 31.8184C62.918 31.8184 62.5992 31.3722 62.5992 30.799C62.5992 30.6068 62.5992 30.1618 62.8538 29.7803ZM64.8301 31.2452C64.766 31.4998 64.6396 31.7531 64.5113 31.7531C64.3831 31.7531 64.2554 31.4986 64.1284 31.3716C64.319 30.9254 64.3831 30.5439 64.4472 30.2253C64.5755 29.9707 64.6378 29.9707 64.8301 29.9066V29.6521H63.9379V29.9066H64.002C64.1302 29.9066 64.2567 29.9719 64.2567 30.2253C64.2567 30.5439 64.1296 30.9254 64.002 31.1171C63.6832 30.7331 63.3644 30.0336 63.238 29.5239C63.6209 29.2053 63.9397 28.9483 63.9397 28.3123C63.9397 27.9283 63.8127 27.4821 63.4304 27.4821C63.0486 27.4821 62.6663 27.9924 62.6663 28.8201C62.6663 29.0118 62.7305 29.2041 62.7934 29.5221C62.4746 29.7766 62.1558 30.2851 62.1558 30.987C62.1558 31.6872 62.4746 32.2603 63.048 32.2603C63.3668 32.2603 63.6215 32.1334 63.8762 31.8141C64.0032 32.0687 64.2579 32.2603 64.4497 32.2603C64.7043 32.2603 64.8961 31.75 64.9602 31.3685L64.8301 31.2452ZM63.1085 29.2071C63.0444 28.9501 62.9802 28.6968 62.9802 28.5051C62.9802 27.9973 63.2349 27.805 63.3632 27.805C63.4902 27.805 63.682 27.932 63.682 28.2512C63.6869 28.6523 63.4652 29.0222 63.1085 29.2071Z" fill="#0F5576"/>
</svg>
