<svg width="236" height="18" viewBox="0 0 236 18" fill="none" xmlns="http://www.w3.org/2000/svg">
<path d="M55.1223 0.708416C57.7455 0.708416 60.2968 0.672484 62.8481 0.749482C63.2279 0.759748 63.7002 1.23714 63.9518 1.61699C65.8614 4.55318 67.7197 7.51503 69.6036 10.4666C69.8038 10.7849 70.0297 11.0877 70.3274 11.5292C72.0163 8.8856 73.8438 6.44733 75.2041 3.77293C76.5029 1.2166 78.2021 0.164297 81.0357 0.610886C82.4474 0.831613 83.9207 0.651951 85.4658 0.651951C85.4658 6.21634 85.4658 11.6575 85.4658 17.2322C83.5716 17.2322 81.6466 17.2322 79.5419 17.2322C79.5419 13.9777 79.5419 10.7284 79.5419 7.47397C79.4392 7.44317 79.3365 7.41237 79.2339 7.38157C78.3817 8.67514 77.5244 9.96357 76.6774 11.2623C75.5122 13.0486 74.3879 14.8658 73.1611 16.6111C72.8993 16.9858 72.3038 17.3092 71.8418 17.3297C68.002 17.494 67.9969 17.4734 65.8819 14.2652C64.424 12.0528 62.9764 9.84037 61.5237 7.62796C61.4826 7.56637 61.4005 7.5253 61.1438 7.31997C61.1438 10.7079 61.1438 13.9521 61.1438 17.2732C59.0134 17.2732 57.073 17.2732 55.1172 17.2732C55.1223 11.7397 55.1223 6.2882 55.1223 0.708416Z" fill="#0F5576"/>
<path d="M37.679 0C41.1235 0.0615984 44.5064 0.200195 47.648 1.64776C51.0258 3.20311 52.5042 5.81078 52.2938 9.57341C52.0987 13.105 50.2763 15.5125 46.8421 16.7034C42.761 18.1202 38.5414 18.1458 34.3012 17.8481C31.6421 17.6633 29.0344 17.2475 26.6833 15.8667C23.7624 14.1522 22.7973 11.447 22.9975 8.23878C23.1977 5.03567 24.8609 2.81812 27.8023 1.56049C30.9799 0.210461 34.3525 0.0564652 37.679 0ZM37.4172 14.183C39.4449 13.7826 41.1902 13.5927 42.8329 13.0743C44.6758 12.4942 45.6255 11.0774 45.6255 9.08576C45.6255 7.00168 44.8606 5.66192 42.874 4.94327C39.3422 3.67024 35.7437 3.74723 32.2325 5.00487C30.636 5.57978 29.7684 6.92468 29.6709 8.66483C29.5734 10.4204 30.0764 12.0476 31.7551 12.7047C33.6185 13.4387 35.6513 13.7416 37.4172 14.183Z" fill="#0F5576"/>
<path d="M222.62 0.759681C222.62 6.30867 222.62 11.7293 222.62 17.2526C220.618 17.2526 218.641 17.2526 216.547 17.2526C216.547 15.4252 216.547 13.644 216.547 11.6985C214.211 11.7704 211.947 11.0466 209.997 13.0126C208.621 14.3986 206.973 15.5228 205.387 16.6777C204.879 17.0473 204.175 17.2988 203.549 17.3245C201.465 17.4015 199.381 17.3553 197.173 17.0832C199.596 15.1891 202.014 13.3001 204.555 11.3135C203.498 11.0363 202.563 10.8361 201.66 10.5384C199.237 9.74277 198.108 8.15662 198.2 5.77995C198.292 3.43408 199.571 1.83252 202.024 1.3038C203.518 0.980409 205.063 0.800747 206.593 0.780214C211.891 0.723749 217.194 0.759681 222.62 0.759681ZM216.49 4.40938C213.734 4.40938 211.095 4.39912 208.457 4.41965C207.738 4.42478 207.009 4.48125 206.301 4.60445C205.418 4.75844 204.648 5.32823 204.843 6.2214C204.971 6.81172 205.726 7.31991 206.285 7.74596C206.552 7.95129 207.019 7.93589 207.399 7.94102C210.412 7.95642 213.431 7.95129 216.49 7.95129C216.49 6.71932 216.49 5.66188 216.49 4.40938Z" fill="#0F5576"/>
<path d="M170.023 0.785388C172.148 0.785388 174.176 0.785388 176.27 0.785388C176.27 4.31703 176.27 7.76653 176.27 11.4932C176.722 11.1852 177.02 11.0107 177.287 10.7951C181.008 7.72034 184.704 4.60962 188.462 1.58617C189.063 1.10365 189.951 0.811054 190.736 0.744322C192.256 0.615992 193.791 0.70839 195.413 0.70839C195.413 6.28304 195.413 11.7345 195.413 17.2732C193.37 17.2732 191.347 17.2732 189.196 17.2732C189.196 13.7672 189.196 10.3177 189.196 6.50377C188.58 6.98116 188.195 7.25835 187.836 7.56121C184.15 10.6103 180.48 13.68 176.763 16.6932C176.311 17.0576 175.639 17.2989 175.054 17.3297C173.401 17.4169 171.743 17.3605 170.023 17.3605C170.023 11.7704 170.023 6.34977 170.023 0.785388Z" fill="#0F5576"/>
<path d="M150.039 0.739136C150.039 2.80268 150.039 4.7533 150.039 6.78091C153.576 6.78091 157.015 6.78091 160.593 6.78091C160.593 4.75843 160.593 2.80781 160.593 0.785334C162.718 0.785334 164.71 0.785334 166.799 0.785334C166.799 6.26246 166.799 11.7088 166.799 17.2578C164.761 17.2578 162.739 17.2578 160.598 17.2578C160.598 15.0916 160.598 12.9664 160.598 10.7386C157.056 10.7386 153.622 10.7386 150.028 10.7386C150.028 12.8843 150.028 15.0351 150.028 17.2732C147.836 17.2732 145.809 17.2732 143.714 17.2732C143.714 11.7447 143.714 6.28812 143.714 0.744269C145.778 0.739136 147.811 0.739136 150.039 0.739136Z" fill="#0F5576"/>
<path d="M89.6494 0.769897C97.37 0.769897 105.003 0.769897 112.714 0.769897C112.714 6.27782 112.714 11.7293 112.714 17.268C110.66 17.268 108.638 17.268 106.482 17.268C106.482 13.0177 106.482 8.84441 106.482 4.5736C102.919 4.5736 99.485 4.5736 95.9122 4.5736C95.9122 8.73662 95.9122 12.8996 95.9122 17.1807C93.7613 17.1807 91.7438 17.1807 89.6494 17.1807C89.6494 11.7293 89.6494 6.27782 89.6494 0.769897Z" fill="#0F5576"/>
<path d="M12.8232 8.30551C16.74 11.3238 20.4822 14.2087 24.5068 17.3091C21.5346 17.3091 18.9011 17.3297 16.2729 17.2835C15.9494 17.2783 15.6209 16.919 15.318 16.688C12.3766 14.4397 9.44544 12.1862 6.3038 9.78387C6.3038 12.3659 6.3038 14.722 6.3038 17.1911C4.13751 17.1911 2.11496 17.1911 0 17.1911C0 11.7653 0 6.36003 0 0.831578C2.02256 0.831578 4.04511 0.831578 6.22167 0.831578C6.22167 2.86946 6.22167 4.94327 6.22167 7.29427C7.39722 6.51916 8.34176 5.89804 9.28117 5.26666C11.3397 3.89096 13.393 2.505 15.4566 1.13444C15.7646 0.929109 16.1343 0.677583 16.4731 0.672449C18.9781 0.631384 21.4884 0.651917 24.1013 0.944509C20.3847 3.37764 16.6681 5.80051 12.8232 8.30551Z" fill="#0F5576"/>
<path d="M142.087 17.3502C140.111 17.3502 138.237 17.4426 136.379 17.2834C135.901 17.2424 135.342 16.4673 135.09 15.9026C134.536 14.686 133.735 14.2959 132.4 14.3421C129.454 14.4499 126.497 14.414 123.55 14.3524C122.616 14.3319 121.969 14.5526 121.651 15.4509C121.081 17.073 119.962 17.5812 118.289 17.381C117.031 17.2321 115.743 17.3502 114.285 17.3502C114.48 16.9138 114.572 16.6161 114.731 16.3543C117.683 11.4521 120.66 6.56533 123.586 1.64772C124.018 0.923944 124.485 0.651885 125.316 0.677551C127.323 0.734016 129.336 0.662151 131.343 0.723749C131.774 0.739149 132.39 0.96501 132.595 1.29867C135.768 6.4678 138.884 11.6677 142.01 16.8625C142.056 16.9344 142.041 17.037 142.087 17.3502ZM131.979 10.636C130.686 8.42868 129.5 6.41133 128.222 4.23486C126.913 6.47806 125.742 8.48001 124.485 10.636C127.036 10.636 129.356 10.636 131.979 10.636Z" fill="#0F5576"/>
<path d="M231.726 7.43282C228.944 7.38149 227.661 6.11872 227.789 3.56753C227.881 1.76064 228.77 0.780201 230.587 0.472209C230.92 0.415744 231.264 0.364412 231.603 0.343879C234.36 0.189883 235.895 1.42698 235.956 3.82932C236.013 6.23165 234.545 7.48415 231.726 7.43282ZM232.014 0.944463C230.114 0.882864 229.031 1.40132 228.6 2.60762C227.948 4.41964 228.687 6.68851 231.223 6.80657C234.021 6.9349 235.34 6.04686 235.274 3.70612C235.222 1.86844 234.216 1.01633 232.014 0.944463Z" fill="#0F5576"/>
<path d="M233.872 3.72156C233.333 3.47004 233.097 3.28011 232.845 3.25957C232.193 3.20311 231.536 3.22364 230.884 3.21338C230.884 3.6497 230.818 4.45561 230.89 4.46588C231.521 4.57881 232.178 4.57367 232.825 4.54287C233.117 4.52747 233.405 4.37348 233.898 4.21435C233.431 5.77997 232.368 5.69784 231.377 5.62598C230.397 5.55411 229.827 5.01513 229.806 3.96796C229.781 2.78732 230.422 2.2278 231.511 2.1662C232.46 2.10974 233.487 2.05841 233.872 3.72156Z" fill="#0F5576"/>
</svg>
