<svg width="155" height="27" viewBox="0 0 155 27" fill="none" xmlns="http://www.w3.org/2000/svg">
<path fill-rule="evenodd" clip-rule="evenodd" d="M2.75052 0.207102C1.75435 0.523618 0.918998 1.26756 0.41905 2.28329L0 3.13487L0.0035594 13.5466C0.0069571 23.2914 0.0260488 24.001 0.303852 24.6202C0.677922 25.4536 1.88848 26.5447 2.7193 26.7967C3.69298 27.0921 23.1594 27.0546 23.9865 26.7556C24.9175 26.4192 25.6053 25.805 26.1342 24.8383L26.6153 23.9585V13.5555V3.1524L26.2109 2.33326C25.9869 1.87995 25.7107 1.53427 25.5921 1.55917C25.4742 1.58391 25.4174 1.53935 25.4658 1.46006C25.5774 1.27723 25.0024 0.741509 24.2693 0.345537C23.7357 0.0573638 23.1183 0.0378663 13.5908 0.00772199C5.26725 -0.0186543 3.34981 0.0165704 2.75052 0.207102ZM96.2683 2.98857V4.21728H97.3199H98.3716V2.98857V1.75986H97.3199H96.2683V2.98857ZM1.29436 2.14944C1.29436 2.18336 1.19162 2.29754 1.06607 2.40305C0.891331 2.55 0.809624 2.5487 0.717563 2.39781C0.643946 2.2774 0.665465 2.24348 0.772735 2.31065C0.869327 2.3711 0.994071 2.34555 1.05005 2.25397C1.15004 2.09014 1.29436 2.02838 1.29436 2.14944ZM88.5021 5.03642V6.51087H87.626H86.75L86.6956 7.57608L86.6414 8.64129L87.5595 8.64096L88.4775 8.64063L88.5302 12.7773C88.5799 16.6764 88.6042 16.9605 88.9519 17.7241C89.7987 19.5837 90.9682 20.4226 92.911 20.5644L94.0031 20.6441V19.5783V18.5126L93.2346 18.4087C92.2633 18.2776 91.5121 17.8178 91.1392 17.1259C90.8863 16.6571 90.8415 16.0658 90.7973 12.6135L90.7463 8.64063H92.3748H94.0031V7.57575V6.51087H92.3852H90.7672V5.03642V3.56197H89.6347H88.5021V5.03642ZM20.0626 5.11506V6.34704H14.5211H8.97964V9.13621V11.9252L14.5616 11.8803L20.1435 11.8353L20.0626 13.0301L19.9817 14.225L14.514 14.2588L9.04614 14.2927L9.01297 17.4505L8.97964 20.6081L14.5616 20.5632L20.1435 20.5182L20.0908 21.7878L20.038 23.0575H13.2575H6.47699L6.43396 13.4801L6.39092 3.90289L13.2268 3.89307L20.0626 3.88324V5.11506ZM46.4087 6.4881C45.1728 6.90111 44.541 7.32018 43.5416 8.3903C39.4829 12.7355 41.8393 19.8717 47.6342 20.7852C49.7322 21.116 52.2107 20.3442 53.5551 18.9413C54.1102 18.3622 55.1722 16.6033 55.1722 16.2634C55.1722 16.2157 54.6281 16.1767 53.963 16.1767C52.7922 16.1767 52.7459 16.1918 52.511 16.6518C52.1234 17.4108 50.9774 18.2939 50.0108 18.5784C48.3267 19.074 46.3788 18.5563 45.1912 17.2971C44.6136 16.6847 43.8506 15.142 43.8482 14.5815L43.8466 14.2149L49.6307 14.172L55.4149 14.1289L55.3635 13.1654C55.214 10.3708 53.6229 7.95862 51.1592 6.79118C49.7696 6.13276 47.8408 6.00972 46.4087 6.4881ZM62.3721 6.40389C59.6878 7.30331 57.8309 9.54677 57.3914 12.4216C57.1722 13.8563 57.4066 15.4554 58.0344 16.8053C58.6021 18.0263 60.1539 19.5906 61.3748 20.1728C63.0704 20.9813 65.5386 20.9937 67.2456 20.2025C68.3576 19.6871 69.7877 18.2469 70.302 17.1246L70.6988 16.2586L69.5324 16.2098C68.4152 16.163 68.3524 16.1802 68.044 16.6194C66.5052 18.8107 63.6309 19.3217 61.6123 17.7627C59.7307 16.3094 59.0459 13.5492 60.0164 11.3279C60.4089 10.4293 61.5358 9.1947 62.3451 8.77661C63.9315 7.95714 65.9831 8.29414 67.293 9.58936C67.7219 10.0137 68.102 10.4563 68.1374 10.5731C68.1845 10.7288 68.5333 10.7725 69.4402 10.737L70.6787 10.6885L70.2467 9.79824C69.6335 8.53448 68.4941 7.41553 67.1896 6.7961C66.2363 6.34328 65.8933 6.26972 64.5564 6.23122C63.5992 6.20369 62.7752 6.2689 62.3721 6.40389ZM118.501 6.47139C115.914 7.41029 114.124 9.62 113.699 12.4008C113.337 14.7737 114.065 17.0191 115.753 18.7278C117.436 20.4318 119.61 21.1573 121.893 20.7768C124.396 20.3599 126.15 19.0026 127.072 16.7701L127.316 16.1767H126.126H124.936L124.358 16.9913C123.499 18.2023 122.447 18.7088 120.78 18.7129C119.758 18.7154 119.33 18.6381 118.742 18.3447C117.378 17.6643 116.357 16.3617 116.029 14.8826L115.881 14.2149L121.723 14.1718L127.565 14.1289L127.517 13.3335C127.344 10.4978 125.778 8.02333 123.409 6.84492C122.464 6.3749 122.113 6.29265 120.82 6.23695C119.659 6.18715 119.14 6.23957 118.501 6.47139ZM139.467 6.33623C138.742 6.55953 137.942 7.02824 137.405 7.5443L136.879 8.04954V7.28021V6.51087H135.827H134.776V13.5555V20.6001H135.908H137.041L137.042 16.1358C137.042 13.4695 137.112 11.417 137.216 11.0399C137.596 9.65194 139.235 8.47681 140.791 8.47681H141.409V7.33001V6.18322L140.641 6.19731C140.218 6.20501 139.69 6.26759 139.467 6.33623ZM29.2225 6.71566C29.2877 6.82837 30.3114 8.33903 31.4972 10.0728C32.6832 11.8066 33.6534 13.2573 33.6534 13.2965C33.6534 13.3358 32.5613 14.9611 31.2265 16.9085C29.8917 18.856 28.7996 20.4833 28.7996 20.5247C28.7996 20.5662 29.4034 20.6001 30.1412 20.6001H31.4828L33.232 17.8969C34.1938 16.4102 35.0281 15.1942 35.0857 15.1947C35.1434 15.1954 35.9741 16.4118 36.9319 17.8979L38.6731 20.6001H40.0465C40.8017 20.6001 41.4195 20.5816 41.4193 20.5591C41.4191 20.5367 40.2998 18.8963 38.9319 16.9139L36.4447 13.3097L37.5974 11.6251C38.2313 10.6985 39.2768 9.16882 39.9207 8.22566L41.0917 6.51087H39.7107H38.33L36.7602 8.96256C35.8969 10.311 35.1473 11.4169 35.0944 11.42C35.0415 11.4231 34.2887 10.3199 33.4214 8.96829L31.8446 6.51087H30.4743C29.4228 6.51087 29.1316 6.55855 29.2225 6.71566ZM72.971 10.8933C72.9717 13.3035 73.0474 15.7447 73.1391 16.3179C73.4482 18.246 74.5129 19.7244 76.1247 20.4633C76.763 20.7559 77.224 20.8337 78.309 20.8324C79.8792 20.8306 81.0186 20.4299 81.7989 19.6051C82.0484 19.3414 82.2935 19.1255 82.3437 19.1255C82.3938 19.1253 82.4348 19.4385 82.4348 19.8217V20.5182L83.5269 20.5667L84.619 20.615V13.563V6.51087H83.4864H82.3539L82.3529 11.0571C82.3524 13.7816 82.2827 15.8564 82.179 16.2349C82.0837 16.5822 81.7157 17.1849 81.3612 17.5743C79.9496 19.125 77.5061 19.189 76.1443 17.711C75.3413 16.8394 75.2349 16.0622 75.2349 11.0682V6.51087H74.1023H72.9697L72.971 10.8933ZM96.2683 13.5555V20.6001H97.4008H98.5334V13.5555V6.51087H97.4008H96.2683V13.5555ZM101.268 7.78054C101.522 8.47877 102.66 11.6518 103.799 14.8315L105.869 20.6129L107.085 20.5655L108.301 20.5182L110.775 13.6374C112.135 9.85296 113.25 6.7014 113.252 6.63374C113.255 6.56608 112.727 6.51087 112.08 6.51087H110.904L109.047 11.9966C108.025 15.0139 107.145 17.4836 107.091 17.4849C107.036 17.4862 106.205 15.1836 105.242 12.3677C104.28 9.55201 103.435 7.0823 103.363 6.87948C103.244 6.54167 103.132 6.51087 102.02 6.51087H100.807L101.268 7.78054ZM143.514 10.8933C143.514 13.3035 143.59 15.7447 143.682 16.3179C143.991 18.246 145.056 19.7244 146.668 20.4633C147.306 20.7559 147.767 20.8337 148.852 20.8324C150.422 20.8306 151.561 20.4299 152.342 19.6051C152.591 19.3414 152.843 19.1256 152.9 19.1256C152.958 19.1256 152.999 19.439 152.991 19.8219L152.978 20.5182L153.989 20.567L155 20.6156V13.5633V6.51087H153.948H152.897L152.896 11.0571C152.895 13.8751 152.827 15.8525 152.716 16.2586C152.478 17.1281 151.247 18.374 150.389 18.6148C148.613 19.1125 147.061 18.5467 146.244 17.1042C145.865 16.4334 145.858 16.3428 145.807 11.4667L145.756 6.51087H144.634H143.513L143.514 10.8933ZM50.2981 8.67029C51.5149 9.26678 52.8875 10.9559 52.9035 11.8762C52.9063 12.0351 51.9112 12.081 48.4577 12.081C45.5071 12.081 44.0084 12.024 44.0084 11.9119C44.0084 11.1708 45.4 9.34575 46.346 8.84624C47.7921 8.0828 48.9905 8.02939 50.2981 8.67029ZM122.254 8.57658C123.376 9.05135 124.592 10.4519 124.977 11.7124L125.09 12.081H120.629C115.702 12.081 115.888 12.1266 116.436 11.0489C117.123 9.69815 118.369 8.64522 119.655 8.32772C120.413 8.1408 121.461 8.24106 122.254 8.57658ZM129.543 19.1666L129.569 20.5182L130.878 20.5657L132.187 20.6133V19.2141V17.815H130.852L129.517 17.8148L129.543 19.1666ZM1.33983 25.474C1.2434 25.7346 1.26233 25.7384 1.54725 25.5149C1.83897 25.2862 1.84479 25.2895 1.63284 25.5627C1.39209 25.8734 1.00394 25.6943 1.20473 25.3653C1.3738 25.0883 1.45761 25.1556 1.33983 25.474Z" fill="#0F5576"/>
</svg>
