<svg width="142" height="51" viewBox="0 0 142 51" fill="none" xmlns="http://www.w3.org/2000/svg">
<path d="M15.3146 46.7625H9.52983L5.98689 41.0679L4.83575 42.2289V46.7625H0V32.4355H4.83575V37.0595L8.9821 32.4355H14.6537L9.33598 37.7791L15.3146 46.7625ZM21.7894 41.4474C21.7894 40.7923 21.6308 40.1982 21.3133 39.6721C20.9959 39.146 20.5059 38.8812 19.8366 38.8812C19.2396 38.8812 18.7877 39.146 18.4841 39.6755C18.1804 40.2084 18.0287 40.7991 18.0287 41.4474C18.0287 42.1432 18.1908 42.8017 18.5152 43.4162C18.836 44.0339 19.3328 44.3427 19.9987 44.3427C20.6406 44.3427 21.0994 44.044 21.3754 43.4433C21.6515 42.8425 21.7894 42.1772 21.7894 41.4474ZM25.1433 44.6753C24.0007 46.3178 22.0422 47.0864 20.0166 47.0864C17.9291 47.0864 15.9171 46.3243 14.7503 44.6165C13.6802 43.0498 13.5433 40.4952 14.4447 38.8236C15.1383 37.5371 16.4094 36.6072 17.8669 36.2294C19.4723 35.7975 21.2098 35.8908 22.7511 36.5071C24.1924 37.0812 25.2646 38.2624 25.7314 39.6666C26.2412 41.1997 26.0593 43.3584 25.1433 44.6753ZM62.6181 40.3964C62.4668 39.7141 62.218 39.2411 61.8749 38.9775C61.5285 38.7101 61.0913 38.5783 60.5566 38.5783C60.0387 38.5783 59.6284 38.7063 59.3257 38.9659C59.023 39.2218 58.7943 39.6986 58.6362 40.3964H62.6181ZM66.7549 42.4198H58.678C58.678 42.7423 58.7352 43.0254 58.8495 43.272C59.197 44.0221 59.8259 44.5284 60.7261 44.5284C61.3873 44.5284 62.1498 44.2704 62.292 43.5742H66.4286C66.2716 44.562 65.6212 45.4335 64.7841 46.0062C63.9395 46.5822 62.9023 46.9031 61.8783 47.0164C60.5649 47.1728 59.0454 47.1303 57.8291 46.638C56.414 46.0679 55.3574 45.0139 54.7821 43.6537C54.2535 42.328 54.2464 40.8575 54.7586 39.5211C55.2899 38.1348 56.3838 37.0626 57.8022 36.494C59.5272 35.8056 61.9423 35.8523 63.6103 36.6585C65.0903 37.3712 66.0998 38.5863 66.5194 40.1199C66.7265 40.8913 66.8052 41.6304 66.7549 42.4198H66.7549ZM78.3411 44.6952C77.5464 46.1637 76.0787 47.081 74.3095 47.081C73.039 47.081 72.2032 46.6806 71.3445 45.8263V50.3187H67.0354V36.3584H70.8509V37.9149C71.6785 36.3163 73.7269 35.7355 75.3796 36.1387C77.1801 36.5741 78.3928 38.0416 78.8244 39.6911C79.228 41.2242 79.088 43.3256 78.3411 44.6952ZM74.8312 41.3008C74.8312 40.8596 74.6803 40.3779 74.3747 39.8591C74.0692 39.3404 73.6265 39.081 73.0498 39.081C72.4767 39.081 72.0339 39.3235 71.725 39.8119C71.416 40.297 71.2615 40.7922 71.2615 41.3008C71.2615 41.9241 71.3817 42.5068 71.622 43.0458C71.8656 43.5847 72.3394 43.8542 73.0498 43.8542C73.7432 43.8542 74.2101 43.5746 74.4606 43.0155C74.6874 42.4758 74.8312 41.8857 74.8312 41.3008ZM88.316 46.6427C86.6416 47.2111 84.3658 47.2984 82.6988 46.626C81.6491 46.2026 80.7187 45.4882 80.131 44.5383C79.5567 43.626 79.2583 42.5749 79.2583 41.505C79.2583 40.7924 79.4129 40.0922 79.6728 39.4273C80.275 37.9323 81.3165 37.0744 82.82 36.4801C84.5408 35.7999 87.0968 35.8247 88.7306 36.6866C90.2876 37.508 91.1028 38.6392 91.3168 40.3063H86.9075C86.8299 39.7935 86.6807 39.4766 86.4627 39.2061C85.8452 38.4396 84.4473 38.8142 84.0011 39.5705C83.432 40.5356 83.3379 41.9612 83.6978 43.0191C83.9352 43.7164 84.7165 44.3076 85.4755 44.3076C86.5515 44.3076 86.7747 43.6053 87.0558 42.7322H91.3168C91.2722 44.4778 90.1955 46.0045 88.316 46.6427ZM99.1768 42.6714C99.1768 42.4777 99.1588 42.3187 99.1227 42.1976C98.8271 42.3566 98.3655 42.495 97.7381 42.6125C97.2602 42.6972 96.752 42.8007 96.3246 43.0276C95.7189 43.318 95.7516 44.1506 96.2813 44.4869C96.8942 44.8443 97.9222 44.8149 98.4376 44.3141C98.928 43.8609 99.1768 43.3147 99.1768 42.6714H99.1768ZM103.971 46.7625H99.5603L99.3927 45.6605C99.0709 46.0633 98.3526 46.3951 97.6271 46.6659C97.2734 46.7979 96.9099 46.9024 96.5379 46.9689C96.1659 47.0322 95.7705 47.0655 95.3583 47.0655C94.6143 47.0655 93.9339 46.9391 93.3174 46.686C92.7007 46.4329 92.2349 46.0366 91.9132 45.5039C91.625 44.9179 91.4809 44.3252 91.4809 43.7192C91.4809 42.9533 91.8488 42.3218 92.3546 41.7557C92.6429 41.4329 92.9253 41.2514 93.4346 41.0618C93.6759 40.9719 93.9145 40.8939 94.1485 40.8287C94.3802 40.7641 94.5999 40.7026 94.8087 40.6721L96.615 40.4091C97.3816 40.2975 98.1232 40.2012 98.451 40.0962C98.6526 40.0314 98.8904 39.8202 99.0078 39.687C99.125 39.5539 99.1078 39.414 99.1078 39.2708C99.1078 39.0743 99.0106 38.9112 98.8129 38.7781C98.6152 38.6449 98.3336 38.5783 97.9684 38.5783C97.5294 38.5783 96.9836 38.6416 96.7189 38.7681C96.4541 38.8945 96.2832 39.1476 96.2028 39.5238H92.1171C92.2545 38.8413 92.2296 38.4428 92.4293 38.026C92.6283 37.6104 92.9421 37.2536 93.371 36.9572C93.7999 36.661 94.389 36.4306 95.1438 36.278C95.5083 36.2043 95.9416 36.1529 96.4341 36.1148C96.9301 36.0764 97.4797 36.0549 98.0895 36.0549C99.5741 36.0549 100.686 36.2261 101.427 36.5676C102.167 36.9086 102.65 37.1834 102.875 37.6959C103.099 38.2056 103.25 38.8679 103.321 39.6804V45.1809C103.321 45.747 103.539 46.1665 103.971 46.4396V46.7625V46.7625ZM115.957 46.7625H111.702V42.874H108.551V46.7625H104.337L104.333 36.5206L104.337 36.364H108.551V39.8482H111.654V36.364H115.957L115.953 46.5761L115.957 46.7625ZM127.779 39.4287H124.116V46.7625H119.848V39.4287H116.153V36.364H127.779V39.4287ZM141.6 43.4349C141.6 44.3483 141.151 45.1507 140.43 45.7231C139.481 46.4837 138.169 46.7625 136.965 46.7625H130.378V39.4287H127.918V36.364H134.485V40.0136H136.731C137.982 40.0136 139.368 40.2507 140.359 41.0469C141.105 41.6454 141.6 42.4825 141.6 43.4349ZM137.358 43.4455C137.358 42.7885 136.983 42.5129 136.338 42.4381C136.207 42.4381 135.948 42.4275 135.565 42.4115C135.181 42.3949 134.667 42.3883 134.485 42.3883V44.3966L135.552 44.4165C135.843 44.4225 136.082 44.4106 136.268 44.3966C136.923 44.3495 137.358 44.1769 137.358 43.4455V43.4455ZM34.2689 46.7623H32.2009L29.9412 39.8159L30.2902 42.5386V46.7623H26.5167V36.304H31.3562L33.2349 42.081L35.1136 36.304H39.9533V46.7623H36.1796V42.5386L36.5287 39.8159L34.2689 46.7623ZM48.4003 46.7623H46.3322L44.0725 39.8159L44.4215 42.5386V46.7623H40.6479V36.304H45.4875L47.3663 42.081L49.245 36.304H54.0845V46.7623H50.311V42.5386L50.66 39.8159L48.4003 46.7623Z" fill="#0F5576"/>
<path d="M82.1379 12.1684C82.1394 6.4237 77.2443 1.76305 71.2131 1.76305C65.2215 1.76376 60.289 6.46142 60.2897 12.1677C60.2897 17.8746 65.2238 22.5694 71.2139 22.5709C77.2092 22.573 82.1357 17.876 82.1379 12.1684ZM58.4385 12.1677C58.4385 5.49057 64.2014 0 71.2131 0C78.2584 0 83.9877 5.45427 83.9892 12.1648C83.9907 18.8405 78.2233 24.3318 71.2153 24.3339C64.2036 24.336 58.4385 18.8448 58.4385 12.1677Z" fill="#0F5576"/>
<path fill-rule="evenodd" clip-rule="evenodd" d="M70.839 3.2273C71.1747 6.20889 73.6947 4.51489 74.7821 3.68212C75.1792 3.38247 75.6663 2.83085 75.9308 2.67568C76.1037 2.57888 76.3573 2.64723 76.4594 2.85007C76.5609 3.14972 76.6023 3.52767 76.4094 4.07929C76.1751 4.72771 75.7794 5.35691 75.5559 5.69571C74.9765 6.58613 74.4072 7.36979 73.7264 8.1926C72.6188 9.50937 71.216 10.5542 70.0576 11.8418C68.2789 13.8163 67.2729 16.8655 67.8214 19.4399C67.9642 20.0976 68.2894 20.9304 68.95 21.2784C72.8729 23.3504 75.7487 14.4647 74.4177 11.8418C74.2348 11.503 73.869 10.893 73.3811 10.9806C70.9215 11.4162 69.7832 19.0236 71.3175 19.5752C71.243 20.4756 69.7429 21.0272 69.3057 19.3624C69.1629 18.7816 69.1329 18.1716 69.1535 17.5716C69.2281 15.0355 71.359 11.2027 73.7976 10.0318C74.9059 9.48943 76.4709 9.4994 77.0904 10.7094C79.2757 15.0163 73.3708 22.9725 68.2589 22.2464C65.7896 21.8884 64.895 19.6335 65.0878 17.494C65.24 15.7331 66.0131 14.0583 67.0803 12.6255C69.2349 9.7414 72.6287 8.89938 74.2752 6.63454C74.2752 6.63454 74.3378 6.5477 74.3497 6.4993C74.3748 6.42812 74.287 6.34413 74.1762 6.42812C73.9939 6.58329 73.0485 7.04807 72.3878 7.12494C71.0567 7.27014 70.3348 5.5377 70.1113 4.57966C70.0612 4.36684 70.0486 4.20242 69.8369 4.47289C69.1867 5.27648 68.6883 9.76773 68.0276 10.019L65.4462 10.997C65.4462 10.997 65.3348 11.0468 65.2941 10.9002C64.9997 9.85457 67.6624 6.22527 68.4045 5.0053C68.5054 4.85084 69.1152 3.71842 69.2273 3.63087C69.4202 3.47642 70.5996 3.18602 70.8432 3.22445L70.839 3.2273Z" fill="#0F5576"/>
</svg>
