<svg width="50" height="27" viewBox="0 0 50 27" xmlns="http://www.w3.org/2000/svg"><title>wsj</title><path d="M45.446 20.046c0 4.017-2.027 6.12-5.143 6.12-2.816 0-4.467-2.29-4.43-4.806.038-1.952 1.464-2.928 2.628-2.778.827.113 1.653.713 1.54 2.027-.112 1.876-2.14 1.8-2.214 2.965-.075.713.863 1.764 2.064 1.764 2.102 0 2.102-2.666 2.102-4.693V2.44c0-1.05-.337-1.352-1.163-1.54l-.94-.225V.15h7.396v.525L46.46.9c-.75.188-1.014.526-1.014 1.577v17.57zm-16.254 6.12c-2.177 0-2.928-1.502-3.642-1.502-.412 0-.9.112-1.276 1.35h-.45v-8.558h.563c.45 4.843 2.252 7.883 4.767 7.883 1.69 0 2.853-1.54 2.853-4.318 0-5.856-8.37-8.37-8.37-14.866C23.636 2.666 25.4 0 28.59 0c2.066 0 2.48 1.35 3.342 1.35.488 0 .826-.374 1.014-1.2h.45v8.56h-.563c-.45-4.318-1.577-7.884-4.28-7.884-1.876 0-2.214 1.877-2.214 3.153 0 5.592 8.37 7.507 8.37 15.315 0 3.98-2.177 6.87-5.518 6.87zM2.84 3.603c-.488-2.215-.6-2.59-1.314-2.778L1 .676V.15h6.645v.526L7.08.788c-1.2.263-1.087 1.464-.75 3.078l2.966 14.716L11.474 6.87l-.79-4.017c-.3-1.427-.412-1.877-1.162-2.065L9.034.675V.15h6.87v.525l-.827.15c-1.238.226-1.05 1.577-.75 3.04l2.853 14.717 2.815-13.928c.526-2.89.263-3.603-.863-3.83l-.79-.15V.15h4.77v.525l-.527.188c-.75.263-.938.976-1.464 3.454l-4.578 21.848h-.977L12.037 9.122l-3.19 17.043h-1.24L2.84 3.605z" fill="#0F5576" fill-rule="evenodd"/></svg>