<svg width="60" height="60" viewBox="0 0 60 60" fill="none" xmlns="http://www.w3.org/2000/svg">
<path d="M32.7844 49.4531C32.5781 49.4531 32.3719 49.3781 32.2031 49.2469C31.9969 49.0875 31.875 48.8437 31.8469 48.5906C31.7719 47.6156 30.975 46.875 30 46.875C29.025 46.875 28.2281 47.6156 28.1437 48.6C28.125 48.8625 27.9937 49.0969 27.7875 49.2562C27.5812 49.4156 27.3187 49.4906 27.0656 49.4531C23.9156 48.9844 20.8875 47.7281 18.3281 45.8437C18.1125 45.6844 17.9719 45.4406 17.9531 45.1687C17.9344 44.8969 18.0281 44.6344 18.2156 44.4375C18.5625 44.0719 18.75 43.6125 18.75 43.125C18.75 42.0937 17.9062 41.25 16.875 41.25C16.3875 41.25 15.9281 41.4375 15.5719 41.7844C15.375 41.9719 15.1125 42.0656 14.8406 42.0469C14.5687 42.0281 14.325 41.8875 14.1656 41.6719C12.2719 39.1125 11.025 36.0844 10.5562 32.9344C10.5187 32.6812 10.5844 32.4187 10.7531 32.2125C10.9125 32.0062 11.1562 31.8844 11.4094 31.8562C12.3844 31.7719 13.125 30.975 13.125 30C13.125 29.025 12.3844 28.2281 11.4 28.1437C11.1375 28.125 10.9031 27.9937 10.7437 27.7875C10.5844 27.5812 10.5094 27.3187 10.5469 27.0656C11.0156 23.9156 12.2625 20.8875 14.1562 18.3281C14.3156 18.1125 14.5594 17.9719 14.8312 17.9531C15.1031 17.925 15.3656 18.0281 15.5625 18.2156C15.9281 18.5625 16.3875 18.75 16.875 18.75C17.9062 18.75 18.75 17.9062 18.75 16.875C18.75 16.3875 18.5625 15.9281 18.2156 15.5719C18.0281 15.375 17.9344 15.1125 17.9531 14.8406C17.9719 14.5687 18.1125 14.325 18.3281 14.1656C20.8969 12.2719 23.9156 11.025 27.0656 10.5562C27.3187 10.5187 27.5812 10.5844 27.7875 10.7531C27.9937 10.9125 28.1156 11.1562 28.1437 11.4094C28.2281 12.3844 29.025 13.125 30 13.125C30.975 13.125 31.7719 12.3844 31.8562 11.4C31.875 11.1375 32.0062 10.9031 32.2125 10.7437C32.4187 10.5844 32.6812 10.5094 32.9344 10.5469C36.0844 11.0156 39.1125 12.2719 41.6719 14.1562C41.8875 14.3156 42.0281 14.5594 42.0469 14.8312C42.0656 15.1031 41.9719 15.3656 41.7844 15.5625C41.4375 15.9281 41.25 16.3875 41.25 16.875C41.25 17.9062 42.0937 18.75 43.125 18.75C43.6125 18.75 44.0719 18.5625 44.4281 18.2156C44.625 18.0281 44.8781 17.925 45.1594 17.9531C45.4312 17.9719 45.675 18.1125 45.8344 18.3281C47.7281 20.8875 48.975 23.9156 49.4437 27.0656C49.4812 27.3187 49.4156 27.5812 49.2469 27.7875C49.0875 27.9937 48.8437 28.1156 48.5906 28.1437C47.6156 28.2281 46.875 29.025 46.875 30C46.875 30.975 47.6156 31.7719 48.6 31.8562C48.8625 31.875 49.0969 32.0062 49.2562 32.2125C49.4156 32.4187 49.4906 32.6812 49.4531 32.9344C48.9844 36.0844 47.7375 39.1031 45.8437 41.6719C45.6844 41.8875 45.4406 42.0281 45.1687 42.0469C44.8969 42.075 44.6344 41.9719 44.4375 41.7844C44.0719 41.4375 43.6125 41.25 43.125 41.25C42.0937 41.25 41.25 42.0937 41.25 43.125C41.25 43.6125 41.4375 44.0719 41.7844 44.4281C41.9719 44.625 42.0656 44.8875 42.0469 45.1594C42.0281 45.4312 41.8875 45.675 41.6719 45.8344C39.1031 47.7281 36.0844 48.975 32.9344 49.4437C32.8781 49.4531 32.8312 49.4531 32.7844 49.4531ZM30 45C31.5844 45 32.9625 46.0125 33.4969 47.4469C35.7375 46.9969 37.8844 46.1156 39.7969 44.85C39.525 44.325 39.375 43.7344 39.375 43.125C39.375 41.0531 41.0531 39.375 43.125 39.375C43.7344 39.375 44.325 39.525 44.85 39.7969C46.1062 37.8937 46.9875 35.7469 47.4375 33.5062C46.0031 32.9812 45 31.6125 45 30C45 28.3875 46.0031 27.0187 47.4469 26.4937C46.9969 24.2531 46.1156 22.1062 44.8594 20.2031C44.325 20.475 43.7344 20.625 43.125 20.625C41.0531 20.625 39.375 18.9469 39.375 16.875C39.375 16.2656 39.525 15.675 39.7969 15.15C37.8844 13.8937 35.7375 13.0031 33.4969 12.5531C32.9625 13.9875 31.5844 15 30 15C28.4156 15 27.0375 13.9875 26.5031 12.5531C24.2625 13.0031 22.1156 13.8844 20.2031 15.15C20.475 15.675 20.625 16.2656 20.625 16.875C20.625 18.9469 18.9469 20.625 16.875 20.625C16.2656 20.625 15.675 20.475 15.15 20.2031C13.8937 22.1062 13.0125 24.2531 12.5625 26.4937C13.9969 27.0187 15 28.3875 15 30C15 31.6125 13.9969 32.9812 12.5531 33.5062C13.0031 35.7469 13.8844 37.8937 15.1406 39.7969C15.675 39.525 16.2656 39.375 16.875 39.375C18.9469 39.375 20.625 41.0531 20.625 43.125C20.625 43.7344 20.475 44.325 20.2031 44.85C22.1156 46.1062 24.2625 46.9969 26.5031 47.4469C27.0375 46.0125 28.4156 45 30 45Z" fill="white"/>
<path d="M30 39.375C24.8344 39.375 20.625 35.1656 20.625 30C20.625 24.8344 24.8344 20.625 30 20.625C35.1656 20.625 39.375 24.8344 39.375 30C39.375 35.1656 35.1656 39.375 30 39.375ZM30 22.5C25.8656 22.5 22.5 25.8656 22.5 30C22.5 34.1344 25.8656 37.5 30 37.5C34.1344 37.5 37.5 34.1344 37.5 30C37.5 25.8656 34.1344 22.5 30 22.5Z" fill="white"/>
<path d="M45.9375 14.0625H44.0625V15.9375H45.9375V14.0625Z" fill="white"/>
<path d="M45.9375 44.0625H44.0625V45.9375H45.9375V44.0625Z" fill="white"/>
<path d="M30.9375 8.4375H29.0625V10.3125H30.9375V8.4375Z" fill="white"/>
<path d="M30.9375 49.6875H29.0625V51.5625H30.9375V49.6875Z" fill="white"/>
<path d="M15.9375 14.0625H14.0625V15.9375H15.9375V14.0625Z" fill="white"/>
<path d="M10.3125 29.0625H8.4375V30.9375H10.3125V29.0625Z" fill="white"/>
<path d="M51.5625 29.0625H49.6875V30.9375H51.5625V29.0625Z" fill="white"/>
<path d="M15.9375 44.0625H14.0625V45.9375H15.9375V44.0625Z" fill="white"/>
<path d="M30 56.25C15.525 56.25 3.75 44.475 3.75 30C3.75 15.525 15.525 3.75 30 3.75C44.475 3.75 56.25 15.525 56.25 30C56.25 44.475 44.475 56.25 30 56.25ZM30 5.625C16.5562 5.625 5.625 16.5562 5.625 30C5.625 43.4437 16.5562 54.375 30 54.375C43.4437 54.375 54.375 43.4437 54.375 30C54.375 16.5562 43.4437 5.625 30 5.625Z" fill="white"/>
<path d="M30 60C13.4531 60 0 46.5469 0 30C0 13.4531 13.4531 0 30 0C46.5469 0 60 13.4531 60 30C60 46.5469 46.5469 60 30 60ZM30 1.875C14.4937 1.875 1.875 14.4937 1.875 30C1.875 45.5063 14.4937 58.125 30 58.125C45.5063 58.125 58.125 45.5063 58.125 30C58.125 14.4937 45.5063 1.875 30 1.875Z" fill="white"/>
</svg>
