<svg width="74" height="60" viewBox="0 0 74 60" fill="none" xmlns="http://www.w3.org/2000/svg">
<g clip-path="url(#clip0_1588_1851)">
<path d="M48.4615 47.3077H25.3846V45H46.1538V2.30769H2.30769V45H6.92308V47.3077H0V0H48.4615V47.3077Z" fill="white"/>
<path d="M43.8462 31.1539H9.23083V33.4616H43.8462V31.1539Z" fill="white"/>
<path d="M43.8462 35.7692H25.3846V38.0769H43.8462V35.7692Z" fill="white"/>
<path d="M30 25.3846C29.8269 25.3846 29.6538 25.35 29.4923 25.2692C29.1 25.0731 28.8461 24.6692 28.8461 24.2308V20.7692H1.15381V18.4615H30C30.6346 18.4615 31.1538 18.9808 31.1538 19.6154V21.8769L38.5038 16.1539L31.1538 10.4308V12.6923C31.1538 13.3269 30.6346 13.8462 30 13.8462H1.15381V11.5385H28.8461V8.07693C28.8461 7.63847 29.1 7.23462 29.4923 7.03847C29.8846 6.84231 30.3577 6.88847 30.7038 7.16539L41.0884 15.2423C41.3769 15.4615 41.5384 15.7962 41.5384 16.1539C41.5384 16.5115 41.3769 16.8462 41.0884 17.0654L30.7038 25.1423C30.5077 25.3039 30.2538 25.3846 30 25.3846Z" fill="white"/>
<path d="M6.92308 40.3846H0V31.1539H6.92308V40.3846ZM2.30769 38.077H4.61539V33.4616H2.30769V38.077Z" fill="white"/>
<path d="M73.8462 42.6923H66.9231V35.7692H73.8462V42.6923ZM69.2308 40.3846H71.5385V38.0769H69.2308V40.3846Z" fill="white"/>
<path d="M16.1538 60C11.7 60 8.0769 56.3769 8.0769 51.923C8.0769 47.4692 11.7 43.8461 16.1538 43.8461C20.6077 43.8461 24.2307 47.4692 24.2307 51.923C24.2307 56.3769 20.6077 60 16.1538 60ZM16.1538 46.1538C12.9692 46.1538 10.3846 48.7384 10.3846 51.923C10.3846 55.1077 12.9692 57.6923 16.1538 57.6923C19.3384 57.6923 21.9231 55.1077 21.9231 51.923C21.9231 48.7384 19.3384 46.1538 16.1538 46.1538Z" fill="white"/>
<path d="M16.1539 54.2308C17.4284 54.2308 18.4616 53.1976 18.4616 51.9231C18.4616 50.6486 17.4284 49.6154 16.1539 49.6154C14.8794 49.6154 13.8462 50.6486 13.8462 51.9231C13.8462 53.1976 14.8794 54.2308 16.1539 54.2308Z" fill="white"/>
<path d="M60 60C55.5462 60 51.9231 56.3769 51.9231 51.923C51.9231 47.4692 55.5462 43.8461 60 43.8461C64.4539 43.8461 68.0769 47.4692 68.0769 51.923C68.0769 56.3769 64.4539 60 60 60ZM60 46.1538C56.8154 46.1538 54.2308 48.7384 54.2308 51.923C54.2308 55.1077 56.8154 57.6923 60 57.6923C63.1846 57.6923 65.7692 55.1077 65.7692 51.923C65.7692 48.7384 63.1846 46.1538 60 46.1538Z" fill="white"/>
<path d="M60 54.2308C61.2745 54.2308 62.3076 53.1976 62.3076 51.9231C62.3076 50.6486 61.2745 49.6154 60 49.6154C58.7255 49.6154 57.6923 50.6486 57.6923 51.9231C57.6923 53.1976 58.7255 54.2308 60 54.2308Z" fill="white"/>
<path d="M73.8461 47.3077H69.2307V45H71.5384V32.6423L61.673 17.3077H48.4615V45H50.7692V47.3077H46.1538V15H62.9423L73.8461 31.9731V47.3077Z" fill="white"/>
<path d="M72.6923 31.1539H51.9231V33.4616H72.6923V31.1539Z" fill="white"/>
<path d="M53.0769 42.6923H50.7692V19.6154H64.6153V21.9231H53.0769V42.6923Z" fill="white"/>
<path d="M57.6923 35.7692H55.3846V38.0769H57.6923V35.7692Z" fill="white"/>
<path d="M73.8462 57.6922H0V59.9999H73.8462V57.6922Z" fill="white"/>
<path d="M24.2308 23.0769H21.9231V25.3846H24.2308V23.0769Z" fill="white"/>
<path d="M19.6154 23.0769H17.3077V25.3846H19.6154V23.0769Z" fill="white"/>
<path d="M15 23.0769H12.6923V25.3846H15V23.0769Z" fill="white"/>
</g>
<defs>
<clipPath id="clip0_1588_1851">
<rect width="73.8462" height="60" fill="white"/>
</clipPath>
</defs>
</svg>
