<svg width="61" height="60" viewBox="0 0 61 60" fill="none" xmlns="http://www.w3.org/2000/svg">
<path d="M30.45 11.2498C27.3003 11.2498 24.7406 8.72798 24.7406 5.62491C24.7406 2.52183 27.3003 0 30.45 0C33.5996 0 36.1593 2.52183 36.1593 5.62491C36.1593 8.72798 33.5996 11.2498 30.45 11.2498ZM30.45 1.87497C28.347 1.87497 26.6437 3.55307 26.6437 5.62491C26.6437 7.69675 28.347 9.37485 30.45 9.37485C32.5529 9.37485 34.2562 7.69675 34.2562 5.62491C34.2562 3.55307 32.5529 1.87497 30.45 1.87497Z" fill="white"/>
<path d="M5.70936 11.2498C2.5597 11.2498 0 8.72798 0 5.62491C0 2.52183 2.5597 0 5.70936 0C8.85902 0 11.4187 2.52183 11.4187 5.62491C11.4187 8.72798 8.85902 11.2498 5.70936 11.2498ZM5.70936 1.87497C3.60641 1.87497 1.90312 3.55307 1.90312 5.62491C1.90312 7.69675 3.60641 9.37485 5.70936 9.37485C7.81231 9.37485 9.5156 7.69675 9.5156 5.62491C9.5156 3.55307 7.81231 1.87497 5.70936 1.87497Z" fill="white"/>
<path d="M41.8687 27.1873H39.9656V19.6871C39.9656 17.0995 37.8341 14.9994 35.2078 14.9994H25.6922C23.0659 14.9994 20.9344 17.0995 20.9344 19.6871V27.1873H19.0312V19.6871C19.0312 16.0682 22.0191 13.1244 25.6922 13.1244H35.2078C38.8808 13.1244 41.8687 16.0682 41.8687 19.6871V27.1873Z" fill="white"/>
<path d="M49.4811 36.5625H11.4187V29.0618H49.4811V36.5625ZM13.3218 34.6873H47.578V30.937H13.3218V34.6873Z" fill="white"/>
<path d="M20.9343 60L19.9828 59.0625C19.9828 59.2406 19.9257 59.4281 19.821 59.5781C19.6497 59.8406 19.3452 60 19.0312 60L19.9828 59.0625L19.0217 58.125L19.0312 59.0625L18.1558 59.4187L11.7327 44.0623H5.70936C2.5597 44.0623 0 41.5404 0 38.4372V16.8744C0 14.8025 1.70329 13.1244 3.80624 13.1244H5.70936C9.90574 13.1244 13.3218 16.4901 13.3218 20.6245V27.1871H11.4187V20.6245C11.4187 17.5213 8.85902 14.9994 5.70936 14.9994H3.80624C2.75952 14.9994 1.90312 15.8432 1.90312 16.8744V38.4372C1.90312 40.5091 3.60641 42.1873 5.70936 42.1873H12.3703C12.7604 42.1873 13.103 42.4123 13.2457 42.7685L19.9066 58.7062C19.9637 58.8187 19.9828 58.9406 19.9828 59.0625L20.9343 58.125C23.6177 58.125 23.7795 55.7812 23.789 55.3031V38.4372H25.6921V55.3124C25.6921 56.9343 24.7025 60 20.9343 60Z" fill="white"/>
<path d="M55.1904 11.2498C52.0408 11.2498 49.4811 8.72798 49.4811 5.62491C49.4811 2.52183 52.0408 0 55.1904 0C58.3401 0 60.8998 2.52183 60.8998 5.62491C60.8998 8.72798 58.3401 11.2498 55.1904 11.2498ZM55.1904 1.87497C53.0875 1.87497 51.3842 3.55307 51.3842 5.62491C51.3842 7.69675 53.0875 9.37485 55.1904 9.37485C57.2934 9.37485 58.9967 7.69675 58.9967 5.62491C58.9967 3.55307 57.2934 1.87497 55.1904 1.87497Z" fill="white"/>
<path d="M41.8687 60H39.9656C36.1974 60 35.2078 56.9343 35.2078 55.3124V38.4372H37.1109V55.3124C37.1204 55.7812 37.2822 58.125 39.9656 58.125H41.2311L47.6542 42.7685C47.7969 42.4123 48.1395 42.1873 48.5296 42.1873H55.1905C57.2935 42.1873 58.9968 40.5091 58.9968 38.4372V16.8744C58.9968 15.8432 58.1404 14.9994 57.0936 14.9994H55.1905C52.0409 14.9994 49.4812 17.5213 49.4812 20.6245V27.1871H47.578V20.6245C47.578 16.4901 50.9941 13.1244 55.1905 13.1244H57.0936C59.1966 13.1244 60.8999 14.8025 60.8999 16.8744V38.4372C60.8999 41.5404 58.3402 44.0623 55.1905 44.0623H49.1671L42.7441 59.4187C42.6014 59.775 42.2588 60 41.8687 60Z" fill="white"/>
<path d="M31.4014 38.4377H29.4983V60H31.4014V38.4377Z" fill="white"/>
<path d="M31.4014 16.8747H29.4983V18.7493H31.4014V16.8747Z" fill="white"/>
<path d="M31.4014 20.6251H29.4983V22.4996H31.4014V20.6251Z" fill="white"/>
</svg>
