<svg width="80" height="60" viewBox="0 0 80 60" fill="none" xmlns="http://www.w3.org/2000/svg">
<g clip-path="url(#clip0_1588_1361)">
<path d="M51.25 50H26.25V52.5H51.25V50Z" fill="white"/>
<path d="M73.75 52.4988H71.25V49.9988H73.45L77.5 47.9738V41.7613L75.65 39.9113L53.55 36.2238C53.3625 36.1988 53.1875 36.1238 53.0375 36.0113L40.85 27.4988H26.5125L4.99998 37.0613V43.7488C4.99998 44.4363 4.43748 44.9988 3.74998 44.9988H2.98748L4.64998 49.9988H6.24998V52.4988H3.74998C3.21248 52.4988 2.73748 52.1488 2.56248 51.6488L0.0624826 44.1488C-0.0625174 43.7738 -1.74232e-05 43.3488 0.237483 43.0238C0.474983 42.6863 0.849983 42.4988 1.24998 42.4988H2.49998V36.2488C2.49998 35.7488 2.78748 35.3113 3.23748 35.1113L25.7375 25.1113C25.9 25.0363 26.075 24.9988 26.25 24.9988H41.25C41.5125 24.9988 41.7625 25.0738 41.9625 25.2238L54.225 33.8113L76.45 37.5113C76.7125 37.5488 76.95 37.6738 77.125 37.8613L79.625 40.3613C79.8625 40.5988 80 40.9113 80 41.2488V48.7488C80 49.2238 79.7375 49.6488 79.3125 49.8613L74.3125 52.3613C74.1375 52.4488 73.95 52.4988 73.75 52.4988Z" fill="white"/>
<path d="M48.75 45H31.25C30.8375 45 30.4375 44.7875 30.2125 44.4375L25.2125 36.9375C25.075 36.7375 25 36.5 25 36.25V26.25H27.5V35.875L31.925 42.5H48.025L52.6625 34.375L54.8375 35.6125L49.8375 44.3625C49.6125 44.7625 49.2 45 48.75 45Z" fill="white"/>
<path d="M53.5875 36.2375L34.8376 33.7375C34.4626 33.6875 34.125 33.4625 33.925 33.1375L30.175 26.8875L32.3126 25.6L35.7501 31.3375L53.9 33.7625L53.5875 36.2375Z" fill="white"/>
<path d="M78.75 40H56.25V42.5H78.75V40Z" fill="white"/>
<path d="M8.75 42.5H3.75V45H8.75V42.5Z" fill="white"/>
<path d="M37.5 37.5H35V40H37.5V37.5Z" fill="white"/>
<path d="M21.25 40H18.75V37.5H3.75V35H20C20.6875 35 21.25 35.5625 21.25 36.25V40Z" fill="white"/>
<path d="M16.25 36.25H13.75V40H16.25V36.25Z" fill="white"/>
<path d="M80 57.5H0V60H80V57.5Z" fill="white"/>
<path d="M61.25 60C57.1125 60 53.75 56.6375 53.75 52.5C53.75 48.3625 57.1125 45 61.25 45C65.3875 45 68.75 48.3625 68.75 52.5C68.75 56.6375 65.3875 60 61.25 60ZM61.25 47.5C58.4875 47.5 56.25 49.7375 56.25 52.5C56.25 55.2625 58.4875 57.5 61.25 57.5C64.0125 57.5 66.25 55.2625 66.25 52.5C66.25 49.7375 64.0125 47.5 61.25 47.5Z" fill="white"/>
<path d="M16.25 60C12.1125 60 8.75 56.6375 8.75 52.5C8.75 48.3625 12.1125 45 16.25 45C20.3875 45 23.75 48.3625 23.75 52.5C23.75 56.6375 20.3875 60 16.25 60ZM16.25 47.5C13.4875 47.5 11.25 49.7375 11.25 52.5C11.25 55.2625 13.4875 57.5 16.25 57.5C19.0125 57.5 21.25 55.2625 21.25 52.5C21.25 49.7375 19.0125 47.5 16.25 47.5Z" fill="white"/>
<path d="M7.5 35H5V26.25C5 25.875 5.1625 25.525 5.45 25.2875C5.7375 25.05 6.1125 24.95 6.475 25.0125L20.225 27.5125L19.775 29.975L7.5 27.75V35Z" fill="white"/>
<path d="M40 20C41.3807 20 42.5 18.8807 42.5 17.5C42.5 16.1193 41.3807 15 40 15C38.6193 15 37.5 16.1193 37.5 17.5C37.5 18.8807 38.6193 20 40 20Z" fill="white"/>
<path d="M43.5375 13.9625C41.65 12.075 38.35 12.0625 36.4625 13.9625L34.7 12.2C36.1125 10.775 38 10 40 10C42 10 43.8875 10.775 45.3125 12.2L43.5375 13.9625Z" fill="white"/>
<path d="M32.9251 10.425L31.1626 8.6625C33.5251 6.3 36.6626 5 40.0001 5C43.3376 5 46.4751 6.3 48.8376 8.6625L47.0751 10.425C45.1876 8.5375 42.6751 7.5 40.0001 7.5C37.3251 7.5 34.8126 8.5375 32.9251 10.425Z" fill="white"/>
<path d="M50.6125 6.9C47.775 4.0625 44.0125 2.5 40 2.5C35.9875 2.5 32.225 4.0625 29.3875 6.8875L27.625 5.125C30.925 1.825 35.325 0 40 0C44.675 0 49.075 1.825 52.375 5.125L50.6125 6.9Z" fill="white"/>
</g>
<defs>
<clipPath id="clip0_1588_1361">
<rect width="80" height="60" fill="white"/>
</clipPath>
</defs>
</svg>
