<svg width="60" height="60" viewBox="0 0 60 60" fill="none" xmlns="http://www.w3.org/2000/svg">
<path d="M51.5625 34.6875H39.375V32.8125H51.5625C54.3 32.8125 57.1312 31.1062 58.125 30.45V29.5594C57.1312 28.8938 54.3 27.1875 51.5625 27.1875H11.25C10.9968 27.1875 10.7625 27.0844 10.5843 26.9156L6.17808 22.5H4.93121L7.31246 32.8125H17.8125V34.6875H6.56246C6.12183 34.6875 5.74683 34.3875 5.65308 33.9656L2.84058 21.7781C2.77496 21.4969 2.84058 21.2062 3.01871 20.9812C3.19683 20.7562 3.46871 20.625 3.74996 20.625H6.56246C6.81558 20.625 7.04996 20.7281 7.22808 20.8969L11.6343 25.3125H51.5625C55.575 25.3125 59.4656 28.1906 59.625 28.3125C59.8593 28.4906 60 28.7625 60 29.0625V30.9375C60 31.2281 59.8593 31.5094 59.625 31.6875C59.4656 31.8094 55.575 34.6875 51.5625 34.6875Z" fill="white"/>
<path d="M40.3125 27.1875H25.3125C25.0594 27.1875 24.825 27.0844 24.6469 26.9156L15.2719 17.5406C15 17.2687 14.925 16.8656 15.0657 16.5188C15.2157 16.1625 15.5625 15.9375 15.9375 15.9375H23.4375C23.5969 15.9375 23.7563 15.975 23.8969 16.0594L40.7719 25.4344C41.1469 25.6406 41.3344 26.0719 41.2219 26.4844C41.1094 26.8969 40.7438 27.1875 40.3125 27.1875ZM25.6969 25.3125H36.6938L23.1938 17.8125H18.1969L25.6969 25.3125Z" fill="white"/>
<path d="M23.4375 40.3125H15.9375C15.5625 40.3125 15.2156 40.0875 15.075 39.7313C14.925 39.3844 15.0093 38.9813 15.2812 38.7094L24.6562 29.3344C24.825 29.1656 25.0593 29.0625 25.3125 29.0625H40.3125C40.7437 29.0625 41.1093 29.3531 41.2218 29.7656C41.325 30.1781 41.1468 30.6094 40.7718 30.8156L23.8968 40.1906C23.7562 40.275 23.5968 40.3125 23.4375 40.3125ZM18.1968 38.4375H23.1937L36.6937 30.9375H25.6968L18.1968 38.4375Z" fill="white"/>
<path d="M48.75 29.0625H46.875V30.9375H48.75V29.0625Z" fill="white"/>
<path d="M45 29.0625H43.125V30.9375H45V29.0625Z" fill="white"/>
<path d="M20.625 29.0625H18.75V30.9375H20.625V29.0625Z" fill="white"/>
<path d="M16.875 29.0625H15V30.9375H16.875V29.0625Z" fill="white"/>
<path d="M13.125 29.0625H11.25V30.9375H13.125V29.0625Z" fill="white"/>
<path d="M13.125 38.4375H5.625V40.3125H13.125V38.4375Z" fill="white"/>
<path d="M3.75 38.4375H0V40.3125H3.75V38.4375Z" fill="white"/>
<path d="M13.125 15.9375H9.375V17.8125H13.125V15.9375Z" fill="white"/>
<path d="M7.5 15.9375H0V17.8125H7.5V15.9375Z" fill="white"/>
<path d="M53.4375 21.5625H51.5625V20.625C51.5625 16.4906 48.1969 13.125 44.0625 13.125H41.25L42.375 11.625C42.8625 10.9688 43.125 10.1906 43.125 9.375C43.125 7.30312 41.4469 5.625 39.375 5.625C38.5594 5.625 37.7812 5.8875 37.125 6.375L36.3937 6.92812L35.8219 6.20625C33.5531 3.32812 30.6469 1.875 27.1875 1.875C21.4969 1.875 16.875 6.49687 16.875 12.1875H15C15 5.46562 20.4656 0 27.1875 0C30.9187 0 34.2094 1.51875 36.7594 4.39687C37.5562 3.975 38.4469 3.75 39.375 3.75C42.4781 3.75 45 6.27187 45 9.375C45 10.0312 44.8875 10.6688 44.6719 11.2688C49.5563 11.5875 53.4375 15.6656 53.4375 20.625V21.5625Z" fill="white"/>
<path d="M30.8813 45.3187L29.1188 44.6812C29.7938 42.8062 32.1469 38.4375 39.375 38.4375C43.1813 38.4375 46.7531 39.9375 49.4156 42.6562L48.075 43.9688C45.7688 41.6156 42.675 40.3125 39.375 40.3125C33.5531 40.3125 31.5563 43.4437 30.8813 45.3187Z" fill="white"/>
<path d="M17.8125 56.25H15.9375C15.9375 51.0844 20.1469 46.875 25.3125 46.875C27.6188 46.875 29.8406 47.7187 31.5656 49.2656L30.3188 50.6625C28.9406 49.425 27.1594 48.75 25.3125 48.75C21.1781 48.75 17.8125 52.1156 17.8125 56.25Z" fill="white"/>
<path d="M52.5 56.25V54.375C55.6031 54.375 58.125 51.8531 58.125 48.75C58.125 45.6469 55.6031 43.125 52.5 43.125C49.3969 43.125 46.875 45.6469 46.875 48.75H45C45 44.6156 48.3656 41.25 52.5 41.25C56.6344 41.25 60 44.6156 60 48.75C60 52.8844 56.6344 56.25 52.5 56.25Z" fill="white"/>
<path d="M52.5 54.375H39.375V56.25H52.5V54.375Z" fill="white"/>
<path d="M37.5 54.375H33.75V56.25H37.5V54.375Z" fill="white"/>
<path d="M9.375 58.125H5.625V60H9.375V58.125Z" fill="white"/>
<path d="M5.625 60C2.52188 60 0 57.4781 0 54.375C0 51.4969 2.175 49.1156 4.96875 48.7875C6.23438 45.8531 9.3 44.0625 13.125 44.0625C17.2781 44.0625 20.625 47.1375 20.625 49.6875H18.75C18.75 48.375 16.4344 45.9375 13.125 45.9375C9.88125 45.9375 7.35 47.4844 6.51562 49.9875L6.3 50.625H5.625C3.55312 50.625 1.875 52.3031 1.875 54.375C1.875 56.4469 3.55312 58.125 5.625 58.125V60Z" fill="white"/>
</svg>
